<svg xmlns="http://www.w3.org/2000/svg" width="263" height="199" fill="none" fill-rule="evenodd"><path d="M94.745 28.92c23.96 2.063 43.928 13.87 62.4 28.08 21.08 16.212 48.274 32.192 48.845 57.482.575 25.462-24.023 44.708-46.194 59.923-18.743 12.863-41.835 13.93-65.05 16.422-28.297 3.037-61.21 17.117-82.21-.616-21.104-17.82-9.465-49.383-8.203-75.73C5.505 90 .924 62.7 19.48 45.15 38.164 27.47 68.075 26.625 94.745 28.92z" fill="#f7d471"/><path d="M124.43 72.323c-2.597 1.882-2.183 5.586-1.402 8.277 1.15 3.962 3.444 7.63 6.06 10.792 4.64 5.61 12.516 11.906 19.777 6.983 6.466-4.385 10.544-13.234 11.952-20.688.435-2.303 1.014-5.736-1.03-7.467-3.022-2.56-8.353-2.094-12.002-1.764-2.403.217-4.72.953-7.096.608-5.516-.804-11.656-.076-16.258 3.26z" fill="#3292ff"/><path d="M236.287 101.674c-5.26 6.673-14.203 7.727-22.145 7.66-4.77-.04-9.548-.398-14.224-1.37a62.19 62.19 0 0 1-7.46-2.052c-1.6-.55-4.004-.827-4.7-2.55-1.806-4.55-.477-10.253.267-14.87l1.03-7.06c.235-1.503.348-3.167.978-4.574.738-1.648 1.67-1.32 3.23-.864 2.15.628 4.357.9 6.567 1.226 5.395.824 10.1 2.485 15.004 4.84 4.848 2.328 9.55 4.626 13.874 7.863a34.51 34.51 0 0 1 5.837 5.511c1.36 1.615 3.387 4.137 1.73 6.24zm-22.993 29.637c-.042.718-8.286-1.45-9.37-1.694-7.118-1.597-14.377-3.415-21.096-6.3-6.273-2.692-11.8-5.772-16.735-10.556-2.3-2.23-4.37-4.578-6.35-7.078-.993-1.254-2.35-1.108-3.455-2.17-.996-.954-1.76-1.7-1.448-3.126 2.487.656 7.08 4.776 9.66 2.695 1.47-1.186-.568-2.424-1.5-3.112-1.77-1.292-3.28-2.886-4.688-4.56 2.415.468 4.662 1.373 6.764 2.63.934.56 4.134 2.587 4.88.654.458-1.2-1.712-2.686-2.388-3.344-1.662-1.617-3.455-3.504-4.337-5.677 2.18-.506 4.236 1.18 5.72 2.552 1.65 1.524 3.67 3.124 5.052 4.88.713.906.868 1.976 1.425 2.953.627 1.1 1.63 2.04 2.588 2.854 1.846 1.568 4.005 2.72 6.222 3.676 5.065 2.18 10.493 3.724 15.892 4.806 2.65.532 5.232.776 7.92.866 2.1.07 3.014.695 3.812 2.62 2.158 5.2 1.766 10.94 1.444 16.428zm-61.996-39.7c-1.208 1.13-2.778 1.84-4.04 2.926-1.1.956-2.393 1.976-3.633 2.75-1.324.825-2.313.247-3.505-.5-1.4-.876-3.007-1.23-4.448-2.015-4.983-2.712-11.08-9.357-10.15-15.458.394-2.586 1.73-5.13 4.16-6.304 2.205-1.065 5.4-1.657 7.77-.766 1.33.502 2.283 1.612 3.135 2.702.995 1.27 1.375 1.07 2.388-.155 1.8-2.193 4.8-4.117 7.752-4.07 1.468.023 2.926.333 4.248.942.18.083.28.333.46.417.22.104.583-.112.737-.015.387.245.774 1 .997 1.4.896 1.56 2.5 4.616.883 5.928-.001.001.073 1.776.05 1.978-.114 1.06-.48 1.933-.952 2.902-1.417 2.9-3.508 5.15-5.85 7.34zm2.408 24.618c-1.144.355-2.376-3.23-1.28-3.803 1.047-.546 2.315 3.48 1.28 3.803zm-17.972-4.288c-.396 1.355-.564 2.892-1.533 3.994-.887-1.052-.974-2.995-.114-4.077.5-.618 2.08-1.397 1.647.083zm36.618-23.734c-.007.034 1.377.696.702 1.42-.922.988-.796-.935-.702-1.42zm5.716-11.04c-.016 1.37-2.915 1.04-2.894-.338.025-1.695 2.9-1.113 2.894.338zm-3.46-11.447c.287-1.254 5.33-2.998 5.193-.813-.07 1.096-5.8 3.48-5.193.813zm-51.702 42.526c-.566.68-1.37.948-2.046 1.47-.7.547-1.22 1.256-1.84 1.898-1.704 1.762-3.756 3.2-5.595 4.83-3.38 2.976-6.62 6.175-10.367 8.7-6.698 4.5-14.465 6.976-22.176 9.136-.64.18-2.48.9-3.1.363-.682-.58-.335-2.62-.304-3.393.128-3.164.497-6.366.457-9.526-.017-1.298-.397-3.143.28-4.33.756-1.327 2.867-1.715 4.173-2.214 3.97-1.517 7.792-4.076 11.298-6.446 4.3-2.913 8.663-5.875 13.098-8.595 4.346-2.665 9.14-4.45 13.986-5.97.224.472-2.088 2-2.353 2.203-1.268 1.02-2.647 2.08-3.6 3.427-.666.954-1.35 3.113.5 3.168.892.027 2.2-.836 3.02-1.115 1.336-.46 2.712-.785 4.1-.995-1.2 1.323-5.274 3.7-4.533 5.9.72 2.134 4.877-.357 6.3-.357-.235.745-.825 1.27-1.308 1.85zm-49.124 5.958c-2.663.937-5.392 1.47-8.14 2.074-2.62.576-5.04 1-7.724.673-3.705-.466-7.804-2-8.274-6.2-.557-4.987 2.965-9.57 6-13.15 3.68-4.354 7.814-8.246 12.294-11.77a90.77 90.77 0 0 1 14.364-9.245c3.85-1.993 8.197-3.204 12.267-4.7.774-.284 2.916-1.285 3.64-.456.585.67-.2 1.787-.478 2.4-.52 1.213-.592 2.435-.726 3.737-.6 5.817-1.322 11.633-1.655 17.475-.093 1.628-.256 3.332-.16 4.96.052.902.522 2.05.2 2.933-.6 1.693-3.354 2.814-4.813 3.57-2.612 1.354-5.378 2.365-8.017 3.66-2.898 1.423-5.72 2.96-8.776 4.036zm36.93-37.798c.73-.1 1.826-.3 2.477.174.85.618.627 1.477-.158 1.925-.62.354-2.07.45-2.682.13-1.043-.547-.867-2.06.363-2.228zm4.048 13.47c-.6.984-2.75 1.63-2.56-.207.16-1.572 3.65-1.605 2.56.207zm-.8-27.714c.95.368 2.672.683 2.954 1.904.262 1.137-.815 1.062-1.593.75-.64-.257-3.488-2.672-1.36-2.653zm148.767 43.367c-.554-2.158-.132-4.547-.438-6.758-.297-2.143-.83-4.112-1.597-6.13-1.698-4.47-3.643-8.495-6.394-12.418-5.182-7.4-11.194-13.897-18.454-19.293-7.167-5.328-15.103-9.657-23.5-12.692-8.915-3.218-17.9-4.338-27.3-4.955-2.808-.184-5.612-.402-8.404-.757-2.04-.26-4.598-.578-6.615.047-1.268.393-1.976 1.498-.595 2.223.98.514 2.26.576 3.34.712-1.305 4.15-3.43 8.312-6.798 11.17-3.287 2.8-7.686 3.745-11.835 4.453-2.25.383-4.77.68-7.054.515-1.445-.104-2.572-.773-3.154.715-.405 1.034-.596 2.168-1.13.607-.63-1.845-.94-1.834-2.9-2.358-4.012-1.072-8.612-2.05-12.112-4.367-3.63-2.405-4.894-6.295-6.92-9.917-.5-.895-2.014-2.708-1.24-3.734.707-.938 3.005-.845 4.057-.942 1.1-.103 2.228-.108 3.342-.15.645-.025 1.944.24 1.684-.724-.392-1.453-4.6-1.267-5.632-1.3-1.938-.044-3.904.001-5.832.215-9.564 1.058-19.213 3.013-28.468 5.62C70.82 50.387 53.43 59.7 40.327 73.14c-12.578 12.892-16.563 34.346-8.83 50.808 4.018 8.555 12.74 12.07 21.193 14.908 4.46 1.497 9.18 2.668 13.92 2.385 2.275-.135 4.433-.748 6.65-1.2.967-.202 2.068-.523 3.062-.442.752.062 1.475.752 2.18.386.5-.26.72-1.008 1.33-1.327.735-.382 1.626-.52 2.42-.713 2.206-.536 4.342-1.405 6.498-2.117 2.23-.737 4.334-1.686 6.473-2.645 1.08-.485 3.58-2.455 4.284-1.015.32.657.184 1.925.262 2.615a111.68 111.68 0 0 0 .474 3.609c.387 2.644.85 5.276 1.326 7.905.86 4.744 1.964 9.285 3.813 13.748 1.477 3.563 2.773 7.6 5.514 10.435 1.197 1.238 2.83 1.794 4.546 1.406 1.952-.443 2.924-2.216 4.1-3.65 2.608-3.155 6.913-5.573 10.888-6.443 4.868-1.066 9.6.493 14.257 1.818 4.915 1.4 9.92 2.737 14.743 4.42 4.496 1.57 9.35 3.9 14.226 3.687 4.252-.175 8.223-3.636 11.3-6.274 3.08-2.65 6.93-6.528 11.36-6.215 2.2.155 4.202 1.215 6.344 1.646 2.352.474 4.853.54 7.244.718 2.97.22 9.6-.555 10.707-4.126.163-.53.164-1.62-.536-1.832-.643-.195-.972.557-1.582.523-1.24-.07-2.2-2.233-2.9-3.07-2.75-3.38-6.522-5.9-9.607-8.954-3.485-3.447-6.46-7.624-9.084-11.743 1.186-.3 2.467.203 3.616.447 1.395.295 2.755.653 4.13 1.03 1.516.418 3.053.705 4.592 1.023 1.148.237 2.67.308 3.707.884.905.503 1.4 1.043 2.533 1.2 1.142.148 2.314.023 3.46.015 3.103-.02 6.2-.08 9.287-.407 10.912-1.16 22.48-5.774 29.04-14.934 1.784-2.492 3.222-5.252 4.13-8.18.7-2.286 1.932-5.5 1.314-7.9zM160.38.002c2.868.04 5.556.9 8.228 1.858 2.35.85 4.855 1.636 6.755 3.333 3.417 3.052 4.307 8.105 4.867 12.43.697 5.395-1.624 9.92-3.578 14.802-1.827 4.565-5.18 8.263-9.168 11.08-2.088 1.476-4.397 2.367-6.812 3.148-2.453.794-4.83 1.856-7.454 1.852-3.986-.006-9.1-1.9-10.787-5.826-.772-1.788-.02-2.1 1.527-1.137 2.244 1.4 4.407 2.93 7.03 3.557 5.085 1.213 11.177-.666 15.636-3.146s7.45-6.204 9.45-10.84c2.018-4.68 2.802-9.3 2.023-14.333-.66-4.274-1.97-8.18-5.823-10.5-8.315-5.008-19.518-4.605-26.913 1.904a108.49 108.49 0 0 1-3.062 2.613c-.664.542-1.446 1.2-1.35 2.128.083.802 1.793 3.894-.266 2.944-1.67-.77-2.577-2.276-4.6-2.462-2.152-.198-4.72 1.455-5.363 3.536-.614 1.985.48 4.702 2.196 5.84 1.062.705 2.23.596 3.437.568.6-.014 2.265-.2 2.66.424.7 1.12-1.772 2.296-2.57 2.543-1.942.602-4.237-.107-5.353-1.84-1.135-1.762-1.9-3.802-2.068-5.9-.15-2 .307-4.048 1.494-5.7 1.262-1.757 3.835-3.726 6.142-3.116 1 .265 1.805 1.3 2.788 1.496.62.124.36.212.873-.247.326-.292.634-.83.935-1.175 1.73-1.988 3.443-4.1 5.562-5.7 3.8-2.852 8.848-4.2 13.56-4.133zm-10.505 39.405c.45-1.053 1.274.826 1.518 1.14.484.62 1.62 1.105 1.57 2.022-.08 1.513-2.144 1.233-2.832.443-.783-.9-.7-2.565-.257-3.605zm14.654-7.165c1.113 1.734-.243 3.606-1.123 5.14-.84 1.468-1.622 3.127-2.602 4.506-1.625 2.3-5.162-.187-5.267-2.542-.08-1.802 1.196-1.018 2.015-.345.844.693 1.243.866 2.128.1 1.778-1.524 2.577-4.072 3.807-6 .243-.383.685-.613 1.042-.868zm3.173.558c.287.84-.315 3.06 1.358 2.84.925-.123 1.122-1.45 1.608-2.03 1.635-1.947 1.134 1.735.707 2.657-.942 2.03-3.577 3.43-4.884.854-.486-.958-.484-2.168-.237-3.2.134-.56.918-2.67 1.448-1.122zm-14.923-3.972c-.148.98-1.068 2.928.055 3.628.988.616 2.7-.722 3.47-1.28.8-.58 2.582-2.246 2.652-.174.036 1.057-1.022 2.324-1.776 2.933-1.6 1.298-4.956 2.462-6.143.02-.646-1.33-.292-3.226.135-4.567.346-1.087 1.965-2.923 1.607-.56zm21.118-5.357c.655.76 2.208 2.466 1.363 3.55-.987 1.267-2.6-1.057-3.223-1.704-.57-.583-1.77-2.242-1.258-3.122.846-1.456 2.542.6 3.118 1.277zm-10.3-3.276c2.142 1.395-.674 2.4-1.894 2.525-1.477.15-3.364.25-4.72-.474-1.922-1.027-1.28-2.578.582-2.95 1.9-.38 4.37-.184 6.033.9zm-27.844-4.442c1.575.307 3.374.705 3.9 2.422.554 1.775-.242 2.364-1.85 1.964-1.488-.37-3.712-.742-4.553-2.196-1.006-1.737 1.033-2.475 2.493-2.2zM49.1 53.884c-.53 1.707-3.204 2.84-4.538 3.877-4.666 3.63-9.226 7.4-13.445 11.553-2.2 2.15-3.847 4.752-5.746 7.143-.463.584-1.284 1.9-2.193 1.768-.997-.134-1.198-1.85-1.167-2.6.1-2.557 2.444-5.027 4.1-6.787 1.873-1.98 3.876-3.9 5.922-5.712 2.252-1.984 4.696-3.7 7.187-5.36 2.446-1.64 4.8-3.535 7.334-5.02 1.198-.7 3.188-.966 2.536 1.14zm163.114-16.2c1.948.062 3.85.7 5.686 1.293 4.04 1.305 7.9 3.115 11.684 5.007 6.653 3.316 13.055 7.33 18.924 11.9 1.227.953 2.484 1.726 3.818 2.506.854.5 2.072 1.1 2.4 2.127.835 2.587-3.382-.01-3.98-.38l-.842-.522c-12.487-7.74-24.96-15.258-39.083-19.696-.753-.236-.987-.908-.592-1.573.428-.72 1.262-.673 1.985-.65zM48.523 43.1c-.1.788-.983.967-1.584 1.22-2.246.943-4.547 1.748-6.787 2.706-4.157 1.78-7.974 4.362-12.312 5.713-1 .3-1.138-.7-.872-1.372.296-.76 1.184-1.294 1.826-1.733 1.853-1.27 3.954-2.18 6-3.063 2.04-.875 4.14-1.536 6.23-2.27 1.944-.682 4.2-1.95 6.286-2.044l.1-.004c.664-.033 1.216-.078 1.1.847zM215.75 31.12c-1.985-.56-.1-1.816 1.07-1.727 1.316.1 2.6.72 3.837 1.095 3.818 1.146 7.356 2.4 10.922 4.18.532.266 2.875 1.525 1.325 2.082-1.074.386-3.583-1.27-4.505-1.67-4.052-1.747-8.407-2.767-12.65-3.96zM136.6 35.2c.248-.728 3.318-8.7 2.116-8.93-1.273-.255-2.974 4.365-3.343 5.2-1.364 3.082-2.17 6.4-2.804 9.695-.44 2.302-.828 4.66-.673 7.014.118 1.8.865 2.082 2.096 3.2 0-5.494.835-10.97 2.608-16.17z" fill="#39383b"/></svg>