<svg xmlns="http://www.w3.org/2000/svg" width="232" height="212" fill="none" fill-rule="evenodd"><path d="M108.756 58c47.334-.418 99.114 12.964 113.197 50.724 13.738 36.834-21.22 70.96-60 91.907-31.93 17.246-71.57 13.964-103.067-3.83-35.848-20.25-68.64-51.514-56.2-86.143C15.76 74.283 63.3 58.41 108.756 58z" fill="#f7d471"/><path d="M65.168 103.274c1.134-.773 3.454-3.54 4.67-4.18 2.702-1.422 14.74-4.217 15.132-4.382.596-.252 4.47-1.13 6.725-1.686 5.298-1.304 24.285-9.726 29.3-11.886.64 1.68 5.913 9.103 5.008 9.863-2.98 2.504-8.318 5.622-11.77 7.416-2.79 1.45-5.747 2.652-8.73 3.632-3.388 1.114-5.714 2.308-9.09 3.447-3.322 1.12.648 4.625 2.354 5.35 1.913.813 4.877 1.225 6.833 1.93-3.443 5.35-6.334 11.845-6.912 18.254-.14 1.543-1.315 2.957-3.228 2.495-.987-.238-10.093-1.45-11.578-1.8-9.913-2.26-27.708-14.098-23.125-26.237 1.05.484 3.447-1.56 4.422-2.226z" fill="#3292ff"/><g fill="#39383b"><path d="M70.714 38.87c.74-.062 2.655-1.542 1.65-2.3-1.014-.755-1.742 1.775-1.65 2.3zM32.14 44.543c.194-.034.1-1.093-.196-1.23-.962-.427-1.043 1.178-1.067 1.607-.03.542-.097 2.07 1.072 1.65.664-.238.252-1.623.2-2.03zm56.788 4.95c-.026.946 1.884 2.764 2.596 1.673.6-.916-2.547-3.555-2.596-1.673zM21.4 28.167c.553 1.412 3.3-.512 3.392-1.548.2-2.12-3.42.137-3.392 1.548zm22.836 6.087c1.275-.105 2.952-1.725 4.18-2.33.832-.4 3.095-.898 3.34-1.828.214-.808-3.626.922-3.954 1.075-1.506.706-2.865 1.5-3.568 3.083zm95.692-11.175c1.016-.786 2.25-1.292 3.554-1.26.65.017 2.007.424 2.058-.7.083-1.83-5.66.4-6.56.76l.947 1.2zM76.536 94.354c-.745-1.238-2.086-1.953-3.094-3 .37 1.734-.463 3.276-1.036 4.86l4.13-1.85zm129.44 26.386l1.303-4.095c.537-1.516.804-1.647-.482-2.707l-3.203 6.053c.76.323 1.553.638 2.382.75zm-110.5-99.516c-1.413-1.593-8.038-1.693-7.218 1.823.286 1.228 1.915-.076 2.935-.363 1.013-.284 3.88-.322 4.283-1.46zm-.243 22.557c-.17-.407-.513-1.874-1.02-2-.495-.113-2.446 1.427-2.813 1.66L86 47.13c.683 0 1.303-.243 1.982-.248.806-.007 1.385.324 2.17.135 1.7-.406 3.65-2.278 5.08-3.236zm1.83-36.354c.16-.73 8.44 1.46 9.437 1.86.542.218 3.34 1.672 2.74-.52-.342-1.25-3.576-2.2-4.612-2.542-2.634-.87-5.4-1.488-8.216-1.344-.545.028-4.67.266-2.947 1.924.593.57 2.72.4 3.6.624zm1.813 100.125c1.543.76 3.118 1.34 4.73 1.933.717.264 1.833.955 2.623.78.647-.142.855-1.128 1.195-1.788 1.243-2.414 2.728-4.362 4.57-6.353-.855-.623-5.194 2.127-6.268 2.533l-3.14 1.302c-1 .457-2.945.866-3.7 1.592zm27.32-20.58c2.25-1.017 4.38-2.822 6.225-4.438 2.118-1.855 4.016-3.8 5.567-6.2-.933.048-2.993 3.048-3.016-.218-.012-1.667 2.272-3.308 2.98-4.854-1.763-.996-3.38 4.953-5.403 3.5-1.95-1.4 1.127-6.166 1.72-7.674-1.143-.76-7.657 7.754-8.6 8.843-.6.682-1.984 1.6-2.317 2.385-.198.474-.226 1.976-.13 2.412.2.9 1.2 2.002 1.66 2.85.57 1.074 1.066 2.2 1.315 3.383zm92.97 30.695c-1.945-2.745.064-3.942 1.645-6.22 1.265-1.823 2.428-3.83 3.23-5.867 2.005-5.1 3.814-9.822 4.804-15.207-1.362.622-2.214 3-2.896 4.237-.917 1.677-1.723 3.438-2.742 5.063-1.907 3.04-3.778 6.284-6.204 8.92-1.098 1.194-2.03 2.538-3.297 3.614-.58.492-1.687.895-2.113 1.5-.403.58.047.95-.106 1.645-.157.7-.876 1.47-1.185 2.154-.406.9-.783 1.802-1.236 2.68a6.32 6.32 0 0 0-.762 2.4c-.145 1.025.3 1.13-.594 2.076l6.5 2.87.346-.65c.446-.433.856-1.5 1.1-2.072 1.066-2.387 2.27-4.783 3.5-7.154zM62.524 106.144c-4.606 12.127 11.58 22.338 21.544 24.597 1.38.312 2.727.722 4.1 1.058 1.498.366 2.828.293 4.323.446 1.2.122 1.757 1.04 2.877 1.295 1.873.423 1.758-.985 1.893-2.493.57-6.396 3.832-12.566 7.287-17.902-1.578-.565-3.142-1.18-4.7-1.8-1.333-.53-3.374-2.016-4.807-2.095-1.06-.058-2.675.847-3.704 1.244-1.714.662-3.433 1.225-5.22 1.676-3.124.8-6.6 1.864-9.833 1.946-.932.023-3.5.457-4.16-.12-1.28-1.098.496-2.013 1.567-2.406 6.38-2.336 13.155-3.33 19.554-5.725l9.864-3.824c2.857-1.047 5.848-1.974 8.6-3.262 3.645-1.7 7.306-3.818 10.462-6.313.632-.5 1.956-1.24 2.4-1.964.38-.637.333-.002.254-.774-.057-.555-.735-1.306-1.015-1.83a53.48 53.48 0 0 1-2.77-6.029c-5.035 2.16-9.826 5.1-14.787 7.407-4.993 2.323-10.626 3.962-15.967 5.27-2.274.556-4.888.732-6.973 1.832-.886.467-1.762 1.007-2.7 1.277-.28.538-.556.643-.828.316-.17-.2-.4-.272-.66-.242-.58.098-1.172.373-1.715.583-2.747 1.065-5.378 2.4-7.986 3.76-1.236.644-2.504 1.28-3.687 2.016-.634.394-1.202.793-1.72 1.334-.622.65-.474 1.184-1.48.722zM166.176 34.14c1.164.02 2.225-.612 3.438-.577 1.9.055 3.42 1.535 4.528 2.962 2.193 2.824 1.634 6.23.532 9.4-.527 1.5-1.25 2.96-2.154 4.282-.8 1.17-2.23 2.277-2.8 3.58-.92 2.15.937 1.235 2.075.776 1.43-.578 2.772-1.296 3.986-2.263 5.412-4.3 9.53-10.3 10.908-17.182.672-3.357.62-7.28-1.718-10.02-2.138-2.505-5.828-3.324-8.983-2.86-3.4.502-6.5 1.947-9.278 3.806-.806.54-1.545 1.13-2.302 1.734-.994.793-1.6.814-1.34 2.056.184.924.687 1.88 1 2.767.607 1.66.386 2.1 2.086 1.546zm3.7 28.618l-.236.402c1.624.078 3.136-1.355 4.52-2.054 1.797-.9 3.393-2.148 4.968-3.4 2.777-2.208 5.6-4.696 7.658-7.595 4.635-6.498 8.844-14.736 7.58-22.975-1.363-8.88-9.13-12.297-17.405-11.122-3.73.53-7.06 2.195-10.396 3.885-1.682.852-3.102 1.958-4.643 3.028-.8.556-1.53.628-1.582 1.6-.04.732 1.226 2.387 1.568 3.05 4.2-4.275 8.706-7.8 15.035-8.03 7.528-.26 11.98 6.88 11.947 13.714-.032 6.704-2.924 13.152-7.533 17.97-2.095 2.2-4.092 3.947-6.664 5.545-1.282.797-2.228 1.512-3.66 2.04-1.015.374-.9.177-1.168 1.116-.22.797.005 1.998.012 2.826zm-40.9 91.08c-.098 1.208-.343 2.398-.616 3.576-.1.423-.65 1.76-.554 2.235.16.786-.053.28.636.7.718.428 1.555.402 2.342.532.486.08 2.265.918 2.564.786.523-.23.507-1.047 1.08-1.37.782-.44 1.935-.063 2.673.282 1.973.92 3.328 2.825 5.237 3.867 3.4 1.852 7.412 2.877 11.194 3.3 2.05.23 4.146.63 6.17.15 1.594-.38 3.666-.344 4.533-2.054-7.702-2.118-19.456-4.7-22.5-13.548-1.656 1.5-4.422.693-6.422.485-2.2-.228-4.168-.175-6.18-1.178a9.14 9.14 0 0 0-.156 2.245zM60.8 99.1c3.625.22 7.062-1.497 9.293-4.4.55-.713 1.112-1.44 1.442-2.285l.214-.642c.346-.6.195-.87-.454-.837-.365-.5-1.293-.67-1.03-1.58.2-.686.93-.697 1.568-.912a5.94 5.94 0 0 0-.96-1.275c-1.18 1.062-3.322 3.145-4.15.706-.398-1.17.303-2.3.13-3.42-.072-.467-.664-1.66-1.007-1.94-1.828-1.488-4.46-.872-6.4.004-1.336.604-1.624.887-1.842 2.27l-.672 4.217c.802-.418.948-1.32 1.47-1.97l.588 1.07c.276-.155.534-.147.773.025.387.595.143 1.477.024 2.1 1.3-.12 1.836 1.32.535 1.902-1.348.604-1.955-1.043-2-2.1-.503.6-1.02.28-1.37.588s-.488.95-.613 1.656c-.205 1.157-.73 2.827-.244 3.987.72 1.724 3.015 2.62 4.704 2.833zm105.053-55.377c-1.2 1.668-3.245 3.852-3.672 5.868 1.32-.775 4.114-4.506 4.834-1.534.413 1.706-1.706 3.74-2.226 5.4 2.083-.685 3.568-2.833 4.868-4.5 1.657-2.113 3.35-4.898 3.773-7.584.342-2.174-1.166-4.2-3.407-4.413-1.144-.1-2.34.073-3.445.338-.505.12-1.257.27-1.707.54-.565.34-.642 1.134-1.175.473l-2.12 4c.703-.255 2.14-1.34 2.9-1.227 1.123.164 1.354 1.795 1.37 2.64zM53.526 11.1c-3.145.093-6.432.762-9.4 1.758-.74.247-3.858 1.127-3.202 2.403.434.843 2.775-.348 3.483-.547 3.033-.852 6.156-1.413 9.262-1.926.752-.124 3.304-.112 3.435-1.098.16-1.203-2.68-.592-3.57-.6zm85.6 137.216c-1.705.2-3.342.13-5.048-.078-1.436-.176-2.898-.764-4.327-.764 0 1.53-.104 1.54 1.5 1.867 1.126.228 2.268.356 3.407.516 2.004.28 4.228 1.066 6.257.662-.05-.265-.205-2.058-.415-2.235-.118-.1-1.212.034-1.384.032zM111.576 35.15c.476.304 1.572 1.515 2.14 1.536-.203-1.402-1.767-3.843-3.563-2.977-.44.212-1.365 1.27-.947 1.737.223.25 1.786-.295 2.37-.296zm-16.63 12.47l.053-.733c-.66.388-1.475.57-1.944 1.195l1.687.748.204-1.2zm51.9 37.223c3.114 1.1 5.97 2.547 8.26 5.02 1.982 2.138 2.913 5.905 3.396 8.707 1.197 6.934-1.112 13.362-2.635 19.997-.772 3.365-1.926 6.604-3.006 9.882-.942 2.863-1.75 5.86-3.052 8.583-1.104 2.308-2.514 4.584-3.484 6.978-.523 1.3-1.37 5.7-3.352 4.322-.54 1.415-.673 1.294-.094 2.277.42.7 1.838 1.7 2.5 2.278 1.785 1.544 4.047 2.817 6.142 3.898 3.837 1.98 7.95 3.462 11.9 5.267 1.747.8 3.642 1.742 3.25 4.027a5.6 5.6 0 0 1-3.165 4.221c-1.623.8-3.945 1.42-5.73 1.67-1.06.15-1.303-.292-2.166-.445-.962-.17-2.084.16-3.075.15-4.453-.04-8.35-1.16-11.948-3.74-1.286-.922-3.18-3.425-4.86-3.425-.86 0-.68.523-1.435.83-.934.38-2.542-.335-3.46-.503-1.956-.357-3.944-.72-5.246-2.404-1.408-1.82-.908-4.074-.303-6.096.682-2.278 1.83-4.6 2.317-6.903.12-.562.228-1.6.108-2.183-.188-.9-1.084-1.42-1.1-2.38-.01-.293.4-.68.483-.98.162-.664.137-1.352.203-2.027.12-1.204.394-2.357.583-3.547.43-2.708 1.28-5.123 2.102-7.732.797-2.53 1.556-4.416 3.098-6.608.798-1.135 3.467-5.18 2.164-6.344-1.785 3.505-3.872 6.238-6.602 9.028-2.1 2.135-4.13 5.004-6.745 6.524-2.875 1.672-6.387 2.655-9.56 3.54-1.5.42-2.762 1.352-4.4 1.524-1.763.186-3.56-.033-5.286-.427-.486-.1-1.9-.858-2.33-.8-.648.07-1.58 1.226-2.3 1.438-1.73.516-2.914-.47-4.227-1.382-1.425-1-1.856-1.236-3.5-1.355-2.014-.145-3.974-.855-5.955-1.3-3.484-.765-6.445-2.314-9.6-3.935-3.63-1.858-6.735-4.42-9.47-7.45-4.022-4.45-9.623-16.784-3.053-21.102-3.868-.525-7.4-2.214-7.882-6.592-.246-2.3.217-4.828.793-7.036.263-1.008.576-2 .877-3.008a2.06 2.06 0 0 0 .358-1.106c.14-.52-.06-.778-.6-.775-1.02-1.2-1.785-2.242-2-3.934-.065-.536-.123-1.358.258-1.813a1.3 1.3 0 0 1 .638-.367c.597.034.766-.26.506-.882.3-.88-.14-1.568.952-1.936a27.97 27.97 0 0 1 1.046.244c.443.202.73.056.865-.438 1.03-.403.554-.998 1.953-.48a6.06 6.06 0 0 1 2.268 1.511c.773-.496-.985-3.563-1.044-4.542-.14-2.307.815-4.214 2.055-6.108 2.412-3.682 5.778-6.848 9.097-9.696 6.358-5.455 13.038-10.65 20.217-14.995-2.962-2.057-6.422-2.614-9.946-1.66-3.25.88-5.882 2.482-8.873 3.882-2.77 1.297-5.7 1.83-6.594-1.7-1-3.963 2.168-5.435 5-7.212-.707-.528-3.036-.15-3.916-.088-1.962.14-3.837.582-5.744.973-.914.188-1.754.145-2.66.33-1.346.273-2.752.58-4.114.97-3.24.927-6.457 2.333-9.258 4.23-2.42 1.637-4.1 3.95-6.05 6.08-2.224 2.428-4.355 4.817-7.652 5.706-1.544.416-3.355.794-4.45-.585-1.018-1.282-1.075-2.827-1.042-4.395.074-3.463 1.747-7.205 3.693-10.035 2.112-3.072 4.94-4.83 7.615-7.303-3.864.276-7.598 2.313-11.15 3.72l-2.254.904c-.802.292-1.333.113-2.1.247-1.753.306-3.26 1.045-4.964-.133-3.226-2.228.006-6.76 2.227-8.15a61.57 61.57 0 0 1 9.65-4.95c-1.845-2-.27-4.857 1.43-6.277 2.152-1.797 4.892-2.826 7.485-3.788 2.05-.76 4.064-1.5 6.195-1.95 2.24-.48 4.858-1.216 7.13-1.146 2.13.066 4.02-.3 6.18-.37 1.796-.05 3.596-.007 5.4-.053 4.83-.125 9.68.2 14.4.548-3.74-10.94 20.9-7.56 26.157-6.132 4.777 1.3 10.25 2.805 14.264 5.886 1.7 1.305 3.315 2.8 4.823 4.312 2.225 2.246 3.457 5.2 4.634 8.093 2.986-1.463 5.84-3.056 9.107-3.782 3.1-.7 6.293-1.625 9.42-2.146 2.377-.396 5.827-.665 7.828 1.013 2.172 1.823 3.305 4.66 4.602 7.1 6.23-5.9 13.176-10.222 22.057-9.936 8.7.28 14.406 7.785 15.46 15.918 1.16 8.96-2.83 18.324-8.242 25.264-2.426 3.112-4.936 6.118-8.202 8.44-1.62 1.15-3.328 2.412-5.104 3.3-.885.448-1.853.853-2.783 1.197-.42.156-.85.312-1.287.417-1.246.302-1.004-.1-1.468 1-.375.886-.33 2.4-.5 3.38-.184 1.1-.293 2.237-.562 3.332-.465 1.9-.95 3.752-1.533 5.606-1.103 3.5-2.588 7.047-4.407 10.25 1.543.67 3.703.737 5.35.94 1.784.22 3.57.68 5.424 1.2 3.713 1.038 7.03 1.915 10.562 3.47 3.665 1.614 6.932 4.023 10.462 5.94 3.246 1.764 6.527 3.972 9.54 6.1.717.504 1.16.942 1.732 1.58.584.65.77.78 1.468 1.344.315.254 1.23 1.538 1.6 1.585.644.085.545-.395 1.05-1.066 1.055-1.4 2.526-2.484 3.573-3.92.874-1.197 1.785-2.4 2.72-3.438 2.26-2.5 4.132-5.25 5.74-8.237.836-1.554 1.716-3.034 2.624-4.5.904-1.46 2.5-3.388 4.312-3.302-.145-.744-.605-.868.2-1.322.5-.293 1.506.18 1.9.477 1.043.788 1.1 2.317 1.023 3.465-.17 2.96-.8 5.88-1.652 8.68-1.037 3.363-2.337 6.33-3.756 9.54-1.13 2.558-2.532 5.94-5.344 7.107 1.888 2.695.982 4.892-.28 7.754-.922 2.092-2.14 4.253-3.996 5.638-2.1 1.56-4.36.237-6.547-.795-1.32-.623-5.36-2.094-4.54-4-1-.135-1.644-.868-2.562-1.093-.973-.24-.806.156-1.835.304-.788.113-1.968-.593-2.7-.846l-3.717-1.282c-3.487-1.2-6.916-2.383-10.438-3.346-6.553-1.8-13.186-2.806-19.716-4.405-1.3-.32-2.6-.63-3.973-.886-.282-.053-1.742-.135-1.92-.436-.3-.528.644-3.482.726-4.084.54-3.952.363-8.278-.396-12.186-.314-1.624-1.72-3.727-1.7-5.313.01-1.064.95-2.225 1.505-3.188 1.368-2.382 2.802-4.956 3.816-7.435 1.553-3.792 2.503-8.073 3.2-12.134.357-2.117.773-4.413.87-6.555.074-1.633-.06-3.345.177-5.017-.903.086-2.182.554-2.996.053-1.028-.633-1.304-2.438-1.172-3.517-3.52.614-3.403-2.723-3.185-5.333-6.36 0 1.785-9.45 2.803-11.48.468-.933.454.115.247-1.328-.1-.634-.524-1.337-.77-1.92-.535-1.273-1.113-2.527-1.73-3.762-1.304-2.6-2.782-5.13-4.394-7.56-1.45 1-2.76 2.208-3.972 3.493.778-2.033 3.153-4.552 2.137-6.86-.94-2.14-4.087-1.992-5.944-1.6-5.047 1.064-9.888 2.614-14.697 4.4 1.5.854 3.77.194 5.25-.46 1.833-.8 3.803-1.657 5.778-2.086 1.723-.374 3.985-.246 3.487 2.074-.403 1.88-2.242 3.7-3.455 5.096-2.673 3.097-6.025 5.494-9.317 7.9-3.54 2.575-6.95 5.373-10.533 7.873-6.48 4.52-13.444 8.448-20.138 12.668-3.478 2.192-7.42 3.956-11.2 5.58-4.15 1.787-8.128 3.7-12.433 5.113-2.4.784-4.76 1.43-7.1 2.322-1.473.56-4.037 1.68-5 .02-1.976-3.37 5.175-7.806 7.134-9.867 1.352 1.313-5.314 6.205-4.793 8.117.4 1.502 1.996-.437 2.76-.847 1.237-.662 2.703-.994 3.946-1.75 2.55-1.55 5.575-3.334 6.157-6.535-.405-.428-.4-.822.015-1.184a2.73 2.73 0 0 0 .44-.725c.18-.503.254-1.133.352-1.666.287-1.577-.434-3.053.24-4.596-3.93 2.98-7.7 6.343-11.44 9.567-3.347 2.892-6.84 6.68-8.07 10.995-.158.553-.42 1.18-.4 1.764.056 1.146.17.9 1.093 1.267s2.267.337 3.26.376c.566.022 3.093-.577 2.6.664-.3.716-2.04.7-2.67.755-1.574.166-2.428-.004-1.682 1.702.334.765 1.012 1.283 1.543 1.875 1.48 1.647 2.282 4.173 3.445 6.107 1.325 2.204 2.782 4.3 4.33 6.353.64.847 1.493 2.44 2.378 3.043.827.564-.146.518 1.227.288.6-.1 1.14-.5 1.714-.63 3.424-.834 6.943-1.774 10.483-2.804 4.53-1.317 9.28-2.44 13.602-4.336 3.87-1.7 7.713-3.722 11.624-5.443 1.142-.502 2.283-.835 3.17-1.76 1.072-1.115 1.96-2.576 2.947-3.775 1.68-2.04 3.23-4.114 5.04-6.048 1.346-1.438 3.733-4.112 5.633-4.686 3.6-1.1 1.678 4.408 1.2 5.798.85.193 1.295-.896 2.3-.583 1.192.375 1.316 1.96 1.465 2.955.04.265-.32.76-.2.996.037.08.815.54.966.754.545.775.437 1.717.23 2.552-1.07 4.328-4.866 7.488-7.66 10.68 1.25-.236 2.176-.948 3.355-1.3 1.107-.33 2.22-.314 3.336-.4 1.168-.1 2.3-.537 3.486-.56 1.254-.023 2.455.334 3.7.476zM14.767 45.915c-.7.45-.883.892-.907 1.93-.01.426.02 2.015.615 1.955.56-.056.292-3.34.292-3.885zm-3.558 2.588c.32-3.33 1.54-6.713 4.403-8.787.708-.513 1.5-.495 2.286-.818.467-.194 1.204-1.098 1.734-1 1.95.394-.303 2.986-.633 3.667-1.022 2.112-.953 3.967-.923 6.246.023 1.73.383 4.65-.5 6.218-.93 1.67-2.95.585-4.075-.403-1.422-1.247-2.495-3.232-2.303-5.132zm34.234 9.837c0 1.858 1.508.6 1.454-.72-.08-1.945-1.524-.747-1.454.72zm8.015-10.268c-1.65 1.484-2.923 2.316-3.24 4.598-.24 1.728-.001 3.44.01 5.18.017 2.918-2.34 5.986-4.875 2.64-1.85-2.44-1.186-6.276.322-8.728.792-1.287 1.92-2.56 3.227-3.36.982-.603 3.743-1.8 4.558-.33zM30.415 93.046c-.2.453-.64 2.3.276 1.882.8-.37.285-1.594-.276-1.882zm-4.84-5.705c-.14-.695-.084-5.05 1.116-4.724.942.256 1.098 2.486 1.482 3.262 1.43 2.9 4.7 4.7 5.843 7.672 1.263 3.33-2.556 3.434-4.582 2.085-2.4-1.597-3.788-5.508-3.86-8.295zm-2.942-17.86c.52-.703.573-1.08.276-1.7-.38.413-.312 1.002-.276 1.7zM23 72.625c-2.714.304-2.85-4.7-2.386-6.416.37-1.368 1.166-2.838 1.985-3.952.165-.225 1.735-2.246 2.043-2.25 1.18-.018.856 1.315.73 1.812a13.74 13.74 0 0 0-.452 4.607c.116 1.856.995 6.262-1.92 6.2zm123.26-43.322c-3.882 3.255-7.567 6.78-11.787 9.626-2.065 1.393-4.224 2.626-6.285 4.042-1.05.72-2.12 1.367-3.285 1.897-1.028.468-1.7.53-.848-.582.57-.743 1.85-1.26 2.627-1.788 1.195-.813 2.325-1.715 3.583-2.436 2.217-1.272 4.42-2.3 6.466-3.86 1.814-1.384 3.686-2.736 5.418-4.207.742-.63 3.204-3.528 4.1-2.692zm.078 11.754c1.746 1.493-2.622 5.584-3.618 6.5-1.05.978-2.207 1.85-3.35 2.716-.402.305-2.596 2.347-3.152 2.182-1.1-.325.343-1.65.718-1.995l3.638-3.352 3.263-3.062c.838-.866 1.542-2.332 2.5-3zm-129.32 60.19c-.456-1.056-1.272.116-.858.644.4.5.8-.44.858-.644zm-2.672-2.085c.244-1.553.8-2.416 2.266-1.1 1 .9 3.014 3.5 2.823 4.913-.25 1.852-2.3 1.326-3.348.358-1.084-.993-1.562-2.803-1.74-4.18zm3.192 30.562c-1.785-.136-3.307-1.506-4.065-3.112-.638-1.35-1.24-3.527 1-2.817 1.46.463 7.088 6.146 3.066 5.93zm21.627-8.803c-1.38.314-2.743-.594-3.6-1.618-.528-.638-1.756-2.874-1.137-3.795.862-1.284 2.165 1.297 2.614 1.808.705.8 3.008 2.33 2.114 3.605zM40.406 86c-1.08-.502-2.085-1.106-2.52-2.304-.276-.763-.5-3.05.72-3.04 1.42.013 4.672 5.116 1.8 5.345zm-7.58-23.807c1.447-.026 1.8.772 2 1.92.137.778.8 3.42.1 3.962-.984.773-2.55-1-2.865-1.695-.652-1.432.25-2.84.763-4.187zm24.873 79.23c.705.32 2.308 1.032 1.696 2.135-.64 1.154-2.48.033-3.167-.472-.288-.2-2.115-1.593-2.04-2.056.16-.985 2.68.3 3.5.393zM11.266 69.36c.482 1.206 1.024 5.35-1.512 3.112-.774-.683-.9-1.536-.624-2.473.386-1.36.947-1.1 2.136-.64zm134.396-15.428c-.562-1.147.825-1.887 1.566-2.627.483-.483 2.517-3.103 3.184-2.955 1.372.304-4.076 5.07-4.75 5.582zM32.8 137.038c1.323-.213 1.632 1.257 2.485 1.898.366.275 1.62.516 1.368 1.1-.663 1.532-3.918-1.968-3.853-2.998z"/><path d="M43.983 102.324c.9-.38 3.535 1.665 2.78 2.548-1.127 1.322-2.717-1.825-2.78-2.548zm19.172 29.588c-.663.066-3.46-.814-2.424-2 .728-.827 2.662 1.242 2.424 2zM29.65 126.26c-.658.263-3.032-.278-2.286-1.3.7-.982 2.287.494 2.286 1.3zm19.435 4.44c.77-.08 1.325.384 1.458 1.17-.962.137-1.26-.092-1.458-1.17zm100.1-114.06l.972.005-.972-.005zm-5.102 67.658l-1.457.002 1.457-.002zM77.785 5.102l-.068 1.458.068-1.458zM228.325 87.7c.156.54-.07.63-.68.27l.68-.27zm-13.8 42.4l.73.004-.73-.004zm-46.158-39.103c-.407.3-.812.354-1.214-.017l1.214.017zm-9.094-41.427l-.032 1.215.032-1.215zm21-37.486l-1.215-.001c.405-.152.8-.102 1.215.001zM61.475 7.13l-1.215.07 1.215-.07zm9.96.078l-.972-.083.972.083zm5.345.385c-.324.12-.648.192-.972.002l.972-.002zm-28.9.665l-1.215.246 1.215-.246zm111.647 98.877l-.033.73.033-.73zM25.634 87.457l.014.486-.014-.486zm204.196-.87l-1.215.006c.404-.302.8-.263 1.215-.006zm-83.084-1.72l-.972-.16.972.16zM57.83 141.387l-1.215-.237 1.215.237zm81.77-69.72l-.022-.73.022.73zM62.7 7.2l-.73-.1.73.1zm39.84-6.006l-.73-.22.73.22zm28.9 163.858l.485.03-.485-.03zM19.932 34.6l.73.02-.73-.02zm163.01-22.3l-1.214-.086 1.214.086zM54.915 11.174l-1.7.003 1.7-.003zM169.692 61.22l.023 1.215-.023-1.215zm-29.75 86.98l-.97-.016.97.016zM174.44 19.482l1.457-.162c-.466.413-.97.138-1.457.162zm-37.17 128.845l-.73-.027.73.027zm-8.4 4.238l.037 1.215-.037-1.215zM165.938 34.4l.972-.1c-.296.228-.643.094-.972.1zM59.774 99.03l.972.178-.972-.178zm50.53-63.924c.405-.344.8-.307 1.215-.004l-1.215.004zm-15.2 12.267l.035-.486-.035.486zm70.706-4.616l.01.972-.01-.972zM58.63 93.54c.533.18 1.605.727 2.226.654.497-.058.907-.663 1.387-.662 1.3.002 1.052 1.494.428 2.296-1.687 2.167-5.457-.183-4.04-2.288zm5.268-7.783c1.76.454.884 4.328-.596 4.594-1.743.314-2.047-2.836-1.702-3.974.897.533.342 2.434 1.472 1.9.72-.335.6-1.88.827-2.53z"/></g></svg>