<svg xmlns="http://www.w3.org/2000/svg" width="277" height="191" fill="none" fill-rule="evenodd"><path d="M91.588 43.004c29.393.2 56.687 9.782 75.763 26.006 19.96 16.976 34.67 39.266 26.2 60.72-8.106 20.556-39.268 28.343-65.29 38.38-28.253 10.897-57.65 29.805-86.843 20.3-29.513-9.608-32.764-37.807-38.048-60.96-4.74-20.768-6.975-42.758 10.55-59.536 17.985-17.218 47.88-25.123 77.657-24.9z" fill="#f7d471"/><path d="M93.43 66.326c1.39-5.4 2.702-10.937 4.767-16.136 1.292-3.253 2.66-6.477 4.032-9.697.2-.447.27-.878.64-1.1.494-.297 1.516-.29 2.074-.393 7.92-1.453 15.923-2.562 23.952-3.185 9.163-.712 18.096-.386 27.162 1.107 7.754 1.277 15.43 3.037 23.025 5.052l3.343.9c.518.145 1.38.22 1.83.52.965.646 1.293 3.295 1.655 4.417.485 1.504.767 3.57 1.702 4.85 1.392 1.905 3.51 3.557 5.237 5.14 6.022 5.526 12.623 10.567 20.4 13.3 12.032 4.227 24.72 6.876 37.183 9.495l.87.182-15.136 16.76c-.935 1.036-.833 1.22-2.156.932-6.627-1.446-13.243-3.022-19.75-4.944-3.2-.942-6.435-1.92-9.403-3.445-4.085-2.1-7.92-4.695-11.652-7.362-3.336-2.383-6.593-4.876-9.792-7.44-.63-.505-2.907-2.942-3.645-2.783-.636.137-1.738 1.585-2.204 2.007l-3.716 3.328c-1.983 1.753-4.007 3.9-6.322 5.22-2.44 1.39-5.236 2.338-7.81 3.445l-4.313 1.846c-.375.16-.9.508-1.305.517-1.198.025-2.94-.95-4.05-1.328a187.71 187.71 0 0 1-8.497-3.124c-5.99-2.374-12.575-4.953-17.506-9.224-.86-.745-1.7-1.58-2.27-2.575-.197-.345-.49-.826-.51-1.233-.032-.65.333-.777.876-1.183 2.805-2.096 5.83-3.923 8.803-5.765l2.1-1.3-39.613 3.18z" fill="#3292ff"/><path d="M145.174.16c3.672.167 7.435.338 11.075.855 3.627.515 7.013 1.832 10.292 3.426 5.91 2.875 11.954 6.37 15.756 11.9 1.778 2.586 3.228 5.293 5.682 7.33.574.476 1.2 1.048 1.962 1.194.606.116 1.14-.13 1.733-.16 1.132-.056 1.56.54 1.56 1.666.85-.34 1.776-.646 2.702-.52.775.104 1.39.572 2.135.768 1.343.355 2.657-.176 3.934-.57 3.225-.998 6.767-1.753 10.155-1.397 2.232.234 4.936 1.202 3.78 4.077-.958 2.384-4.542 3.592-6.805 4.185-1.926.505-4.514.054-4.352 2.71.114 1.854.394 3.843 2.365 4.445 1.08.33 4.9.82 2.674 2.494-1.65 1.236-2.228 3.4-3.483 5.044-1.6 2.082-3.77 3.765-6.307 4.524-2.84.85-5.842.687-8.757 1.017 2.053 2.834 5.018 4.782 7.717 6.937 2.837 2.266 5.575 4.742 8.858 6.357 2.944 1.448 6.124 2.453 9.164 3.68 3.193 1.29 6.408 2.564 9.704 3.568 6.648 2.026 13.64 3.44 20.475 4.684 3.373.613 6.68.523 10.087.578 3.495.056 6.988.67 10.418 1.298 1.663.305 3.342.498 5.005.802.798.146 3.957.468 4.07 1.636.185 1.903-1.874 2.97-3.382 3.5-.644.227-1.68.194-2.238.505-.603.337-.368.834-.437 1.487-.1.95-.608 1.632-1.387 2.16-.64.433-1.412.416-.97 1.236.203.378.712.617.947 1.016.27.455.392.954.338 1.478-.096.917-.702 1.616-1.546 1.94-1.35.518-2.936.15-4.32-.017-2.315-.28-4.663-.3-6.947-.816-2.38-.528-4.698-1.34-7.082-1.882-1.222-.277-2.447-.5-3.642-.894-.777-.25-1.9-.9-2.728-.696-.775.2-1.38 1.127-1.888 1.67l-2.09 2.26c-.47.49-.954.97-1.468 1.413-.167.144-1.2.776-1.215.945-.04.48 1.087.47 1.33.66 1.403 1.11-.705 1.81-1.615 1.755-2.097-.128-4.205-.385-6.282-.693-4.946-.734-9.878-1.526-14.606-3.182-4.678-1.64-9.242-3.382-13.568-5.824-4.152-2.344-8.17-4.994-12.09-7.703-1.904-1.315-3.82-2.677-5.427-4.35-1.572-1.638-2.853-3.518-4.156-5.37-3.122 3.014-6.125 6.184-9.478 8.948-3.2 2.63-7.024 4.033-10.734 5.74.12.776 3.747 1.24 4.41 1.442 3.024.92 5.927 2.397 8.868 3.555 4.894 1.927 9.538 4.434 11.168 9.784 1.602 5.26-.257 10.557-2.523 15.31-2.676 5.6-5.853 10.806-9.695 15.697-1.634 2.08-3.395 3.996-5.188 5.934-1.53 1.653-2.842 3.61-2.2 5.96 1.23-.385 1.457.576.65 1.39-.715.723-1.952.863-2.907.983-2.897.363-5.89.235-8.788-.035-5.28-.492-10.57-1.824-15.35-4.117-2.378-1.14-3.24.7-4.874 2.123-1.287 1.12-3.06 1.847-4.037 3.297-.804 1.193-.28 3.078 1.392 2.63 1.3-.348 2.345-1.798 3.722-1.854 2.444-.1-2.168 3.388-2.758 3.813 1.17 1.045 2.493-.388 3.67-.627 1.13-.23 1.445.356.843 1.297-.47.735-1.944 1.254-.963 2.148.813.74 2.614 1.13 3.612 1.453a55.65 55.65 0 0 0 9.449 2.194c1.046.15 2.724.054 3.572.795 1.12.98.58 2.6.013 3.72-2.145 4.245-6.606 6.332-11.187 6.638-2.82.187-5.67.005-8.5.158-3.102.167-6.2.414-9.32.312-4.997-.165-8.176-3.776-10.668-7.748-1.583-2.523-3.042-5.12-4.412-7.764-.535-1.033-1.656-2.103-1.847-3.264-.172-1.045.495-1.883 1.143-2.622 1.705-1.946 3.756-3.43 5.76-5.038 1.144-.918 1.584-1.678 2.093-3.014.43-1.124 1.254-1.605 1.98-2.502.798-.987.548-1.162-.075-1.97-.652-.844-.396-2.09-.122-3.044.392-1.372 1.234-1.674 2.492-2.116 1.147-.402 2.12-1.11 3.136-1.765 5.023-3.238 9.755-6.902 14.84-10.05 5.016-3.106 10.26-5.85 15.047-9.315-3.888-.523-7.316-2.622-10.983-3.865-1.882-.638-3.746-1.32-5.567-2.117-.696-.305-1.506-.576-2.127-1.024s-1.102-1.043-1.755-1.47c-1.55-1.012-3.394-1.588-5.062-2.376-1.8-.852-3.578-1.783-5.25-2.867-1.562-1.012-3.062-2.168-4.36-3.505-1.035-1.065-2.04-2.452-3.506-2.94.154 2.04 2.68 3.73 4.066 4.957 2.248 1.992 4.584 3.684 7.097 5.33-2.818 2.414-6.253 3.986-9.553 5.616-3.7 1.833-7.317 3.866-11.013 5.727-3.13 1.577-6.424 2.793-9.605 4.258-3.433 1.58-6.966 2.907-10.548 4.11-3.242 1.09-6.293 2.25-9.352 3.777-2.973 1.486-6.155 2.622-9.336 3.575-3.574 1.07-6.983 2.1-10.42 3.558-3.1 1.324-6.212 2.17-9.492 2.9-1.083.238-2.475.674-3.234-.374-.575-.795-.662-2.02-.827-2.956-.632-3.577-.682-7.212-1.25-10.795-2.16.652-4.204 1.453-6.482 1.556-1.432.065-2.302.213-2.66 1.776.828.094 3.788.135 3.868 1.308.072 1.058-1.718 1.07-2.354 1.098-1.136.052-2.166-.135-2.773.978.894.33 2.875-.272 3.27.93.5 1.55-1.806 1.546-2.64 1.67-1.454.218-1.304 1.36-1.205 2.58.13 1.605.23 3.213.447 4.8.463 3.412 1.257 6.773 1.632 10.198.325 2.962.507 5.807-1.6 8.167-.85.95-2.035 2.04-3.372 2.154-1.358.114-1.333-.836-2.178-1.536-.518-.43-1.204-.516-1.814-.748-.742-.28-1.462-.693-2.13-1.12-1.23-.787-2.303-1.763-3.172-2.936-3.398-4.59-4.613-11.45-4.95-17.015-.214-3.54-.001-7.083.324-10.61l.58-5.692c.07-.586.2-1.174.234-1.762.025-.337-.137-1.017.035-1.34-.22.41-.61.107-.995-.217-.797-.67-.552-1.956-.125-2.837 1.285-2.653 5.137-2.757 7.643-2.963 6.736-.555 13.135-2.36 19.584-4.3-.9-1.362.52-2.262 1.63-2.73 1.71-.722 3.478-1.357 5.205-2.046 3.9-1.558 7.72-3 11.803-4.003 3.7-.9 7.28-2.394 10.93-3.49 3.77-1.132 7.474-2.425 11.183-3.743 7.346-2.61 14.7-5.278 21.828-8.444 1.803-.8 3.524-1.73 5.263-2.654 1.413-.752 3.07-1.304 4.27-2.4 1.143-1.037 1.828-2.48 3.07-3.422 1.12-.848 2.65-.86 3.58-1.914 1.254-1.425 2.75-2.05 4.454-2.886.547-.268 4.148-1.625 4.074-2.394-2.573 0-5.214.765-7.76 1.122-2.69.377-5.38.796-8.092 1.005-4.393.338-8.784.246-13.16-.23-.654-.07-3.276-.61-3.728.092-.345.534.512 1.17.52 1.744.013.842-.666 1.294-1.435 1-1.497-.57-1.278-2.98-1.138-4.205.268-2.34.863-4.66 1.383-6.955-3.088 1.572-6.02 3.6-8.68 5.807-2.06 1.718-3.92 4.047-6.338 5.27-2.32 1.176-3.7.173-3.606-2.416.044-1.186.284-2.312.695-3.417.194-.522.992-2 .618-2.556-2.12 1.69-4.23 3.387-6.456 4.94-1.574 1.098-3.856 2.81-5.912 2.374-1.815-.385-1.638-2.382-1.062-3.727.5-1.167 1.396-2.204 2.285-3.095.735-.737 1.78-1.397 2.148-2.418-2.438 1.095-4.948 1.924-7.502 2.694-1.816.547-3.086 2.82-5.198 2.485s-1.272-2.95-.428-4.085c.59-.795 1.407-1.495 2.2-2.082.773-.573 1.948-1.072 2.328-2.025-2.47.464-4.953 1.27-7.495 1.12-1.51-.088-4.03-.747-3.73-2.776.302-2.054 3.037-2.21 4.576-2.595 2.097-.523 4.105-1.504 6.13-2.252 4.083-1.5 8.245-2.72 12.422-3.923l1.32-.38c4.715-1.36 9.457-2.516 14.23-3.645l7.09-1.642c2.3-.46 4.638-.727 6.92-1.278-1.924-2.904.406-5.3 2.922-6.672-1.596-.323-3.22-.517-4.8-.908-1.35-.334-2.653-.847-4.014-1.142-2.34-.508-4.675-.775-6.67-2.223-3.773-2.737-4.094-7.092-.915-10.387 3.21-3.326 7.918-4.883 12.45-5.038 5.073-.173 10.845.8 15.59 2.606 2.332.882 4.76 2.004 6.76 3.506 1.36 1.022 3.5 2.98 5.335 2.98-2.186-2.643-4.87-5.376-5.263-8.956-.374-3.39 1.163-6.99 3.743-9.183 5.155-4.38 13.662-3.982 19.98-3.694zm-29.388 145.25c-1.345 2.092-3.206 3.79-4.963 5.527-.606.6-1.822 1.36-1.88 2.3-.047.766.893 1.628 1.303 2.23 2.17 3.184 3.957 6.7 6.61 9.527 2.996 3.195 6.416 3.816 10.66 3.825 4.712.01 9.486.6 14.19.35 3.984-.2 7.91-1.984 9.892-5.6-1.3-.665-3.127-.348-4.526-.333-1.907.02-3.77-.014-5.653-.346-1.708-.3-3.396-.75-5.002-1.4-.83-.34-1.653-.73-2.418-1.204-.56-.346-.982-.877-1.533-1.217-2.03-1.253-4.375 2.733-6.545 2.656-1.33-.047-.848-1.354-.295-2.085.998-1.32 2.74-2.136 4.055-3.1-1.224-1.127-2.607.055-3.773.644-1.458.736-2.972 1.64-4.6 1.916.122-2.098 2.976-3.223 4.55-4.076.7-.38 1.58-.732 1.752-1.568.13-.628-.092-1.52-.158-2.156-.084-.806-.145-1.064-1.004-1.29-1.042-.276-2.09-.196-3.134-.54-2.856-.943-5.077-2.342-7.525-4.058zm-92.808-33.067a34.65 34.65 0 0 1-2.11.51l-4.212.87c-.706.135-1.49.05-1.697.723-.107.345.162.965.208 1.324.083.646.088 1.302.096 1.953.074 6-1.18 11.965-.63 17.964.466 5.07 1.558 11.48 5.283 15.257 1.608 1.63 3.586 3.4 5.6 4.514 1.587.872 3.804-1.318 4.128-2.835.232-1.087-.155-2.234-.407-3.282l-.97-4.027c-.684-2.867-1.305-5.76-1.502-8.71-.065-.968-.05-1.9.004-2.865.03-.524.276-1.785-.1-2.234-.474-.58-1.556-.2-2.197-.15-.703.054-1.39.012-2.075-.167-1.634-.427-1.92-1.726-.136-2.327 1.246-.42 3.523.188 4.57-.62 1.23-.95-1.255-1.08-1.836-1.104-.773-.033-3.336.17-3.205-1.27.097-1.068 2.303-1.14 3.075-1.184 1.65-.097 3.736.52 4.45-1.468.286-.796-1.434-1.2-1.866-1.596-1.05-.96-1.393-2.606-1.483-3.954-.09-1.326 1.217-5.923-.772-6.044-.61-.038-1.626.553-2.234.722zm97.82 26.528c-1.17 1.394-2.182 2.92-3.272 4.377 2.557 1.41 5.172 2.545 7.816 3.758 1.202.552 2.045.99 3.21.153.835-.6 1.46-1.453 2.275-2.077 1.17-.896 2.395-1.718 3.595-2.572l-10.678-3.72c-1.324-.484-1.99-1.056-2.945.082zm-29.162-4.426c.757.767-.7 2.895-.988 3.623 2.348-.186 4.677-.556 6.983-1.033.785-.162.496.794.202 1.11-.363.4-1.1.508-1.576.647-1.788.513-3.62.76-5.455 1.033.84 1.032 2.86 2.648 2.21 4.2-1.173-1.01-2.017-2.356-3.314-3.23-.375.56-1.153 2.532-2.005 2.41-1.338-.19.017-2.495.297-3.05-.9 0-4.287.79-4.76-.318-.483-1.135 2.784-1.098 3.388-1.366l-.113-.137-.113-.137c-.452-.544-.885-1.08-.947-1.828 1.01.348 1.685 1.93 2.796 1.954 1.053.02 1.523-1.56 1.898-2.3.213-.425.938-2.136 1.497-1.57zm113.94-14.92c2.264 1.9.726 5.76-.988 7.492-1.92 1.94-6.192 3.72-8.625 1.744-1.332-1.082-.85-2.733-.523-4.172.364-1.6.59-2.948 1.916-4.046 2.062-1.708 5.923-2.955 8.22-1.018zm-4.596 1.1c-2.21.47-4.447 2.676-4.972 4.95-.69 2.982 2.407 3.2 4.447 2.752 2.566-.564 5.292-2.445 5.423-5.396.113-2.547-3.182-2.67-4.898-2.306zM40.25 107.742c-3.308 1.23-6.417 2.915-9.887 3.646-1.06.222-1.494.466-1.756 1.453-.367 1.38-.714 2.78-.453 4.222.544 2.995 4.712 2.628 7.027 2.5 1.188-.06 3.474.157 4.505-.584.753-.542.437-1.557.32-2.347-.44-2.955.04-5.946.244-8.9zm180.336-28.54c-1.218.23-3.323 1.222-1.577 2.466 1.165.83 2.898.93 4.267 1.135 2.673.4 5.526.746 7.846 2.254 4.298 2.793 3.77 8.065 2.486 12.38.926.545 3.646-3.02 4.158-3.6l6.26-7.033c.897-1-6.454-4.45-7.115-4.762-3.492-1.643-6.752-2.724-10.67-3.006-1.858-.134-3.817-.18-5.656.166zm-15.162-8.744c-.334.84.25 1.222.788 1.804 3.003 3.248 5.117 7.845 6.79 11.877.834 2.01 1.418 4.038 1.934 6.145.507 2.067 2.116 2.62 4.044 3.206 4.44 1.352 9.115 1.804 13.572 3.14 1.194.358 1.428-2.267 1.503-2.933.213-1.894.015-3.87-.98-5.54-1.882-3.156-5.654-3.827-9.02-4.364-1.924-.307-4.46-.625-5.982-1.94-.764-.66-.872-1.417-.276-2.238 1.087-1.496 3-1.688 4.7-1.8.833-.06 5.99.462 6.157-.148-2.567-.836-5.202-1.388-7.73-2.345-1.974-.746-3.963-1.45-5.954-2.15l-1.992-.698c-2.025-.7-3.88-1.574-5.822-2.43-.73-.32-1.4-.44-1.74.422zm43.547 13.685c-.643.865-1.28 1.6-1.763 2.562-.562 1.133-1.495 1.856-2.275 2.83 4.05.715 7.914 1.622 11.817 2.93 2.004.672 4.073 1.004 6.123 1.486 1.72.404 3.552 1.03 5.332.66-2.028-2.794-7.436-2.02-8.86-5.405-.968-2.302 1.412-4.138 3.36-4.537 3.4-.698 7.025-.75 10.48-1 .037-1.32-12.5-2.005-13.74-2.112-2.2-.19-4.5-.603-6.696-.68-2.04-.07-2.705 1.828-3.776 3.267zm-47.844-9.663L197.532 78c-.793.768-1.868 1.587-2.493 2.502-.798 1.17.6 1.73 1.532 2.284 2.35 1.397 4.782 2.7 7.175 4.03 2.15 1.194 4.386 2.713 6.76 3.41 1.27.373 2.46.953 3.685 1.443-.59-5.3-3.634-10.112-6.44-14.53l-1.954-3.03c-.325-.5-.927-1.715-1.608-1.82-1.006-.154-2.45 1.592-3.06 2.182zm61.532 13.487c1.47.843 2.946 1.27 4.605.634a27.85 27.85 0 0 0 1.212-.528c-1.106-1.508-4.376-.59-5.817-.106zM140.822 69.527c-2.608 1.175-5.397 2.346-7.665 4.12-.837.655-2.708 2.03-2.27 3.277.374 1.068 2.445 1.978 3.428 2.303 5.173 1.712 11.06.467 15.824 3.608 1.29.85 1.71 1.962 2.667 3.08.866 1.01 1.96.886 3.125.466 1.528-.55 2.937-1.395 4.47-1.936.784-.277 2.117-.46 2.2-1.518.383-4.99-.68-11.345-5.08-14.398-4.937-3.427-11.75-1.234-16.7.998zm-2.797 11.626c-.126.632 4.768 1.778 5.3 1.924 2.955.814 5.716 2.75 8.777 3.06.532-1.187-3.708-3.077-4.38-3.32-3.06-1.11-6.484-1.313-9.698-1.665zm96.107-2.216c3.7 1.52 7.307 3.382 10.417 5.97 1.073.893 3.68-3.344 4.263-3.993-4.942-.205-9.813-1.148-14.68-1.977zm-69.35-29.8c-3.44 2.272-6.435 5.243-10.212 6.985 1.182.186 2.472-.58 3.6-.847 1.1-.26 2.21-.434 3.28-.803.657-.227 3.37-1.694 3.88-.7.796 1.553-4.81 2.627-5.606 2.892-2.69.894-5.365 1.83-8.03 2.804-2.58.943-5.158 1.957-7.824 2.634-2.708.688-5.58.865-8.182 1.933-2.303.944-4.28 2.507-6.502 3.6s-4.757 1.8-6.677 3.436c2.087 2.227 4.556 4.092 7.256 5.512.433-3.397 4.414-5.33 7.138-6.636 5.938-2.846 14.857-7.138 20.91-2.315 4.424 3.525 5.023 10.214 5.023 15.45 1.198-.382 2.293-.988 3.405-1.56.77-.397.78-1.502.877-2.24.16-1.21.486-2.38.86-3.54.83-2.565 1.87-5.068 2.86-7.574 1.603-4.054 3.58-8.052 4.565-12.317.643-2.783 1.408-7.567-1.948-8.95-2.903-1.195-6.318.668-8.676 2.225zm-15.02-11.33c-.56.376-.352 1.503-.314 2.07.14 2.057.052 4.123.12 6.183.084 2.51.102 7.115 2.692 8.523 1.77.963 3.974-.48 5.387-1.463 2.392-1.662 4.586-3.592 7-5.214 2.875-1.923 8.32-4.584 11.072-.966 1.488 1.958 1.28 4.876.908 7.155-.5 3.006-1.635 5.857-2.773 8.666-2.35 5.8-4.802 11.696-6.11 17.837 2.98-1.77 5.297-4.322 7.897-6.564 1.927-1.662 4.79-3.57 5.234-6.278.1-.612.693-1.047 1.1-1.456a6.33 6.33 0 0 0 1.239-1.751c.742-1.5 1.223-3.12 1.527-4.763.637-3.444.333-6.873-.254-10.297-.266-1.55.124-3.2-.237-4.72-.25-1.048-1-.986-1.974-1.224l-10.64-2.54c-1.44-.346-3.006-.994-4.502-.972-1.227.018-2.258.75-3.318 1.28-1.74.87-4.504 2.393-6.5 1.527-2.327-1.008.385-3.285-.782-4.362-.8-.74-3.192-.296-4.277-.48-.594-.1-1.96-.555-2.505-.2zm36.622 29.746c-1.693.267-2.673 1-3.605 2.44-.947 1.464-1.06 2.19.29 3.334 1.456 1.235 2.98 2.456 4.527 3.568 1.96 1.4 4.135 2.478 6.072 3.922.848.633 4.7-4.327 5.367-5.008.922-.938 1.868-1.88 2.857-2.743.362-.316 1.495-1.047 1.495-1.584.001-1.357-3.008-2.57-3.976-2.944-2.17-.837-4.444-1.174-6.755-1.21-2.05-.03-4.244-.098-6.273.222zm7.542-5.968c-1.59.844-3.25 1.555-4.848 2.38-.567.293-4.144 1.795-3.964 2.693 4.026-.255 8.033-.936 12.046-.157 1.802.35 3.52.937 5.025 2.02 1.14.82 2.01 2.394 3.142.993-2.312-1.3-4.394-3.046-6.444-4.732-.897-.738-1.82-1.432-2.73-2.15-.542-.427-1.435-1.466-2.226-1.047zM98.714 41.972c-1.26.177-2.487.5-3.723.797L79.956 46.2c-9.966 2.45-20.23 4.8-29.734 8.734.8.883 2.916.243 3.908.07 1.94-.34 3.825-.932 5.743-1.38 1.876-.437 3.758-.96 5.65-1.323.87-.168 2.408-.39 2.443.917.05 1.85-3.547 3.236-4.867 3.912-1.412.724-2.778 1.523-4.122 2.364-1.062.665-3.022 1.552-3.366 2.874l10.324-4.425c1.29-.57 2.598-1.105 3.827-1.798.82-.463 1.874-1.275 2.844-1.348 1.314-.1 1.53 1.094.978 2.056-.693 1.205-2.122 1.884-3.173 2.727-1.34 1.075-2.526 2.343-3.733 3.56-1.002 1-2.292 2.004-2.814 3.37 1.8.602 3.847-1.328 5.17-2.282 2.08-1.5 4.016-3.13 6-4.75 1.015-.83 2.225-2.17 3.56-2.42 1.693-.314 1.552 1.62 1.142 2.688-.917 2.384-3.065 4.372-3.22 7.06-.094 1.655 1.307 1.025 2.242.36 1.575-1.118 2.64-2.82 4.07-4.103 3.442-3.087 7.382-5.72 11.64-7.55.762-.327 1.036-1.503 1.268-2.21.346-1.054.743-2.076 1.16-3.107.9-2.257 1.657-4.696 2.933-6.78.356-.58 1.274-1.174.515-1.516-.413-.186-1.198.012-1.625.072zm36.345-3.818c-1.3.15-2.595.137-3.887.273-2.11.222-1.19 2.787-1.53 4.333-1 4.55-5.823 5.41-9.477 3.262-2.056-1.208-3.29-2.94-4.397-4.964-.63-1.154-1.1-1.34-2.403-1.05-.895.198-1.7.156-2.62.222-1.146.083-1.246.326-1.27 1.416-.02.968-.16 1.64-.805 2.423-1.228 1.494-3.288 2.477-5.043 3.228s-3.75 1.31-4.716 3.09c-.487.896-1.008 1.966-1.15 2.985-.154 1.113.224 1.804-.425 2.83-1.35 2.135-1.968 4.468-2.65 6.894-.222.8-.3 1.115.552 1.333 1.238.312 2.996-.16 4.267-.21.907-.035 1.436-1.633 1.73-2.28.572-1.26 1.275-2.45 1.978-3.642 1.594-2.7 3.298-5.38 5.38-7.74 1.57-1.78 3.89-3.996 5.903-1.495 1.96 2.438 3.374 5.292 5.733 7.417 2.074 1.87 4.21 1.9 6.362.128 2.118-1.744 3.728-4.123 5.044-6.496 1.423-2.567 2.497-5.307 3.884-7.89.435-.81 2.443-3 1.832-3.937-.414-.633-1.715-.197-2.295-.13zm10.8-.56c-1.135.054-2.277-.074-3.413-.097-2.054-.04-3.772.03-4.804 2-.91 1.737-1.687 3.586-2.518 5.365-1.805 3.865-3.577 7.82-6.35 11.108-2.456 2.913-5.63 4.38-8.824 1.598-1.416-1.234-2.492-2.826-3.51-4.39-.815-1.255-1.745-3.463-3.1-4.194-1.522-.815-3.265 1.055-4.195 2.07-1.565 1.706-2.873 3.713-4.13 5.65-.9 1.405-1.782 2.84-2.668 4.262-.358.577-1.82 2.462-1.334 3.18s2.87.228 3.558.162c1.645-.157 3.288-.213 4.934-.355 5.12-.44 10.163-1.565 15.295-1.865 3.38-.198 6.712-.852 10.04-1.445 3.236-.577 6.493-.97 9.694-1.734l5.647-1.363c.65-.16 3.722-.6 3.913-1.445-2.116-.37-3.226-1.2-3.977-3.254-.94-2.585-1.048-5.465-1.128-8.19-.03-1.048-.036-2.096-.037-3.144v-1.258c0-.752.324-2.116-.353-2.637-.627-.483-2.006-.06-2.733-.026zm42 16.692c.09 3.406-.52 6.84-1.92 9.95 1.463.234 3.204-1.602 4.432-2.217.473-.237 3.604-1.375 2.556-2.245-1.93-1.6-3.194-3.835-5.07-5.49zm41.97 2.77c.43.847-.1 1.922-.388 2.725l6.708 1.52c1.696.343 1.104 1.36-.368 1.3-2.047-.097-3.952-.965-5.99-1.077-1.94-.107-2.17 1.587-3.823 1.913.056-.932.8-1.58 1.352-2.28-.893-.458-1.805-.884-2.67-1.39-.45-.26-1.69-1.358-1.21-1.94.48-.588 1.744.514 2.194.756.64.345 1.915 1.105 2.666.887 1.03-.3.816-1.777 1.53-2.407zm-32.18-22.192c-.906.063-1.892-.242-2.75.157s-1.877 1.268-2.592 1.872c-.693.584-1.037 1.294-1.9 1.64s-1.742.314-2.073 1.366c.78.214 2.313-.07 2.924.504.89.835-.662 1.754-1.306 2.016-.923.377-1.678.255-2.622.184-.41-.03-.407-.157-.743.046-1.248.754-.385 3.437.02 4.415 1.98 4.8 8.746 3.177 12.648 2.686-1.242-1.25-3.275-2.63-3.378-4.595-.03-.585.115-1.63.866-1.68.6-.04 1.32.868 1.695 1.226 1.108 1.06 2.543 2.817 4.146 2.97 2.143.203 3.792-3.268 4.68-4.78-1.093-.205-2.3-.193-2.924-1.265-.755-1.274-.77-3.225-.755-4.66.01-1.22.4-2.557-1.232-2.617-1.504-.055-3.188.4-4.706.515zM53.742 37.996c-.312.68-1.67.948-2.265 1.13-2.266.692-4.478 1.57-6.688 2.433-4.46 1.74-8.87 3.664-12.943 6.222-.76.48-.388-.444-.19-.777.443-.746 1.374-1.274 2.07-1.73 1.882-1.237 3.875-2.106 5.956-2.933 4.164-1.655 8.392-3.4 12.662-4.75.495-.155 1.818-.51 1.398.407zm51.724 3.373c-.828.086-1.797-.103-2.593.167-1.038.352-.867 1.064-1.174 1.94l-1.622 4.44c2.012-.094 3.94-1.686 5.644-2.603.965-.52 4.32-2.24 3.308-3.818-.64-.998-2.644-.222-3.563-.127zm22.895-2.592c-1.246-.022-2.615.355-3.876.417-1.7.084-3.355.406-5.043.483-1.11.05-2.2.28-3.3.43 1.093 2.533 3.227 4.748 5.908 5.665 2.115.724 5.076.846 6.52-1.156.83-1.152 2.2-5.795-.2-5.84zm64.865-10.46c-1.36.902-2.447 2.195-3.582 3.35-2.842 2.89-5.783 5.982-7.014 9.943-.168.543 1.113 1.022 1.46 1.043.733.044.882-.325 1.17-.945.712-1.533.985-3.246 2.124-4.553 1.388-1.594 3.06-3.148 4.67-4.518 1.095-.93 3.78-2.24 4.094-3.78.372-1.82-2.1-1.086-2.923-.54zm-35.04 10.524c-.768.224-.83.934-1.004 1.7-.706 3.077 6.435-.28 7.43-.783-.33-.988-3.585-.808-4.34-.847-.587-.03-1.518-.235-2.086-.07zm42.183 1.598c-1.06.04-.57-4.28.632-3.847 1.032.373.046 3.82-.632 3.847zm-148.763-4.97c-1.62 1.398-4.164 1.586-6.18 2.035-2.97.662-5.91 1.505-8.856 2.265-1.86.48-.813-.665.118-1.096 1.6-.74 3.413-1.135 5.124-1.542 1.852-.44 3.745-.735 5.587-1.216 1.275-.333 2.92-1.185 4.206-.447zm50.41-30.058c1.8.33 3.598.907 5.177 1.85 1.306.78 1.254 1.996-.402 1.29-7.728-3.29-17.317-1.297-24.863 1.616-.833.32-.77-.38-.52-.92.347-.744 1.087-1.176 1.798-1.522 2.136-1.04 4.598-1.626 6.92-2.057 3.87-.72 8-.972 11.89-.258zm1.13-4.724c.982.266 2.1.927 2.71 1.765.703.98.144 1.482-.832.905-1.088-.644-2.084-1.285-3.333-1.625-.66-.18-.633-.593-.16-.956.443-.34 1.132-.22 1.613-.09z" fill="#39383b"/></svg>