<?xml version="1.0" encoding="UTF-8"?>
<svg width="208px" height="208px" viewBox="0 0 208 208" version="1.1" xmlns="http://www.w3.org/2000/svg" xmlns:xlink="http://www.w3.org/1999/xlink" xmlns:sketch="http://www.bohemiancoding.com/sketch/ns">
    <!-- Generator: Sketch 3.5 (25232) - http://www.bohemiancoding.com/sketch -->
    <title>add</title>
    <desc>Created with Sketch.</desc>
    <defs></defs>
    <g id="Page-1" stroke="none" stroke-width="1" fill="none" fill-rule="evenodd" sketch:type="MSPage">
        <g id="add" sketch:type="MSLayerGroup">
            <g id="Capa_1" sketch:type="MSShapeGroup">
                <path d="M104,0 C46.65375,0 0,46.65375 0,104 C0,161.34625 46.65375,208 104,208 C161.34625,208 208,161.34625 208,104 C208,46.65375 161.34625,0 104,0 L104,0 Z M104,193.143031 C54.8449687,193.143031 14.8569688,153.155031 14.8569688,104 C14.8569688,54.8449687 54.8449687,14.8569688 104,14.8569688 C153.155031,14.8569688 193.143031,54.8449687 193.143031,104 C193.143031,153.155031 153.155031,193.143031 104,193.143031 L104,193.143031 Z" id="Shape" fill="#FFFFFF"></path>
                <path d="M104,54.4760937 C99.896875,54.4760937 96.5713125,57.8016563 96.5713125,61.9047812 L96.5713125,146.095219 C96.5713125,150.198344 99.896875,153.523906 104,153.523906 C108.103125,153.523906 111.428688,150.198344 111.428688,146.095219 L111.428688,61.9047812 C111.428688,57.8016563 108.103125,54.4760937 104,54.4760937 L104,54.4760937 Z" id="Shape" fill="#FFFFFE"></path>
                <path d="M146.095219,96.5713125 L61.9047812,96.5713125 C57.8016562,96.5713125 54.4760937,99.896875 54.4760937,104 C54.4760937,108.103125 57.8016562,111.428687 61.9047812,111.428687 L146.095219,111.428687 C150.198344,111.428687 153.523906,108.103125 153.523906,104 C153.523906,99.896875 150.198344,96.5713125 146.095219,96.5713125 L146.095219,96.5713125 Z" id="Shape" fill="#FFFFFF"></path>
            </g>
        </g>
    </g>
</svg>