<?xml version="1.0" encoding="UTF-8"?>
<svg width="46px" height="33px" viewBox="0 0 46 33" version="1.1" xmlns="http://www.w3.org/2000/svg" xmlns:xlink="http://www.w3.org/1999/xlink" xmlns:sketch="http://www.bohemiancoding.com/sketch/ns">
    <!-- Generator: Sketch 3.5 (25232) - http://www.bohemiancoding.com/sketch -->
    <title>Group 2</title>
    <desc>Created with Sketch.</desc>
    <defs></defs>
    <g id="Page-1" stroke="none" stroke-width="1" fill="none" fill-rule="evenodd" sketch:type="MSPage">
        <g id="Group-2" sketch:type="MSLayerGroup" transform="translate(-1.000000, 0.000000)">
            <g id="Group" transform="translate(12.000000, 0.000000)" sketch:type="MSShapeGroup">
                <g id="audience" transform="translate(6.321429, 1.881720)">
                    <g id="Capa_1">
                        <path d="M7.03647321,4.01663608 C6.75233852,3.86154338 6.42647775,3.7735178 6.0800851,3.7735178 L5.25682303,3.7735178 C4.90071638,3.7735178 4.56646624,3.86661754 4.27703299,4.02965239 C3.66836217,4.37204765 3.25728306,5.02396644 3.25728306,5.77163237 L3.25728306,6.38803207 L8.07962507,6.38803207 L8.07962507,5.77163237 C8.07962507,5.01425936 7.65794887,4.35550148 7.03647321,4.01663608 L7.03647321,4.01663608 Z" id="Shape" fill="#071339"></path>
                        <path d="M9.30999233,3.22595013 L8.6255964,3.22595013 C8.22599749,3.22595013 7.85355364,3.34397942 7.54116002,3.54738691 C7.69128557,3.64578142 7.83235944,3.7607221 7.96239467,3.89066463 C8.46509452,4.39300612 8.74194371,5.06102985 8.74194371,5.77163237 L8.74194371,6.06152113 L11.3035714,6.06152113 L11.3035714,5.21810808 C11.3035714,4.11966352 10.4092205,3.22595013 9.30999233,3.22595013 L9.30999233,3.22595013 Z" id="Shape" fill="#F1C50E"></path>
                        <path d="M2.67797503,3.22595013 L1.9935791,3.22595013 C0.894350935,3.22595013 0,4.11966352 0,5.21810808 L0,6.06152113 L2.59496443,6.06152113 L2.59496443,5.77163237 C2.59496443,5.06102985 2.87203439,4.39300612 3.37473424,3.89066463 C3.49991246,3.76557564 3.63524623,3.65438543 3.77919015,3.55841769 C3.46348493,3.34839173 3.08485944,3.22595013 2.67797503,3.22595013 L2.67797503,3.22595013 Z" id="Shape" fill="#F1C50E"></path>
                        <path d="M8.96675673,0.229793103 C8.96324644,0.229793103 8.95960369,0.229815165 8.95607132,0.229859288 C8.2152017,0.235970337 7.61770197,0.875865591 7.62414854,1.65624879 C7.63057303,2.43292566 8.23270898,3.06051057 8.96878784,3.06051057 C8.97232021,3.06051057 8.97594088,3.06048851 8.97947325,3.06044438 C9.34275502,3.05744401 9.68175178,2.90451335 9.93405103,2.62978087 C10.1804777,2.36142418 10.3144869,2.00782165 10.3114181,1.63405488 C10.3049936,0.857378013 9.70285767,0.229793103 8.96675673,0.229793103 L8.96675673,0.229793103 Z" id="Shape" fill="#F1C60D"></path>
                        <path d="M2.33476151,0.229793103 C2.33125122,0.229793103 2.32760847,0.229815165 2.3240761,0.229859288 C1.58320647,0.235970337 0.985706752,0.875865591 0.99215332,1.65624879 C0.998555734,2.43292566 1.60071376,3.06051057 2.33679262,3.06051057 C2.34032499,3.06051057 2.34394566,3.06048851 2.34747803,3.06044438 C2.71073772,3.05744401 3.04975656,2.90451335 3.3020558,2.62978087 C3.54850457,2.36142418 3.68251371,2.00782165 3.67942289,1.63405488 C3.6729984,0.857378013 3.07086244,0.229793103 2.33476151,0.229793103 L2.33476151,0.229793103 Z" id="Shape" fill="#F1C50E"></path>
                        <path d="M5.66856445,0.00981738969 C4.81439418,0.00981738969 4.11962193,0.743363923 4.11962193,1.64524008 C4.11962193,2.29693826 4.48257254,2.86083148 5.00646659,3.12336392 C5.20736991,3.22418521 5.43189593,3.28044216 5.66856445,3.28044216 C5.90523298,3.28044216 6.129759,3.22418521 6.33066232,3.12336392 C6.85455636,2.86083148 7.21750698,2.29693826 7.21750698,1.64524008 C7.21750698,0.743363923 6.52273472,0.00981738969 5.66856445,0.00981738969 L5.66856445,0.00981738969 Z" id="Shape" fill="#061339"></path>
                    </g>
                </g>
                <g id="car-compact" fill="#399ADD">
                    <g id="Capa_1">
                        <path d="M23.9806607,11.0968817 C23.9806607,10.6234946 23.8741607,10.1713441 23.6818393,9.75768817 C23.6620179,9.65252688 23.6393571,9.54752688 23.6110179,9.44102151 L21.5279464,4.26010753 L21.5138571,4.21349462 C20.7850179,2.0355914 19.7479821,0.0198924731 17.118375,0.0198924731 L7.06435714,0.0198924731 C4.36992857,0.0198924731 3.41780357,2.08553763 2.673,4.20139785 L0.494089286,9.39494624 C0.179089286,9.90145161 0,10.4808602 0,11.0968817 L0,12.7090323 C0,12.9582796 0.0293571429,13.2020968 0.0851785714,13.4369355 C0.0309107143,13.5788172 0,13.7317204 0,13.8929032 L0,18.6877957 C0,19.390914 0.567964286,19.9610215 1.26857143,19.9610215 L3.90107143,19.9610215 C4.60130357,19.9610215 5.16926786,19.390914 5.16926786,18.6877957 L5.16926786,16.29 L18.9617679,16.29 L18.9617679,18.6877957 C18.9617679,19.390914 19.5298393,19.9610215 20.2305,19.9610215 L22.71225,19.9610215 C23.413125,19.9610215 23.9809821,19.390914 23.9809821,18.6877957 L23.9809821,13.8923656 C23.9809821,13.7317742 23.94975,13.578172 23.8959107,13.4367742 C23.9515179,13.2015591 23.9809821,12.9580108 23.9809821,12.7088172 L23.9809821,11.0969355 L23.9806607,11.0969355 L23.9806607,11.0968817 Z M4.21896429,4.72155914 C5.04841071,2.37301075 5.71542857,1.65607527 7.06435714,1.65607527 L17.1177857,1.65607527 C18.4568036,1.65607527 19.2024107,2.45569892 19.9600714,4.71145161 L21.4801607,7.80295699 C20.9838214,7.61849462 20.4376071,7.51612903 19.86375,7.51612903 L4.11691071,7.51612903 C3.60021429,7.51612903 3.10644643,7.59951613 2.650875,7.75043011 L4.21896429,4.72155914 L4.21896429,4.72155914 Z M5.52476786,13.3212903 L2.74719643,13.3212903 C2.24710714,13.3212903 1.84151786,12.913871 1.84151786,12.412043 C1.84151786,11.9100538 2.24710714,11.5029032 2.74719643,11.5029032 L5.52476786,11.5029032 C6.02507143,11.5029032 6.43066071,11.9100538 6.43066071,12.412043 C6.43066071,12.913871 6.02480357,13.3212903 5.52476786,13.3212903 L5.52476786,13.3212903 Z M15.3366429,13.1391935 L8.87592857,13.1391935 C8.55916071,13.1391935 8.3025,12.8814516 8.3025,12.5637097 C8.3025,12.2453763 8.55916071,11.9877419 8.87592857,11.9877419 L15.3366429,11.9877419 C15.6537857,11.9877419 15.9103929,12.2453763 15.9103929,12.5637097 C15.9103929,12.8814516 15.6537857,13.1391935 15.3366429,13.1391935 L15.3366429,13.1391935 Z M21.1634464,13.3212903 L18.3859821,13.3212903 C17.8854643,13.3212903 17.4800893,12.913871 17.4800893,12.412043 C17.4800893,11.9100538 17.8857857,11.5029032 18.3859821,11.5029032 L21.1634464,11.5029032 C21.6639643,11.5029032 22.0696607,11.9100538 22.0696607,12.412043 C22.0696607,12.913871 21.6639643,13.3212903 21.1634464,13.3212903 L21.1634464,13.3212903 Z" id="Shape"></path>
                    </g>
                </g>
            </g>
            <g id="Group-4" transform="translate(0.000000, 20.000000)" font-size="12" sketch:type="MSTextLayer" font-weight="normal">
                <text id="Lisk" fill="#061339" font-family=".SF NS">
                    <tspan x="0" y="12" fill="#071239">Lisk</tspan>
                </text>
                <text id="Ride" font-family="Arial Rounded MT Bold" fill="#000000">
                    <tspan x="21" y="12">Ride</tspan>
                </text>
            </g>
        </g>
    </g>
</svg>