<svg width="173" height="72" xmlns="http://www.w3.org/2000/svg">
 <!-- Created with Method Draw - http://github.com/duopixel/Method-Draw/ -->
 <g>
  <title>background</title>
  <rect fill="#fff" id="canvas_background" height="74" width="175" y="-1" x="-1"/>
 </g>
 <g>
  <title>Layer 1</title>
  <path id="svg_3" fill="#19D1C3" d="m49.380044,68.29c-1.052,0 -2.291,-0.23 -3.794,-0.7c-1.569,-0.493 -3.372,-1.291 -5.504,-2.442c-2.09,-1.127 -3.912,-2.15 -5.41,-3.038c-1.8969,-1.127 -3.9819,-2.414 -6.1938,-3.827c-0.8388,-0.536 -1.5951,-1.018 -2.2688,-1.447l-0.7883,-0.502c-1.0331,-0.658 -1.8221,-1.16 -2.3715,-1.517c-0.0188,-0.009 -0.0376,-0.019 -0.0564,-0.019c-0.0281,0 -0.0563,0.01 -0.0751,0.033c-5.2408,5.776 -10.2468,8.791 -14.8771,8.96c-0.155,0.005 -0.3099,0.01 -0.4602,0.01c-2.2353,0 -4.0386,-0.634 -5.3582,-1.888c-1.3994,-1.329 -2.1414,-2.996 -2.2166,-4.95c-0.0986,-2.714 1.0097,-5.2172 3.292,-7.4384c2.2776,-2.2166 5.6118,-3.4187 9.9087,-3.5784c0.2676,-0.0094 0.5306,-0.0141 0.803,-0.0141c1.6436,0 3.3483,0.1785 5.2173,0.5447l0.0188,0c0.0329,0 0.0657,-0.014 0.0845,-0.0422c1.5779,-2.1931 3.6207,-5.4521 6.2505,-9.9557c2.6251,-4.4988 5.1281,-8.7299 7.2695,-12.3412c2.2677,-3.8273 4.7337,-7.6827 7.3307,-11.4584c2.578,-3.7474 5.255,-6.8139 7.96,-9.1103c2.681,-2.2776 5.254,-3.4751 7.659,-3.5643c0.089,-0.0047 0.183,-0.0047 0.272,-0.0047l0,0c3.442,0 5.283,2.5593 5.466,7.6076c0.137,3.6723 -0.563,7.9035 -2.136,12.9376c-1.541,4.9356 -3.56,9.2607 -5.992,12.8578c-2.419,3.5784 -4.701,5.4334 -6.782,5.5085c-0.089,0.0047 -0.178,0.0047 -0.267,0.0047l0,0c-1.705,0 -3.165,-0.6246 -4.335,-1.8596c-1.225,-1.2915 -1.869,-2.5876 -1.916,-3.8508c-0.014,-0.418 0.052,-0.7373 0.193,-0.9486c0.141,-0.2066 0.361,-0.3099 0.671,-0.324c1.902,-0.0705 4.156,-2.0522 6.706,-5.8842c2.527,-3.7991 4.659,-7.9034 6.335,-12.1956c1.672,-4.2781 2.485,-7.3588 2.419,-9.162c-0.01,-0.2865 -0.042,-1.1553 -0.737,-1.1553c-1.358,0.047 -3.321,2.4514 -6.035,7.34c-2.663,4.7946 -6.124,11.2001 -10.294,19.0331c-4.151,7.7954 -8.0393,14.1914 -11.5613,19.0002c-0.0188,0.0235 -0.0235,0.0564 -0.0141,0.0892c0.0094,0.0329 0.0329,0.0564 0.0611,0.0705c2.4513,1.0002 5.6213,2.5124 9.4203,4.4941c3.813,1.9868 7.1,3.5498 9.768,4.6488c2.479,1.024 4.592,1.541 6.283,1.541c0.099,0 0.197,0 0.296,-0.005c1.503,-0.056 2.728,-0.582 3.649,-1.573c0.033,-0.033 0.037,-0.085 0.014,-0.122c-0.014,-0.029 -0.042,-0.043 -0.071,-0.052c0.216,-0.174 0.428,-0.268 0.62,-0.272l0.01,0c0.206,0 0.713,0.028 0.723,1.469c0.07,1.912 -0.653,3.898 -2.151,5.908c-1.493,2.005 -3.771,3.076 -6.772,3.189c-0.07,-0.007 -0.132,-0.006 -0.196,-0.006c-0.022,0.001 -0.044,0.001 -0.067,0.001zm-37.3051,-18.4555c-0.4555,0.0188 -0.8688,0.2113 -1.1975,0.5682c-0.3334,0.3569 -0.4931,0.7514 -0.479,1.1694c0.0282,0.7044 0.5495,1.0566 1.5638,1.0566c0.0611,0 0.1221,0 0.1832,-0.0047c0.0281,0 0.0563,-0.0141 0.0751,-0.0376c0.9862,-0.0751 2.024,-0.6433 3.1651,-1.7422c0.0282,-0.0235 0.0376,-0.0611 0.0282,-0.0939c-0.0094,-0.0376 -0.0329,-0.0658 -0.0657,-0.0752c-1.4887,-0.5635 -2.5312,-0.8359 -3.1981,-0.8359l-0.0751,-0.0047zm108.6431,22.1655c-1.916,0 -8.603,-0.056 -19.686,-0.155l-5.809,-0.052c-14.097,-0.122 -22.611,-0.192 -25.424,-0.192c-0.916,0 -1.794,-0.291 -2.611,-0.874c-0.798,-0.563 -1.216,-1.113 -1.216,-1.596c0,-0.244 0.098,-0.564 0.958,-0.564c0.061,0 2.517,-0.122 23.024,-1.188c14.91,-0.775 23.626,-1.174 25.923,-1.188c0.018,0.033 0.051,0.047 0.089,0.047c1.535,0 2.963,0.549 4.24,1.634c1.292,1.094 1.921,2.099 1.921,3.067c-0.005,0.718 -0.46,1.061 -1.409,1.061zm-68.234,-17.207c1.066,1.052 2.565,1.56 4.574,1.56c0.151,0 0.296,-0.005 0.423,-0.047c2.653,-0.099 5.386,-1.099 8.115,-2.9683c2.756,-1.8878 5.335,-4.3532 7.659,-7.3305c0.014,-0.0188 0.033,-0.0329 0.056,-0.0376c1.137,-0.2818 2.147,-0.6199 3.09,-1.0237c0.667,-0.2865 1.268,-0.573 1.79,-0.8547c0.018,-0.0094 0.033,-0.0141 0.051,-0.0141c0.024,0 0.047,0.0094 0.066,0.0235c0.033,0.0235 0.047,0.0704 0.038,0.108c-0.47,1.808 -0.677,3.5032 -0.62,5.0435c0.15,4.0527 2.212,6.1099 6.128,6.1099c0.141,0 0.282,-0.005 0.428,-0.009l0.014,-0.001c1.723,-0.061 3.47,-0.512 5.344,-1.3662c1.85,-0.85 3.526,-1.8644 4.973,-3.0196c1.507,-1.2022 2.972,-2.5171 4.362,-3.9165c0.353,-0.3522 0.686,-0.6997 1.005,-1.0331c0.019,-0.0235 0.047,-0.0329 0.076,-0.0329c0.014,0 0.032,0 0.046,0.0094c0.038,0.0188 0.062,0.0657 0.052,0.1127c-0.272,1.329 -0.394,2.5593 -0.352,3.6723c0.117,3.2074 1.554,4.7669 4.391,4.7669c0.098,0 0.197,0 0.296,-0.005c2.996,-0.108 6.565,-2.4233 10.603,-6.8704c0.019,-0.0235 0.047,-0.0329 0.075,-0.0329c0.015,0 0.033,0 0.047,0.0094c0.043,0.0188 0.066,0.0657 0.057,0.1127c-0.179,0.9627 -0.259,1.8174 -0.23,2.5406c0.094,2.4889 1.418,3.7005 4.052,3.7005l0.001,0c0.108,0 0.22,0 0.333,-0.0047c1.564,-0.0611 3.315,-0.9205 5.208,-2.5594c1.225,-1.0613 2.348,-2.1883 3.339,-3.3577c0.018,-0.0234 0.051,-0.0375 0.079,-0.0375c0.008,0 0.016,0.0015 0.024,0.0036c0.006,0.0017 0.013,0.0037 0.019,0.0057c0.042,0.0188 0.065,0.0611 0.061,0.1081c-0.066,0.5635 -0.094,1.0895 -0.075,1.5638c0.093,2.5358 1.39,3.7709 3.954,3.7709c0.103,0 0.202,0 0.305,-0.0047c1.521,-0.0564 3.25,-0.9157 5.142,-2.5547c1.921,-1.6577 3.564,-3.4657 4.889,-5.3629c1.052,-1.5074 2.094,-3.0618 3.104,-4.6256c0.019,-0.0282 0.056,-0.0469 0.089,-0.0469l0.019,0c0.042,0.0047 0.075,0.0375 0.084,0.0798c0.16,0.7608 0.367,1.6107 0.611,2.5265c0.451,1.6999 1.033,3.2262 1.728,4.527c0.7,1.3149 1.691,2.4419 2.94,3.3576c1.192,0.8735 2.512,1.2962 4.034,1.2962c0.098,0 0.197,0 0.3,-0.0047c2.353,-0.0893 4.405,-1.1553 6.091,-3.1699c1.709,-2.0428 3.029,-4.5223 3.931,-7.3775c0.901,-2.8552 1.685,-5.7573 2.329,-8.6172c0.681,-3.0149 1.31,-5.4146 1.925,-7.3447c0.662,-2.0756 1.362,-3.0994 2.142,-3.1275c0.305,-0.0141 0.521,-0.1503 0.657,-0.418c0.146,-0.2864 0.211,-0.7232 0.188,-1.3102c-0.024,-0.6856 -0.263,-1.2773 -0.728,-1.8033c-0.418,-0.4696 -1.033,-0.7091 -1.822,-0.7091c-0.047,0 -0.155,0.0047 -0.155,0.0047c-0.024,0 -0.038,-0.0094 -0.052,-0.0282c-1.272,0.1221 -4.358,1.9489 -9.181,5.424c-4.86,3.5079 -9.096,6.7858 -12.594,9.7537c-0.019,0.0141 -0.043,0.0235 -0.066,0.0235l-0.014,0c-0.028,0 -0.052,-0.0188 -0.071,-0.0423c-0.206,-0.2958 -0.483,-0.4414 -0.854,-0.4414l-0.057,0c-0.53,0.0188 -0.981,0.2489 -1.371,0.7044c-0.399,0.4602 -0.587,1.0613 -0.559,1.7798l0.002,0.0282c0.009,0.1789 0.018,0.362 0.031,0.5494c0.005,0.0282 -0.005,0.0564 -0.023,0.0751l-0.292,0.3476c-0.868,1.0378 -1.695,1.9911 -2.451,2.8411c-0.751,0.8453 -1.582,1.6718 -2.47,2.456c-0.892,0.7889 -1.615,1.1975 -2.151,1.2163l-0.061,0c-0.573,0 -0.873,-0.3194 -0.897,-0.9533c-0.084,-2.2353 2.574,-7.3118 8.12,-15.5111c5.499,-8.1289 10.829,-14.9898 15.849,-20.3949c0.225,-0.2442 0.343,-0.5166 0.333,-0.789c-0.028,-0.7185 -0.577,-1.4652 -1.643,-2.2118c-1.019,-0.7138 -2.048,-1.0754 -3.057,-1.0754c-0.026,0 -0.053,0.0011 -0.08,0.0023c-0.027,0.0012 -0.054,0.0024 -0.08,0.0024c-0.69,0.0281 -1.263,0.2583 -1.742,0.7091c0.018,0.0375 0.009,0.0798 -0.019,0.1127c-1.104,1.1881 -3.043,3.6864 -5.772,7.4338c-2.737,3.7616 -5.64,7.988 -8.88,12.9236c-2.925,4.4565 -5.532,9.0399 -7.767,13.642l-0.705,0.8453c-1.375,1.6624 -2.582,2.982 -3.686,4.0386c-1.15,1.1036 -2.071,1.6765 -2.724,1.7l-0.07,0c-0.695,0 -1.061,-0.3804 -1.09,-1.1412c-0.056,-1.559 1.01,-4.1654 3.26,-7.9645c2.211,-3.7333 4.16,-6.5228 5.799,-8.2838c0.301,-0.2912 0.437,-0.5307 0.427,-0.7514c-0.046,-0.4602 -0.54,-0.695 -1.469,-0.695c-0.071,0 -0.146,0 -0.221,0.0047c-0.775,0.0282 -1.601,0.2536 -2.451,0.6715c-0.015,0.0047 -0.033,0.0094 -0.047,0.0094c-0.012,0 -0.02,-0.0029 -0.03,-0.0065c-0.002,-0.0009 -0.005,-0.0019 -0.008,-0.0029c-0.028,-0.0094 -0.052,-0.0328 -0.061,-0.061c-1.24,-3.4234 -3.644,-5.1563 -7.138,-5.1563c-0.132,0 -0.264,0.0044 -0.4,0.009l-0.013,0.0004c-3.029,0.1127 -6.331,1.963 -9.806,5.5038c-3.451,3.5173 -6.325,7.617 -8.556,12.2144c-0.141,0.1456 -0.277,0.2865 -0.399,0.418c-0.376,0.4038 -0.836,0.85 -1.367,1.3337c-0.535,0.4883 -1.108,1.0002 -1.653,1.4416c-0.507,0.4086 -1.117,0.8641 -1.822,1.3478c-0.737,0.5072 -1.408,0.9204 -1.995,1.2257c-0.677,0.3522 -1.315,0.6246 -1.949,0.8312c-0.686,0.2207 -1.353,0.3475 -1.982,0.371c-0.089,0.0047 -0.179,0.0047 -0.263,0.0047c-2.696,0 -4.104,-1.1177 -4.184,-3.3154c-0.066,-1.7658 0.704,-4.048 2.287,-6.7811c1.554,-2.6721 3.343,-5.0577 5.32,-7.0864c1.959,-2.0005 3.527,-3.0383 4.668,-3.0806c0.052,-0.0047 0.099,-0.0047 0.146,-0.0047c0.418,0 0.92,0.1831 0.953,1.0519c0.038,1.0191 -0.46,2.2588 -1.517,3.785c-1.042,1.5028 -2.066,2.2776 -3.09,2.3152c-0.206,0 -0.357,0.047 -0.451,0.1456c-0.093,0.0986 -0.14,0.2536 -0.131,0.4602c0.019,0.5353 0.268,1.0613 0.756,1.606c0.47,0.526 0.991,0.789 1.55,0.789l0.066,0c1.573,-0.0564 3.151,-1.2257 4.827,-3.5737c1.686,-2.3528 2.465,-4.4942 2.39,-6.5369c-0.061,-2.5171 -1.568,-3.7428 -4.606,-3.7428c-0.141,0 -0.287,0.0047 -0.433,0.0094c-3.475,0.1315 -7.058,1.8596 -10.641,5.1469c-3.588,3.2919 -6.499,7.1427 -8.65,11.449c-0.202,0.4038 -0.39,0.7983 -0.568,1.1881c-0.005,0.014 -0.014,0.0281 -0.028,0.0375c-1.151,0.9252 -2.306,1.6108 -3.428,2.0475c-0.003,0.001 -0.006,0.002 -0.009,0.0029c-0.01,0.0036 -0.018,0.0065 -0.029,0.0065c-0.028,0 -0.061,-0.0141 -0.08,-0.0376c-0.028,-0.0375 -0.033,-0.0845 -0.009,-0.1221c2.888,-4.9872 4.283,-9.3592 4.151,-12.9893c-0.174,-3.8648 -2.151,-5.8231 -5.875,-5.8231c-0.141,0 -0.281,0.0047 -0.422,0.0094l0,0c-1.423,0.0517 -2.752,0.4509 -4.095,1.2304c-3.165,0.6058 -6.368,2.4983 -9.524,5.6259c-3.132,3.1041 -5.682,6.6825 -7.57,10.6224c-1.869,3.8978 -2.761,7.3728 -2.653,10.3267c0.07,2.0334 0.681,3.6253 1.812,4.7378zm9.872,-19.5304c0.018,-0.0329 0.051,-0.0517 0.089,-0.0517c0.014,0 0.028,0 0.037,0.0141c0.047,0.0188 0.076,0.0705 0.061,0.1221c-0.333,1.3713 -0.469,2.7097 -0.418,4.0856c0.094,2.5593 0.926,4.5035 2.471,5.7855c0.028,0.0235 0.042,0.0564 0.037,0.0893c-0.005,0.0328 -0.023,0.061 -0.051,0.0798c-1.165,0.6903 -2.165,1.0425 -3.053,1.0754l-0.127,0c-1.352,0 -2.071,-0.8453 -2.132,-2.5124c-0.084,-2.2447 0.954,-5.1657 3.086,-8.6877zm54.258,-6.8844c2.207,-2.5453 3.949,-3.8085 5.335,-3.8602l0.108,-0.0047c0.878,0 1.714,0.4227 2.474,1.2539c0.78,0.8547 1.268,1.8455 1.442,2.9491c0.005,0.0329 -0.005,0.061 -0.023,0.0845c-1.334,1.6202 -2.644,3.3577 -3.903,5.1845c-6.001,7.0487 -9.956,10.5097 -12.088,10.5896l-0.07,0c-0.333,0 -0.601,-0.0939 -0.794,-0.2865c-0.225,-0.2254 -0.338,-0.5823 -0.338,-1.0519c-0.056,-1.4605 0.705,-3.6958 2.254,-6.6496c1.541,-2.935 3.429,-5.6963 5.603,-8.2087zm36.775,14.6282c-0.024,0 -0.052,-0.0094 -0.071,-0.0282c-0.042,0 -0.08,0 -0.122,0.0047c-2.221,0 -3.785,-1.7986 -4.658,-5.3441c-0.01,-0.0376 0.004,-0.0751 0.028,-0.0986c2.653,-2.6486 7.955,-6.767 15.764,-12.2426c0.019,-0.0141 0.043,-0.0188 0.061,-0.0188c0.024,0 0.047,0.0094 0.066,0.0235c0.033,0.0281 0.047,0.0798 0.028,0.1221c-0.38,0.8687 -1.019,2.3433 -1.897,4.419c-0.718,1.7046 -1.418,3.3248 -2.08,4.8228c-0.568,1.282 -1.245,2.6204 -2.019,3.9776c-0.813,1.4276 -1.639,2.517 -2.457,3.2261c-0.821,0.7185 -1.709,1.1036 -2.639,1.1365l-0.004,0zm-83.722,-12.9423c1.339,-2.7284 2.78,-4.156 4.278,-4.2359l0.038,-0.0422c0.019,-0.0188 0.042,-0.0329 0.07,-0.0329l0.094,0c1.029,0 1.569,0.6199 1.616,1.8408c0.056,1.5356 -0.568,3.6066 -1.907,6.335c-1.305,2.6627 -2.925,5.1281 -4.818,7.3353c-0.023,0.0234 -0.052,0.0375 -0.08,0.0375c-0.033,0 -0.061,-0.0094 -0.08,-0.0328c-0.671,-0.7561 -1.042,-1.8644 -1.094,-3.2967c-0.089,-2.5124 0.545,-5.175 1.883,-7.9081z" clip-rule="evenodd" fill-rule="evenodd"/>
 </g>
</svg>