<svg width="221" height="172" viewBox="0 0 221 172" fill="none" xmlns="http://www.w3.org/2000/svg">
<path fill-rule="evenodd" clip-rule="evenodd" d="M55.025 95.668C56.279 105.072 57.5327 114.476 58.7867 123.88L59.7992 131.475C59.9271 132.433 59.8063 134.323 60.2933 135.181C60.4653 135.484 60.9174 135.628 61.2498 135.806C62.3939 136.42 63.5382 137.035 64.6823 137.649C74.3607 142.845 84.0392 148.041 93.7171 153.237C103.006 158.224 112.294 163.211 121.582 168.198C122.543 168.714 124.098 170.06 125.136 169.706C126.122 169.368 127.13 168.537 128.026 168.012C129.745 167.005 131.463 165.997 133.182 164.99C143.584 158.894 153.985 152.799 164.386 146.703C168.678 144.188 172.969 141.673 177.26 139.158C178.434 138.47 179.609 137.782 180.783 137.094C181.397 136.734 181.477 136.746 181.719 136.136C182.622 133.852 183.041 131.236 183.68 128.866C184.385 126.255 185.09 123.644 185.794 121.032C186.108 119.867 185.961 119.717 185.448 118.592C184.434 116.366 183.42 114.14 182.406 111.914C180.155 106.973 177.905 102.032 175.653 97.0908C174.743 95.0928 172.551 93.6868 170.972 92.2172L146.464 69.3993C145.841 68.8196 145.219 68.2402 144.596 67.6605C144.494 71.144 143.805 74.8888 144.815 78.2539C146.472 83.7764 148.129 89.2989 149.785 94.8214C150.586 97.4908 151.387 100.16 152.188 102.829C152.336 103.325 153.242 105.292 153 105.728C152.866 105.97 151.722 106.214 151.474 106.308C150.409 106.713 149.345 107.119 148.28 107.524C145.314 108.652 142.348 109.781 139.382 110.909C136.714 111.924 134.046 112.939 131.378 113.954C130.473 114.298 129.411 114.935 128.455 114.882C127.601 114.835 126.629 114.412 125.802 114.199C124.348 113.824 122.894 113.45 121.44 113.075C118.583 112.339 115.727 111.604 112.871 110.868C109.657 110.04 106.943 107.609 104.195 105.81C99.4713 102.717 94.7476 99.6236 90.0241 96.5309C88.9426 95.8228 88.9386 95.4188 88.5077 94.126C87.5393 91.2206 86.5707 88.3152 85.6023 85.4098C85.0852 83.8586 84.4492 82.3007 84.0587 80.7125C83.4145 78.0914 83.0325 75.3781 82.5223 72.728C82.3685 71.9284 82.2145 71.1286 82.0607 70.3291C80.0825 71.1318 78.1042 71.9348 76.1257 72.7377C75.839 72.854 74.4418 73.2009 74.3177 73.486C74.2389 73.6662 74.6545 74.484 74.714 74.6597C76.3543 79.5179 77.9946 84.3759 79.6351 89.2339C80.1511 90.7622 80.6669 92.2901 81.1829 93.8184C79.9501 91.8809 78.7169 89.9431 77.4838 88.0055C76.5152 91.2642 75.5463 94.5231 74.5774 97.7817C72.2876 95.1395 69.9976 92.4973 67.7076 89.8551C66.9149 92.4973 66.1223 95.1395 65.3296 97.7817C62.8636 94.5231 60.3977 91.2642 57.9314 88.0055C57.6384 89.7061 57.3451 91.4066 57.0518 93.1071C56.9633 93.6205 56.981 95.093 56.6394 95.4994C56.358 95.8339 55.5479 95.668 55.025 95.668Z" fill="#F1C310"/>
<path fill-rule="evenodd" clip-rule="evenodd" d="M211.163 115.996C211.024 120.423 211.12 126.17 208.698 130.062C208.307 130.69 206.982 132.647 206.834 130.925C206.689 129.235 207.105 127.562 206.693 125.852C206.473 124.938 205.731 122.939 204.465 123.766C203.819 124.187 203.649 125.227 203.396 125.883C203.023 126.854 202.604 127.81 202.211 128.773C200.837 132.137 199.413 136.151 196.359 138.377C196.759 135.477 197.848 132.38 197.116 129.448C196.866 128.448 196.11 126.624 194.808 127.209C193.539 127.78 192.717 130.325 192.118 131.459C190.303 134.895 188.446 138.267 186.403 141.576C185.374 143.24 184.264 144.761 182.919 146.184C182.078 147.074 181.029 148.579 179.704 148.712C179.704 146.174 180.539 143.723 181.301 141.334C182.121 138.764 182.868 136.173 183.673 133.599C184.371 131.366 184.944 129.15 185.409 126.861C185.602 125.914 185.754 124.933 186.561 124.321C187.287 123.772 188.433 123.51 189.242 123.106C191.366 122.045 193.551 120.9 195.525 119.58C196.335 119.039 197.032 118.339 197.881 117.853C198.848 117.3 199.75 116.834 200.645 116.159C204.504 113.248 207.983 109.668 210.327 105.405C210.708 107.118 211.212 108.791 211.267 110.556C211.324 112.366 211.22 114.187 211.163 115.996ZM179.401 136.344C178.784 135.301 177.843 135.728 177.015 136.231C175.729 137.011 174.44 137.785 173.148 138.555C170.518 140.122 167.937 141.77 165.367 143.434C160.137 146.819 154.724 149.59 149.21 152.456C143.881 155.225 138.762 158.521 133.769 161.852C132.569 162.653 131.377 163.472 130.225 164.34C129.202 165.111 128.384 166.193 127.308 166.88C126.186 167.594 125.415 167.014 124.343 166.487C123.002 165.829 121.604 165.276 120.233 164.682C114.7 162.283 109.152 159.794 103.77 157.071C98.4206 154.366 93.3521 151.248 88.2264 148.151C85.7853 146.677 83.3859 145.109 80.978 143.58C78.4156 141.953 75.7626 140.734 73.0746 139.351C71.8854 138.739 70.8319 137.908 69.6104 137.351C68.3263 136.767 66.9698 136.347 65.8199 135.504C65.3044 135.125 64.8695 134.673 64.2803 134.405C63.7965 134.186 63.2474 134.149 62.7697 133.916C61.7979 133.441 61.5197 132.478 61.3316 131.476C60.1212 125.046 59.4778 118.437 58.7763 111.935C58.382 108.279 57.9421 104.637 57.3973 101C57.1516 99.3603 57.6457 98.09 57.9051 96.4949C58.2079 94.6318 58.3276 92.7297 58.5305 90.854C59.4881 92.628 60.3162 94.4897 61.5345 96.1086C62.4326 97.3015 63.9666 98.9933 65.6204 98.9534C68.1908 98.8913 68.0732 94.4828 68.1768 92.7329C69.3475 93.7779 69.7026 95.4802 70.6744 96.6941C71.5617 97.8022 72.7692 99.1772 74.1318 99.6734C77.0007 100.718 76.7246 95.393 76.5668 93.8827C76.4876 93.1252 76.0598 91.9267 77.0747 92.2721C78.0092 92.5902 78.9187 93.9089 79.7042 94.5137C81.0621 95.5595 82.5515 96.4285 83.9445 97.4268C85.6727 98.6654 87.5376 99.5606 89.2997 100.714C90.4018 101.436 91.604 101.598 92.8054 102.128C94.5657 102.906 96.1206 104.065 97.796 104.997C101.114 106.842 104.794 108.497 108.424 109.609C109.598 109.969 111.162 110.983 112.053 109.941C112.602 109.299 112.962 108.319 113.428 107.6C114.017 106.69 114.642 105.803 115.291 104.935C117.6 101.848 120.162 98.9339 123.008 96.3308C126.318 93.3025 129.938 90.5773 133.81 88.3077C135.474 87.3324 142.42 82.9614 143.947 86.0377C142.692 85.9595 141.605 86.4185 140.532 86.9932C140.27 87.1335 138.919 88.0979 139.235 87.2479C138.843 87.3213 138.499 87.8329 138.202 88.0604C137.689 88.4535 136.91 88.9074 136.315 89.233C135.728 89.5545 135.002 89.6333 134.466 90.0233C134.271 90.1657 134.152 90.3966 133.965 90.5506L133.431 90.5549C133.351 90.8511 133.27 91.147 133.19 91.4432C132.888 90.4743 132.457 91.7344 131.952 92.1436C131.648 92.3896 131.168 92.643 130.81 92.8018C130.543 92.9204 130.502 92.6446 130.242 92.8544C130.012 93.0407 129.865 93.451 129.617 93.6846C129.313 93.9705 128.924 94.1927 128.585 94.4368C127.936 94.9045 127.249 95.2718 126.591 95.7151C125.706 96.3117 125.241 97.3377 124.382 97.9615C123.975 98.2569 123.343 98.2915 123.122 98.4807C122.57 98.9558 122.752 99.6755 121.721 99.7073C121.815 99.8573 121.871 100.02 121.891 100.196C121.645 100.154 121.427 100.052 121.236 99.8904C121.279 100.918 120.268 101.285 119.662 101.918C119.313 102.283 118.878 102.795 118.632 103.234C118.591 103.308 118.512 103.894 118.495 103.902C118.402 103.946 117.833 103.446 117.886 103.488C117.728 104.438 116.809 105.335 116.406 106.215C116.194 106.678 115.979 107.422 115.561 107.748C115.448 107.837 115.098 107.744 114.809 108.052C114.597 108.278 114.353 108.695 114.267 108.994C114.209 109.194 114.278 109.711 114.196 109.831C114.045 110.051 113.81 109.83 113.573 109.993C113.135 110.292 113.124 110.76 112.484 110.822C112.925 111.894 115.59 112.225 116.558 112.53C119.297 113.392 122.17 114.252 124.73 115.572C125.392 115.914 126.019 116.195 126.136 116.982C126.299 118.076 125.742 119.532 125.635 120.637C125.347 123.623 125.288 126.696 125.348 129.694C125.405 132.534 125.497 135.4 125.63 138.237C125.752 140.867 126.283 143.444 126.569 146.056C126.647 146.773 126.595 150.005 127.827 149.842C128.856 149.706 128.206 147.498 128.187 146.866C128.144 145.465 128.439 144.035 128.426 142.622C128.421 141.943 128.718 141.357 128.746 140.707C128.774 140.065 128.455 139.557 128.551 138.892C128.643 138.253 130.532 134.578 128.718 135.008C128.824 134.483 128.917 133.953 129.057 133.436C129.251 133.61 129.408 133.814 129.525 134.046C129.687 132.918 129.633 131.791 129.733 130.662C129.778 130.15 129.985 129.589 129.915 129.074C129.928 128.86 129.901 128.65 129.833 128.445C129.722 128.326 129.583 128.264 129.419 128.258C129.333 127.976 129.311 127.898 129.464 127.621C129.53 127.433 129.66 127.316 129.856 127.269C130.228 127.225 130.27 127.011 129.983 126.628C130.133 125.871 130.152 125.394 130.044 124.638C129.953 124.004 130.287 122.776 129.947 122.211C129.549 121.55 129.352 122.191 129.278 121.276C129.262 121.082 129.249 120.678 129.327 120.485C129.412 120.275 129.669 120.361 129.702 120.286C129.924 119.778 129.939 118.776 129.151 118.863C129.182 118.5 129.213 118.136 129.243 117.773C129.813 118.429 129.614 117.874 129.937 117.509C130.372 117.019 130.797 116.934 131.419 116.74C133.076 116.223 134.672 115.445 136.291 114.814C139.72 113.478 143.212 112.285 146.54 110.706C153.54 107.385 160.401 103.78 167.444 100.546C166.941 99.6124 167.254 99.567 167.622 98.6903C168.113 99.0311 168.009 98.7933 168.359 98.7724C168.327 98.4799 168.418 98.3917 168.631 98.5077C168.801 98.5597 168.975 98.5782 169.154 98.5629C169.59 98.6377 169.946 98.8776 170.342 98.9688C170.472 99.0647 170.615 99.1365 170.771 99.1849C170.911 99.1529 171.031 99.0837 171.129 98.9769C171.771 99.0958 171.987 99.5791 172.015 100.279C172.02 100.401 171.648 100.525 171.754 100.689C171.941 100.975 172.442 100.907 172.729 100.943C172.666 101.24 172.603 101.537 172.541 101.833C173.8 101.252 173.471 103.071 173.853 103.668C173.96 103.835 174.197 103.702 174.32 103.895C174.481 104.147 174.432 104.504 174.569 104.755C174.879 105.323 175.19 105.254 175.498 105.904C177.113 109.299 179.26 112.462 180.809 115.93C181.547 117.581 182.212 119.26 182.982 120.896C183.691 122.402 184.096 123.682 183.591 125.326C182.419 129.141 181.166 133.025 179.631 136.709C179.554 136.587 179.478 136.466 179.401 136.344ZM97.679 164.817C97.5691 165.004 97.4591 165.191 97.3492 165.378C97.1051 163.974 97.7556 164.625 97.679 164.817ZM92.5113 162.187C92.1591 162.082 92.3113 161.507 92.3227 161.261C92.5454 161.538 92.7639 161.821 92.9494 162.126C92.8033 162.147 92.6572 162.167 92.5113 162.187ZM78.3482 156.789C78.7181 156.581 78.9842 156.432 79.4035 156.197C78.9774 157.028 78.9773 157.028 78.3482 156.789ZM56.0667 83.6159C55.5015 85.003 57.2248 93.5681 55.6204 93.8476C55.3903 93.0959 55.3615 91.026 54.4089 90.7789C53.2271 90.4722 53.3436 92.6031 53.1822 93.2621C50.7558 91.574 49.6781 88.314 48.5189 85.7304C47.0414 82.4374 45.8788 79.0123 44.7685 75.5812C43.8192 72.6475 43.0342 69.6621 42.0748 66.7332C41.4721 64.8936 40.8224 63.0496 40.4171 61.1536C40.3291 60.7417 39.9827 59.6972 40.277 59.3056C40.7048 58.7362 42.2447 59.3883 42.7409 59.5379C45.9599 60.5065 49.2992 60.9235 52.6064 61.4862C56.281 62.1111 59.9473 62.7571 63.644 63.2417C64.5677 63.3627 65.492 63.4774 66.4168 63.5889C67.0166 63.6613 67.9244 63.5889 68.4941 63.8579C69.6471 64.4019 69.8926 66.484 70.3209 67.5641C71.9187 71.5941 73.7991 75.4966 75.4814 79.4901C76.997 83.0874 78.1458 86.9147 80.3244 90.1903C78.6997 89.47 76.6406 85.662 74.8251 87.8569C74.0446 88.8007 74.2414 90.0441 74.3038 91.1737C74.3942 92.8066 74.4224 94.4516 74.4224 96.0872C72.6458 95.6256 71.452 93.6087 70.5193 92.1801C69.2453 90.2288 68.4428 88.3901 67.8787 86.1532C67.6343 85.1846 66.9864 85.1605 66.4107 84.5808C66.0408 84.2083 65.8548 83.7062 65.3242 84.2482C64.6573 84.9293 65.1009 86.8156 65.2161 87.6199C65.4896 89.5337 66.3867 92.4789 65.5147 94.2772C64.3379 96.7041 61.1844 90.5977 60.815 89.7157C60.6271 89.2668 57.2721 80.6571 56.0667 83.6159ZM53.8636 42.0247C54.0623 42.0551 54.2607 42.0855 54.4594 42.1159C54.2993 42.2572 53.9661 42.7529 53.694 42.6219C53.7505 42.4229 53.807 42.2239 53.8636 42.0247ZM64.3876 39.7664C64.3255 39.8348 64.2628 39.903 64.2005 39.9714C63.9156 39.6153 64.0166 39.0961 64.0166 38.6842C64.3931 38.9117 64.485 39.3666 64.3876 39.7664ZM65.2381 43.7181V44.8823C64.4491 44.5404 64.4335 44.3639 65.2381 43.7181ZM66.1961 45.1983C65.6434 45.0466 65.5773 44.9243 65.655 44.0748C65.8841 44.5507 66.035 44.8643 66.1961 45.1983ZM69.3779 53.8198C69.1462 54.4159 67.792 52.9955 67.8417 52.5703C67.889 52.1648 68.097 52.0437 68.3839 52.3045C68.4788 52.3909 68.3379 52.703 68.3984 52.8113C68.617 53.2034 69.0574 53.5242 69.3779 53.8198ZM69.393 57.4111C69.0537 58.2582 68.4489 56.9242 69.3354 56.8877C69.3935 57.0582 69.4128 57.2325 69.393 57.4111ZM68.7348 56.0755C68.6035 55.9003 68.4758 55.7228 68.3519 55.542C68.8085 55.6343 69.171 56.2996 69.6527 55.8557C69.5956 56.5326 69.1147 56.5514 68.7348 56.0755ZM39.2093 45.0723C38.475 44.2709 43.263 43.7083 43.8406 43.5707C48.0322 42.5711 51.9897 41.1248 55.9089 39.35C57.7786 38.5034 59.6387 37.6466 61.4645 36.708C62.2529 36.303 63.3336 35.9595 63.992 35.3513C64.4621 34.9171 64.4433 34.5887 65.0542 34.33C65.5728 34.111 65.5987 34.3179 65.8363 33.9216C65.979 33.6838 66.1404 32.8124 66.0569 32.5545C65.8294 31.8509 65.4931 32.4213 65.0209 31.9365C64.6808 31.5869 64.7633 30.5929 64.856 30.1812C64.9765 30.3773 65.0457 30.5903 65.0642 30.8196C65.5765 30.567 65.3699 29.6996 65.9303 29.5574C66.5209 29.4079 66.4598 29.8679 66.6139 30.3382C67.0602 29.6829 66.7024 29.1241 66.4609 28.4841C67.6887 28.2543 69.008 28.0315 70.225 28.44C71.1051 28.7351 71.8584 29.461 72.7877 29.6013C73.6977 29.7384 73.8726 29.3069 74.5434 28.8691C75.088 28.5137 75.5557 28.9323 75.836 28.6638C75.6632 29.5701 74.1775 29.4462 74.3603 30.5786C74.4428 31.0883 75.0674 31.5462 75.3517 31.9428C75.7087 32.4406 75.9932 32.991 76.2363 33.5519C77.182 35.7339 77.5862 38.2659 77.9831 40.5992C78.9623 46.3587 79.0862 52.2319 80.0073 58.0099C80.4462 60.762 80.8861 63.5157 81.1141 66.2948C81.1712 66.9897 81.5955 68.5658 81.2483 69.2343C80.9548 69.7987 80.3016 69.8002 79.7283 69.9368C78.6064 70.2034 77.5529 70.5657 76.4768 70.967C75.5121 71.3267 75.2317 71.5473 74.6124 70.6397C74.0134 69.7614 73.7172 68.7146 73.2887 67.7517C72.7428 66.525 72.0833 65.3412 71.4502 64.1578C72.6939 64.1578 73.4097 63.4864 73.3766 62.2226C73.3407 60.8228 72.1895 60.4907 71.715 59.3402C71.2534 59.9398 71.2145 59.9567 70.8856 59.3875C70.5093 58.7368 70.2554 57.5459 70.0252 56.8077C70.1899 56.9834 70.3545 57.1591 70.5191 57.3345C70.9342 56.7633 70.2839 55.8628 70.0665 55.3249C69.7309 54.4941 69.6717 53.5961 69.3533 52.7677C69.1797 52.3156 68.7776 51.9597 68.679 51.4881C68.6132 51.1723 68.8769 50.8719 68.8143 50.5514C68.7055 49.9934 68.0742 49.3947 67.8779 48.8271C67.5759 47.9541 67.248 47.1855 66.8734 46.335C66.3663 45.1838 66.4841 43.9757 66.3914 42.7505C66.2952 41.4802 65.8883 40.2647 65.7446 38.9999C65.6452 38.1261 65.9562 37.0259 65.2952 36.326C65.2177 37.4893 65.5512 37.4714 64.4581 37.6806C63.2136 37.9187 62.311 38.8459 61.1344 39.1225C60.8919 39.1796 60.7151 38.12 60.8097 39.5653C60.2453 39.1487 59.0408 39.666 59.4902 39.9133C59.1496 40.2777 58.4788 40.0256 58.3667 40.5715C57.2092 39.4462 55.353 43.2766 53.9746 41.2786C53.7471 42.6327 52.7665 43.4333 51.4502 43.6124C50.7883 43.7023 50.3804 43.9229 49.793 44.1213C49.6738 44.1612 49.63 44.3327 49.4889 44.3789C49.2733 44.4492 48.9567 44.237 48.8014 44.2783C48.4851 44.3623 48.1334 44.7784 47.6919 44.8611C47.1856 44.956 46.6334 44.9124 46.1266 44.8537C45.493 44.7803 45.2143 44.7052 44.5939 44.914C44.0359 45.1018 43.4382 45.6279 42.9203 45.0551C42.1068 46.4626 40.1671 46.1186 39.2093 45.0723ZM76.8197 28.0873C76.2041 28.0136 76.6316 27.4841 76.9167 27.325C77.6914 26.8933 77.4845 28.1671 76.8197 28.0873ZM42.7298 33.1381C46.3433 27.925 52.524 24.3433 57.9622 21.3295C60.9326 19.6834 63.9645 18.0878 67.0834 16.7405C68.6341 16.071 70.2028 15.4273 71.7863 14.8392C72.6318 14.525 73.4876 14.2394 74.344 13.9551C74.5807 13.8766 75.0114 13.6357 75.2592 13.6592C75.2164 13.6549 75.8751 13.8341 75.7457 13.8904C76.17 13.7057 76.3719 13.224 76.8707 13.0314C77.4314 12.8147 78.1456 12.7252 78.7462 12.7056C79.2775 12.6882 79.7375 12.9077 80.2438 12.9249C80.5764 12.936 80.8591 12.778 81.1849 12.7547C81.3516 12.7431 81.3369 12.9925 81.4373 13.0071C81.4809 13.0134 81.9247 12.8467 81.929 12.8496C82.0907 12.9534 82.2339 13.3588 82.38 13.517C82.7991 13.971 83.4142 14.2872 83.973 14.5261C84.6531 14.8167 86.3122 15.109 85.5433 16.1843C86.0894 16.1059 86.3436 16.5994 85.6598 16.7244C85.2893 16.7923 85.1311 16.4531 84.856 16.2216C84.2206 15.6879 82.678 14.928 81.7628 14.9623C81.2478 14.9816 80.8499 15.3724 80.3751 15.5143C79.9077 15.6538 79.6762 15.4374 79.2661 15.4717C78.7868 15.5116 78.4782 15.9172 78.0214 15.9893C77.5936 16.057 77.3553 15.7653 76.973 15.7856C76.5185 15.8097 76.0783 16.2044 75.6445 16.3371C74.9543 16.5479 74.4475 16.6917 73.7738 17.0412C72.468 17.7189 71.0097 17.9763 69.6641 18.5597C68.5881 19.0261 67.3682 19.2715 66.3727 19.7873C65.2656 20.3604 64.1535 20.9314 63.0693 21.5541C62.2862 22.0041 60.694 22.1589 59.8305 22.0445C59.8181 23.6346 59.0355 22.5199 58.2468 23.2163C58.4333 23.381 58.6452 23.502 58.8817 23.5794C58.0269 23.9208 57.2369 24.3456 56.4088 24.738C55.553 25.1438 54.6399 25.2332 54.0776 26.0007C53.5597 26.708 53.7352 26.3431 52.9623 26.6216C52.6077 26.7495 52.2994 27.1395 52.0439 27.4014C51.6048 27.8516 51.5075 28.5333 51.2568 27.608C51.1836 27.7208 50.8956 28.4392 50.8396 28.4575C50.5254 28.124 50.4802 28.5193 50.3045 28.6606C50.397 28.9679 50.2649 29.1693 49.9082 29.2646C49.7277 29.3989 49.5449 29.5305 49.3602 29.6591C48.6901 30.1239 47.8372 30.5226 47.3653 31.2151C47.0173 31.0098 46.8884 30.6555 47.1003 30.2938C46.4353 30.9068 45.6418 31.5364 45.4619 32.48C45.3792 32.4002 45.2827 32.3426 45.1733 32.3072C44.9033 32.4895 45.255 33.0327 45.4262 33.1551C46.1729 32.8649 45.2397 32.9701 45.7414 33.0169C45.8844 33.0301 46.0313 33.1371 46.189 33.1389C46.6517 33.145 47.0863 33.1228 47.545 33.0523C48.5564 32.8964 49.5504 32.606 50.5296 32.3148C51.596 31.9978 52.6627 31.6812 53.7056 31.2923C54.5643 30.972 55.4088 30.6151 56.2529 30.2594C56.5901 30.1173 56.927 29.9733 57.2647 29.8322C57.9059 29.5643 58.2441 29.1241 58.1546 29.8782C58.6653 29.7934 59.1079 29.0715 59.5 28.7769C60.0517 28.3629 60.6721 28.054 61.3257 27.8426C61.5905 27.757 61.785 27.6481 62.0587 27.6473C62.1929 27.6471 62.2732 28.0254 62.3578 28.0048C62.9444 27.8627 62.677 27.5377 62.9407 27.0695C63.5175 26.0462 65.0711 25.4802 66.0252 24.8989C66.6308 24.5298 67.0607 24.0333 67.6198 23.6246C67.8814 23.4335 68.0713 23.349 68.3453 23.2681C68.5551 23.206 68.8125 23.688 68.9485 23.2037C68.4605 23.0042 68.0581 22.7582 67.5886 22.6126C67.2565 22.5093 67.6549 22.156 67.1286 22.3663C66.9172 22.4509 66.8446 22.8599 66.7669 23.0311C66.179 22.5061 64.526 23.0501 63.8285 23.27C63.7804 23.285 63.565 23.1714 63.4636 23.1783C63.0609 23.2052 62.7805 23.7472 62.5155 23.9807C61.8109 24.6014 61.0465 24.8609 60.1788 25.2152C60.4097 23.9535 62.1068 23.4367 63.0974 22.9534C64.5453 22.2469 65.8933 21.3451 67.4787 20.9652C68.5345 20.7118 69.9336 20.5081 70.3896 21.7356C70.6626 22.4715 70.6969 24.2997 69.7734 24.6392C69.6759 24.2957 69.9883 24.0021 70.0823 23.7041C69.1631 24.055 69.0117 25.1592 68.3136 25.7354C67.9212 26.0591 67.781 26.1629 67.5912 26.4758C67.4028 26.7865 67.3125 27.0764 66.871 27.4069C66.1494 25.8742 66.2714 27.9737 65.9055 28.2371C66.0527 28.1311 65.3092 28.4405 65.3979 28.4078C65.3636 28.4205 65.0396 27.8957 64.8296 27.9068C64.4473 27.9269 64.5207 28.3478 64.3365 28.5597C63.7122 29.2768 62.9055 29.7471 61.9007 29.6343C61.8772 30.1445 62.0346 30.7541 61.3379 30.8006L61.2465 29.6694C60.8673 30.0531 60.3682 30.4174 60.0596 30.8616C59.7084 31.3671 59.746 31.6783 59.1634 32.0152C58.5546 32.3674 57.2594 33.0613 56.5349 33.1212C56.714 32.8671 56.6823 32.6374 56.4403 32.4329C56.0759 32.8087 55.538 32.8456 55.1501 33.1849C56.4966 33.7474 54.1157 33.7184 53.8137 33.7821C53.6115 33.8249 53.435 34.009 53.2303 34.0505C52.9584 34.1057 52.9232 33.8198 52.6891 33.9105C52.3467 34.0431 52.4857 34.4175 52.1274 34.6056C51.87 34.7409 51.4335 34.7391 51.1432 34.8675C50.4512 35.174 48.9771 35.8528 48.5094 35.0294C48.2724 36.442 45.8519 35.5822 44.9559 35.4871C43.7288 35.3568 41.5915 34.7808 42.7298 33.1381ZM47.8837 18.6857C48.0573 18.5375 48.2312 18.5483 48.405 18.7185C48.163 17.4402 50.035 16.8195 50.8517 16.276C51.935 15.5552 53.2102 14.1567 54.6277 14.2674C54.386 14.4466 54.1447 14.6257 53.9032 14.8048C54.248 14.8495 54.5926 14.8941 54.9369 14.9388C54.7427 15.2242 54.5482 15.5093 54.3535 15.7944C54.0353 14.041 52.3755 16.2546 51.8951 16.5772C51.4113 16.902 50.9289 17.144 50.499 17.5401C50.0731 17.9324 49.6886 18.639 48.9845 18.286C48.9203 19.2874 48.1152 19.0157 47.5585 19.5703C47.5352 19.2224 47.7344 18.9764 47.8837 18.6857ZM55.2381 13.6869C56.9515 13.0451 58.4433 11.8585 60.058 11.0109C61.6003 10.201 63.1737 9.4739 64.7416 8.71849C65.5369 8.3351 66.9938 7.34374 67.903 7.84894C69.1298 8.53116 67.4409 8.75126 67.0023 8.98747C66.8401 7.93692 66.2717 8.88865 66.6112 9.47311C65.6751 9.06885 63.6335 10.6505 62.7404 11.0867C62.5383 11.1855 62.6289 11.2426 62.399 11.3589C62.3425 11.3874 61.7564 11.5208 61.5886 11.5771C60.7479 11.8585 60.1938 11.635 59.8316 12.6498C59.7557 12.411 59.6799 12.1719 59.6041 11.9327C59.0777 13.1146 57.4779 13.632 56.4548 14.3308C56.1911 14.511 55.4381 15.2099 55.1036 15.0654C54.638 14.864 54.8248 13.8415 55.2381 13.6869ZM86.1486 17.2502C86.872 17.298 86.1745 17.6355 86.3732 17.8585C86.3507 17.8334 86.8089 18.2241 86.7489 18.1169C86.8298 18.2611 87.024 18.2558 87.1233 18.5491C87.4655 19.5577 85.9713 20.5998 85.4674 21.1721C84.4877 22.2852 83.9215 23.6949 82.9005 24.7723C82.4395 25.259 81.9808 25.5951 81.3416 25.7767C80.8943 25.9037 80.4211 25.7677 80.0099 26.1978C79.6789 26.5442 79.7539 26.7411 79.3879 26.9252C78.7432 27.25 78.4592 26.9651 77.832 27.6669C77.2921 26.1994 78.8431 26.2018 79.6524 25.3816C80.7696 24.2495 81.9937 23.1072 83.0413 21.896C83.9719 20.8199 84.3448 19.8763 84.7865 18.5689C84.9258 18.1568 85.0774 17.2729 85.4614 17.0143C86.0593 16.6116 85.7005 17.2204 86.1486 17.2502ZM89.7061 55.3721C91.6035 53.2499 93.9571 51.3443 96.5085 50.066C97.4203 49.6089 98.7184 49.0092 99.6635 49.7128C100.59 50.4024 100.391 51.7782 100.017 52.7141C99.6593 52.5735 99.9973 51.2582 99.8115 50.9332C99.4062 50.224 98.5316 50.6006 97.9366 50.8384C97.2396 51.1169 96.6176 51.4244 96.0656 51.9299C95.8416 52.1346 95.4128 52.3183 95.2693 52.4591C95.0537 52.3695 94.9266 52.4348 94.8885 52.6546C94.9329 52.7894 94.9276 52.922 94.8724 53.0525C94.841 53.094 94.5606 52.9239 94.5207 52.958C94.3389 53.1136 94.1688 53.2967 93.9899 53.4412C93.6308 53.7316 93.3254 53.869 92.9949 54.2738C92.3565 55.0561 91.512 55.5146 90.8708 56.2599C90.726 56.4285 90.5524 56.8605 90.5199 56.8983C90.1957 57.2767 89.7151 57.576 89.3494 57.9766C88.7171 58.6686 88.042 59.1331 87.3125 59.7265C86.9983 59.9818 86.6319 60.2568 86.4229 60.6119C86.3277 60.7739 86.2741 61.6617 86.2707 61.6654C85.5552 62.4496 85.6944 60.8732 85.7483 60.6756C86.3293 58.5489 88.2938 56.9522 89.7061 55.3721ZM85.8006 69.7529C85.8897 70.0869 85.9629 70.363 86.0532 70.702C85.4859 70.2367 85.4859 70.2367 85.8006 69.7529ZM85.1879 70.8468C84.9794 71.0569 84.7699 71.2656 84.5588 71.473C84.0945 70.9824 85.273 70.7628 85.1879 70.8468ZM84.8933 62.4018C84.6713 63.2996 83.8588 64.3879 83.3003 65.0966C83.3618 65.0184 82.8236 65.1756 82.7623 65.2112C82.5634 65.3264 83.0398 66.0731 82.3504 65.7394C82.1057 65.8779 82.5874 66.4417 82.255 66.6941C81.2943 64.505 83.9175 62.6084 84.9332 60.9834C85.4299 61.4395 85.018 61.8984 84.8933 62.4018ZM78.6531 74.2373C79.3536 74.4175 79.718 74.3042 80.1909 73.6161C80.4752 73.2029 80.5791 72.471 81.2293 73.0893L81.344 72.2942C82.2722 72.675 82.1943 74.051 82.5998 74.8136C82.7972 73.9509 83.2646 71.5409 84.6959 71.9275C86.3026 72.3616 83.6284 75.1248 83.3801 75.8018C82.8339 74.9542 83.0487 75.7426 82.6321 75.862C82.2746 75.9648 81.716 75.7016 81.2816 75.7254C79.96 75.7973 78.799 76.3918 77.5918 76.8951C77.2861 76.071 76.9806 75.2469 76.6749 74.4228C77.3857 74.4775 78.8553 72.5857 79.064 73.9607C78.5369 73.869 78.3884 73.8923 78.1316 74.3721C78.2957 74.2888 78.4695 74.2439 78.6531 74.2373ZM81.6198 84.9941C81.6177 84.9874 82.9869 85.072 83.109 85.0274C84.0459 84.6852 83.6995 83.6225 83.8911 82.8713C84.2774 83.2264 84.0726 83.8746 84.1918 84.334C84.3315 84.8741 84.7363 85.3344 84.7738 85.912C84.8592 87.217 83.7883 86.9274 82.9766 87.3496C82.283 87.7105 82.2061 88.1645 81.6204 87.1919C81.4618 86.9287 81.121 86.243 81.1559 85.9064C81.1902 85.573 81.7184 85.2958 81.6198 84.9941ZM82.7232 90.641L82.3446 90.2169C83.4728 90.5623 82.8075 90.0431 83.067 89.3331C83.9328 89.9096 84.6391 90.5023 85.3242 89.3479L86.5079 94.1224C85.7129 94.3095 84.6872 93.0811 84.1418 92.6591C83.8269 92.4153 82.0791 91.476 83.1285 91.2022C82.9933 91.0151 82.8582 90.8281 82.7232 90.641ZM90.4501 75.6485C89.793 76.2734 89.1311 76.6232 88.4156 77.1144C87.7881 77.5456 88.0042 78.0405 87.4602 78.5214C87.099 78.8411 86.2522 79.1666 85.8059 79.4105C85.0109 79.8449 84.2988 79.9276 83.481 79.4414C83.7035 81.2331 82.4764 81.3734 80.949 81.7283C80.2205 81.8976 79.7893 82.1563 79.2643 81.4892C78.9047 81.0326 78.7639 80.2058 79.2112 79.7881C79.9217 79.1244 81.8146 79.3534 82.7261 78.936C83.4179 78.6194 84.1225 76.8357 84.976 77.4849C84.5355 76.7834 85.0484 76.5944 85.4312 76.0943C85.8506 75.546 86.1082 74.905 86.542 74.3612C87.3664 73.3276 88.632 72.2879 89.8028 71.6646C90.833 71.1163 91.3739 71.5045 91.5282 72.656C91.6058 73.2349 91.6029 74.0973 91.2787 74.6109C91.1754 74.7747 90.8343 74.7766 90.731 74.9304C90.5511 75.1991 90.7162 75.3954 90.4501 75.6485ZM102.539 61.7523C103.361 62.3886 103.281 63.7255 103.41 64.636C103.593 65.9194 103.461 67.1612 103.441 68.4683C103.421 69.8378 102.749 70.7298 102.432 72.0134C102.081 73.4412 101.627 74.1974 100.839 75.3957C101.694 75.5302 100.421 78.0836 100.212 78.4141C99.9838 78.773 98.1472 80.4265 98.9346 80.4265C98.5002 80.9993 98.0272 81.5872 97.5944 82.1442C97.424 82.3635 97.1252 82.4496 96.9909 82.6044C96.7175 82.9191 96.7008 83.1997 96.505 83.567C96.2078 84.1242 96.11 83.9755 95.7192 84.3797C95.4495 84.659 95.2724 85.0276 95.0074 85.2953C94.1535 86.1574 94.0446 85.4512 93.5672 84.7872C93.494 84.965 93.364 85.0765 93.1772 85.1217C93.0276 84.3702 94.057 83.6111 94.4898 83.1545C95.1987 82.4063 95.8466 81.5819 96.4733 80.7636C97.8156 79.0102 99.0218 77.1475 99.9735 75.1521C100.986 73.0285 101.795 70.7303 102.215 68.4136C102.535 66.6478 102.839 63.6188 100.48 63.1696C98.7639 62.843 96.872 63.8856 95.4574 64.7298C94.5952 65.244 93.7283 65.7553 92.9071 66.3337C92.0156 66.9609 91.2452 67.8487 90.2776 68.3521C90.8068 68.0767 89.0606 68.9053 89.328 68.6723C89.2027 68.7811 89.3108 69.1138 89.2281 69.2639C89.1203 69.4591 88.7456 69.652 88.5776 69.7783C88.1337 70.1118 87.4245 70.4529 87.2227 71.0035C84.4071 68.9949 90.0062 65.429 91.4415 64.5208C94.2885 62.7196 99.2424 59.2002 102.539 61.7523ZM110.134 42.2176C110.107 40.7712 111.285 38.7967 112.08 37.6172C112.47 37.0399 113.091 37.0629 113.319 36.382C113.451 35.9899 113.278 35.5788 113.317 35.1851C113.37 34.6527 113.601 34.2257 113.868 33.768C116.275 29.6311 119.201 25.9695 122.317 22.3603C123.853 20.581 125.31 18.7333 126.967 17.0618C127.659 16.3638 129.52 13.8542 130.584 14.1052C131.147 14.2381 131.475 15.0981 131.73 15.537C132.15 16.2628 132.613 16.9427 133.124 17.6101C134.474 19.3722 136.03 20.9189 137.868 22.1679C139.016 22.9484 140.176 23.707 141.298 24.5248C142.222 25.1977 143.619 25.9672 144.279 26.912C144.939 27.8571 143.97 28.6575 143.44 29.4422C142.617 30.6626 141.86 31.9272 141.033 33.1463C140.704 32.9101 140.789 32.4303 140.564 32.1278C140.364 31.8596 140.082 31.7504 139.806 31.5848C139.277 31.268 138.758 30.8806 138.281 31.4115C137.445 32.3405 138.594 34.5364 139.833 34.2954C139.979 35.2123 137.505 36.7223 136.886 37.227C134.983 38.7748 133.021 40.1205 130.508 40.2605C129.491 40.3171 128.433 40.2399 127.466 39.8996C127.003 39.7366 126.492 39.5128 126.137 39.1574C125.712 38.732 125.604 38.0989 125.191 37.6777C124.834 37.3123 124.343 37.256 123.986 36.8893C123.628 36.5223 123.451 35.9426 123.306 35.4673C123.022 34.5385 122.969 33.559 122.696 32.6282C122.532 32.0683 122.397 31.3198 121.862 31.8577C121.085 32.6393 121.475 35.0968 121.674 36.0332C121.959 37.3691 122.626 38.4461 123.325 39.5955C124.083 40.8423 124.362 41.9988 124.498 43.4415C124.752 46.1421 125.527 48.7336 126.733 51.1634C127.241 52.1864 127.849 53.1485 128.397 54.148C128.653 54.6144 129.227 56.2055 129.923 56.197C131.035 56.1833 129.451 52.9395 129.231 52.3949C128.012 49.3788 126.848 46.2087 126.587 42.9429C128.334 43.3929 130.238 43.8198 132.047 43.5347C130.879 46.1458 132.099 48.7455 131.95 51.4331C131.875 52.7809 131.821 54.0244 131.849 55.3682C131.874 56.5466 131.341 57.7245 130.881 58.7901C129.968 60.9063 128.818 63.5168 127.121 65.1378C125.702 66.493 123.804 66.5989 121.951 66.2869C117.734 65.5767 114.964 62.3354 113.195 58.6543C112.058 56.2895 111.189 53.7652 110.649 51.1969C110.024 48.2247 110.189 45.2324 110.134 42.2176ZM115.61 22.1867C111.675 19.3397 117.393 16.1067 120.303 16.5469C120.986 16.6499 122.242 16.9321 122.178 17.823C122.126 18.5512 120.911 19.3629 120.445 19.8124C119.115 21.0949 117.761 23.7432 115.61 22.1867ZM144.234 85.4459C144.099 85.3249 142.998 85.6218 143.434 84.9703C143.796 84.4289 144.801 85.1074 145.167 85.2467C144.866 85.4546 144.604 85.7767 144.234 85.4459ZM127.85 119.879C127.511 119.921 127.158 119.009 128.377 119.69C128.201 119.753 128.025 119.816 127.85 119.879ZM127.815 134.744C127.857 135.153 127.982 135.423 127.691 135.72C127.446 135.417 127.414 134.991 127.815 134.744ZM128.31 140.887C128.274 141.109 128.238 141.331 128.202 141.554C127.921 141.411 127.64 141.269 127.358 141.126C127.675 141.046 127.993 140.967 128.31 140.887ZM128.654 135.707C129.074 135.864 128.879 135.362 129.183 135.292C129.292 135.814 129.158 136.262 128.858 136.693C128.829 136.591 128.676 135.715 128.654 135.707ZM139.377 98.6435C138.789 98.5685 138.7 99.1904 138.261 99.4317C137.978 99.5876 137.115 99.4705 136.954 99.7688C137.167 99.8301 137.379 99.8917 137.592 99.953C137.105 100.215 136.619 100.477 136.133 100.74C137.302 100.74 138.522 100.181 139.684 100.345C140.175 100.414 140.535 100.58 140.843 100.98C141.03 101.222 141.194 101.613 141.225 101.91C141.257 102.231 141.007 102.453 141.051 102.606C141.575 102.62 141.513 103.479 141.395 103.829C141.14 104.588 140.128 105.777 139.22 105.296C139.6 105.835 139.503 106.142 138.941 106.455C138.992 106.277 139.03 105.965 138.743 105.996C138.669 106.295 138.698 106.768 138.454 106.993C138.181 107.245 137.937 106.951 137.676 107.114C137.367 107.309 137.46 107.614 137.216 107.825C136.895 108.103 136.849 107.906 136.464 107.96C135.881 108.042 136.253 107.68 135.786 108.152C135.625 108.315 135.652 108.738 135.391 108.977C134.888 109.434 133.547 109.911 133.066 109.324C131.908 111.159 128.439 111.599 126.824 110.151C124.248 107.841 129.051 103.144 130.636 101.655C132.228 100.161 133.995 98.871 135.784 97.6255C136.8 96.9179 137.843 96.2755 138.908 95.6451C139.564 95.2559 140.389 94.5454 141.197 94.6136C141.921 94.6749 142.539 95.2366 143.301 95.3479C143.853 95.4282 144.923 95.5608 144.228 96.3086C143.903 96.6579 142.626 97.2228 142.191 97.3079C141.935 97.3578 141.666 97.2621 141.413 97.3139C140.984 97.4019 140.69 97.7636 140.223 97.7177C140.371 98.4097 140.102 98.7354 139.377 98.6435ZM147 72.9532C147 73.4946 146.012 73.3596 145.806 73.1757C145.466 72.8731 145.454 71.9684 145.328 71.5571C145.902 71.7016 146.999 72.2306 147 72.9532ZM139.039 55.0923C141.115 53.3863 143.298 51.8221 145.605 50.4444C146.431 49.9511 147.598 48.956 148.624 49.0802C149.054 49.1325 149.944 49.6269 149.62 50.172C149.559 50.274 149.08 50.3149 148.932 50.3889C148.765 50.4727 148.633 50.7036 148.477 50.8178C147.399 51.6086 146.104 52.0945 145.023 52.9043C144.134 53.5694 143.305 54.3134 142.348 54.8841C141.43 55.4313 140.471 55.7777 139.6 56.3839C139.617 56.3717 138.466 56.7855 138.692 56.8608C137.682 56.5228 138.749 55.3315 139.039 55.0923ZM152.879 54.4569C154.112 53.9654 155.318 53.3691 156.609 53.0388C157.254 52.8739 157.915 52.75 158.582 52.8243C158.695 52.6258 158.846 52.582 159.035 52.6927C159.182 52.9188 159.376 53.0924 159.617 53.2137C159.985 53.4964 161.339 53.8661 161.068 54.4904C160.889 54.9034 159.531 54.9378 159.159 55.0305C158.036 55.3103 156.988 55.9397 155.831 56.0943C155.723 56.1088 155.368 55.9772 155.364 55.978C154.913 56.0766 154.537 56.545 154.149 56.7696C153.314 57.2529 152.114 57.334 151.515 58.1681C153.456 59.4842 155.141 58.179 156.848 57.1852C157.87 56.5902 158.968 56.1609 160.085 55.7793C160.669 55.5801 161.258 55.3729 161.85 55.198C162.095 55.1087 162.347 55.0445 162.605 55.0051C162.846 54.9573 163.018 55.0448 163.122 55.2678C163.837 55.244 163.899 54.7951 164.329 55.6324C164.936 56.813 164.007 56.753 163.134 56.898C161.924 57.0988 160.692 57.5512 159.499 57.8511C159.224 57.9203 156.812 58.4797 156.809 58.4995C156.7 59.261 163.624 58.5558 164.218 58.4416C165.267 58.2397 166.392 57.6667 167.478 57.8048C168.312 57.9108 170.212 59.1341 168.881 59.9469C168.62 58.6934 167.721 59.7286 167.251 60.1517C166.626 60.7147 165.731 60.6605 164.873 60.8812C163.701 61.1824 160.699 62.3127 159.866 60.8717C160.129 62.1346 155.344 61.4928 154.686 61.4511C154.045 61.4101 153.217 61.5465 152.597 61.3636C152.193 61.2445 151.968 60.9816 151.588 60.9224C151.495 61.0228 151.383 61.0912 151.253 61.1274C151.06 61.0299 150.886 60.9058 150.73 60.7554C149.449 60.1665 147.466 59.8409 148.178 57.9647C148.85 56.1952 151.25 55.1063 152.879 54.4569ZM164.89 55.5505C164.922 55.4403 164.954 55.3301 164.986 55.2197C164.99 55.5576 165.796 55.7019 165.703 56.1397C165.496 57.1091 164.566 55.6525 164.486 55.4937C164.621 55.5127 164.755 55.5315 164.89 55.5505ZM169.81 57.1612C169.904 57.5583 170.975 58.4038 170.71 58.5988C170.287 58.0244 169.12 58.2852 169.81 57.1612ZM151.733 93.3966C152.126 92.6184 153.312 93.9435 153.186 92.615C153.831 92.6734 153.429 93.1641 154.202 92.9485C154.491 92.8676 154.687 92.5466 155.04 92.4726C155.134 92.4528 155.541 92.485 155.681 92.4808C156.146 92.4665 157.967 92.4147 156.714 91.8052C157.415 91.3412 157.502 91.5766 158.135 92.0018C157.973 91.1229 158.904 91.6218 159.338 91.7315C159.029 91.2302 159.797 90.697 160.046 90.3583C159.957 90.8801 160.004 91.4643 160.759 91.1306C160.947 91.0476 160.905 90.6788 161.054 90.6185C161.327 90.5084 161.48 90.7089 161.578 90.6976C161.674 90.6867 161.878 90.7409 162.08 90.6645C162.344 90.5654 162.216 90.2119 162.55 90.1593C162.768 90.1253 162.927 90.445 163.192 90.4476C163.329 90.4489 163.556 90.3105 163.66 90.3179C163.678 90.3192 163.808 90.0063 163.967 89.9987C164.2 89.9873 164.295 90.6117 164.38 90.733C164.788 91.3116 165.33 91.6889 165.956 91.9975C164.824 93.0354 162.541 92.9255 161.117 93.2753C160.346 93.465 159.689 93.7385 158.983 94.091C158.813 94.2017 158.666 94.3375 158.544 94.4984C158.444 94.4321 158.344 94.3657 158.244 94.2994C157.857 94.3232 157.492 94.1319 157.057 94.2054C155.712 94.4321 154.66 95.439 153.294 95.6633C152.68 95.7643 152.176 95.9051 151.776 95.373C151.425 94.9063 151.483 93.8928 151.733 93.3966ZM149.89 87.1945C150.195 87.4521 149.828 88.2907 150.418 88.1996C150.837 88.1349 150.753 87.4857 151.082 87.348C151.514 87.1675 151.774 87.5958 152.18 87.5562C152.936 87.4817 152.893 86.8212 152.254 86.531C152.919 86.3556 153.131 87.1414 153.72 87.1343C154.493 87.125 154.308 86.2132 154.966 86.062C155.251 85.9965 155.156 86.4148 155.34 86.4668C155.71 86.5707 155.968 86.3923 156.295 86.2354C156.588 86.0951 156.796 85.824 157.116 85.732C157.262 85.69 157.632 85.7669 157.738 85.689C157.954 85.532 158.147 84.9206 158.359 84.8398C158.315 84.8561 159.01 85.2044 159.11 85.2371C159.049 85.4953 158.907 85.5259 158.685 85.3294C158.685 85.912 160.305 86.0935 159.972 85.3735C160.848 85.736 160.196 85.9225 160.109 86.4285C160.074 86.632 159.955 86.6264 159.99 86.8415C160.007 86.9406 160.465 86.8552 160.46 86.9902C160.421 87.8598 157.65 88.1272 157.125 88.2038C156.038 88.3626 155.009 88.6298 153.961 88.9587C153.181 89.2036 151.836 89.9052 151.006 89.8616C149.812 89.7989 149.656 88.2411 149.89 87.1945ZM147.222 78.3214C146.931 77.3541 147.865 75.356 149.082 75.6057C149.381 75.667 149.455 75.9149 149.687 76.0248C150.01 76.1786 150.537 76.0977 150.818 76.2565C151.448 76.6129 151.131 77.5211 151.761 77.8492C150.765 78.0907 147.685 79.8589 147.222 78.3214ZM148.375 82.0797C148.804 81.849 149.5 81.8194 149.793 81.3758C149.938 81.4767 150.214 82.0895 150.475 81.9957C150.597 81.9521 150.723 81.6199 150.715 81.6202C150.947 81.6136 150.994 81.2984 151.35 81.3338C151.676 81.3666 152.042 81.7592 152.333 81.9056C152.283 80.9322 152.532 80.8392 153.321 80.3181C153.495 80.204 153.639 79.7754 153.799 79.6021C153.646 80.6236 154.031 80.6291 154.847 80.7826C155.869 80.975 156.506 81.524 156.916 82.512C156.045 82.3421 154.921 82.5466 154.577 83.4832C153.882 82.2126 151.354 83.966 150.536 84.325C149.929 84.5916 149.223 84.9499 148.714 84.3288C148.356 83.8912 148.562 83.3649 148.569 82.9762C148.571 82.8541 148.697 82.847 148.686 82.6652C148.671 82.4332 148.369 82.3405 148.375 82.0797ZM157.678 102.06C157.448 102.148 156.264 102.196 156.256 101.804C156.25 101.457 158.347 101.807 157.678 102.06ZM155.754 100.791C154.858 101.344 153.855 99.3968 153.526 98.8361C154.466 98.9563 154.925 98.17 155.479 97.5723C156.006 98.7267 156.806 98.1166 157.647 97.7311C158.64 97.2764 159.727 97.273 160.744 96.9081C161.061 96.7942 161.354 96.6248 161.663 96.4946C161.913 96.4013 162.162 96.3057 162.409 96.2076C162.585 96.0491 162.647 95.8538 162.596 95.6224C162.513 95.4279 162.57 95.3051 162.767 95.2543C163.001 95.3241 163.24 95.3648 163.484 95.3756C163.876 95.2979 164.439 94.9283 163.966 94.5298C164.472 94.0695 164.98 94.5272 165.468 94.7288C165.352 94.3982 165.237 94.0677 165.121 93.7372C165.363 93.8399 166.081 94.844 166.154 94.8384C166.619 94.8036 166.571 94.1803 166.837 93.9287C166.992 94.1187 167.036 95.5352 167.641 95.058C167.9 94.854 167.343 94.1591 167.205 94.0009C167.898 94.1573 168.503 94.9843 168.69 95.6263C168.361 95.6739 168.057 95.6079 167.778 95.4277C167.599 96.3218 169.254 95.9595 169.522 96.4267C170.047 97.3411 166.634 97.9763 166.189 98.0611C165.299 98.2308 164.249 98.2939 163.433 98.6884C162.652 99.066 162.467 99.1741 161.554 99.2449C160.511 99.3257 159.494 99.6692 158.486 99.9366C157.611 100.169 156.53 100.313 155.754 100.791ZM174.805 68.0564C175.628 67.7602 178.4 66.2232 179.106 66.9068C179.031 66.8344 179.615 68.0397 179.609 67.9639C179.659 68.5909 179.644 68.8432 178.872 69.1436C178.319 69.3587 177.838 68.9016 177.34 69.0832C176.794 69.2826 177.176 69.6356 176.895 69.8822C176.587 70.1525 175.993 70.2692 175.61 70.3876C174.671 70.6775 173.725 70.9198 172.791 71.2321C170.891 71.8675 168.878 72.4588 166.925 72.9083C165.465 73.2441 162.988 74.0788 161.643 73.093C161.512 73.6534 161.191 73.5768 160.746 73.6584C160.396 73.7224 159.764 73.8954 159.453 73.9044C158.936 73.9195 157.499 73.7839 157.696 73.0586C157.642 73.2584 158.815 72.5746 158.612 72.532C159.11 72.6369 158.948 72.3862 159.356 72.2467C159.889 72.0646 160.446 72.0744 160.99 71.8815C162.362 71.3953 163.512 70.7644 164.96 70.4597C168.267 69.764 171.615 69.2044 174.805 68.0564ZM42.2455 142.988C41.9776 142.995 41.7691 142.233 42.5842 142.777C42.4714 142.847 42.3586 142.917 42.2455 142.988ZM35.8064 142.003C35.442 142.096 35.2967 141.892 35.371 141.393C35.8791 141.192 36.0241 141.395 35.8064 142.003ZM30.8353 140.983C30.7421 140.537 31.0723 140.437 31.3717 140.237C31.3416 140.827 31.3416 140.827 30.8353 140.983ZM18.3276 137.317C17.8237 137.206 17.1523 136.714 17.0369 137.541C16.9526 137.349 16.5224 136.448 16.7071 136.24C16.8036 136.131 17.1687 136.635 17.1299 136.585C17.5709 135.693 18.331 136.77 18.7559 137.088C18.6132 137.165 18.4703 137.241 18.3276 137.317ZM149.333 38.737C149.507 38.3692 149.712 38.2524 149.948 38.3869C149.577 39.2472 148.323 39.7136 149.333 38.737ZM158.05 30.6613C158.36 31.2439 157.893 31.4902 157.559 31.9745C157.755 31.4521 157.89 31.0902 158.05 30.6613ZM195.934 87.5335C197.054 87.5332 199.442 86.9416 200.118 88.2228C200.565 87.3522 201.073 88.9849 201.462 89.2467C201.505 89.2763 201.785 89.0626 201.915 89.1413C202.111 89.2599 202.28 89.5831 202.392 89.7752C202.731 90.3543 202.876 91.0429 203.064 91.6802C201.106 91.6802 199.099 91.2244 197.143 91.0587C195.859 90.9499 194.6 90.9467 193.315 91.0159C193.059 91.0297 192.552 90.9454 192.333 90.9935C192.111 91.0424 191.709 91.4944 191.464 91.4218C191.844 92.1354 196.714 93.8632 197.085 93.0729C196.645 92.8066 195.668 92.6021 195.668 91.9584C195.669 91.2374 196.585 91.2387 197.071 91.2598C198.133 91.3063 199.912 91.6598 200.347 92.7643C200.534 93.2378 200.591 94.4299 200.386 94.8871C200.254 95.1822 200.03 95.537 199.675 95.597C199.529 95.6216 199.319 95.4279 199.297 95.4327C198.568 95.5872 197.22 96.1725 196.425 95.3473C195.852 96.089 193.091 95.2789 192.246 94.9991C190.768 94.5097 188.732 93.8378 187.835 92.4586C186.74 90.7776 188.965 89.3569 190.243 88.6736C191.989 87.7399 193.984 87.5343 195.934 87.5335ZM203.393 91.4202C203.737 91.5172 204.08 91.6144 204.424 91.7114C204.332 92.3138 202.976 91.8371 203.393 91.4202ZM213.779 113.318C213.885 110.904 213.187 108.779 212.784 106.444C212.684 105.866 212.786 104.854 212.347 104.378C211.927 103.923 210.989 104.293 210.952 103.489C210.539 103.973 210.58 104.074 210.071 103.517C210.164 103.756 210.177 103.999 210.111 104.246C209.795 104.065 208.649 103.463 208.745 104.286C207.803 104.078 208.076 103.488 207.538 103.038C207.462 102.974 207.155 103.201 207.035 103.105C206.819 102.929 206.712 102.77 206.53 102.545C206.298 102.825 205.982 103.027 205.699 103.249C205.535 102.89 205.214 102.627 204.829 102.54C205.189 103.293 206.079 104.269 204.858 104.698C204.129 104.954 202.935 104.64 202.163 104.7C199.302 104.922 196.167 104.298 193.401 103.616C190.559 102.916 187.684 101.928 185.128 100.483C184.583 100.175 184.24 99.8103 183.771 99.4282C183.315 99.0567 182.983 98.9981 182.435 98.7605C181.448 98.333 180.546 97.6474 179.795 96.8833C178.181 95.2401 176.681 93.0911 177.13 90.6854C177.579 88.2876 179.227 86.4137 180.991 84.8347C183.073 82.9699 185.425 81.4128 187.921 80.1575C189.037 79.5965 191.892 77.4886 192.994 78.722C193.699 79.5099 193.303 80.5152 192.34 80.6904C192.102 80.7337 191.854 80.5744 191.614 80.6835C191.268 80.841 191.39 81.027 191.247 81.1583C190.999 81.3864 190.735 81.742 190.364 81.9397C189.07 82.6295 187.82 83.1762 186.583 84.0164C186.013 84.4035 185.464 84.57 184.961 84.9079C184.461 85.2438 184.348 85.7997 183.676 85.4567C183.915 86.4343 182.478 87.4812 181.914 88.0802C181.042 89.0076 179.995 90.1913 180.402 91.5634C181.2 94.2495 184.801 96.2895 187.106 97.4704C189.982 98.9436 193.154 100.117 196.357 100.602C197.949 100.843 199.595 100.992 201.199 101.145C202.448 101.264 204.364 100.828 205.263 101.953C205.291 100.641 209.387 100.757 210.259 100.589C208.511 94.6139 205.079 89.3011 201.409 84.3375C199.608 81.9008 197.839 79.3949 195.787 77.1612C193.539 74.7158 190.971 72.5304 188.532 70.2803C183.747 65.867 178.335 61.9283 172.828 58.4585C167.334 54.997 161.644 51.5901 155.625 49.122C148.75 46.3033 141.512 44.4492 134.266 42.8702C135.249 41.6178 136.848 41.0069 138.107 40.0906C138.547 39.7698 139.143 38.9999 139.715 38.8947C140.335 38.7806 140.823 39.4475 141.264 39.7823C142.531 40.743 143.407 40.335 144.857 40.2771C145.725 40.2425 147.78 40.7258 148.146 39.5519C148.633 40.1997 147.927 40.7192 147.566 41.1943C147.829 41.561 148.041 41.1805 148.301 41.1232C148.381 41.0569 148.461 40.9903 148.541 40.924C148.67 40.7374 148.786 40.7364 148.889 40.9203C149.044 41.1533 149.2 41.1018 149.357 40.7654C149.4 40.7385 149.443 40.7113 149.486 40.6843C149.673 40.5844 149.854 40.4264 150.029 40.302C151.347 39.36 152.522 38.5576 153.977 37.8638C155.199 37.2814 154.542 36.1672 155.347 35.3803C155.53 35.2022 155.836 35.2916 156.031 35.1407C156.222 34.9925 156.251 34.8244 156.39 34.6656C156.725 34.2838 156.326 33.8407 157.18 34.3081L156.872 32.5746C158.547 34.199 158.54 29.5244 158.769 28.8326C158.739 28.9241 158.919 28.2162 158.919 28.2223C158.968 26.8195 159.16 25.8028 157.517 25.7214C158.139 25.3301 158.329 26.0942 158.616 25.3032C158.76 24.9068 158.311 24.2257 159.027 24.4812C159.177 23.6388 159.028 22.9571 158.841 22.1386C158.648 21.3007 158.762 20.7416 158.77 19.9038C158.78 18.9534 158.335 17.9982 158.193 17.0624C158.081 16.3294 158.196 15.1734 157.249 15.4427C157.115 15.2342 157.583 14.5929 157.564 14.2759C157.535 13.7834 157 13.2829 156.849 12.81C156.626 13.0398 156.312 13.1165 156.009 13.0126C156.294 12.37 156.027 12.1542 155.754 11.6001C155.598 11.2828 155.692 10.9324 155.358 10.7049C155.167 10.5744 154.84 10.7942 154.69 10.6412C154.368 10.3136 154.487 9.87895 154.266 9.44722C153.988 8.90582 153.353 8.49232 152.916 8.08594C150.459 5.80175 147.79 4.05603 144.521 3.16349C141.223 2.26302 137.378 1.94041 134.092 2.97906C132.778 3.39416 131.612 3.35162 130.429 4.12684C130.046 4.37838 130.005 4.31101 129.81 4.73033C129.765 4.82809 130.173 5.08835 129.923 5.2482C129.652 5.42179 129.352 5.06879 129.213 4.77577C127.503 6.01392 125.9 7.66451 124.926 9.55713C123.958 11.4379 123.869 13.6473 123.499 15.691C121.794 13.7432 119.488 12.8094 116.981 13.7458C114.796 14.5618 113.102 16.3553 112.675 18.6789C112.414 20.0954 112.699 21.5298 113.342 22.8079C113.62 23.3601 113.957 23.9715 114.469 24.3433C114.873 24.6371 115.566 24.5958 115.757 25.1259C116.048 25.9378 114.362 27.6915 113.924 28.4022C113.133 29.6885 112.397 31.0167 111.837 32.4216C109.828 29.5846 107.906 26.4861 105.622 23.8703C103.467 21.4014 100.897 19.1872 98.3776 17.1004C93.1476 12.7693 87.7094 8.70026 81.859 5.24979C76.4115 2.03685 69.8313 0.253087 63.4826 0.883784C57.2794 1.50021 52.5303 5.42338 48.534 9.94818C40.8499 18.6482 36.1435 31.0484 35.6838 42.6295C35.5456 46.1085 35.8106 49.5421 36.6699 52.9165C37.0792 54.5232 37.0197 56.1035 37.2575 57.7309C37.526 59.5667 37.9902 61.3959 38.4391 63.1942C40.1492 70.0447 42.3279 76.8898 44.7728 83.5134C46.0439 86.9578 47.582 90.325 49.6627 93.3622C50.6237 94.7652 51.8687 95.8628 52.9029 97.195C53.9061 98.4871 54.1711 100.073 54.3918 101.658C54.9207 105.46 55.2716 109.277 55.5898 113.101C55.7248 114.721 55.8825 116.327 56.0971 117.936C56.2841 119.339 55.8135 119.271 54.6333 119.747C54.8727 118.486 49.2336 119.344 48.7012 119.43C48.1218 119.524 47.5083 119.525 47.052 119.599C46.5417 119.682 46.0424 119.803 45.4547 119.786C44.591 119.761 42.9737 119.54 42.6439 120.643C42.417 119.365 40.9178 120.762 42.027 120.525C40.8884 120.652 39.7267 120.44 38.5744 120.548C37.2538 120.67 35.9219 120.787 34.6105 120.986C33.6976 121.124 32.8265 121.476 31.912 121.578C30.7418 121.708 29.5206 121.696 28.339 121.8C23.9806 122.185 19.4632 123.136 15.2267 124.224C14.267 124.471 13.1644 124.646 12.2476 125.042C12.0021 125.147 11.7812 125.384 11.5461 125.475C11.1519 125.627 11.2058 125.522 10.8557 125.592C8.75801 126.011 6.59403 126.696 4.49664 127.233C3.33327 127.532 1.44091 127.801 0.491828 128.613C0.066431 128.976 -0.305329 129.621 0.376363 130.034C0.920925 130.364 1.69827 129.838 2.13899 129.553C1.74635 130.576 1.00574 131.086 1.40577 132.25C1.72152 133.17 2.43439 134.304 3.53117 133.71C3.67808 134.052 3.73753 134.732 4.17006 134.857C4.55873 134.97 4.84013 134.478 5.22087 134.594C5.35721 134.635 5.30542 134.893 5.42749 134.96C5.63781 135.076 5.85104 135.125 6.09201 135.207C6.29916 135.277 6.63261 135.421 6.84874 135.436C6.98587 135.446 7.30902 135.212 7.30796 135.212C7.62291 135.259 7.79228 135.862 8.01898 136.036C8.31332 136.262 8.55641 136.314 8.925 136.396C9.69124 136.566 10.6789 136.858 11.1846 136.073C11.0689 136.633 11.8306 136.578 12.1667 136.649C12.1295 136.354 11.9665 136.084 11.7149 135.922C12.4664 135.972 12.1617 136.719 12.7171 136.916C13.1129 137.056 13.068 136.7 13.3708 136.66C13.7698 136.608 14.0726 136.898 14.6956 136.63C14.8306 137.23 14.88 137.836 15.6169 137.925C16.0495 137.978 17.058 137.197 17.0009 137.847C17.9672 137.563 18.3339 137.755 18.8389 138.607C18.9242 138.084 19.3372 138.235 19.7161 138.203C20.3167 138.152 20.332 138.2 20.7975 137.86C20.8401 137.829 21.2063 136.99 21.3691 137.512C21.4422 137.745 20.9585 138.295 20.7793 138.435C21.0018 138.547 21.7308 138.941 22.0111 138.869C22.2537 138.806 22.2545 138.391 22.5459 138.37C22.4746 138.608 22.4035 138.847 22.3319 139.085C22.8989 139.168 23.3727 138.788 23.8205 138.51C24.2475 139.59 25.4679 138.982 26.1317 139.794C26.4828 140.224 26.4992 140.551 27.1682 140.663C27.8528 140.778 28.4507 140.477 29.0325 141.042C28.8481 140.692 28.3886 140.401 28.8452 140.025C29.1559 140.466 29.3163 140.997 29.6746 141.407C29.724 141.198 29.7734 140.99 29.8228 140.781C30.7569 141.78 31.9326 141.789 33.129 142.343V141.612C33.9856 142.919 34.0314 142.092 35.0547 141.558C34.9852 141.942 34.9154 142.327 34.846 142.711C35.5823 142.655 36.2704 143.528 36.8749 142.787C37.2401 143.399 37.6826 143.098 38.2811 143.292C38.6214 143.403 38.8748 143.738 39.2059 143.859C39.7024 144.041 39.8506 144.032 40.318 144.191C40.7336 144.331 40.9698 144.605 41.4901 144.693C41.828 144.75 42.1345 144.745 42.4579 144.73C42.5829 144.724 42.5417 144.443 42.8194 144.508C43.2487 144.61 43.5684 145.148 43.8776 145.425C44.3426 144.256 45.6447 145.821 46.2741 146.03C46.3343 145.73 46.3235 145.369 46.5404 145.123C46.7951 145.681 46.8924 146.15 47.4211 146.509C47.7262 146.717 48.1744 146.865 48.5268 146.941C48.7496 146.989 49.1544 146.931 49.2944 147C49.5333 147.117 49.6212 147.43 49.8625 147.459C50.0044 147.476 50.2147 147.103 50.3209 147.132C50.8071 147.265 51.0771 147.855 51.568 148.175C53.0289 149.125 54.8674 149.217 56.495 149.426C56.9035 149.478 56.9627 149.366 57.2945 149.606C57.4715 149.734 57.3912 150.123 57.6089 150.233C58.4293 150.644 58.4299 149.766 58.6019 149.221C58.8732 149.579 58.92 150.052 59.2912 150.337C59.4939 150.331 59.6968 150.336 59.8992 150.351C60.0134 150.481 60.0884 150.631 60.1233 150.802C60.6147 151.134 61.1714 151.018 61.679 151.267C61.8455 151.349 62.1403 151.843 62.3454 151.985C62.7124 152.239 63.2799 152.375 63.6993 152.485C64.5786 152.717 65.8394 152.409 66.3626 153.327C67.0572 152.583 66.7885 153.472 67.2602 153.658C67.5387 153.769 67.9575 153.33 68.2663 153.374C68.8225 153.452 69.0228 154.054 69.2009 154.492C69.5396 154.417 69.3071 153.458 69.2976 153.248C69.7185 153.198 69.812 154.307 69.8847 154.55C70.5492 154.23 69.4585 153.235 70.173 152.915C70.1074 153.764 70.7836 154.462 69.5761 154.584C69.7428 155.095 73.6374 155.662 73.908 155.211C73.968 156.045 74.5281 155.266 74.7347 154.981C74.758 155.467 74.5923 156.158 75.1382 156.384C75.5092 156.537 76.3457 156.14 76.4913 155.777C76.6575 156.332 76.936 156.314 77.2821 156.667C77.5199 156.909 77.6766 157.329 77.926 157.532C78.385 157.906 79.2387 157.848 79.7735 157.765C80.8198 157.602 80.6961 157.401 81.0689 158.489C81.1532 158.076 81.4174 157.213 81.8782 157.855C82.1715 158.262 81.5472 159.161 81.3667 159.519C81.7699 159.297 82.1702 159.035 82.6289 158.939C82.6545 159.081 82.678 159.381 82.6104 159.512C82.6241 159.485 83.1135 159.813 83.295 159.904C83.2514 159.882 83.4385 159.065 83.4332 159.092C84.0787 159.49 83.6308 160.252 84.2026 160.645C84.3503 160.747 84.697 160.628 84.8756 160.69C85.1866 160.798 85.4555 161.089 85.7319 161.26C85.5113 160.964 85.543 160.467 85.5581 160.125C85.6986 160.203 85.799 160.494 85.9409 160.517C85.9946 160.525 86.5507 160.599 86.547 160.596C87.126 161.002 87.0068 161.053 86.5098 161.54C86.6873 161.819 87.4295 161.334 87.6304 161.254C87.6724 161.363 87.6832 161.759 87.7622 161.83C87.81 161.947 87.8581 162.065 87.9062 162.182C88.0544 162.072 88.2135 162.035 88.3831 162.071C88.4904 162.109 89.3277 162.449 89.3845 162.333C89.2014 162.273 89.0352 162.183 88.8867 162.06C89.37 161.626 89.6879 161.395 90.1331 162.022C90.1891 162.101 89.9965 162.385 90.0535 162.488C90.2662 162.872 90.7033 163.177 91 163.489C91.1228 163.058 90.8369 161.977 91.5192 162.017C92.0643 162.048 92.4788 163.369 92.2902 163.779C92.5068 163.542 93.8005 163.307 94.0446 163.381C94.735 163.59 94.5413 164.228 95.3908 163.293C95.97 163.693 95.4595 163.844 95.5639 164.331C95.7169 164.363 95.8617 164.326 95.9988 164.218C95.8963 166.289 97.4243 164.707 98.4164 165.023C98.8059 165.147 98.9055 165.589 99.3235 165.718C99.5446 165.787 99.7906 165.625 100.006 165.664C100.178 165.64 100.349 165.609 100.519 165.573C100.735 165.465 100.836 165.586 100.823 165.936C101.17 166.115 101.039 166.186 101.444 166.221C101.705 166.243 101.945 165.972 102.242 166.018C102.754 166.098 102.686 166.491 103.013 166.696C103.307 166.881 103.639 166.875 104.002 166.84C104.186 166.821 104.705 166.583 104.768 166.583C105.155 166.577 104.945 166.495 105.41 166.828C105.772 167.087 105.924 167.255 106.368 167.374C106.878 167.511 107.782 167.81 108.125 167.442C108.588 168.136 108.951 167.626 109.562 167.672C109.875 167.696 109.925 167.818 110.203 167.866C110.655 167.945 111.218 167.877 111.698 168.031C112.454 168.274 112.54 168.396 113.313 168.429C113.452 168.375 113.592 168.32 113.731 168.265C113.773 168.498 113.882 168.688 114.06 168.835C114.493 168.926 114.777 168.708 115.133 168.469C115.399 169.296 116.262 169.369 116.999 169.478C118.19 169.653 119.328 169.749 120.476 170.141C121.445 170.471 122.416 170.842 123.349 171.265C124.17 171.637 124.944 172.194 125.873 171.933C127.976 171.34 130.015 169.181 131.775 167.941C133.86 166.472 136.108 165.262 138.286 163.942C146.958 158.685 156.119 154.239 164.67 148.787C169.338 145.81 173.669 142.274 178.682 139.866C177.968 142.815 176.753 145.808 176.973 148.896C177.061 150.14 177.428 151.61 178.393 152.478C179.586 153.552 180.914 152.868 182.055 152.101C184.5 150.457 186.13 148.059 187.96 145.807C190.124 143.142 191.803 140.28 193.392 137.243C193.773 137.777 193.483 138.673 193.489 139.266C193.496 140.022 193.7 140.75 194.051 141.426C194.956 143.168 196.679 143.59 198.235 142.397C201.231 140.099 202.97 136.008 204.575 132.713C205.49 134.416 206.79 136.56 208.989 135.343C210.803 134.34 211.869 132.097 212.423 130.197C214.044 124.651 213.53 119.003 213.779 113.318Z" fill="#39383B"/>
<path fill-rule="evenodd" clip-rule="evenodd" d="M211.028 80.0088C210.821 79.5062 210.73 79.5884 211.11 79.1012C211.407 79.3931 211.17 79.6344 211.028 80.0088ZM220.196 110.424C219.614 108.77 219.974 106.974 219.62 105.277C219.458 104.499 219.202 103.744 219.11 102.951C219.069 102.6 218.756 101.017 218.969 100.768C218.313 100.37 218.311 100.076 218.159 99.297C218.393 99.0489 218.364 98.8372 218.071 98.6615C217.88 98.4301 217.688 98.1983 217.496 97.9669C218.334 98.3762 217.838 97.3285 217.753 96.7248C217.685 96.2476 217.64 95.7498 217.481 95.2924C217.285 94.7302 216.85 94.4459 217.755 94.4459C217.457 94.1069 217.012 93.757 216.863 93.3419C216.65 92.7445 217.002 91.955 216.566 91.4274C216.324 91.133 215.072 91.0178 215.291 90.3821C215.403 90.0582 215.911 90.3 216.068 90.073C216.684 89.181 214.863 88.8113 214.774 88.4319C214.658 87.9399 215.316 87.83 215.356 87.37C215.396 86.9198 214.696 86.1799 214.511 85.7773C214.259 85.8386 213.982 86.2373 213.694 86.0468C213.639 86.0108 213.721 84.4522 213.656 84.2453C213.591 84.0419 213.459 83.5023 213.412 83.4024C213.226 83.0058 212.691 82.8127 212.606 82.3442C212.555 82.0647 213.651 81.6414 212.395 81.6282C212.846 80.8329 212.019 80.3496 211.718 79.67C211.331 78.7963 211.103 77.8525 210.706 76.9742C210.32 76.1205 209.888 75.3104 209.331 74.5555C208.826 73.8719 208.609 73.2146 208.206 72.4927C208.125 72.4293 208.044 72.3659 207.964 72.3025C207.628 72.3511 207.52 72.1981 207.64 71.8432C207.383 71.4625 207.192 71.0561 206.966 70.6585C206.702 70.1963 206.347 69.8196 206.075 69.3701C205.713 68.7743 205.607 68.1024 205.198 67.5047C204.697 66.7694 204.132 66.121 203.667 65.3582C203.084 64.4025 202.439 63.8085 201.705 63.0684C201.356 62.716 201.314 61.8356 200.886 61.3351C200.421 60.79 199.961 60.6423 199.638 59.9268C199.218 58.996 198.601 58.5516 198.001 57.747C197.506 57.0833 197.264 56.3205 196.719 55.6784C196.25 55.127 195.717 54.6231 195.217 54.1002C194.585 53.4399 194.118 52.6375 193.46 52.0097C193.555 52.1003 192.888 51.5713 192.921 51.5882C192.773 51.5129 192.297 51.4524 192.366 51.4934C191.373 50.9097 190.129 48.7735 188.635 49.9054C187.849 50.5007 188.226 51.5925 188.775 52.1854C189.01 52.4401 190.235 53.6957 190.5 53.1662C190.785 53.571 191.665 55.5278 192.396 54.9671C192.322 55.6359 192.709 55.4139 192.965 55.866C193.133 56.1643 193.051 56.3107 193.174 56.7762C193.511 58.0561 194.799 59.3062 195.484 60.4222C197.191 63.2 199.074 65.8346 200.782 68.6155C202.41 71.2659 204.233 73.7808 205.795 76.4669C207.571 79.5213 209.784 82.4045 211.122 85.6972C211.168 85.8079 211.539 85.9831 211.631 86.1493C211.792 86.4381 211.758 86.9375 211.861 87.2646C212.22 88.3986 212.803 89.5149 213.466 90.4543C214.048 91.2784 214.09 92.3984 214.49 93.3652C215.055 94.7278 215.651 96.0761 216.2 97.4456C217.053 99.5771 217.632 101.62 218.222 103.845C218.604 105.287 218.908 106.729 219.03 108.218C219.142 109.587 219.169 111.014 219.676 112.31C220.022 111.777 220.429 111.085 220.196 110.424Z" fill="#39383B"/>
<path fill-rule="evenodd" clip-rule="evenodd" d="M24.9001 139.768C24.2866 139.644 23.7092 139.479 23.5792 138.775C23.4902 139.107 23.4014 139.439 23.3124 139.771C24.0593 139.94 24.8066 140.109 25.5535 140.279C25.3791 139.971 25.2518 139.839 24.9001 139.768Z" fill="#39383B"/>
<path fill-rule="evenodd" clip-rule="evenodd" d="M26.5463 24.1602C26.5928 23.9615 26.653 23.7668 26.7273 23.5768C26.7778 23.762 27.0251 24.1626 26.8811 24.3372C26.6977 24.5589 26.5122 24.4334 26.5463 24.1602ZM29.5539 18.4377C29.7553 18.5265 30.191 18.5436 30.4409 18.6187C29.7925 19.1764 29.6784 19.0124 28.84 18.9476C28.8027 18.3833 29.0321 18.2081 29.5539 18.4377ZM23.9337 32.4092C24.0206 32.4116 24.1078 32.4137 24.1953 32.4158C24.2005 32.1701 24.1942 31.9246 24.1757 31.6794C25.0598 31.8726 24.5593 30.3277 24.2817 30.0074C25.1441 30.0362 25.5642 27.3058 25.8374 26.7797C26.0799 26.3125 26.3547 26.1318 26.532 25.5622C26.6871 25.0636 26.8549 24.6149 27.0787 24.1433C27.5929 23.0589 28.2674 22.0742 28.143 20.8104C28.5787 21.7587 28.9618 20.812 29.2382 20.3586C29.6834 19.628 30.7696 18.6958 30.8851 17.8281C30.9871 17.0643 30.4195 17.0238 30.7546 16.3155C31.0933 15.5984 31.3718 15.6702 31.9652 15.4409C32.36 15.2882 32.4384 15.4736 32.7169 14.9753C32.8974 14.6527 32.8337 14.4123 33.0649 14.1478C33.1603 14.2307 33.2689 14.2651 33.3904 14.2508C33.578 14.0033 33.7012 13.7274 33.7596 13.4233C33.9125 13.0127 33.9865 12.6356 34.2169 12.2446C34.4354 11.8742 34.8233 10.8831 35.0289 10.7044C35.2471 10.5147 36.485 10.6112 36.4797 10.618C36.991 9.97493 36.0527 9.33419 37.3519 9.46973C37.0954 8.99202 37.9966 8.39911 38.2582 8.1333C38.9116 7.46984 38.9637 7.16281 39.1016 6.3284C39.1716 5.903 38.7145 5.95215 39.3272 5.85518C39.5806 5.81528 39.8237 6.13922 40.0065 6.09166C40.8137 5.88239 39.9693 5.92229 40.192 5.59334C40.2623 5.48897 40.6214 5.0678 40.618 5.07229C40.6005 5.09343 40.6988 4.70582 40.7802 4.6062C40.9345 4.59299 41.0864 4.56604 41.2357 4.52535C41.3115 4.3721 41.3787 4.21516 41.4368 4.05451C42.021 3.56728 42.895 3.3493 43.299 2.81399C43.5603 2.46786 43.4821 2.12886 43.8198 1.78379C44.1414 1.4551 44.5668 1.69316 44.6304 0.950696C44.7115 0.00610331 43.6969 -0.414273 43.2818 0.539039C42.1563 -0.847333 37.4515 4.2392 36.908 4.90372C34.5472 7.78849 32.2268 10.7446 30.2903 13.9346C28.4035 17.0429 26.8549 20.3134 25.6445 23.7417C25.0608 25.3946 24.7055 27.0402 24.349 28.75C24.2293 29.3226 23.3349 31.8741 23.7072 32.4451C23.7825 32.4332 23.8581 32.4211 23.9337 32.4092Z" fill="#39383B"/>
<path fill-rule="evenodd" clip-rule="evenodd" d="M209.762 103.152C210.16 102.886 210.16 102.886 210.23 102.385C209.696 102.482 209.696 102.482 209.762 103.152Z" fill="#39383B"/>
<path fill-rule="evenodd" clip-rule="evenodd" d="M13.7526 136.873C13.7576 136.872 13.7613 136.874 13.7642 136.876C13.7557 136.866 13.7251 136.834 13.7526 136.873Z" fill="#39383B"/>
<path fill-rule="evenodd" clip-rule="evenodd" d="M13.4858 137.142C13.6087 137.407 13.8061 137.473 14.0782 137.339C14.1855 137.492 13.1476 136.383 13.4858 137.142Z" fill="#39383B"/>
<path fill-rule="evenodd" clip-rule="evenodd" d="M31.4332 15.9448C30.8104 17.1657 31.5904 16.2777 31.5505 16.6743C31.5767 16.4138 31.6848 16.0425 31.4332 15.9448Z" fill="#39383B"/>
<path fill-rule="evenodd" clip-rule="evenodd" d="M132.681 34.8423C132.951 37.0316 135.946 35.9961 136.62 34.6719C137.11 33.7077 138.349 29.8979 137.016 29.0931C136.028 28.4965 135.817 31.0679 135.573 31.6423C135.165 32.6043 134.846 31.9226 133.939 32.1694C132.937 32.4418 132.569 33.9344 132.681 34.8423Z" fill="#39383B"/>
<path fill-rule="evenodd" clip-rule="evenodd" d="M129.408 30.8353C130.479 31.0731 131.528 30.9505 132.289 30.105C132.71 29.6368 133.27 28.708 132.512 28.2549C131.825 27.8446 131.046 28.8055 130.322 28.6068C129.338 28.3365 129.845 27.2812 129.507 26.5842C128.266 27.2987 127.574 30.4279 129.408 30.8353Z" fill="#39383B"/>
<path fill-rule="evenodd" clip-rule="evenodd" d="M130.518 36.3626C129.486 36.3605 129.478 37.6298 130.016 38.1739C130.532 38.6944 131.836 39.2213 132.535 38.8165C133.913 38.0175 131.353 36.4451 130.518 36.3626Z" fill="#39383B"/>
<path fill-rule="evenodd" clip-rule="evenodd" d="M70.469 86.8395C70.6893 86.9465 71.3388 87.4972 71.6125 87.2485C71.2262 86.8593 70.8397 86.4701 70.4534 86.0809C70.2399 86.315 70.0935 86.6572 70.469 86.8395Z" fill="#39383B"/>
<path fill-rule="evenodd" clip-rule="evenodd" d="M65.5918 31.1519C65.4822 31.2338 65.3723 31.3154 65.2626 31.3971C65.6328 31.7054 65.6235 31.7971 65.9966 31.5051C65.8859 31.3593 65.7512 31.2417 65.5918 31.1519Z" fill="#39383B"/>
<path fill-rule="evenodd" clip-rule="evenodd" d="M135.539 103.791C135.332 103.418 134.94 104.105 134.675 104.217C134.244 104.398 133.89 103.437 134.013 104.589C133.039 104.143 132.447 105.167 131.819 105.7C130.93 106.454 129.844 106.862 129.252 107.933C132.04 108.585 135.104 106.181 137.183 104.602C137.522 104.344 139.218 103.043 138.069 102.918C137.599 102.866 135.888 104.417 135.539 103.791Z" fill="#39383B"/>
<path fill-rule="evenodd" clip-rule="evenodd" d="M134.712 101.534C135.258 101.103 134.08 101.064 133.894 101.019C133.91 101.361 133.926 101.703 133.942 102.045C134.206 101.885 134.462 101.715 134.712 101.534Z" fill="#39383B"/>
<path fill-rule="evenodd" clip-rule="evenodd" d="M132.66 102.968C132.824 102.866 133.279 102.548 132.969 102.311C132.689 102.489 132.489 102.779 132.445 103.111C132.517 103.063 132.589 103.016 132.66 102.968Z" fill="#39383B"/>
<path fill-rule="evenodd" clip-rule="evenodd" d="M87.5016 75.2229C87.1525 75.3598 86.9961 75.5762 87.0329 75.8726C87.5692 75.763 87.4669 75.2565 87.5016 75.2229Z" fill="#39383B"/>
</svg>
