<svg width="224" height="172" viewBox="0 0 224 172" fill="none" xmlns="http://www.w3.org/2000/svg">
<path fill-rule="evenodd" clip-rule="evenodd" d="M69.7831 78.1212C70.5976 86.3452 71.4121 94.5694 72.2266 102.793C76.6612 100.263 81.096 97.7322 85.5305 95.2019V113.937V118.862C85.5305 119.298 85.2717 120.795 85.5305 121.172C85.7499 121.492 87.3748 121.501 87.759 121.555C90.2664 121.906 92.7797 122.219 95.2966 122.496C101.93 123.229 109.03 124.279 115.689 123.437C121.477 122.705 127.088 120.646 132.377 118.251C134.233 117.41 136.064 116.51 137.861 115.548C138.242 115.344 139.624 114.862 139.831 114.447C140.001 114.108 139.604 112.916 139.551 112.56C139.327 111.057 139.104 109.554 138.88 108.052L135.759 87.0682L141.655 92.9556C142.117 93.4168 142.994 94.7263 143.633 94.9308C144.102 95.0807 145.262 94.6168 145.725 94.5276C149.064 93.8842 152.402 93.2409 155.74 92.5978C156.518 92.4478 158.271 92.4535 158.927 91.9837C159.28 91.7304 159.296 91.2156 159.421 90.7276C160.235 87.5375 161.049 84.3478 161.864 81.1581C162.01 80.5836 162.828 78.7719 162.62 78.1934C162.546 77.986 162.185 77.8441 161.964 77.7089C156.925 74.6316 151.886 71.5541 146.848 68.4766C144.088 66.7908 141.328 65.105 138.568 63.4191C137.412 62.7129 135.991 61.4405 134.681 61.0455C133.868 60.8001 132.685 60.9839 131.843 60.9598C130.133 60.911 128.423 60.8622 126.713 60.8134C126.445 60.8058 125.507 60.6149 125.282 60.7727C125.094 60.904 125.172 61.087 125.111 61.3998C124.96 62.1639 124.959 62.9878 124.885 63.7635C124.826 64.386 124.944 65.5274 124.663 66.0908C124.484 66.4508 124.711 66.3074 124.469 66.4815C124.18 66.6886 123.259 66.6219 122.915 66.6618C121.239 66.8564 119.563 67.0511 117.888 67.2458C115.895 67.477 113.881 67.9114 111.879 67.7113C108.844 67.4084 105.572 67.4233 102.593 66.784C101.818 66.6178 101.539 66.1816 100.942 65.5851C99.776 64.4209 98.6218 63.2432 97.4432 62.0912C96.8654 61.5267 97.1127 61.6224 96.5173 61.8366C95.7709 62.1048 95.014 62.7522 94.3385 63.1637C91.7502 64.7403 89.1619 66.3169 86.5736 67.8935L70.7719 77.5188C70.4423 77.7197 70.1127 77.9203 69.7831 78.1212Z" fill="#FA4C56"/>
<path fill-rule="evenodd" clip-rule="evenodd" d="M220.923 79.1435C217.666 91.5101 211.114 104.994 197.916 108.936C194.707 109.894 191.585 110.618 188.252 110.253C187.935 110.218 187.669 110.263 187.368 110.268C186.827 110.279 187.294 110.473 186.688 110.286C186.215 110.14 185.773 109.775 185.28 109.613C183.97 109.185 182.574 109.102 181.243 108.756C177.972 107.905 174.602 106.855 171.433 105.681C169.941 105.129 168.569 104.359 167.166 103.619C165.739 102.867 164.227 102.4 162.784 101.71C161.644 101.165 159.69 100.454 158.888 99.4318C158.034 98.3409 159.216 96.0188 159.554 94.8592C160.704 90.9134 162.073 87.0255 162.937 83.0012C165.92 86.4588 170.061 88.6 174.348 89.981C176.673 90.7303 179.066 91.272 181.485 91.6111C183.682 91.9187 186.051 92.2912 188.253 91.8543C189.915 91.5245 192.001 90.7605 193.188 89.4919C193.612 89.039 194.12 88.2087 193.883 87.551C193.581 86.7158 192.703 87.1089 192.228 86.4857C191.814 85.9428 191.879 84.6732 191.747 84.0122C191.514 82.8423 191.194 81.7044 190.802 80.5783C190.043 78.3917 189.097 76.2002 188.87 73.8735C188.673 71.8548 189.133 69.9459 190.14 68.1943C190.615 67.3662 191.81 65.1136 192.977 65.207C194.258 65.3097 192.53 70.7077 192.474 71.8089C192.25 76.1739 192.836 80.825 195.075 84.6509C195.933 86.1159 197.173 87.8216 199.004 88.0031C200.944 88.1951 202.508 86.6691 203.432 85.125C205.684 81.358 204.549 76.1891 203.408 72.2409C202.008 67.3969 198.356 64.0581 196.046 59.7077C199.494 60.0544 201.341 62.2448 203.11 65.0239C205.059 68.0834 206.575 71.757 207.323 75.317C207.701 77.1156 207.44 78.9218 207.443 80.738C207.443 81.3414 207.443 83.5677 208.427 83.4799C209.478 83.3862 209.839 80.8755 209.994 80.1096C210.348 78.3528 210.732 76.5958 211.039 74.8304C211.584 71.7067 211.826 68.5075 212.479 65.4056C212.589 64.8813 212.808 63.4264 213.593 63.8192C214.199 64.1216 214.101 66.3718 214.124 66.8948C214.178 68.1837 214.255 69.4723 214.265 70.7626C214.28 72.6748 213.899 74.654 214.086 76.5545C214.208 77.7964 214.875 79.1685 215.701 77.4938C216.52 75.8329 216.687 73.7615 217.144 71.9754C217.624 70.1002 218.12 68.1973 219.138 66.5318C219.42 66.0697 219.724 65.3361 220.352 65.5534C220.808 65.7116 221.145 66.7929 221.286 67.1746C221.922 68.8993 221.814 70.8169 221.774 72.6226C221.725 74.835 221.488 76.9985 220.923 79.1435ZM157.405 82.3527C157.231 82.2964 156.491 82.2263 156.308 82.2103C156.093 82.1916 156.337 81.7954 155.817 81.9082C155.917 82.1571 156.096 82.3231 156.352 82.4065C155.57 82.6711 154.993 82.0177 154.458 81.9335C153.947 81.853 153.925 81.9335 153.42 82.4739C152.872 81.8066 152.975 82.2228 152.525 82.2231C152.362 82.2234 152.354 82.4706 152.088 82.441C151.855 82.4149 151.831 82.0622 151.693 82.0207C150.947 81.7946 150.179 82.9314 149.332 81.9454C149.127 82.9713 146.777 81.6862 145.872 81.8666C144.924 82.0552 145.333 82.3951 144.567 81.8142C143.837 81.2608 144.041 81.6284 143.192 82.0813C143.212 82.0707 142.713 82.4078 142.759 82.4133C142.171 82.3445 142.205 81.7368 141.46 81.7691C140.672 81.8033 140.336 82.4209 139.615 81.661C139.458 82.2301 139.426 81.9848 139.056 82.1283C138.853 82.1766 138.675 82.1231 138.523 81.9682C138.477 82.1247 138.375 82.2206 138.218 82.256C137.816 82.2921 137.06 82.3481 136.695 82.1544C136.146 81.8634 136.587 81.7517 136.207 81.4246C136.036 82.3266 135.663 82.1348 134.874 82.219C134.273 82.2834 134.141 82.0989 133.567 82.0093C133.001 81.921 132.27 82.1405 131.719 82.234C131.491 82.2728 131.186 82.4315 130.954 82.3758C130.745 82.3255 130.656 82.1633 130.531 82.1209C130.38 82.0699 130.412 81.9373 130.15 81.8731C129.97 81.8291 129.646 81.9984 129.466 82.0277C128.18 82.2364 126.945 82.2386 125.718 81.7327C126.322 82.7944 124.306 82.2212 123.946 81.7816C123.497 82.4855 122.953 81.9886 122.047 82.0435C121.175 82.0965 119.863 82.3636 119.51 81.2773C119.441 81.4979 118.946 82.1389 118.749 82.2367C118.177 82.52 118.109 82.1008 117.577 81.9302C116.854 81.6976 117.005 82.1389 116.556 82.2285C115.799 82.3801 115.389 81.8468 114.72 81.5634C114.692 82.0041 114.677 82.2753 114.296 82.5497C113.958 81.3208 112.754 82.6502 112.961 81.0078C112.503 81.3061 111.858 81.5354 111.727 82.1389C112.494 81.928 111.809 82.429 111.777 82.4456C111.676 82.4986 111.334 82.0182 111.254 81.9506C111.232 82.1772 111.211 82.4038 111.189 82.6304C110.884 82.4777 110.597 82.2043 110.35 82.0674C110.126 81.9441 110.446 81.6873 110.069 81.6696C109.87 81.6601 109.663 82.0908 109.454 82.1274C109.135 82.1834 109.288 81.7256 109.155 81.7411C108.951 81.7645 108.62 82.062 108.466 82.0563C107.962 82.0375 108.303 81.8028 107.918 81.6952C107.23 81.5026 107.274 81.9525 106.78 82.1147C105.649 82.4861 105.762 80.7771 104.612 81.9169C104.336 82.1897 104.159 82.6108 103.782 82.5872C103 82.5382 103.275 81.6123 103.434 81.1589C103.598 81.2398 100.58 82.7901 100.603 82.7295C100.622 82.3576 101.097 82.0709 100.673 81.7408C100.326 82.485 99.9612 82.498 99.1612 82.6366C98.7723 82.704 98.6958 82.7939 98.2798 82.6323C98.0147 82.5296 97.8366 82.1068 97.5732 82.0834C97.6087 82.0867 97.1248 82.4548 97.051 82.488C96.6144 82.6847 96.3382 82.4616 95.914 82.5426C95.5523 82.6116 95.4098 82.9192 95.05 82.8349C94.5697 82.7227 94.8519 82.1492 94.1911 82.3092C93.9651 82.3638 93.8294 82.7991 93.4734 82.889C92.9187 83.0295 92.2386 82.7676 91.6525 82.9042C91.1871 83.0129 90.8417 83.0588 90.4346 83.0814C90.106 83.0998 90.2411 82.8442 89.636 83.146L89.3793 82.4991C89.0764 82.7716 88.7733 83.0439 88.4705 83.3164C88.4129 83.0721 88.3766 82.8249 88.3611 82.5744C87.9093 83.027 87.3402 83.1042 86.7329 83.1449C86.0751 83.1889 85.585 83.3324 84.9452 83.4528C84.7427 83.4905 84.2217 83.5511 84.0554 83.4805C84.0798 83.4908 83.7441 83.3512 83.8453 83.3778C83.8016 83.2889 83.7612 83.1987 83.7238 83.1069C83.6673 82.8515 83.4836 82.8404 83.1734 83.0732C83.0128 83.0485 82.7015 82.8379 82.5414 82.8898C82.1287 83.0235 82.1848 83.3438 81.7735 83.2968C81.5067 83.2661 81.3705 82.8719 81.0926 82.845C80.6674 82.8042 80.2989 83.2802 79.9157 83.384C81.0807 83.0678 78.4047 83.3131 79.2367 83.3349C78.6913 83.3207 78.1249 83.2935 77.6207 83.5381C77.3423 83.3476 77.6804 82.9648 77.399 82.8072C77.1437 82.6643 77.1241 83.0417 77.0943 83.0501C77.2552 83.0045 77.1749 83.3256 77.0137 83.3827C76.5117 83.5606 76.1101 83.1083 76.084 82.6594C75.6574 83.3014 75.5377 83.0433 74.9103 83.083C74.2916 83.1221 73.7581 83.4465 73.1391 83.4405C71.915 83.4289 71.0844 83.0034 70.6757 81.9104C71.9801 82.0693 73.293 81.2306 74.5684 81.4281C74.9877 81.493 75.2496 81.8079 75.6167 81.752C76.0694 81.6832 76.3852 81.1896 76.9654 81.1363C78.2452 81.0192 79.5067 81.1333 80.7952 80.9372C82.3344 80.7027 83.9406 80.5639 85.4944 80.678C86.6952 80.7663 87.6675 80.3071 88.8851 80.2188C90.4596 80.1042 92.0471 80.0838 93.6242 80.0012C95.2446 79.9162 96.9883 79.6575 98.6043 79.7404C99.1088 79.7662 99.543 79.8156 100.044 79.7855C100.255 79.7727 100.456 79.629 100.678 79.6504C100.967 79.6784 101.092 79.9746 101.392 79.9642C101.902 79.9469 102.447 79.5265 103.053 79.5151C104.05 79.4964 105.043 79.4986 106.042 79.4418C106.922 79.3918 107.865 79.1864 108.741 79.1975C109.359 79.2051 109.512 79.7317 109.872 79.786C110.519 79.8836 113.795 78.0197 114.078 79.6926C115.783 78.5256 118.07 79.5138 119.968 79.2945C122.406 79.0128 124.889 79.2638 127.344 79.1636C129.842 79.0614 132.412 79.156 134.9 79.3915C135.93 79.4891 136.926 79.5806 137.96 79.5214C138.42 79.495 138.953 79.3774 139.414 79.4836C139.525 79.5094 140.38 80.1058 140.274 80.1229C140.74 79.704 140.424 79.6426 141.246 79.6211C141.878 79.6045 142.477 79.7412 143.106 79.7784C144.236 79.8452 145.374 79.6887 146.501 79.7233C147.442 79.752 148.363 79.8909 149.309 79.8977C150.328 79.905 151.533 79.9338 152.271 80.756C152.193 80.4978 152.115 80.2397 152.037 79.9816C153.175 80.0707 154.3 80.4769 155.451 80.287C155.16 80.5658 154.864 80.7937 154.753 81.2026C155.374 81.1238 155.794 80.6908 156.447 80.6872C156.996 80.684 157.11 80.9592 157.689 80.6035C157.761 81.0393 157.832 81.4751 157.903 81.9106C158.706 81.7218 158.179 81.1236 158.238 80.5842C158.89 80.7801 159.442 80.5552 159.185 81.4933C158.987 82.2166 158.084 82.573 157.405 82.3527ZM156.277 90.4092C155.998 91.1952 153.578 90.746 153.005 90.6629C152.266 90.5559 151.42 90.3861 150.739 90.3018C150.657 90.1929 150.559 90.1005 150.445 90.0244C150.36 90.1437 150.251 90.2285 150.12 90.2782C149.808 90.3467 149.807 90.6694 149.396 90.598C149.377 91.0756 149.708 90.8042 149.963 90.9775C149.322 91.4068 149.615 90.9126 149.256 90.9205C149.167 90.7941 149.043 90.7447 148.884 90.7719C148.681 90.8243 148.495 90.911 148.324 91.0319C148.164 91.2009 148.027 91.2096 147.912 91.0582C147.803 90.9482 147.67 90.8803 147.512 90.8545C146.881 90.9572 146.705 91.237 145.994 91.1914C144.979 91.1259 143.881 91.3935 142.882 91.2525C142.262 91.1653 141.228 90.1924 140.947 91.1408C140.518 90.4377 139.836 89.9592 139.427 89.2409C141.336 89.1306 143.245 88.9991 145.156 88.9301C146.829 88.8698 148.66 89.058 150.223 88.9792C151.688 88.9053 153.239 88.7434 154.735 88.6097C156.32 88.4682 156.844 88.816 156.277 90.4092ZM106.463 90.5252C107.156 90.717 107.816 90.282 108.489 90.4195C108.711 90.4649 109.171 90.8697 109.273 90.8776C109.458 90.8925 110.002 90.495 110.235 90.4418C111.712 90.1057 113.501 90.1415 114.978 90.348C115.761 90.4572 115.881 90.0992 116.564 89.9253C117.273 89.7443 118.282 89.8837 119.03 89.8337C120.788 89.7161 122.546 89.7998 124.293 89.6712C126.086 89.5392 127.87 89.4677 129.664 89.3754C130.886 89.3126 133.823 88.6154 134.836 89.5226C135.671 90.2706 134.595 91.5693 133.759 91.8657C133.135 92.0869 132.835 91.6206 132.372 91.6652C131.844 91.7157 132.028 92.3398 131.556 91.7611C131.264 92.3365 129.428 92.0912 128.902 92.1292C127.755 92.2121 126.785 92.4422 126.005 91.3726C126.058 91.6809 126.111 91.9896 126.164 92.298C125.129 91.7448 124.018 91.9219 123.119 92.1148C122.675 92.2102 121.309 92.8699 120.827 92.5854C120.496 92.3898 121.08 92.0551 120.521 91.888C120.227 91.8005 119.721 92.2874 119.363 92.2629C118.371 92.1947 118.653 91.528 117.679 92.3765C117.349 92.0912 117.239 91.6062 117.283 91.1903C116.575 91.7937 116.634 92.7995 115.37 92.6153C114.898 92.5468 114.812 92.0659 114.566 91.9774C114.042 91.7883 113.983 92.1282 113.529 92.3971C113.358 92.4985 113.15 92.6618 112.948 92.6821C112.534 92.7234 112.468 92.5332 112.411 92.5395C112.136 92.5699 111.789 92.7098 111.462 92.6099C111.169 92.5199 111.083 92.0023 110.566 92.1233C110.071 92.2393 110.067 92.5754 110.157 93.0783C109.669 93.0277 109.374 92.756 109.009 92.4618C108.641 93.3211 107.865 92.6093 107.436 93.3345C106.877 92.6672 106.518 92.8508 105.825 92.1991C105.859 92.471 105.893 92.743 105.927 93.015C105.386 92.9106 105.145 92.5292 104.684 93.034C104.236 92.1993 102.877 93.3885 102.18 92.5824C101.869 93.6034 99.8108 93.3592 98.9416 93.3768C98.1715 93.3926 97.6014 93.3296 96.8489 93.5083C96.1838 93.6665 95.2622 93.8303 94.6367 93.758C94.228 93.7108 93.7814 93.6358 93.2723 93.6912C92.5382 93.7708 91.9043 94.1506 91.144 93.971C89.9991 93.7004 89.2973 92.1966 90.5725 91.5361C91.4452 91.084 93.0172 91.2514 93.9776 91.168C95.5691 91.0297 97.3528 90.7398 98.9465 90.8716C100.19 90.9745 101.323 90.6779 102.591 90.5526C103.546 90.4583 105.111 90.2885 105.734 91.2348C105.973 90.9585 105.948 90.3828 106.463 90.5252ZM89.0398 103.479C88.8688 102.628 96.1452 102.16 96.8673 102.104C98.3837 101.987 99.9042 101.904 101.424 101.865C102.673 101.833 103.84 102.072 105.089 101.88C106.256 101.701 107.665 101.334 108.681 102.16C108.83 101.03 113.21 101.581 114.043 101.584C117.671 101.597 121.142 101.605 124.651 101.381C126.656 101.252 128.785 101.08 130.79 101.18C131.695 101.225 132.423 101.466 133.323 101.257C133.91 101.121 134.542 100.837 135.103 101.238C135.76 101.708 136.041 103.303 135.588 103.969C135.259 104.455 134.967 104.401 134.441 104.317C133.631 104.188 133.03 104.001 132.205 104.33C132.339 104.276 131.652 104.43 131.709 104.425C130.774 104.495 129.492 105.148 128.687 104.395C129.009 104.452 129.478 103.876 129.072 103.828C128.766 103.793 128.572 104.12 128.334 104.23C127.518 104.605 127.101 104.488 126.614 103.701C125.632 104.551 125.526 104.316 125.095 103.269C124.763 103.525 124.691 104.129 124.43 104.328C124.391 104.357 124.552 104.725 124.363 104.709C124.188 104.695 124.131 104.408 123.997 104.386C123.91 104.371 123.866 104.12 123.784 104.104C123.694 104.088 123.602 104.248 123.502 104.244C123.232 104.231 122.46 104.805 122.737 103.999C122.328 104.519 122.152 104.188 122.004 103.714C121.532 104.073 121.06 104.432 120.588 104.791C120.368 104.181 119.99 104.347 119.515 104.56C119.658 104.136 119.568 103.735 119.209 104.03C119.001 104.2 118.861 104.742 118.648 104.972C117.786 104.099 117.473 104.339 116.282 104.452C115.827 104.496 115.262 104.579 114.856 104.305C114.499 104.064 114.297 103.178 113.687 103.893C113.823 103.734 113.61 104.957 113.572 105.151C113.303 104.969 113.074 104.746 112.886 104.481C112.534 105.177 111.612 104.553 110.856 104.695C109.666 104.919 108.439 105.296 107.388 104.41C107.314 104.696 106.452 105.06 106.451 105.071C106.502 104.565 106.822 104.743 106.169 104.647C106.05 104.629 105.913 104.845 105.8 104.869C105.411 104.949 104.957 104.873 104.565 104.862C102.935 104.815 101.442 105.176 99.832 105.307C99.2893 105.351 98.6456 105.438 98.136 105.233C97.6111 105.022 97.6255 104.783 97.0945 104.919C97.2624 104.876 96.7626 105.401 96.7897 105.381C96.7183 105.433 96.4204 105.177 96.3146 105.196C96.2836 105.308 96.253 105.42 96.222 105.532C96.0939 105.516 95.9658 105.5 95.838 105.485C95.488 105.532 95.1721 105.177 94.8432 105.165C94.9037 105.167 93.9556 105.52 93.9987 105.542C93.3369 105.212 93.5268 105.307 92.6872 105.508C91.8935 105.698 91.1033 105.654 90.2889 105.772C87.9201 106.116 89.3315 104.929 89.0398 103.479ZM86.9478 115.322C86.5025 114.69 87.6876 114.472 88.0661 114.416C88.6886 114.324 89.5144 114.507 89.9293 114.408C90.5611 114.258 91.1708 113.899 91.8821 113.802C92.7795 113.679 93.6842 113.659 94.5854 113.582C94.8855 113.556 95.2573 113.453 95.5493 113.471C95.9843 113.497 96.165 113.727 96.5162 113.728C97.1143 113.731 97.8524 113.354 98.4654 113.285C99.2505 113.195 100.043 113.154 100.832 113.115C102.494 113.032 104.139 113.066 105.801 113.064C106.558 113.063 108.576 112.277 108.954 113.159C109.479 112.491 110.827 112.582 111.578 112.562C112.901 112.528 114.21 112.401 115.532 112.339C116.664 112.287 117.929 112.529 119.04 112.359C119.653 112.266 119.855 112.07 120.55 112.158C121.066 112.224 121.853 111.951 122.296 112.071C122.273 112.065 122.849 112.422 122.669 112.433C122.867 112.421 122.855 112.559 123.074 112.497C123.36 112.416 123.229 112.056 123.822 111.928C124.748 111.729 125.983 111.96 126.946 111.908C127.879 111.859 128.811 111.837 129.746 111.842C130.176 111.843 130.708 111.741 131.126 111.825C131.331 111.866 131.767 112.133 131.941 112.106C132.433 112.03 132.684 111.688 133.35 111.709C134.104 111.733 134.784 111.722 135.534 111.665C136.26 111.609 136.377 111.505 136.737 112.11C137.094 112.71 137.192 113.49 136.536 113.898C136.962 113.87 137.487 114.441 136.984 114.758C136.674 114.953 136.051 114.512 135.679 114.544C135.22 114.583 134.86 114.826 134.362 114.84C133.837 114.857 133.305 114.989 132.787 114.999C132.249 115.009 131.841 114.768 131.33 114.871C130.881 114.961 130.833 115.33 130.292 115.006C130.023 114.845 129.977 114.249 129.611 114.244C129.119 114.236 129.315 114.871 129.032 115.166C128.956 114.257 128.255 115.761 127.976 114.658C127.719 115.024 126.767 115.536 126.306 115.242C125.885 114.974 126.025 114.367 125.85 113.93C125.558 114.716 124.776 115.531 124.847 114.1C124.467 114.568 123.44 114.494 123.698 115.312C123.388 115.306 123.315 114.864 123.055 114.831C122.83 114.802 122.651 114.975 122.617 114.972C122.74 114.983 122.249 115.146 122.241 115.148C122.574 115.08 121.281 114.965 121.501 114.967C121.201 114.964 120.834 115.21 120.484 115.209C120.164 115.208 119.847 115.083 119.531 115.047C118.714 114.953 118.884 115.133 118.371 115.39C118.18 115.485 118.133 115.646 117.863 115.626C117.663 115.611 117.589 115.351 117.566 115.349C117.286 115.32 117.493 115.226 117.058 115.27C117.008 115.356 116.958 115.441 116.908 115.527C116.751 115.728 116.548 115.778 116.297 115.678C115.654 115.816 113.519 116.415 113.728 115.306C113.401 115.466 113.074 115.626 112.746 115.786C112.606 114.893 110.829 116.077 110.432 116.137C109.922 116.214 109.875 116.018 109.394 115.914C109.307 115.895 109.133 116.182 108.929 116.141C108.401 116.035 108.307 115.982 108.216 115.408C107.839 116.112 107.526 115.797 106.843 115.913C106.692 115.939 106.595 116.236 106.378 116.185C106.222 116.148 106.217 115.862 106.11 115.825C106.013 115.792 106.027 115.566 105.884 115.534C105.72 115.497 105.161 115.956 105.001 116.026C104.639 116.186 104.045 116.45 103.692 116.371C103.256 116.273 103.45 115.95 102.833 115.986C101.86 116.043 101.454 116.871 100.849 115.566C100.575 116.089 100.61 116.231 100.171 116.403C99.8469 116.531 99.0255 116.398 98.5986 116.382C96.7751 116.314 94.9822 116.936 93.1738 116.773C92.3789 116.702 91.7087 116.543 90.9065 116.672C90.0637 116.809 89.2392 117.01 88.3842 117.091C87.9494 117.132 87.0409 117.257 86.8276 116.702C86.6398 116.212 87.3402 115.879 86.9478 115.322ZM90.5242 135.385C88.1589 136.967 86.2 139.128 84.0282 140.957C81.8508 142.792 80.123 144.831 78.1648 146.862C76.3543 148.74 74.6911 150.517 72.5023 151.935C71.1172 152.834 69.8817 153.939 68.4589 154.786C67.3933 155.42 65.7789 156.254 66.2988 154.314C66.8318 152.326 67.8155 150.317 68.6698 148.461C69.8841 145.822 71.108 143.207 72.4219 140.618C72.9158 139.646 73.1921 138.677 73.9752 137.902C74.8273 137.059 75.424 135.958 76.3573 135.161C80.2826 131.81 86.1983 134.399 90.5242 135.385ZM97.9438 136.521C96.8708 137.083 95.6701 137.223 94.533 137.595C93.564 137.911 92.6631 138.475 91.621 138.517C92.5697 137.804 93.3846 136.837 94.4541 136.296C95.657 135.688 96.749 136.131 97.9438 136.521ZM145.036 141.208C141.09 139.876 137.415 137.914 133.571 136.335C132.908 136.062 127.719 134.353 127.824 133.54C131.46 132.874 135.206 131.73 138.851 132.977C142.167 134.111 144.864 136.831 147.431 139.107C148.101 139.701 152.243 142.406 151.873 143.268C151.616 143.865 149.62 143.702 149.149 143.58C148.54 143.421 148.189 143.052 147.712 142.646C146.913 141.967 146.03 141.543 145.036 141.208ZM137.751 118.961C138.35 118.409 138.709 117.572 139.281 117.063C140.017 116.409 141.204 116.728 142.008 117.068C144.422 118.087 146.484 119.802 148.883 120.866C151.54 122.045 153.841 123.62 156.239 125.244C158.43 126.729 160.799 127.957 163.036 129.374C165.315 130.818 167.866 131.756 170.177 133.149C172.528 134.566 174.87 135.989 177.13 137.551C181.159 140.336 185.354 143.196 188.335 147.155C189.867 149.191 191.302 151.499 192.426 153.785C193.448 155.862 194.556 158.746 193.232 160.908C191.96 162.983 189.792 164.618 187.957 166.167C187.262 166.753 186.601 167.466 185.701 167.72C184.605 168.029 183.327 167.943 182.2 168.035C176.176 168.523 170.563 168.062 164.626 166.985C158.902 165.946 153.154 165.364 147.385 164.642C144.131 164.235 140.877 163.76 137.667 163.082C136.295 162.792 134.899 162.458 133.556 162.063C132.384 161.718 131.397 160.958 130.192 160.657C125.075 159.379 119.22 158.891 114.154 156.741C118.637 154.878 123.401 153.753 127.996 152.205C132.832 150.576 137.554 149.208 142.652 148.745C145.274 148.507 147.622 147.837 150.144 147.136C152.549 146.468 155.059 146.264 157.529 145.964C158.627 145.831 161.761 146.03 162.125 144.595C162.667 142.457 159.587 142.211 158.275 142.402C156.412 142.674 154.877 143.139 153.451 141.611C151.996 140.05 150.582 138.453 149.1 136.913C146.353 134.056 143.521 130.753 139.638 129.471C134.9 127.908 129.406 129.392 124.679 130.281C119.686 131.22 114.701 132.119 109.801 133.484C107.772 134.049 105.156 135.294 103.05 135.094C100.974 134.897 98.6239 134.557 96.6185 133.959C95.711 133.688 94.9651 133.186 94.1531 132.718C93.0973 132.11 91.9404 131.72 90.8199 131.247C88.554 130.29 86.3451 129.41 83.9007 129.034C81.8421 128.717 79.656 128.529 77.6609 129.251C75.7038 129.959 73.9695 131.401 72.604 132.941C71.1207 134.614 69.8947 136.489 68.679 138.358C68.0953 139.255 67.3829 140.038 66.7784 140.915C66.2709 141.652 65.9746 142.47 65.4375 143.186C64.2357 144.787 63.4197 146.836 62.6913 148.7C61.8821 150.769 60.9831 153.23 61.1763 155.481C61.2493 156.332 61.3255 157.459 61.6547 158.248C62.0734 159.252 62.6704 159.226 63.5309 159.605C65.0093 160.255 65.424 162.053 67.3344 161.702C69.1265 161.374 70.6806 159.897 71.988 158.72C73.6922 157.186 75.3231 155.569 76.9537 153.957C78.627 152.303 80.2761 150.469 81.6071 148.524C82.1311 147.758 82.5395 146.893 83.1588 146.195C83.9473 145.307 84.8328 145.2 85.9039 144.846C95.2684 141.752 104.678 138.768 114.335 136.725C116.649 136.235 118.981 135.604 121.254 134.952C123.664 134.262 124.913 134.992 126.902 136.307C131.058 139.055 135.971 140.991 140.599 142.783C142.056 143.348 144.376 143.384 145.515 144.497C138.763 145.526 132.328 147.507 125.815 149.479C122.604 150.451 119.356 151.294 116.133 152.224C112.909 153.154 109.807 154.36 106.627 155.408C103.462 156.452 100.117 156.878 96.9213 157.84C93.6592 158.823 90.4107 159.499 87.0624 160.096C83.6814 160.7 80.3238 161.396 76.9312 161.936C75.3779 162.183 73.8249 162.439 72.2887 162.78C70.7856 163.113 69.3335 163.91 67.8228 164.095C61.0767 164.92 54.463 166.759 47.7432 167.799C42.7256 168.575 33.9966 169.658 30.7429 164.624C27.4711 159.561 31.4851 153.656 35.0666 150.036C37.2923 147.787 39.7935 145.807 42.4176 144.045C45.226 142.16 47.928 140.125 50.7369 138.243C57.0936 133.983 63.9865 130.509 70.816 127.086C74.0941 125.443 77.2612 123.681 80.45 121.878C82.0326 120.983 82.9086 122.427 84.1596 123.409C85.1435 124.181 86.9506 126.084 88.3272 125.204C88.3801 125.521 88.4333 125.838 88.4862 126.155C88.8895 125.971 89.293 125.787 89.6962 125.603C89.967 126.314 89.9353 126.755 90.6921 127.128C91.1567 127.357 92.1483 127.633 92.5914 127.229C92.6818 127.51 92.7722 127.79 92.8625 128.071C93.2498 128.041 93.3247 126.933 93.3977 126.674C94.0614 127.643 94.9794 128.453 96.146 128.727C96.1517 128.664 95.9564 127.868 95.9648 127.863C96.3338 127.637 96.7995 128.604 96.9951 128.812C97.644 129.498 98.0309 129.392 98.7476 128.837C98.7997 128.894 99.0423 129.527 99.0776 129.516C99.2328 129.466 99.5273 128.905 99.5595 128.854C99.5148 129.592 100.939 129.741 101.442 129.582C101.329 129.366 101.216 129.15 101.104 128.934C102.856 128.7 103.544 130.562 105.226 130.467C106.469 130.397 105.472 130.125 106.176 129.593C106.79 129.127 106.9 130.145 106.96 130.113C107.077 129.99 107.168 129.849 107.233 129.69C107.46 130.561 109.272 131.343 109.084 129.91C109.797 130.195 110.303 130.668 111.091 130.768C112.05 130.889 113.074 130.686 114.03 130.606C116.09 130.435 118.032 130.015 119.89 129.071C120.991 128.511 122.163 128.003 123.198 127.328C124.064 126.763 125.707 125.048 126.861 125.786C126.566 124.915 127.956 125.723 128 124.6C128.224 124.769 128.447 124.937 128.67 125.105C128.804 124.812 128.767 124.349 128.946 124.093C129.193 123.741 129.313 123.948 129.523 123.751C129.758 123.529 129.963 122.937 130.245 122.768C130.535 122.595 130.877 122.802 131.189 122.65C131.665 122.419 133.711 120.163 133.365 122.096C134.244 121.797 133.566 121.524 133.676 120.937C133.896 119.762 134.434 120.608 134.969 120.71C135.845 120.878 135.828 120.154 136.316 119.627C136.762 119.147 137.601 118.931 137.312 118.096C137.642 118.274 137.712 118.622 137.751 118.961ZM84.9292 93.8678C84.2388 94.6367 83.7218 94.3079 82.9544 94.1952C82.8722 93.92 82.7319 93.8819 82.5335 94.0808C82.3061 94.2115 82.0616 94.2976 81.7998 94.3386C81.1705 94.4938 80.5168 94.4277 79.901 94.6628C79.9187 94.4566 80.1352 94.09 79.9966 93.8806C79.3491 94.3283 78.9477 94.6133 78.1526 94.6217C77.5084 94.6285 76.3776 94.1365 75.8428 94.7247C75.8262 94.4957 75.8096 94.2669 75.7934 94.0379C75.5315 94.1683 75.3036 94.343 75.1095 94.562C75.0729 94.2226 75.0525 93.9661 74.8281 93.6917C74.4026 94.5671 73.9364 94.5878 73.1096 94.2533C73.2254 94.3001 72.2819 93.7472 72.318 93.9004C72.0198 92.6435 76.7285 92.7473 77.2229 92.6976C78.4574 92.5729 79.6918 92.5006 80.9281 92.3868C82.1007 92.2789 82.9759 92.0961 83.7875 93.0745C83.4258 91.6614 86.8472 91.7315 84.9292 93.8678ZM30.941 71.9534C31.0707 74.0897 31.5462 76.3605 30.7155 78.4167C30.0477 80.0694 28.7156 81.9359 27.2806 83.0145C24.3423 85.2228 21.8517 82.5206 21.4427 79.5507C21.0164 76.4532 21.8614 72.6682 24.5287 70.7582C26.1224 69.6171 27.6657 69.6962 29.5006 70.0714C29.9316 70.1597 30.6311 70.1257 30.8775 70.5539C30.9353 70.6542 30.8835 71.9515 30.941 71.9534ZM69.9666 100.417C69.4592 100.673 68.9281 100.823 68.4806 101.171C68.3251 101.293 68.2722 101.568 68.1072 101.67C67.8071 101.856 67.3781 101.733 67.0652 101.886C66.5474 102.139 66.1762 102.501 65.5607 102.734C64.6468 103.081 63.8454 103.555 62.9817 104.006C61.5424 104.756 59.9977 105.401 58.493 106.012C57.7335 106.32 55.6328 106.921 55.7056 108.033C55.5357 108.079 55.362 107.707 55.0073 107.737C54.5202 107.777 53.8768 108.341 53.3713 108.479C52.4256 108.738 51.6934 108.761 51.6934 109.967C51.3925 109.762 51.316 109.262 50.9154 109.195C50.4647 109.121 50.275 109.607 49.9144 109.758C49.4897 109.936 48.9616 109.766 48.541 109.955C48.357 110.15 48.1527 110.32 47.9277 110.464C47.6989 110.491 47.4713 110.484 47.2447 110.443C46.3519 110.633 45.5302 110.968 44.6352 111.143C43.763 111.313 43.1658 111.375 43.5324 112.406C42.5994 112.589 42.3715 111.599 41.3189 111.961C40.0285 112.404 38.8226 112.725 37.4755 112.995C36.7887 113.133 36.0709 113.441 35.3789 113.514C34.8853 113.565 34.4246 113.389 33.9385 113.443C33.3527 113.509 32.8818 113.781 32.2756 113.791C31.7006 113.801 31.0968 113.697 30.5321 113.596C30.6119 113.824 30.7117 114.042 30.8317 114.251C30.4412 114.169 30.261 113.699 29.9299 113.63C29.5826 113.557 29.2713 113.915 28.9821 113.836C28.8589 113.802 28.9408 113.422 28.7205 113.35C28.5196 113.284 28.435 113.362 28.2358 113.33C28.1693 113.32 27.3362 113.275 27.2035 113.345C26.9715 113.468 27.2062 113.699 27.1601 113.733C26.3767 114.313 26.3672 114 26.0179 113.394C25.505 112.505 24.8866 113.066 23.9545 112.91C22.9157 112.737 22.0972 113.195 21.0747 113.13C19.9719 113.06 18.6759 112.235 17.7009 111.753C15.5953 110.712 13.5422 109.727 11.774 108.151C8.31732 105.07 5.50516 101.281 3.84712 96.9433C2.0656 92.2833 1.72803 87.423 1.87104 82.479C1.95706 79.5056 2.19505 76.5341 2.66369 73.5955C2.98635 71.5741 3.05392 67.9821 5.33284 67.0616C5.72469 71.7945 4.48835 76.6173 5.26799 81.3194C5.50272 82.7358 6.0753 84.6229 7.15886 85.6719C8.76317 87.2247 9.13847 84.9802 9.28365 83.7402C9.55366 81.4376 10.0554 79.1475 10.4106 76.8558C10.7656 74.5649 11.0163 72.2485 11.5099 69.9817C11.6898 69.1553 13.1411 63.1028 14.2062 63.3894C13.9908 67.7925 13.4184 72.1197 13.3959 76.539C13.387 78.3115 13.2282 80.1838 13.4841 81.9446C13.6157 82.8507 14.4409 85.5097 15.8602 85.288C17.1736 85.0829 15.7297 83.2099 15.607 82.4877C15.2822 80.5758 15.6963 78.1972 15.9991 76.2994C16.5722 72.7082 17.8509 69.03 19.941 66.0289C21.8129 63.3416 24.695 60.7834 28.1671 61.2572C29.6507 61.4599 30.8081 61.8283 31.5535 63.1829C32.1383 64.2461 34.4422 65.454 33.1071 66.785C31.8916 67.9968 29.9259 67.0268 28.5747 66.738C26.9205 66.3843 25.1477 66.8097 23.7642 67.7791C21.3906 69.4419 20.0379 72.4147 19.5963 75.2029C19.0012 78.9622 20.592 88.8024 26.451 86.597C30.3432 85.1318 33.2748 79.8615 32.9481 75.8267C32.817 74.2114 32.1855 71.1451 34.4202 70.7091C37.2831 70.1505 37.6875 73.3064 37.3976 75.3572C36.9762 78.3403 35.3996 81.1143 33.5958 83.4729C32.0238 85.5285 30.1953 86.8139 28.3036 88.5117C27.7435 89.0143 26.3151 90.1443 26.555 91.0791C26.8179 92.1037 29.0629 92.3949 29.962 92.5634C34.4091 93.3959 39.4242 92.63 43.8637 92.0488C52.9884 90.8539 61.9931 87.9109 69.4752 82.5002C69.7775 85.848 70.1585 89.1846 70.2988 92.5447C70.3669 94.1756 70.3842 95.8302 70.5707 97.4522C70.6855 98.4501 71.1004 99.8439 69.9666 100.417ZM44.6656 112.082C44.3074 112.269 44.6946 111.136 44.5951 111.511C45.1302 111.703 45.1538 111.893 44.6656 112.082ZM82.5173 71.5671C83.086 70.9403 84.6396 69.4492 85.1327 70.8642C85.3161 70.261 85.34 69.3677 86.0483 70.1823C86.3302 69.1816 89.4409 69.2754 90.2113 69.2311C92.6783 69.0901 95.1553 69.0145 97.6136 68.7695C102.665 68.266 107.805 68.5258 112.875 68.5092C113.973 68.5056 115.068 68.4462 116.157 68.6054C117.209 68.7591 118.314 69.1903 119.386 69.0327C120.339 68.8925 120.964 68.6298 121.945 68.7423C123.119 68.8768 124.259 68.9724 125.443 68.9681C130.681 68.9491 135.917 69.1612 141.156 69.1694C142.177 69.171 143.4 68.9716 144.358 69.4052C144.713 69.5661 145.101 70.101 145.372 70.1597C145.683 70.2268 145.498 69.7421 145.914 69.9611C146.471 70.254 146.04 71.1549 145.672 71.2978C145.892 71.2122 145.274 71.128 145.336 71.1248C145.043 71.1405 144.792 71.3655 144.477 71.3513C143.997 71.3304 143.596 71.0378 143.209 70.7803C143.203 70.8854 143.415 71.5866 143.173 71.6219C142.964 71.6526 142.768 70.9612 142.747 70.8004C141.575 71.8341 140.334 71.2579 138.879 71.3888C137.848 71.4818 135.696 72.17 134.977 71.093C134.947 71.322 134.855 71.5225 134.701 71.6945C134.496 72.0078 134.318 71.9811 134.168 71.6138C134.117 71.6162 133.616 71.7252 133.606 71.7244C133.253 71.6964 132.796 71.5698 132.437 71.5391C131.882 71.4918 131.984 71.8958 131.542 71.9023C131.3 71.9059 130.684 71.557 130.263 71.5353C129.534 71.4972 128.789 71.8067 128.069 71.713C127.573 71.6486 127.126 71.2454 126.64 71.2296C126.034 71.2095 125.837 71.6714 125.358 71.0226C125.259 70.996 125.198 71.3777 125.159 71.3842C125.169 71.3826 124.703 71.4516 124.648 71.4731C124.552 71.5097 124.179 71.6804 124.066 71.6823C123.821 71.6869 123.688 71.5114 123.428 71.5073C122.998 71.5 121.627 71.8782 121.665 71.0835C120.132 71.6516 118.824 71.4301 117.25 71.5644C116.528 71.6263 116.075 71.5296 115.388 71.397C114.528 71.231 113.957 71.4396 113.098 71.4818C112.274 71.5222 112.014 71.1734 111.318 70.8585C111.044 70.7343 110.862 70.5705 110.526 70.6395C110.334 70.6789 110.47 71.0022 110.414 71.0242C110.118 71.1383 109.911 71.0174 109.506 71.0452C108.757 71.0962 108.459 71.7219 107.69 71.1345C107.945 71.1036 108.201 71.072 108.457 71.0411C107.721 70.7292 106.75 70.57 106.928 71.7059C106.301 71.6179 106.844 71.1905 106.535 71.0375C106.227 70.8848 105.881 71.1405 105.493 71.2669C104.467 71.5997 103.611 71.4345 102.541 71.3747C101.325 71.3068 98.4811 72.2987 97.6106 71.0109C97.5845 71.2823 97.2931 72.0385 96.9053 72.0029C96.7789 71.9912 97.1314 71.1886 97.1713 71.1036C96.9715 71.5288 96.0603 71.6095 95.6112 71.8301C95.6617 71.6016 95.7119 71.3731 95.7621 71.1449C95.3452 71.5888 95.1425 71.3179 94.6519 71.4663C94.4375 71.5312 94.1271 71.9735 93.9436 72.0001C93.7301 71.7524 93.4614 71.6459 93.1379 71.6804C92.9228 71.6266 92.7076 71.616 92.4926 71.6488C91.6316 71.7113 90.8465 72.1898 89.9901 71.864C89.2487 71.5815 88.9619 70.8552 88.5199 72.0107C88.4034 71.8053 88.2873 71.5999 88.1709 71.3945C88.0276 71.6176 87.884 71.8404 87.7405 72.0632C87.1796 71.6959 87.1451 71.4831 86.4995 71.6181C86.3481 71.6785 86.1926 71.67 86.0336 71.5926C85.9956 71.7059 85.9576 71.8189 85.9196 71.932C85.9044 72.2164 85.82 72.3104 85.6665 72.2137C85.5373 72.1672 85.4206 72.0969 85.3167 72.0023C84.8895 72.0349 84.3441 72.1474 83.8857 72.0852C83.7088 72.0615 82.5998 71.4761 82.5173 71.5671ZM95.5862 63.9187C95.6364 63.9958 95.6869 64.073 95.7371 64.1502C95.0437 64.5164 94.8807 64.3061 94.809 63.5709C95.1477 63.5774 95.2055 64.1733 95.5862 63.9187ZM96.0158 63.4872C96.3496 63.6345 96.7325 63.9238 97.047 63.5361C97.2586 64.1515 95.6863 64.9913 96.0158 63.4872ZM98.1721 63.7589C98.873 64.2327 97.1916 63.8518 97.1943 63.8527C97.4966 63.5736 97.8223 63.5424 98.1721 63.7589ZM104.201 61.1173C104.441 62.3301 105.104 62.2956 106.175 61.7318C107.735 60.9094 107.999 59.5626 108.108 57.9545C108.212 56.4127 108.401 55.8158 109.991 56.1377C111.1 56.3624 112.039 56.1736 113.158 56.1426C114.352 56.1097 114.773 56.292 114.869 57.5206C114.965 58.7508 115.184 59.6849 116.076 60.6212C116.984 61.5729 118.194 62.1413 119.374 62.6738C119.98 62.9474 120.55 63.2419 121.221 63.3011C121.481 63.3242 122.834 63.1531 122.863 63.5812C122.884 63.9032 121.01 64.8112 120.811 64.9193C119.942 65.3921 119.075 65.8162 118.125 66.1025C115.941 66.7617 113.625 66.8005 111.363 66.7606C107.715 66.6965 102.673 65.1535 100.492 61.9171C101.728 61.6506 102.965 61.3838 104.201 61.1173ZM103.874 50.6134C103.297 50.129 102.923 49.3973 102.443 48.8238C102.202 48.5344 102.024 48.4423 101.794 48.2975C101.552 48.1451 101.415 48.3608 101.213 48.0024C100.691 47.0762 102.303 45.7729 100.593 45.4165C100.015 45.2956 98.6228 45.7539 98.454 44.9253C98.2152 43.7535 100.452 43.6768 100.978 43.0821C102.024 41.8997 101.314 39.8952 101.951 38.531C102.555 37.2388 104.112 37.0093 105.341 36.621C107.054 36.0803 108.787 35.7668 110.526 35.334C111.742 35.0316 113.762 33.8163 114.889 34.8901C113.149 35.2764 114.161 35.8828 115.32 36.2252C116.634 36.6131 118.026 36.7645 119.388 36.8726C120.789 36.9837 122.217 37.0049 123.601 36.7256C124.882 36.4672 126.312 35.3544 127.654 35.6394C126.909 36.9345 124.69 37.642 123.342 37.9814C122.655 38.1542 122.215 38.1001 122.307 38.9567C122.397 39.787 123.118 40.6195 123.281 41.4843C123.497 42.6289 123.309 43.6806 122.901 44.7571C122.5 45.8161 122.407 45.9544 122.757 46.9665C123.303 48.5423 122.13 50.2838 121.046 51.4282C116.661 56.0551 108.27 54.3024 103.874 50.6134ZM115.015 22.9601C115.033 23.0074 115.018 22.9894 115.015 22.9601V22.9601ZM116.38 34.6368C116.199 34.7727 115.152 35.0574 115.195 34.6483C115.254 34.1 116.197 34.298 116.38 34.6368ZM118.767 23.5613C118.521 23.3782 117.833 23.4535 118.336 22.7593C118.5 23.0647 118.634 23.313 118.767 23.5613ZM102.253 19.1732C102.566 18.3595 102.913 17.6026 103.054 16.7364C103.141 16.2028 102.968 15.5934 103.714 15.5098C102.764 15.0951 102.754 13.4588 102.698 12.6105C102.621 11.4423 102.251 9.87813 102.765 8.79082C103.292 7.67389 104.003 7.69237 104.218 9.02257C104.302 9.5434 103.98 9.71185 103.92 10.0746C103.8 10.7921 104.038 10.6348 104.501 10.0881C104.692 10.6438 104.765 11.4787 105.543 11.4433C105.491 11.2931 105.193 10.9616 105.293 10.775C105.445 10.4883 106.193 10.9263 106.287 10.9926C106.969 11.4697 107.117 11.9052 106.631 12.507C107.304 12.5796 106.739 13.1691 107.174 13.3229C107.837 13.5574 107.392 12.4464 107.32 12.2511C107.724 12.4087 107.86 12.5885 108.115 12.9075C108.265 13.1276 108.402 13.3561 108.525 13.5924C108.662 14.0239 108.945 14.132 109.374 13.9168C110.233 14.1863 111.419 14.1442 112.189 14.6153C112.541 14.8305 112.668 15.3014 112.962 15.4801C113.292 15.6815 113.735 15.5902 114.09 15.7165C113.96 16.0116 114.066 16.1713 114.405 16.1963C114.669 16.2205 114.925 16.28 115.172 16.3745C115.357 16.2352 115.558 16.1251 115.776 16.045C115.922 16.3023 116.128 16.3659 116.395 16.2363C117.187 16.3846 117.568 16.6843 118.071 17.1323C118.523 17.5344 118.155 17.567 118.65 17.5314C118.849 17.517 119.198 17.1796 119.653 17.2453C119.915 17.2964 120.168 17.3771 120.411 17.4874C120.674 17.7124 120.953 17.7406 121.248 17.5724C121.728 17.8069 121.775 18.2223 122.36 18.2791C123.007 18.3421 122.799 17.5358 123.243 18.6731C123.841 17.4673 124.06 19.3881 124.678 19.5433C125.318 19.7041 125.387 19.1855 125.934 19.7522C126.099 19.922 126.089 20.2027 126.274 20.3828C126.576 20.6776 126.984 20.6186 127.246 21.0207C127.1 20.7963 127.281 21.816 127.278 21.7823C127.319 22.2322 126.919 22.7362 127.738 22.6979C127.729 22.7452 127.335 23.3187 127.259 23.2538C127.24 23.1883 127.224 23.122 127.211 23.0549C127.123 23.0927 127.084 23.639 127.101 23.7355C127.17 23.7464 127.199 23.6947 127.186 23.5806C127.051 24.002 127.254 24.2696 126.996 24.6696C126.83 24.9252 126.377 25.1173 126.136 25.2752C125.556 25.6561 124.987 26.0381 124.42 26.4434C123.099 27.3889 121.62 28.5289 119.956 28.7262C120.791 27.9057 125.599 24.8005 123.188 23.9091C122.741 23.7439 121.926 23.5874 121.458 23.5526C120.877 23.5094 120.275 23.8425 119.634 23.6347C118.859 23.3842 119.151 22.6563 118.678 22.3952C117.673 21.8413 117.911 23.144 117.594 23.4853C117.262 23.1367 117.333 22.9671 116.809 22.9356C116.277 22.9036 116.15 23.3956 115.529 23.0891C114.673 22.6667 115.126 21.8252 113.912 21.8054C113.932 21.6206 114.108 21.1044 113.876 20.9604C113.564 21.3655 113.806 21.8184 113.516 22.2083C113.371 22.4039 113.056 22.5599 112.826 22.6232C112.288 22.771 112.211 23.0541 112.299 22.2436C111.9 22.9623 110.677 22.6667 109.949 22.5944C108.766 22.4767 107.509 22.2529 106.375 21.8736C105.326 21.5226 104.766 20.9197 103.901 20.3711C103.574 20.1636 103.418 20.2429 102.949 20.1141C102.486 19.987 102.035 19.7405 102.253 19.1732ZM104.749 6.44911C104.928 6.34152 105.056 7.94694 104.839 8.24689C104.443 7.6201 103.741 6.70069 104.749 6.44911ZM105.32 5.80873C105.894 5.28898 105.495 6.63141 105.39 6.85665C105.177 6.72026 104.964 6.58387 104.751 6.44748C105.023 6.28093 105.091 6.01603 105.32 5.80873ZM126.986 3.64525C132.292 4.75864 137.549 6.8398 141.804 10.2647C145.68 13.3843 148.416 17.8104 149.95 22.5186C151.542 27.4055 151.007 32.8274 147.219 36.5675C145.224 38.5375 142.589 39.7262 140.078 40.886C138.874 41.4416 137.635 41.9046 136.427 42.4474C135.56 42.8373 134.501 43.4611 133.511 43.353C134.016 42.8216 134.749 42.8107 135.36 42.4857C136.098 42.0929 136.702 41.3389 137.338 40.8004C137.97 40.2657 139.372 38.5821 140.343 38.9896C140.208 38.0928 141.23 37.6763 141.691 37.0848C142.178 36.4591 142.213 35.7274 143.11 35.5226C142.147 34.7683 142.442 33.3458 142.651 32.319C142.92 31.006 143.044 29.8005 143.149 28.4643C143.34 26.0552 143.494 22.9864 142.163 20.8686C141.731 20.1809 141.181 19.549 140.795 18.8347C140.331 17.974 140.433 17.2162 140.433 16.2727C139.584 16.8432 139.405 15.6798 139.046 15.1128C138.777 14.6873 138.424 14.4496 138.337 13.9144C138.274 13.5248 138.696 13.459 138.465 13.0507C138.181 13.2653 138.067 13.5979 137.923 13.9065C137.661 13.8016 137.97 13.4365 137.82 13.3177C137.816 13.3145 137.309 13.0947 137.335 13.1265C137.009 12.7138 136.904 12.0288 136.745 11.5376C136.148 11.8397 136.26 11.8041 135.594 11.2993C135.477 11.2105 134.892 10.8024 134.836 10.669C134.579 10.0452 135.03 10.4147 134.904 10.0276C134.542 8.91552 132.508 9.12581 132.347 7.45953C131.356 8.08904 130.978 7.19707 130.392 6.56267C129.791 5.91279 128.783 5.66283 128.837 4.63203C128.525 4.73881 128.213 4.84531 127.901 4.95154C128.063 4.00035 126.65 4.06094 126.138 3.57841C126.423 3.58195 126.705 3.60422 126.986 3.64525ZM127.794 62.5586C128.286 62.1187 128.136 62.7039 128.453 62.6371C128.723 62.5798 128.777 62.3752 129.036 62.3124C130.105 62.0541 131.704 62.3787 132.828 62.323C134.13 62.2586 136.362 62.529 136.982 64.0524C137.356 64.9699 136.786 64.6577 136.157 64.5895C135.67 64.5368 135.237 64.6354 134.755 64.6305C134.516 64.6672 134.279 64.6637 134.042 64.6194C133.926 64.5433 133.858 64.4362 133.837 64.2982C133.166 64.1966 132.454 64.5936 131.711 64.6134C130.719 64.6397 129.838 64.4496 129.084 63.7801C128.785 64.2265 128.581 64.4479 128.042 64.4979C128.028 64.4993 127.502 64.2874 127.42 64.2662C127.313 64.2382 127.04 64.4645 126.832 64.3998C127.201 63.8124 127.255 63.0408 127.794 62.5586ZM195.519 67.8601C195.694 67.2513 195.84 66.6345 195.999 66.0216C198.447 68.808 200.589 72.5381 201.553 76.1117C202.179 78.4338 203.153 82.6415 200.168 83.8391C197.737 84.8148 196.381 81.3175 195.766 79.595C194.408 75.7927 194.408 71.729 195.519 67.8601ZM86.0092 24.1987C86.0407 24.1925 84.4247 25.1323 84.9571 24.3712C85.1709 24.0653 85.982 23.8501 86.3419 23.8501L86.0092 24.1987ZM84.4548 24.597C84.2678 24.7543 84.079 24.9097 83.8885 25.063C83.7056 24.7739 83.5224 24.4848 83.3395 24.1957C83.7001 24.0436 85.2315 23.9295 84.4548 24.597ZM83.3159 53.8169C82.9778 53.5879 82.7097 53.7096 82.6082 54.094C82.6082 53.7115 82.8074 52.8228 83.1134 52.7193C83.3113 52.6522 82.4559 51.6401 82.6964 51.3752C83.3077 51.7254 82.9417 52.061 83.1208 52.5131C83.2016 52.7171 83.4445 52.91 83.4977 53.0668C83.5878 53.3328 83.9528 54.2475 83.3159 53.8169ZM81.6595 51.5396C81.3132 51.6282 81.9194 52.1998 81.9189 52.4525C81.9184 52.6435 81.6891 52.7902 81.5944 53.0516C81.3892 53.618 81.7422 54.0006 81.161 54.4328C81.161 53.1917 80.3282 49.9032 81.9287 49.2984C81.1479 48.6836 81.7892 47.9739 82.4011 48.7097C82.9894 49.4171 82.6147 51.2951 81.6595 51.5396ZM80.8256 46.6421C80.5111 45.5265 79.564 45.1364 78.4818 45.2024C78.523 44.6313 78.9559 43.8078 79.2685 44.8372C79.3971 44.5329 79.4861 44.136 79.7792 43.9344C80.2728 45.482 82.7335 46.337 81.2014 48.0139C81.0763 47.5566 80.9545 47.0985 80.8256 46.6421ZM77.9659 45.2855C72.2673 45.6988 64.2669 46.8812 59.7066 42.5132C56.7332 39.665 56.892 35.2297 59.2949 32.0653C60.6661 30.2596 62.538 28.9881 64.418 27.7769C65.1434 27.3093 65.758 27.0007 66.5545 26.732C66.6834 26.7181 66.8047 26.7469 66.9181 26.8184C66.9629 26.626 67.0711 26.4836 67.2437 26.3907C67.5512 26.2261 67.9894 26.1674 68.1666 25.8256C67.9775 26.4673 67.8804 27.1281 67.8109 27.7921C67.6573 27.6133 67.504 27.4346 67.3507 27.2558C67.2226 28.4651 65.9626 27.7332 65.2104 27.8842C65.7059 28.57 66.0603 28.8191 66.1029 29.7255C65.7339 29.0441 64.9621 28.5961 64.2446 28.3765C64.6343 29.529 64.9097 30.2132 64.5173 31.4771C64.0435 31.2065 64.0115 30.5566 63.4368 30.4009C63.2851 31.1546 63.2582 31.9908 63.0639 32.7222C61.592 32.0509 61.7356 33.859 62.3266 34.7537C62.6408 35.2297 62.7952 35.7807 63.0756 36.2376C63.7635 37.3584 63.2408 35.6823 64.0055 35.7619C63.8338 36.944 63.7741 37.0617 64.6392 37.9273C65.4834 38.7714 65.9214 39.9427 66.8245 40.7358C67.0858 40.4016 66.6747 40.0519 66.6386 39.7321C67.479 39.8732 67.8725 40.7157 68.6803 39.9693C69.0326 40.6559 69.4138 41.412 70.2575 41.553C69.6999 40.4929 71.3286 41.2118 71.7462 41.3623C72.0632 41.4764 72.6306 41.5672 72.753 41.6112C73.4412 41.8598 72.9693 41.4136 73.3869 42.2285C74.0002 42.0434 74.2317 41.5345 74.9652 41.9644C75.5616 42.314 75.563 42.9128 75.6992 43.5263C75.8414 43.125 75.985 42.724 76.1421 42.3282C76.3022 42.3955 76.9738 43.1345 76.9005 43.1381C78.4723 43.0609 78.4167 44.0368 77.9659 45.2855ZM69.9647 25.2795C70.2803 25.0581 70.6656 25.3529 71.0201 25.2735C71.5107 25.164 71.7894 24.7437 72.3375 24.6986C72.185 25.186 71.8987 25.1404 71.6567 25.5232C71.5742 25.6536 71.6171 25.9666 71.5438 26.0416C70.9294 26.6708 70.7172 26.1573 70.0901 25.6811C70.1446 26.2554 70.2551 26.4369 69.714 26.591C69.2242 26.7306 68.4158 26.2163 68.1688 25.8218C68.377 25.405 69.587 25.5447 69.9647 25.2795ZM73.8748 24.3818C74.407 24.4326 73.766 26.0025 73.0035 24.4797C73.2906 24.4172 73.5812 24.3846 73.8748 24.3818ZM76.611 24.0784C77.4501 23.9072 80.2492 23.1095 80.5607 24.4158C80.6166 24.3832 80.8248 23.6458 80.9216 23.7358C81.3091 24.0963 81.3526 24.5742 81.323 25.0749C80.8543 24.099 81.021 24.9562 80.7035 24.8894C80.6207 24.8717 80.494 25.0266 80.2839 24.9627C80.0088 24.8788 79.8115 24.2933 79.6378 24.0949C79.3485 24.5079 78.9901 25.0396 78.4107 25.0037C78.0007 24.9785 77.3399 23.9227 77.8709 25.0785C77.5592 24.9755 77.1982 24.7424 76.8509 24.7891C76.462 24.8415 76.2598 25.2254 75.8954 25.2874C75.0873 25.4243 74.9654 24.6467 74.4409 24.2245C75.1643 24.1824 75.8965 24.224 76.611 24.0784ZM81.688 24.0659C81.7471 23.798 82.4814 23.6898 82.6684 23.7749C83.1248 23.9822 82.9561 24.2558 82.8722 24.7111C82.5335 24.5508 82.1949 24.3908 81.8562 24.2305C82.3618 25.0445 81.4459 25.1627 81.688 24.0659ZM223.832 71.7456C223.772 69.7948 223.716 67.8104 223.221 65.9113C222.875 64.5821 222.025 62.1989 220.417 61.9682C217.991 61.6202 216.648 66.4134 215.969 68.0587C215.833 66.1216 215.952 64.0597 215.22 62.2211C214.634 60.7478 213.154 59.3524 211.88 61.007C210.745 62.4795 210.528 64.6533 210.229 66.425C209.842 68.7208 209.61 71.0343 209.327 73.3439C208.22 71.2033 208.026 68.7529 207.15 66.528C206.324 64.4286 205.024 62.4236 203.772 60.5562C202.749 59.0309 201.505 57.597 199.903 56.6645C198.509 55.853 196.07 54.9751 194.741 56.323C193.632 57.4475 193.806 58.9524 193.863 60.3715C193.889 61.0034 193.988 61.4368 193.432 61.7552C193.159 61.9117 192.733 61.8307 192.432 61.9144C191.949 62.0494 191.578 62.2782 191.169 62.5822C188.301 64.7139 186.979 68.5554 186.57 71.9803C186.052 76.3198 187.743 80.0398 189.199 84.0103C189.431 84.643 190.168 85.9855 190.066 86.6919C189.955 87.4659 188.983 87.486 188.327 87.5021C186.348 87.551 184.278 87.4034 182.308 87.219C177.618 86.7802 172.932 84.5221 168.732 82.5062C167.966 82.1383 166.882 81.9278 166.257 81.3485C165.668 80.804 165.514 79.9314 165.006 79.3067C163.76 77.7741 162.967 76.4662 161.133 75.5403C159.265 74.5975 157.36 73.7262 155.537 72.6935C153.284 71.416 151.202 69.7978 149.042 68.3674C145.029 65.7097 141.043 62.796 136.789 60.5361C134.812 59.4858 132.602 59.3157 130.55 58.4558C128.551 57.6184 126.097 57.6173 124.011 58.146C122.995 58.4039 122.304 59.0146 121.369 59.4132C120.274 59.8805 119.381 59.3649 118.417 58.8071C116.945 57.955 115.485 56.5667 117.582 55.6476C118.293 55.3357 119.184 55.2175 119.806 54.7271C120.468 54.2046 121 53.2407 121.538 52.5862C122.735 51.1312 123.451 49.4563 125.203 48.5515C127.141 47.5509 129.438 47.2787 131.504 46.6247C133.743 45.9164 135.935 45.0741 138.132 44.2471C142.09 42.7572 146.206 41.1485 149.05 37.8686C151.503 35.0389 152.573 31.3866 152.474 27.6769C152.271 20.0932 148.209 12.3967 142.38 7.65515C135.233 1.84095 126.141 -0.0978453 117.113 0.00376739C112.875 0.0515851 107.819 0.606108 104.284 3.18039C101.23 5.40391 100.722 9.2929 101.176 12.8034C101.361 14.2282 101.991 16.1083 100.986 17.3638C100.424 18.0661 99.4141 18.24 98.6567 18.6779C97.7048 19.2281 96.8654 19.7555 95.7873 20.0465C91.2077 21.2832 86.3839 20.8526 81.7015 20.7841C73.9014 20.67 65.9062 22.7818 60.0873 28.2782C55.3883 32.7163 53.9791 41.0852 59.7101 45.4119C64.3404 48.9072 71.6032 48.5227 77.0628 47.9131C78.7559 47.7237 79.92 47.4487 79.9238 49.5201C79.9282 51.7828 79.5534 54.1476 80.1306 56.3689C81.0399 59.8672 84.4013 59.9506 87.3733 59.1972C88.9416 58.7997 90.4574 58.202 91.9467 57.576C94.1309 56.658 96.133 55.308 98.2901 54.3915C99.7525 53.7705 100.847 55.7791 102.145 54.3867C102.384 54.1294 102.428 53.7457 102.79 53.614C103.356 53.4077 104.307 54.131 104.804 54.3598C105.548 54.7024 106.298 54.9542 106.595 55.7791C106.873 56.5507 106.751 57.7776 106.485 58.5389C105.906 60.1935 104.348 59.8664 102.924 59.7558C100.443 59.5626 97.9778 59.1532 95.4969 58.9812C93.2712 58.8269 91.1868 59.492 89.2669 60.5896C85.2347 62.8949 81.9357 66.5617 78.4395 69.5772C76.64 71.1291 74.9006 72.8054 72.9438 74.1568C72.093 74.7445 71.1715 75.2846 70.432 76.0149C69.6982 76.7393 69.6176 77.3978 69.3666 78.3618C68.9197 80.0781 66.7002 80.9171 65.3127 81.8226C63.3507 83.1031 61.2707 84.0065 59.0713 84.7922C54.4133 86.456 49.7187 87.6178 44.849 88.4766C42.4648 88.8972 40.1004 89.1735 37.6929 89.4006C35.6177 89.5963 33.411 90.2353 31.3383 89.7248C31.9353 88.7565 32.9931 88.175 33.817 87.4265C34.8791 86.4617 35.7825 85.3185 36.5863 84.1339C38.1509 81.8272 39.2483 79.3521 39.5004 76.5542C39.7276 74.0362 39.4671 71.024 37.9477 68.8969C37.4229 68.162 36.3846 67.962 35.9149 67.3001C35.4479 66.6421 35.6259 65.5094 35.3703 64.7422C34.7193 62.7909 32.7874 60.3728 31.0873 59.2396C29.2428 58.0097 26.5446 57.5578 24.4139 58.1988C20.4666 59.3861 18.042 63.6043 16.2358 67.0138C15.2491 64.9375 16.9014 61.8574 14.9739 60.1571C13.3482 58.7229 12.0578 61.5012 11.514 62.6898C8.96154 68.2695 8.3819 74.1875 7.31245 80.1577C6.87664 79.7281 7.09997 78.6256 7.14095 78.1132C7.2172 77.1593 7.21015 76.2236 7.21205 75.2656C7.2172 72.8456 7.66713 70.4146 7.46089 67.9968C7.34176 66.5992 6.89618 63.6522 4.86555 64.1165C3.14347 64.5104 2.06479 66.932 1.52369 68.4125C0.743242 70.548 0.563055 72.662 0.61163 74.9178C0.66536 77.4103 0.190471 79.8621 0.0754118 82.3511C-0.148193 87.1858 0.0726982 91.9787 1.45992 96.6448C3.73152 104.286 8.95448 110.634 15.9253 114.468C19.7659 116.58 24.0267 117.917 28.4073 118.204C30.7812 118.36 33.0729 118.077 35.4264 117.832C37.7491 117.589 40.0839 117.478 42.4024 117.193C47.566 116.56 52.5973 114.925 57.2906 112.726C59.7611 111.568 62.0843 110.146 64.5143 108.912C65.4894 108.417 66.1482 107.797 66.9802 107.108C67.8052 106.426 68.0337 106.372 68.9718 106.372C68.6966 105.636 69.4999 105.409 69.8573 104.943C69.8372 105.169 69.8171 105.395 69.797 105.621C70.0695 105.03 70.3232 105.035 70.5579 105.638C70.7899 104.963 70.9617 104.27 71.2418 103.612C72.3128 104.154 72.2227 105.443 73.655 104.502C74.8346 103.727 75.9193 102.814 77.1217 102.055C79.8609 100.326 82.2226 98.0766 84.9696 96.3673C84.9696 98.032 85.0871 99.7111 84.8646 101.367C84.6529 102.942 84.0648 104.414 83.5973 105.922C82.7349 108.703 82.6752 111.676 81.7197 114.429C81.3243 115.57 80.2945 116.523 79.9993 117.633C79.6983 118.766 80.3936 119.673 79.228 120.417C78.4063 120.941 77.3792 121.162 76.4693 121.48C75.0813 121.963 73.7636 122.646 72.4124 123.225C66.075 125.941 59.8933 128.706 54.0217 132.358C48.4495 135.822 42.7921 139.401 37.6733 143.516C33.2308 147.087 28.74 151.705 27.6586 157.531C26.6092 163.182 29.4051 169.247 35.0191 171.108C37.9382 172.076 41.2383 171.956 44.2781 171.998C47.5491 172.043 51.0153 171.255 54.2312 170.685C57.6276 170.082 60.9657 169.139 64.3719 168.601C67.6399 168.085 70.6374 166.932 73.852 166.221C77.2758 165.463 80.7876 165.053 84.2301 164.372C85.7802 164.065 87.2987 163.612 88.8528 163.328C90.5543 163.018 92.2745 162.901 93.9594 162.489C97.2274 161.691 100.357 160.403 103.639 159.66C105.115 159.326 106.568 158.878 108.044 158.566C109.403 158.279 110.462 157.515 111.824 158.142C112.925 158.649 113.803 159.518 114.844 160.124C116.195 160.909 117.619 161.612 119.028 162.288C121.857 163.646 124.792 164.585 127.751 165.604C130.859 166.675 133.911 167.896 137.131 168.603C140.431 169.328 143.799 169.53 147.123 170.104C153.929 171.278 160.679 171.805 167.588 171.848C171.081 171.87 174.572 171.456 178.057 171.504C181.141 171.548 183.823 172.243 186.644 170.603C191.15 167.983 196.378 164.036 196.267 158.304C196.167 153.111 193.052 148.15 190.131 144.055C186.583 139.082 181.525 135.58 176.567 132.149C171.283 128.493 165.349 125.967 159.795 122.776C156.955 121.144 154.336 119.388 151.252 118.228C149.78 117.674 148.344 117.033 146.889 116.437C145.719 115.957 144.028 115.692 143.026 114.896C142.401 114.4 142.341 113.648 142.176 112.91C141.81 111.277 141.236 109.728 140.679 108.152C139.604 105.11 138.889 102.012 138.427 98.8221C137.987 95.7808 137.009 92.618 137.515 89.5272C140.846 92.749 144.269 95.846 147.676 98.9824C148.953 100.158 150.207 101.358 151.491 102.526C152.454 103.403 153.66 104.706 155.003 104.966C156.719 105.299 156.092 103.401 157.27 103.107C157.99 102.927 160.162 104.756 160.731 105.118C164.339 107.408 168.334 108.86 172.303 110.419C176.464 112.054 180.744 113.506 185.222 113.918C189.358 114.298 193.587 113.81 197.579 112.683C205.528 110.439 211.377 105.114 215.67 98.2124C220.561 90.3475 224.12 81.1341 223.832 71.7456Z" fill="#39383B"/>
<path fill-rule="evenodd" clip-rule="evenodd" d="M102.345 54.5999C102.344 54.6022 102.332 54.6281 102.332 54.6281C102.347 54.6178 102.351 54.6084 102.345 54.5999Z" fill="#39383B"/>
<path fill-rule="evenodd" clip-rule="evenodd" d="M102.729 54.7016C102.699 54.451 102.635 54.2057 102.536 53.9656C102.273 54.3828 102.038 54.5614 102.383 55.0032C102.498 54.9027 102.614 54.8021 102.729 54.7016Z" fill="#39383B"/>
<path fill-rule="evenodd" clip-rule="evenodd" d="M121.059 114.326C121.353 114.013 120.838 113.895 120.643 113.891C120.662 114.227 120.496 115.032 120.955 115.188C120.845 114.884 120.88 114.597 121.059 114.326Z" fill="#39383B"/>
<path fill-rule="evenodd" clip-rule="evenodd" d="M113.294 48.7883C112.788 49.7652 113.906 50.0683 114.553 49.5964C115.039 49.2415 115.327 48.337 115.407 47.7567C115.666 45.8788 114.352 44.0915 113.697 42.4253C113.527 41.9946 113.295 40.5177 112.75 40.477C112.124 40.4304 112.078 41.7908 112.069 42.1418C112.045 43.2003 112.325 44.2783 112.654 45.2774C113.008 46.3545 113.885 47.6475 113.294 48.7883Z" fill="#39383B"/>
<path fill-rule="evenodd" clip-rule="evenodd" d="M115.7 44.8704C117.644 46.6017 119.2 43.7181 119.064 42.0123C119.03 41.5896 118.745 40.0315 117.943 40.5986C117.541 40.8834 117.884 41.8092 117.692 42.2156C116.762 44.1863 115.866 41.1297 115.24 40.8896C114.478 40.5972 114.402 41.5984 114.403 42.1335C114.405 43.1958 114.91 44.1668 115.7 44.8704Z" fill="#39383B"/>
<path fill-rule="evenodd" clip-rule="evenodd" d="M108.642 45.1395C109.1 44.4183 109.663 43.451 109.725 42.587C109.822 41.244 109.039 41.356 108.395 42.2931C107.94 42.955 107.599 44.0777 106.594 43.7987C105.354 43.4546 105.733 41.7872 105.039 40.9949C103.286 43.3494 106.603 48.3487 108.642 45.1395Z" fill="#39383B"/>
<path fill-rule="evenodd" clip-rule="evenodd" d="M111.269 52.3448C111.994 52.5015 113.884 52.4437 113.229 51.3336C112.403 49.9351 109.657 51.996 111.269 52.3448Z" fill="#39383B"/>
<path fill-rule="evenodd" clip-rule="evenodd" d="M136.669 10.643C136.801 10.2478 136.619 10.176 136.303 9.86475C136.003 10.1413 136.387 10.4323 136.669 10.643Z" fill="#39383B"/>
<path fill-rule="evenodd" clip-rule="evenodd" d="M150.192 82.2287C150.67 82.3047 150.824 82.0517 150.654 81.4695C149.899 81.4207 149.745 81.6737 150.192 82.2287Z" fill="#39383B"/>
<path fill-rule="evenodd" clip-rule="evenodd" d="M124.073 21.1623C124.6 21.4036 124.398 21.8985 124.389 22.3168C124.661 22.0214 125.21 21.4815 124.986 21.0573C124.642 20.4032 123.742 21.0114 124.073 21.1623Z" fill="#39383B"/>
<path fill-rule="evenodd" clip-rule="evenodd" d="M106.101 12.9298C106.021 12.7728 105.941 12.6159 105.86 12.459C105.532 12.7219 105.027 13.4172 105.547 13.7561C105.761 13.497 105.945 13.2216 106.101 12.9298Z" fill="#39383B"/>
<path fill-rule="evenodd" clip-rule="evenodd" d="M112.432 17.5444C113.088 18.0592 112.773 16.4791 112.754 16.3501C112.656 16.5354 112.1 17.2844 112.432 17.5444Z" fill="#39383B"/>
<path fill-rule="evenodd" clip-rule="evenodd" d="M112.068 16.742C112.018 16.6115 111.967 16.4809 111.917 16.3501C111.651 16.5964 111.325 17.0995 111.765 17.3878C111.885 17.1859 111.986 16.9707 112.068 16.742Z" fill="#39383B"/>
<path fill-rule="evenodd" clip-rule="evenodd" d="M116.237 22.1681C116.291 22.2176 116.344 22.2671 116.398 22.3168C116.614 21.8801 116.368 21.5519 115.959 21.5386C115.988 21.7838 116.081 21.9936 116.237 22.1681Z" fill="#39383B"/>
<path fill-rule="evenodd" clip-rule="evenodd" d="M98.647 71.3032C98.9074 71.126 99.1439 70.9238 99.3565 70.6969C98.5858 70.2257 99.0477 71.2468 98.1199 70.6198C97.92 70.8961 98.2466 71.5144 98.647 71.3032Z" fill="#39383B"/>
<path fill-rule="evenodd" clip-rule="evenodd" d="M131.032 114.15C131.325 113.7 131.378 113.713 130.978 113.372C130.644 113.928 130.678 113.785 131.032 114.15Z" fill="#39383B"/>
<path fill-rule="evenodd" clip-rule="evenodd" d="M69.7831 42.5712C69.9426 42.7376 70.1021 42.904 70.2617 43.0701C70.3361 42.8525 70.7423 42.2373 70.4665 42.0325C70.2388 42.212 70.0108 42.3916 69.7831 42.5712Z" fill="#39383B"/>
<path fill-rule="evenodd" clip-rule="evenodd" d="M75.4574 44.2172C75.2027 44.1746 74.5935 43.9888 74.4525 44.2256C74.8252 44.531 75.6661 44.2522 75.4574 44.2172Z" fill="#39383B"/>
</svg>
