<svg width="96" height="56" viewBox="0 0 96 56" fill="none" xmlns="http://www.w3.org/2000/svg">
<path fill-rule="evenodd" clip-rule="evenodd" d="M48.8864 22.4303C52.4104 22.15 55.7724 23.4632 58.589 25.5099C62.2191 28.1479 65.2958 31.9206 67.3784 35.896C67.5999 36.0666 67.8182 36.2415 68.0349 36.4181C69.194 37.3623 70.3264 38.3597 71.3302 39.4697C71.8906 40.0894 73.3604 41.5961 72.7223 42.5465C72.5869 42.7483 72.3645 42.8641 72.1417 42.944C71.5172 43.1676 70.8661 43.2809 70.2502 43.5425C69.4898 43.8653 68.7014 44.3175 68.2143 45.0068C68.0757 45.2029 68.0396 45.4342 67.8533 45.5206C67.6559 45.6123 67.2835 45.5765 67.0676 45.5977C66.6337 45.6403 66.1997 45.6828 65.7657 45.7253C64.746 45.8252 63.6802 45.8363 62.6828 46.0825L58.0942 47.2155C57.1557 47.4472 56.0771 47.5749 55.187 47.9557C53.8589 48.5242 52.5919 49.3564 51.321 50.0422C50.7066 50.3738 50.092 50.7055 49.4775 51.0371C49.1774 51.1991 48.972 51.2013 48.6203 51.2284L46.0824 51.4236C45.6729 51.4551 45.4764 51.6199 45.4227 51.2103L44.8328 46.7061L44.521 44.3243C44.5024 44.1827 44.5079 43.481 44.3918 43.3963C44.319 43.3432 43.8918 43.4575 43.8127 43.4672L42.6608 43.6083C41.8311 43.7099 41.0016 43.8115 40.1719 43.913C40.1046 43.9213 39.7316 43.917 39.6897 43.9721C39.6407 44.0367 39.7339 44.407 39.7423 44.4867C39.8303 45.323 39.9184 46.1594 40.0064 46.9957C40.0167 47.0927 40.1345 47.5425 40.0724 47.6221C40.0292 47.6773 39.7167 47.684 39.6532 47.6944C38.8529 47.825 38.0526 47.9556 37.2523 48.0864C36.6792 48.1799 35.9301 48.1752 35.3883 48.3907C35.0772 48.5144 34.7693 48.8309 34.5006 49.0286L30.5974 51.9008C30.0054 52.3363 29.2075 52.2254 28.4866 52.2803L20.1704 52.9139C20.1773 52.6549 20.1843 52.3959 20.1912 52.1369C20.2278 50.7651 20.2643 49.3933 20.3008 48.0216L20.3488 46.2274C20.3518 46.1138 20.3064 45.7816 20.3806 45.6976C20.4793 45.5862 20.9202 45.538 21.057 45.4974C21.5161 45.3615 21.975 45.2257 22.4339 45.0899C23.7804 44.6913 25.1267 44.2928 26.4731 43.8943C27.8038 43.5004 29.1344 43.1065 30.465 42.7126C30.9204 42.5779 31.3756 42.4431 31.8309 42.3083C31.936 42.2772 32.3034 42.2358 32.3765 42.1469C32.4686 42.0348 32.4274 41.5568 32.4421 41.4147C32.5143 40.7216 32.6173 40.0316 32.7428 39.3463C33.6474 34.4026 35.7618 29.3811 39.6822 26.0831C42.2738 23.903 45.5245 22.6977 48.8864 22.4303ZM49.508 32.344C49.1591 31.9344 48.573 31.2662 47.9567 31.3771C47.4558 31.4673 47.1829 32.0882 47.0083 32.501C46.3065 34.1602 46.0889 36.062 45.8706 37.8351C45.7337 38.9477 45.6235 40.0652 45.5531 41.184C48.0529 40.9917 50.5527 40.7994 53.0526 40.6071C52.9346 39.8106 52.84 39.0067 52.698 38.214C52.6268 37.8166 52.4298 37.4589 52.2615 37.0918C51.5085 35.4501 50.6866 33.7278 49.508 32.344Z" fill="white"/>
<path fill-rule="evenodd" clip-rule="evenodd" d="M84.21 0L84.2712 0.00105917C85.9301 0.0451972 87.3931 1.11271 88.5277 2.24248C89.0888 2.80109 89.6004 3.45816 89.8412 4.22275C90.1193 5.10598 90.0278 6.07749 89.8162 6.96393C89.3489 8.92288 88.7778 10.8919 88.1355 12.8011C87.8195 13.7402 87.3612 14.6611 87.1227 15.6223C86.926 16.4143 87.7541 16.9911 87.7858 17.8049C87.8178 18.6259 87.2654 19.3972 86.5064 19.6906C86.1831 19.8155 85.7919 19.7111 85.4939 19.8392C85.2213 19.9563 85.1259 20.3017 85.0736 20.5669C85.0023 20.9286 85.0151 21.29 85.0354 21.6549C85.0478 21.8781 84.9922 22.2425 85.1011 22.4416C85.1759 22.5783 85.3122 22.623 85.4296 22.7166C85.5898 22.8443 85.6966 23.0032 85.8371 23.1499C86.0687 23.3921 86.2916 23.5233 86.3545 23.8766C86.388 23.7964 86.4215 23.7161 86.4549 23.6359C86.6275 23.9518 86.7555 24.1033 86.5913 24.4031C87.1007 24.3531 87.4025 25.2771 87.536 25.6276C87.7806 26.2689 87.9486 26.9353 88.1937 27.577C88.5296 28.4569 88.971 29.3251 89.1854 30.2457C89.3654 31.0194 89.5079 31.8141 89.668 32.5932C89.7581 33.0319 89.8367 33.4775 90.0016 33.8958C90.0658 34.0582 90.1848 34.1675 90.2586 34.3122C90.3594 34.5104 90.32 34.6151 90.3248 34.8321C90.3333 35.219 90.5773 35.4701 90.6541 35.8459C90.7361 36.2474 90.803 36.6534 90.8857 37.0558C91.0524 37.8662 91.3611 38.6755 91.4354 39.4964C91.5217 40.4496 91.7068 41.3911 91.7999 42.3446C91.8814 43.1778 91.7429 44.0722 91.9169 44.8782C92.0712 45.5936 91.88 46.2477 91.8119 46.958C91.7946 47.1383 92.0724 48.212 91.626 48.0058C91.7098 48.2589 91.8273 48.3795 91.8337 48.6572C91.8395 48.9169 91.7725 49.1839 91.7178 49.4357C91.6122 49.9224 91.5419 50.4528 91.3349 50.9087C91.101 51.4244 90.7444 51.4862 90.2596 51.6631C89.9314 51.7829 89.3404 52.2103 89.0818 51.7531C88.9276 52.2225 88.6266 51.898 88.2891 51.8718C88.2914 51.8719 88.096 51.9442 88.0594 51.9492C87.9407 51.9651 87.8005 51.9092 87.6824 51.8994C87.3881 51.8749 87.0993 51.9143 86.8114 51.9739C86.1479 52.1114 85.506 52.3015 84.8327 52.3973C83.5175 52.5844 82.2286 52.496 80.9116 52.5779C78.334 52.7382 75.7138 52.6037 73.1343 52.5343C72.8574 52.5268 72.559 52.5656 72.2858 52.523C71.9913 52.4771 71.927 52.3377 71.6976 52.1981C71.3161 51.9663 70.8928 52.1918 70.4971 52.2765C69.3351 52.5252 68.1217 52.5436 66.9506 52.7842C64.5711 53.2728 62.3787 54.2372 60.0995 55.0506C59.1113 55.4032 57.9516 55.9743 56.8861 55.9996C55.5947 56.027 55.8997 54.7551 56.137 53.9375C55.3909 54.1356 54.2193 55.0406 53.4609 54.5154C52.5571 53.8895 53.7071 52.8491 53.7612 52.1134C52.1459 52.4487 50.3136 53.1841 48.6741 52.5863C48.3586 52.4714 48.0841 52.2282 47.7454 52.1887C47.3934 52.1476 47.0212 52.272 46.6653 52.2698C45.8544 52.2646 45.067 52.1567 44.2564 52.2566C42.4491 52.4792 40.6674 52.601 38.8455 52.649C37.0113 52.6973 35.177 52.806 33.342 52.8015C32.4106 52.7991 31.4619 52.6887 30.5324 52.7382C30.1674 52.7576 29.3818 53.0227 29.1254 52.6518C28.8679 52.9605 28.6492 52.7542 28.3189 52.7884C28.3802 52.7821 28.1469 52.917 28.1118 52.93C27.9382 52.9945 27.7759 52.9749 27.5946 52.973C27.1118 52.9681 26.6607 53.1941 26.1802 53.1722C26.0588 53.1667 25.9669 53.1314 25.8638 53.0897C25.8394 53.0798 25.8452 52.9747 25.8061 52.9659C25.5711 52.9133 25.6318 53.0572 25.4826 53.1299C25.3172 53.2102 25.0724 53.0801 25.1666 53.3274C24.7177 53.3077 24.2925 53.459 23.8841 53.1928C24.0772 53.6195 23.4027 53.2651 23.2265 53.2581C22.9335 53.2463 22.677 53.3928 22.3848 53.4266C22.0345 53.4669 21.6824 53.3044 21.3396 53.4036C21.071 53.4813 20.979 53.6681 20.6995 53.5725C20.462 53.4914 20.3136 53.3152 20.1984 53.1225C20.0394 52.8566 20.019 52.738 19.6355 52.7333C19.3512 52.7298 19.0653 52.791 18.7782 52.7904C18.4493 52.7898 18.0878 52.7549 17.7875 52.9112C17.464 53.0797 17.274 53.3361 16.9152 53.4681C15.3019 54.0613 13.5309 53.9042 11.8476 53.8942C11.1375 53.8899 10.6163 53.9552 10.4169 53.1451C10.2485 52.4607 10.181 51.745 10.0202 51.0549C9.82332 50.2094 9.60688 49.4249 9.16993 48.669C8.74609 47.9359 8.3895 47.1786 8.02045 46.4171C7.25294 44.8334 6.18458 43.486 4.99342 42.199C4.54091 41.71 4.02228 41.1652 4.00058 40.4611C3.98579 39.8531 4.25363 39.2232 4.60494 38.7388C4.91863 38.3064 5.43546 37.8188 6.0201 37.9196C6.37216 37.9803 6.60294 38.2643 6.8657 38.4773C7.15288 38.7101 7.46571 38.8687 7.81184 38.9957C8.61896 39.2917 9.29584 39.6157 9.99478 40.1267C10.702 40.6438 11.3632 41.2229 11.9748 41.8499C13.1489 43.0538 14.3519 44.3045 15.0265 45.8634C15.2924 46.4776 15.4622 47.0698 15.6435 47.7066C15.8216 48.3319 16.3063 48.1596 16.8515 48.0697C17.5158 47.9601 18.1834 47.9014 18.8522 47.832C19.1039 47.8058 19.4588 47.7981 19.6104 47.5602C19.7775 47.298 19.586 46.9582 19.5708 46.6861C19.5627 46.5407 19.6109 46.4336 19.623 46.2919C19.6369 46.1307 19.5892 45.9835 19.589 45.8229C19.5889 45.4777 19.7504 45.1703 20.0189 44.9612C20.5213 44.5698 21.2541 44.3365 21.849 44.1212C22.6611 43.8271 23.5313 43.6826 24.3676 43.4728C25.3094 43.2364 26.2567 43.0235 27.2035 42.8088C28.1338 42.5979 29.0627 42.381 30.003 42.2186C30.5545 42.1233 31.1528 42.1581 31.6875 41.9841C32.2557 41.799 32.1615 41.2273 32.1598 40.7207C32.1571 39.8842 32.2606 39.0229 32.3831 38.1959C32.6438 36.4378 33.2648 34.7171 33.8292 33.037C34.373 31.4187 35.0467 29.8656 36.1588 28.5524C37.2414 27.274 38.5702 26.1171 39.9486 25.1671C41.3847 24.1772 42.9829 23.462 44.482 22.5783C44.1544 22.3277 43.7636 22.1139 43.5753 21.728C43.3628 21.2924 43.4528 20.7715 43.4619 20.3059C43.4721 19.7804 43.4881 19.3191 43.6758 18.8185C43.7785 18.5443 44.1755 18.0243 44.1147 17.7262C44.0127 17.2255 42.9176 16.8599 42.5143 16.6539C41.8819 16.3308 41.2482 16.0026 40.6653 15.5947C40.106 15.2034 39.5797 14.7324 39.2408 14.1317C39.1447 13.9613 39.0656 13.7823 39.0042 13.5965C38.9358 13.3892 38.9837 13.3186 38.7765 13.3034C38.4457 13.2791 37.9498 13.611 37.6711 13.7577C36.2343 14.5138 34.6562 15.5313 32.9609 15.4638C32.3458 15.4394 31.6543 15.2461 31.4368 14.6046C31.1505 13.76 31.7483 12.8876 32.2729 12.2776C31.2497 12.4384 29.3629 12.941 28.5555 12.028C28.0174 11.4197 28.4233 10.4541 28.8744 9.92664C29.4706 9.22987 30.3204 8.80565 31.1055 8.36229C30.1422 7.99504 29.0758 7.7602 28.2287 7.14567C27.4185 6.55801 27.5186 5.65516 28.1585 4.96197C28.8427 4.22096 30.0389 3.84144 30.9798 3.56634C32.1338 3.22889 33.2802 3.25596 34.4694 3.27859C36.6037 3.31914 38.437 4.1059 40.1875 5.29536C41.1131 5.92432 42.0254 6.60309 42.8463 7.36485C43.6163 8.07926 44.4376 8.7436 45.1963 9.46574C45.9313 10.1654 46.5096 11.0324 47.2854 11.686C47.9451 12.2418 48.6684 13.0296 49.5064 13.2763C50.3951 13.5379 51.1951 13.9706 52.0913 14.2282C53.108 14.5203 53.9813 15.0087 54.9235 15.4747C58.8775 17.4304 63.1222 18.7031 67.2908 20.1072C69.423 20.8252 71.5694 21.3314 73.7462 21.8798C74.8394 22.1552 75.8545 22.3022 76.9825 22.2524C77.2426 22.241 77.4911 22.2342 77.7476 22.2703C77.9356 22.2967 78.0786 22.3678 78.2468 22.2554C78.4884 22.0939 78.5792 21.6737 78.7233 21.4344C77.9205 21.1855 77.1346 20.9163 76.7683 20.0936C76.5375 19.5751 76.4177 18.9705 76.3165 18.4143C76.2622 18.1149 76.261 17.8128 76.2146 17.5133C76.1891 17.3479 76.1104 17.175 76.1165 17.006C76.0984 17.1 75.5002 16.7908 75.4135 16.7333C75.0788 16.5116 75.0178 16.0647 75.0206 15.6874C75.0238 15.2613 75.1524 14.793 75.4418 14.4698C75.5787 14.3169 75.7417 14.2022 75.9408 14.1446C76.082 14.1036 76.2684 14.1572 76.393 14.116C76.9457 13.9333 77.0075 12.5657 77.0859 12.0678C77.2587 10.9708 77.4308 9.92344 77.8037 8.87186C78.4836 6.95469 79.3586 5.09146 80.4009 3.34593C81.2939 1.8502 82.1861 0.0213335 84.1496 0H84.21ZM67.236 46.0545C66.4413 46.1921 65.6799 46.4731 64.9122 46.7114C64.1952 46.934 63.4686 47.0758 62.733 47.2204C61.2692 47.5085 59.7732 47.7721 58.3306 48.1475C57.9244 48.2533 57.7107 48.4919 57.3563 48.6578C57.0935 48.7807 56.8469 48.6562 56.5736 48.6457C55.9786 48.623 55.3184 48.8171 54.7461 48.9617C53.3951 49.303 52.1964 49.8959 50.9738 50.5513C50.8644 50.6098 50.1247 50.9483 50.1598 51.0885C50.1883 51.2029 51.1286 50.8957 51.2782 50.873C52.0353 50.7576 52.7749 50.5189 53.5265 50.3707C54.1434 50.2489 54.7672 50.1665 55.3815 50.0313C56.0651 49.881 57.5212 49.3581 57.5792 50.4871C57.6417 51.7073 56.2942 52.0826 55.4843 52.6518C55.5746 52.8075 56.874 52.2941 57.0351 52.2422C57.5876 52.064 58.1002 51.7429 58.6628 51.6061C59.6416 51.3682 59.523 52.4492 58.9827 52.9301C58.3823 53.4643 57.3894 53.6257 57.057 54.4479C57.4935 54.6054 58.0643 54.3096 58.4653 54.1626C58.992 53.9695 59.5206 53.7794 60.0504 53.5953C61.2398 53.182 62.3694 52.6126 63.5651 52.2189C66.0184 51.4112 68.6115 51.1796 71.176 51.036C70.9475 50.1496 70.6976 49.2683 70.4923 48.376C70.4044 47.9942 70.3239 47.6105 70.2573 47.2243C70.211 46.9557 70.2505 46.313 70.0654 46.1012C69.8401 45.8431 69.2533 46.2056 68.9339 46.1987C68.6211 46.1919 68.3929 46.0304 68.1038 45.9795C67.8294 45.9312 67.5046 46.008 67.236 46.0545ZM21.1406 51.1856C21.1406 51.6093 21.0671 52.1233 21.6245 52.1729C22.0753 52.2129 22.9572 52.2644 23.3168 51.9439C22.9722 51.7759 22.5805 51.7466 22.2145 51.6497C21.8331 51.5487 21.4809 51.3829 21.1406 51.1856ZM30.3403 43.4647C30.1708 43.4659 29.8847 43.6544 29.73 43.707C29.447 43.8032 29.1594 43.8844 28.8704 43.9609C28.0022 44.1909 26.8843 44.2267 26.4856 45.1587C26.2866 45.6238 26.1486 46.82 25.4571 46.8157C24.8425 46.8117 24.4744 45.9246 24.036 45.6089C23.5828 45.2828 22.8643 45.5048 22.3756 45.6465C21.8789 45.7903 21.1082 45.9749 21.164 46.6043C21.204 47.0568 21.2857 47.4687 21.2819 47.9309C21.277 48.5193 21.2273 49.1065 21.2273 49.6949C21.576 49.2172 21.8802 48.2568 22.4979 48.0647C23.122 47.8706 23.475 48.961 23.6373 49.3789C23.8385 49.8966 24.0913 50.4838 24.1067 51.045C24.1115 51.2212 24.0045 51.7052 24.1271 51.85C24.2358 51.9787 24.6541 51.8854 24.7892 51.8714C25.6257 51.7843 26.4577 51.6759 27.2968 51.6033C27.7277 51.5661 27.845 51.4715 27.8029 51.0079C27.7698 50.6439 27.7595 50.2969 27.8051 49.9314C28.0088 48.2998 29.0136 46.8072 30.7126 46.5239C31.7363 46.3531 32.9319 46.4779 33.954 46.6419C34.3479 46.7051 34.7756 46.8959 35.1759 46.8793C35.4716 46.8671 35.3763 46.8503 35.4369 46.572C35.4792 46.3774 35.5698 46.2114 35.7178 46.0765C35.8348 45.97 35.9832 46.0301 36.0935 45.8908C36.1733 45.79 36.1613 45.6527 36.1989 45.5365C36.2724 45.3104 36.4052 45.0053 36.6695 44.9483C37.095 44.8563 37.5472 45.426 37.7619 45.7198C37.9838 46.0235 38.0508 46.9304 38.4076 47.0492C38.8193 47.186 39.309 46.6465 39.3949 46.3066C39.5103 45.8493 39.3649 45.3547 39.2954 44.9019C39.2905 44.8694 39.2702 44.5686 39.2478 44.549C39.1877 44.4961 38.7351 44.5109 38.655 44.5069C38.2607 44.4881 37.8657 44.4872 37.471 44.4862C35.9236 44.4823 34.4078 44.3302 32.8707 44.1679C33.094 44.5319 33.4762 45.1295 33.0839 45.5137C32.7931 45.7983 32.2684 45.6555 31.9032 45.7142C31.3873 45.797 30.5176 46.2866 30.026 45.9287C29.3332 45.4241 30.1169 44.5572 30.3742 44.0803C30.4293 43.9781 30.6336 43.6184 30.547 43.4985C30.472 43.3947 30.4501 43.4638 30.3403 43.4647ZM18.8016 49.0724C18.4479 49.1802 18.0915 49.284 17.7301 49.364C17.3061 49.4578 16.6488 49.3667 16.4425 49.8331C16.2856 50.1877 16.3635 50.7598 16.491 51.113C16.637 51.5175 16.9796 51.6215 17.384 51.6524C17.856 51.6884 18.3341 51.6123 18.8005 51.5478C18.9843 51.5223 19.1803 51.4764 19.367 51.4761C19.4779 51.4758 19.7016 51.5772 19.8001 51.4943C19.9277 51.3869 19.8437 50.7767 19.8337 50.6304C19.8089 50.2681 19.7401 49.9107 19.7214 49.5479C19.708 49.2873 19.8062 48.9332 19.5008 48.8776C19.3105 48.843 18.967 49.022 18.8016 49.0724ZM47.3688 41.9012C47.1045 41.9469 46.8416 41.9796 46.5731 41.9756C46.4077 41.973 46.2097 41.9168 46.0568 42.0075C45.7744 42.1751 45.8165 42.6166 45.8261 42.8921C45.8379 43.2263 45.8671 43.5656 45.9028 43.8981C45.9368 44.2161 46.1113 44.7398 45.8648 45.0123C45.691 44.8221 45.6053 44.2001 45.2698 44.2228C44.901 44.2477 45.0715 44.8372 45.1042 45.0483C45.285 46.215 45.4911 47.3824 45.6526 48.5525C45.7294 49.1088 45.8286 49.661 45.88 50.2199C45.9145 50.5951 45.9261 50.9329 46.3454 51.0107C46.7339 51.0827 47.1706 50.9597 47.5634 50.9503C47.9678 50.9406 48.1994 50.9131 48.4321 50.5476C47.875 50.4256 46.9925 50.5002 46.6787 49.911C46.3127 49.2235 47.0846 48.605 47.4644 48.1352C47.7559 47.7743 48.352 46.5747 48.8931 47.2872C49.088 47.5437 49.1231 47.9352 49.2215 48.2336C49.3816 48.7185 49.5771 49.1964 49.7689 49.6693C51.5239 48.7633 53.3248 47.9466 55.2389 47.4379C54.7509 46.6132 54.1469 45.8705 53.7816 44.9765C53.3723 43.9746 53.0332 42.9454 52.6148 41.9467C51.9513 42.334 51.242 41.3952 50.5813 41.3574C49.5376 41.2977 48.392 41.7238 47.3688 41.9012ZM36.9726 48.6555C36.6088 48.8722 36.0736 49.2937 35.9862 49.7294C35.8353 50.4827 36.695 49.9791 36.9604 49.8142C37.516 49.4691 38.0603 49.3589 38.6984 49.5716C39.5166 49.8442 40.2706 50.3045 41.1489 49.9548C41.5858 49.7807 42.5551 49.4088 42.2935 48.7413C42.1132 48.2813 41.5855 48.6759 41.3067 48.8408C40.5765 49.2727 39.9719 48.9991 39.2423 48.6874C38.5126 48.3756 37.6909 48.2277 36.9726 48.6555ZM11.0599 44.7898C10.7679 45.2039 11.3616 45.1145 11.6223 45.1548C12.1674 45.239 12.7289 45.6737 12.5786 46.2888C12.4322 46.8886 11.8583 47.2635 11.749 47.893C11.655 48.4336 11.7456 49.1178 12.2676 49.4146C12.5608 49.5813 13.2017 49.6499 13.4968 49.4585C13.9474 49.1661 13.3878 48.7308 13.0896 48.586C12.6946 48.3941 12.3755 48.2901 12.571 47.7859C12.8093 47.1713 13.2722 46.6997 13.2311 45.9964C13.1971 45.4137 12.8896 44.7515 12.3293 44.5094C11.9281 44.3362 11.3335 44.4019 11.0599 44.7898ZM50.9414 43.0037C51.4463 42.9821 51.4664 43.5923 51.4409 43.8924C51.4061 44.3027 51.4806 44.74 51.4892 45.1517C51.5006 45.6969 51.6147 47.4824 50.6506 47.2172C50.0306 47.0467 49.5205 46.4526 49.022 46.0708C48.5635 45.7194 47.3978 45.2979 47.3222 44.6317C47.237 43.8792 48.1561 43.7383 48.6828 43.6188C49.4346 43.4481 50.1646 43.037 50.9414 43.0037ZM48.4815 23.1708C47.6808 23.248 46.8845 23.367 46.1225 23.6329C45.6069 23.8129 44.815 23.9419 44.4495 24.3835C44.1336 24.7653 44.2705 25.3097 44.1678 25.7609C44.0289 26.3713 43.6075 26.2878 43.1988 25.9067C42.7097 25.4504 42.5683 25.12 41.8874 25.5482C40.4779 26.4345 39.3604 27.7431 38.2424 28.9554C39.1069 29.2172 40.8029 29.2806 41.0901 30.3608C41.247 30.9513 40.7739 31.3809 40.3487 31.7032C39.7997 32.1194 39.2267 32.5043 38.6897 32.9372C38.1886 33.3411 37.065 34.9494 36.7471 33.5354C36.5503 32.6601 36.9191 31.7555 36.7626 30.8909C36.0828 31.987 35.3925 33.0804 34.7692 34.2101C34.2387 35.1718 33.9302 36.2005 33.6758 37.2637C34.0725 37.2897 34.4853 37.0883 34.8775 37.2072C35.2551 37.3217 35.4319 37.679 35.4584 38.0491C35.5034 38.6765 35.2137 39.3152 35.0679 39.9178C34.9678 40.3316 34.853 41.2709 34.3489 41.4055C33.7743 41.559 33.4138 40.6752 33.1576 40.3161C32.9137 40.6909 32.9178 41.2394 32.8821 41.6691C32.8577 41.9646 32.6929 42.517 33.0252 42.6804C33.3363 42.8333 33.9921 42.6417 34.3247 42.6276C34.9419 42.6014 35.5711 42.5514 36.1884 42.5696C36.7718 42.5869 37.63 42.8987 37.8578 42.1818C38.013 41.6938 38.1497 39.9397 38.9771 40.8914C39.3448 41.314 39.6322 41.7957 39.9873 42.2263C40.3455 42.6606 40.6712 42.6891 41.2061 42.6672C42.2651 42.6238 43.2991 42.8271 44.3352 42.9913C45.2444 43.1353 45.1251 42.3637 45.1116 41.6767C45.0909 40.6118 45.3021 39.4983 45.4172 38.4392C45.6911 35.921 46.2532 33.4331 47.118 31.0514C46.3946 30.8051 45.0978 31.7989 44.563 31.0441C44.1233 30.4237 44.6881 29.5689 44.918 28.9889C45.2049 28.2652 45.3499 27.5092 45.8177 26.8679C45.9653 26.6654 46.1753 26.3941 46.4611 26.4623C46.7063 26.5208 46.804 26.8336 46.942 27.01C47.38 27.5701 47.9394 27.99 48.3288 28.6009C48.5669 28.9746 48.7521 29.3739 48.8295 29.8126C48.8508 29.9332 48.8238 30.1802 48.9087 30.2814C49.1719 30.595 50.0012 30.5904 50.3698 30.7827C51.6281 31.4394 52.0703 33.3509 52.5589 34.5562C52.6966 34.8957 52.8331 35.2359 52.9063 35.5957C52.9551 35.8362 52.9528 36.142 53.0832 36.3577C53.3679 36.8286 54.2526 36.408 54.6867 36.3351C55.4143 36.2129 56.1384 36.0963 56.8689 35.9937C57.3146 35.9312 57.9634 35.7696 58.303 36.1645C58.6551 36.5739 58.4526 37.2188 58.2758 37.658C57.9873 38.3748 57.6188 39.0597 57.3143 39.7701C57.0715 40.3367 56.9506 41.0667 56.4839 41.5033C56.0797 41.8816 55.4107 41.9901 54.9348 41.6822C54.6632 41.5065 53.9659 39.8068 53.7819 39.8827C54.114 41.1955 54.6011 42.5342 55.1156 43.7871C55.2736 44.172 55.5449 44.9568 55.9442 45.1655C56.2751 45.3385 57.026 45.0116 57.3646 44.9482C57.6856 44.888 58.3194 44.6273 58.6264 44.8183C58.9985 45.0499 59.0438 45.6677 59.0856 46.0512C59.1166 46.3355 59.0603 46.5477 59.4063 46.5336C59.65 46.5237 59.8959 46.4048 60.1298 46.345C60.6728 46.2065 61.2363 46.1148 61.7891 46.0256C63.0675 45.8192 64.3454 45.6133 65.6232 45.4016C66.7218 45.2197 67.806 45.2207 68.7986 44.6997C69.3018 44.4356 69.8786 44.355 70.4144 44.1783C70.9457 44.0032 71.4754 43.8895 72.0315 43.8237C73.2471 43.68 74.43 43.5392 75.6313 43.2929C76.2888 43.1581 76.945 43.017 77.599 42.866C78.181 42.7316 78.7438 42.518 79.3231 42.3863C79.805 42.2767 80.2008 42.359 80.4073 41.812C80.5554 41.4198 80.5209 40.9802 80.5589 40.5697C80.7328 38.6939 80.0759 36.8075 79.9415 34.942C79.8979 34.3378 79.8845 33.7318 79.8391 33.1281C79.8184 32.8514 79.8309 32.046 79.5082 31.8969C79.4789 32.1182 79.5017 32.4903 79.2504 32.6C79.3732 32.5464 79.212 33.1999 79.2033 33.2656C79.169 33.5264 79.2546 33.8056 79.2094 34.0616C79.2453 34.1516 79.2296 34.2194 79.1627 34.2651C79.117 34.3021 79.0837 34.3488 79.063 34.4053C79.0598 34.5878 79.1132 34.4803 79.1158 34.5433C79.1411 35.1711 79.035 35.8218 79.0803 36.4648C79.1283 37.1445 79.2801 37.8113 79.3953 38.4817C79.4988 39.0834 79.6103 39.6863 79.6965 40.2908C79.7571 40.715 79.802 41.2019 79.5738 41.588C79.1404 42.3211 77.8858 42.2414 77.155 42.3613C75.9405 42.5607 74.7242 42.7405 73.5052 42.9099C73.0373 42.9749 72.5636 43.1233 72.0902 43.1308C71.5844 43.1387 71.3137 42.9344 70.9949 42.5611C70.3524 41.8092 69.9381 40.9551 69.403 40.1371C69.1024 39.6777 68.8524 39.5566 68.3464 39.4163C67.8764 39.2861 67.4993 38.9432 67.1169 38.658C66.3138 38.0589 65.2766 37.4075 64.7496 36.5252C64.195 35.5968 64.9765 35.2886 65.7249 35.0352C65.5428 34.5512 65.1856 34.1625 64.8914 33.7461C64.5568 33.2726 64.2535 32.7809 63.8933 32.3253C63.1592 31.3966 62.4259 30.4727 61.7135 29.5267C61.1045 28.7181 60.4891 27.9522 59.7118 27.2972C58.9312 26.6393 58.0621 26.1001 57.2049 25.5493C56.7571 25.2616 55.971 24.5264 55.4051 24.6016C54.8561 24.6746 54.639 25.6971 54.5018 26.1269C54.3444 26.6201 54.2889 27.3077 53.9222 27.696C53.3833 28.2666 52.8238 27.3678 52.5666 26.9535C52.0957 26.1948 51.6137 25.4429 51.1435 24.6835C50.9292 24.3372 50.6197 24.0078 50.4925 23.6153C50.4909 23.6106 50.4314 23.273 50.4915 23.3202L50.4956 23.324L50.4915 23.3195C50.3571 23.1862 49.8602 23.1586 49.6745 23.1425L49.6575 23.141C49.2667 23.1041 48.8712 23.1332 48.4815 23.1708ZM43.2326 44.4462C42.7824 44.4434 42.3336 44.4958 41.8855 44.5325C41.492 44.5646 41.1312 44.5044 40.7383 44.4808C40.2522 44.4515 40.0118 44.5025 40.1238 45.0045C40.2052 45.3698 40.303 45.8563 40.6781 46.0107C41.1847 46.2193 41.8671 46.1912 42.407 46.2703C42.8033 46.3283 43.1986 46.3806 43.5932 46.4467C43.8552 46.4907 43.9898 46.5366 44.1125 46.2396C44.2151 45.9907 44.149 45.6582 44.114 45.4011C44.0871 45.2038 44.1032 44.8568 44.01 44.6813C43.8709 44.4193 43.5065 44.4479 43.2326 44.4462ZM64.2184 39.4402C64.8798 40.0447 65.3248 40.8176 65.8242 41.5506C66.1291 41.9981 66.7256 42.7116 66.2925 43.2542C65.9234 43.7167 65.0653 43.6109 64.549 43.6331C63.7377 43.6681 63.0751 44.0347 62.3031 44.2238C60.3586 44.7001 61.9735 41.4317 62.2429 40.7496C62.4319 40.2711 62.6268 39.7947 62.8554 39.3334C62.9585 39.1255 63.1642 38.5191 63.4206 38.4396C63.7922 38.3245 63.9832 39.2252 64.2184 39.4402ZM47.5119 32.5683C47.2029 33.1591 47.1527 33.9768 47.0061 34.622C46.5582 36.5948 46.2963 38.604 46.0904 40.6147C47.1146 40.2085 48.1956 40.1804 49.277 40.081C50.0604 40.009 50.7798 39.9264 51.5635 39.9599C51.697 39.9656 52.0811 40.0334 52.1912 39.9198C52.339 39.7674 52.16 39.3422 52.1163 39.1819C51.8788 38.3111 51.7744 37.4112 51.5045 36.5458C51.2293 35.6633 50.8948 34.7819 50.5389 33.9287C50.2786 33.3046 49.921 32.696 49.2902 32.39C48.7379 32.1221 47.8547 31.913 47.5119 32.5683ZM43.2942 36.4079C43.7161 37.0441 44.2506 37.6005 44.6627 38.2426C44.9549 38.698 45.2971 39.5404 44.5952 39.8299C44.3489 39.9315 44.058 39.8876 43.7999 39.8921C43.4007 39.899 43.0053 39.9333 42.6054 39.9238C42.2272 39.9147 41.8526 39.8689 41.4754 39.8492C41.2376 39.8368 40.9389 39.8551 40.7295 39.7186C40.168 39.3524 40.574 38.6046 40.7548 38.1261C40.9469 37.6179 41.2061 37.1372 41.4563 36.6556C41.6298 36.3215 41.8891 35.6409 42.2836 35.5047C42.7509 35.3434 43.0995 36.1145 43.2942 36.4079ZM63.7551 29.2003C64.6825 30.2787 65.4877 31.455 66.246 32.6563C66.616 33.2426 66.9754 33.8357 67.3341 34.4289C67.5689 34.8171 67.7451 35.3136 68.0311 35.6652C68.6835 36.4672 68.8649 34.7174 68.961 34.337C69.3157 32.9345 69.7549 31.5433 70.1457 30.1496L69.7452 30.1496C68.1489 30.1488 66.6186 30.1251 65.0644 29.6548C64.6245 29.5218 64.2233 29.2329 63.7551 29.2003ZM60.3835 29.4722C60.8885 29.8451 64.1206 32.0346 62.761 32.8794C62.4797 33.0543 62.0199 32.975 61.702 33.0001C61.2946 33.0322 60.8807 33.0717 60.4782 33.1438C59.9571 33.2374 59.4509 33.4004 58.9273 33.483C58.5111 33.5488 57.9596 33.6255 57.5877 33.3663C56.9743 32.9387 57.3467 32.0989 57.5492 31.5553C57.8371 30.7829 58.1098 29.7489 58.824 29.2888C58.9902 29.1818 59.1938 28.7995 59.3726 28.7645C59.6526 28.7096 60.1787 29.3211 60.3835 29.4722ZM78.2157 11.3107C77.972 11.4971 77.9608 11.8844 77.8976 12.1577C77.6851 13.077 77.3884 13.972 77.2123 14.9011C77.0406 15.8074 76.9867 16.6996 77.0709 17.618C77.1271 18.2305 77.1336 18.9843 77.506 19.5059C77.9516 20.1301 78.834 20.0981 79.5013 20.283C80.1434 20.4608 80.78 21.0117 80.0797 21.5844C79.8308 21.7878 79.504 21.8209 79.2579 22.0169C78.9544 22.2588 78.7801 22.6922 78.6512 23.0467C78.545 23.3385 78.5481 23.3942 78.8653 23.4973C79.0101 23.5444 79.1565 23.5743 79.3089 23.5616C79.656 23.5328 79.9656 23.3036 80.2562 23.1314C80.9973 22.6922 81.8533 22.1058 82.7381 22.0395C83.021 22.0184 83.3425 22.1341 83.6175 22.0422C83.8737 21.9565 83.7951 21.9041 83.8396 21.6658C84.0159 20.7211 84.0874 19.7939 84.5691 18.9394C84.8068 18.5177 85.4353 17.6551 85.8566 18.3116C86.0325 18.5858 86.0962 18.7197 86.4865 18.6356C86.804 18.5672 87.1529 18.3161 87.0899 17.9493C87.0305 17.6033 86.5755 17.3677 86.2997 17.216C85.9324 17.0142 85.6748 17.0375 85.2748 16.9897C84.1758 16.8583 84.9463 15.2509 85.1048 14.6478C85.2044 14.2688 85.3208 13.7788 85.0594 13.4366C84.6615 12.916 83.7947 13.0871 83.2486 13.161C82.4935 13.2631 81.6691 13.3175 80.9623 12.9748C80.2146 12.6123 79.8959 11.7946 79.1948 11.3971C78.9357 11.2501 78.4818 11.1068 78.2157 11.3107ZM81.4971 17.9509C82.0166 17.9439 81.7641 18.6847 81.6218 18.9338C81.3221 19.4591 80.6801 19.6623 80.1164 19.4685C79.6705 19.3153 79.1882 18.6383 79.8866 18.5261C80.2215 18.4723 80.553 18.4942 80.8704 18.3349C81.0512 18.2442 81.2849 17.9537 81.4971 17.9509ZM80.1936 14.0115C80.5164 14.2075 79.9655 15.4592 79.8727 15.7125C79.7216 16.126 79.5871 16.3929 79.9715 16.7116C80.2388 16.9332 80.766 17.1245 80.5143 17.5661C80.2813 17.9748 79.482 17.8034 79.157 17.6035C78.6846 17.3127 78.8238 16.7558 78.928 16.2988C78.9961 15.9993 79.6188 13.6626 80.1936 14.0115ZM29.3596 5.79295C30.3551 6.2182 31.3731 6.60234 32.4265 6.85858C33.3471 7.08257 34.2523 7.3241 35.2011 7.27148C36.0788 7.22291 36.1835 8.0852 35.6822 8.68239C35.4098 9.00682 35.0938 8.99871 34.6968 9.01125C34.2321 9.02597 33.8101 9.15489 33.3619 9.27033C32.6794 9.44613 31.9883 9.59542 31.3269 9.84356C30.9856 9.97163 30.6488 10.1222 30.3444 10.3246C30.153 10.452 29.726 10.6813 29.9519 10.8592C30.2784 11.1162 31.2475 10.7641 31.6361 10.7409C32.5408 10.687 33.4438 10.6053 34.3434 10.492C34.784 10.4365 35.2571 10.3816 35.6744 10.2216C35.9475 10.1169 36.2497 9.85695 36.5589 9.92297C37.2112 10.0623 36.8879 11.0401 36.5918 11.3582C36.152 11.8306 35.4844 12.0392 34.9164 12.3076C34.5193 12.4953 34.1247 12.694 33.7392 12.9041C33.557 13.0033 32.7082 13.375 32.7351 13.6572C32.7633 13.9538 33.4333 13.8042 33.599 13.7772C34.7049 13.5974 35.7028 13.1698 36.7246 12.7321C37.1718 12.5406 37.6254 12.3568 38.0633 12.1444C38.3691 11.9959 38.6698 11.7698 39.0077 11.7024C39.8045 11.5432 39.7696 12.4331 40.0832 12.9138C41.0156 14.3424 42.8171 14.9519 44.2187 15.7775C44.7489 16.0897 45.2547 16.4494 45.7413 16.8256C46.0888 17.0942 46.2278 17.4639 46.6159 17.1096C46.9393 16.8143 47.0952 16.3813 47.3025 16.0057C47.5439 15.5685 47.8662 15.1825 48.1136 14.7488C48.4792 14.1082 48.5887 13.4971 47.7859 13.2613C46.9431 13.0139 46.2761 12.6448 45.5598 12.1183C43.802 10.826 42.3433 9.17583 40.5905 7.87366C38.9667 6.66722 37.2447 5.5351 35.209 5.21114C33.2796 4.90396 31.1627 4.9796 29.3596 5.79295ZM82.0247 15.0726C81.9834 15.4283 81.8958 16.1871 81.4016 16.2155C80.8014 16.2499 81.2045 14.4265 81.5445 14.2213C82.0889 13.8927 82.0595 14.7712 82.0247 15.0726ZM76.4398 14.9274C75.6906 14.9894 75.477 15.81 76.2259 16.1006L76.4398 14.9274ZM79.2178 14.2071C79.1216 14.5796 79.1558 15.1772 78.8569 15.4631C78.4356 15.8659 78.2522 15.2748 78.2553 14.9377C78.2583 14.6043 78.4235 13.7704 78.8697 13.7264C79.2509 13.6889 78.9337 14.1308 79.2178 14.2071ZM87.3033 5.92102C87.0294 6.49095 87.3238 7.05343 87.4878 7.61364C87.1515 7.72201 86.6985 7.64005 86.4931 7.99542C86.3638 8.21941 86.3863 8.55667 86.4251 8.79924C86.4568 8.99824 86.62 9.26618 86.4842 9.45084C86.3064 9.69256 85.8651 9.5808 85.669 9.84969C85.371 10.2586 85.5382 11.1927 85.9564 11.5005C86.5442 11.9329 86.1934 10.8717 86.1575 10.6785C86.0673 10.1944 86.5689 10.2602 86.9114 10.0647C87.0952 9.95984 87.1281 9.93957 87.1702 9.71567C87.2092 9.50941 87.1885 9.34578 87.1394 9.12348C86.9726 8.36927 87.2642 8.49244 87.8633 8.32626C88.3801 8.18282 88.3387 7.76982 88.2075 7.3357C88.1045 6.99543 87.7975 6.43719 88.13 6.14709C88.262 6.03194 88.4624 6.10474 88.4909 5.86444C88.5101 5.70222 88.2924 5.43626 88.1781 5.34299C87.7842 5.02138 87.4634 5.58773 87.3033 5.92102Z" fill="#39383B"/>
</svg>
