<svg width="128" height="80" viewBox="0 0 128 80" fill="none" xmlns="http://www.w3.org/2000/svg">
<path fill-rule="evenodd" clip-rule="evenodd" d="M65.1819 32.0433C69.8805 31.6428 74.3632 33.5188 78.1186 36.4428C82.9587 40.2113 87.061 45.6009 89.8378 51.2799C90.1332 51.5237 90.4242 51.7736 90.7132 52.0258C92.2586 53.3747 93.7685 54.7995 95.1068 56.3853C95.854 57.2705 97.8139 59.423 96.963 60.7807C96.7825 61.069 96.4859 61.2344 96.1889 61.3486C95.3562 61.668 94.4882 61.8298 93.6669 62.2036C92.6531 62.6647 91.6018 63.3107 90.9523 64.2954C90.7676 64.5755 90.7195 64.906 90.4711 65.0294C90.2078 65.1604 89.7113 65.1093 89.4235 65.1395C88.8449 65.2004 88.2662 65.2612 87.6875 65.3218C86.328 65.4646 84.9069 65.4804 83.577 65.8322L77.4589 67.4507C76.2076 67.7817 74.7694 67.9641 73.5827 68.5082C71.8119 69.3202 70.1225 70.5091 68.428 71.4888C67.6087 71.9626 66.7894 72.4364 65.97 72.9101C65.5698 73.1416 65.296 73.1447 64.827 73.1834L61.4431 73.4623C60.8972 73.5073 60.6352 73.7428 60.5636 73.1575L59.7771 66.723L59.3613 63.3205C59.3366 63.1181 59.3439 62.1157 59.1891 61.9947C59.092 61.9189 58.5223 62.0822 58.417 62.096L56.8811 62.2976C55.7748 62.4427 54.6688 62.5878 53.5625 62.7329C53.4727 62.7446 52.9754 62.7386 52.9196 62.8173C52.8542 62.9096 52.9786 63.4385 52.9897 63.5524C53.1071 64.7472 53.2245 65.942 53.3418 67.1368C53.3556 67.2753 53.5126 67.9178 53.4299 68.0315C53.3723 68.1105 52.9555 68.12 52.8709 68.1348C51.8038 68.3214 50.7368 68.508 49.6697 68.6948C48.9055 68.8284 47.9068 68.8217 47.1844 69.1296C46.7696 69.3063 46.3591 69.7584 46.0007 70.0409L40.7965 74.144C40.0071 74.7662 38.9433 74.6077 37.9821 74.6862L26.8939 75.5913C26.903 75.2213 26.9123 74.8513 26.9215 74.4812C26.9703 72.5216 27.019 70.5619 27.0678 68.6022L27.1317 66.0391C27.1357 65.8769 27.0752 65.4022 27.1742 65.2823C27.3057 65.1232 27.8936 65.0542 28.076 64.9963C28.6881 64.8021 29.2999 64.6081 29.9118 64.4141C31.7072 63.8447 33.5022 63.2754 35.2974 62.7061C37.0718 62.1435 38.8458 61.5807 40.62 61.0181C41.2271 60.8255 41.8341 60.633 42.4411 60.4405C42.5813 60.396 43.0711 60.3369 43.1686 60.2098C43.2915 60.0497 43.2365 59.3668 43.2561 59.1639C43.3524 58.1737 43.4898 57.188 43.657 56.209C44.8632 49.1466 47.6824 41.973 52.9096 37.2615C56.365 34.1471 60.6993 32.4252 65.1819 32.0433ZM66.0106 46.2057C65.5454 45.6205 64.764 44.666 63.9423 44.8244C63.2744 44.9532 62.9105 45.8403 62.6777 46.43C61.742 48.8002 61.4518 51.5171 61.1608 54.0502C60.9782 55.6396 60.8313 57.236 60.7374 58.8343C64.0705 58.5596 67.4036 58.2849 70.7368 58.0102C70.5794 56.8722 70.4533 55.7238 70.2639 54.5914C70.169 54.0237 69.9064 53.5127 69.682 52.9883C68.678 50.6429 67.5821 48.1826 66.0106 46.2057Z" fill="#3292FF"/>
<path fill-rule="evenodd" clip-rule="evenodd" d="M112.28 0L112.362 0.0015131C114.573 0.0645674 116.524 1.58959 118.037 3.20354C118.785 4.00155 119.467 4.94023 119.788 6.0325C120.159 7.29426 120.037 8.68213 119.755 9.94847C119.132 12.747 118.37 15.5599 117.514 18.2873C117.093 19.6289 116.482 20.9444 116.164 22.3176C115.901 23.449 117.005 24.273 117.048 25.4356C117.09 26.6084 116.354 27.7102 115.342 28.1294C114.911 28.3079 114.389 28.1588 113.992 28.3417C113.628 28.5089 113.501 29.0025 113.431 29.3813C113.336 29.898 113.353 30.4143 113.38 30.9356C113.397 31.2545 113.323 31.775 113.468 32.0594C113.568 32.2547 113.75 32.3186 113.906 32.4523C114.12 32.6347 114.262 32.8617 114.449 33.0713C114.758 33.4173 115.055 33.6048 115.139 34.1095C115.184 33.9948 115.229 33.8801 115.273 33.7656C115.503 34.2168 115.674 34.4332 115.455 34.8615C116.134 34.7901 116.537 36.1102 116.715 36.6109C117.041 37.5271 117.265 38.4791 117.592 39.3958C118.039 40.6527 118.628 41.893 118.914 43.2081C119.154 44.3135 119.344 45.4487 119.557 46.5617C119.677 47.1884 119.782 47.825 120.002 48.4225C120.088 48.6545 120.246 48.8107 120.345 49.0175C120.479 49.3006 120.427 49.4501 120.433 49.7601C120.444 50.3128 120.77 50.6716 120.872 51.2085C120.981 51.782 121.071 52.3621 121.181 52.9368C121.403 54.0946 121.815 55.2507 121.914 56.4234C122.029 57.7851 122.276 59.1302 122.4 60.4923C122.508 61.6825 122.324 62.9603 122.556 64.1117C122.762 65.1337 122.507 66.0682 122.416 67.0828C122.393 67.3404 122.763 68.8742 122.168 68.5797C122.28 68.9413 122.436 69.1136 122.445 69.5103C122.453 69.8813 122.363 70.2628 122.29 70.6225C122.15 71.3177 122.056 72.0754 121.78 72.7267C121.468 73.4634 120.992 73.5517 120.346 73.8044C119.908 73.9756 119.121 74.5862 118.776 73.933C118.57 74.6035 118.169 74.1401 117.719 74.1026C117.722 74.1027 117.461 74.2059 117.412 74.2131C117.254 74.2358 117.067 74.156 116.91 74.1419C116.517 74.107 116.132 74.1632 115.748 74.2484C114.864 74.4448 114.008 74.7164 113.11 74.8533C111.357 75.1206 109.638 74.9942 107.882 75.1113C104.445 75.3402 100.952 75.1481 97.5124 75.049C97.1432 75.0383 96.7453 75.0937 96.381 75.0329C95.9883 74.9673 95.9027 74.7682 95.5967 74.5688C95.0881 74.2376 94.5237 74.5597 93.9961 74.6807C92.4468 75.036 90.8289 75.0623 89.2674 75.406C86.0947 76.104 83.1716 77.4817 80.1326 78.6437C78.8151 79.1475 77.2688 79.9633 75.8481 79.9994C74.1263 80.0386 74.533 78.2216 74.8493 77.0536C73.8545 77.3366 72.2924 78.6294 71.2812 77.8791C70.0762 76.985 71.6094 75.4987 71.6816 74.4478C69.5279 74.9268 67.0848 75.9773 64.8988 75.1233C64.4782 74.9591 64.1121 74.6118 63.6605 74.5553C63.1911 74.4966 62.6949 74.6743 62.2203 74.6712C61.1391 74.6638 60.0893 74.5096 59.0085 74.6523C56.5987 74.9703 54.2232 75.1443 51.794 75.2129C49.3484 75.2819 46.9027 75.4371 44.456 75.4307C43.2141 75.4273 41.9492 75.2695 40.7098 75.3402C40.2231 75.368 39.1758 75.7467 38.8339 75.2168C38.4906 75.6578 38.1989 75.3632 37.7586 75.4121C37.8402 75.403 37.5292 75.5957 37.4824 75.6143C37.2509 75.7064 37.0345 75.6784 36.7928 75.6757C36.149 75.6687 35.5475 75.9915 34.907 75.9603C34.745 75.9525 34.6225 75.9019 34.4851 75.8424C34.4525 75.8282 34.4603 75.6781 34.4081 75.6656C34.0947 75.5904 34.1757 75.796 33.9768 75.8998C33.7562 76.0146 33.4299 75.8288 33.5554 76.182C32.957 76.1539 32.39 76.37 31.8455 75.9898C32.1029 76.5993 31.2036 76.093 30.9686 76.083C30.578 76.0662 30.236 76.2754 29.8464 76.3237C29.3793 76.3813 28.9098 76.1492 28.4527 76.2909C28.0946 76.4018 27.972 76.6687 27.5993 76.5322C27.2826 76.4163 27.0848 76.1645 26.9312 75.8893C26.7192 75.5095 26.692 75.34 26.1807 75.3332C25.8016 75.3283 25.4204 75.4157 25.0376 75.4149C24.599 75.4139 24.117 75.3641 23.7166 75.5875C23.2853 75.8281 23.0319 76.1944 22.5536 76.3829C20.4025 77.2304 18.0412 77.0061 15.7968 76.9917C14.8499 76.9856 14.155 77.0788 13.8892 75.9216C13.6646 74.9439 13.5746 73.9214 13.3603 72.9356C13.0977 71.7277 12.8091 70.607 12.2266 69.5271C11.6614 68.4799 11.186 67.398 10.6939 66.3101C9.67057 64.0477 8.24608 62.1228 6.65787 60.2843C6.05452 59.5857 5.36302 58.8075 5.33409 57.8016C5.31436 56.933 5.67149 56.0331 6.1399 55.3411C6.55815 54.7235 7.24725 54.0268 8.02677 54.1708C8.4962 54.2576 8.8039 54.6633 9.15424 54.9676C9.53715 55.3002 9.95426 55.5268 10.4158 55.7081C11.4919 56.131 12.3944 56.5938 13.3264 57.3238C14.2693 58.0625 15.1509 58.8898 15.9663 59.7856C17.5318 61.5055 19.1358 63.2922 20.0353 65.5191C20.3898 66.3965 20.6163 67.2426 20.858 68.1523C21.0954 69.0456 21.7418 68.7994 22.4686 68.671C23.3544 68.5145 24.2445 68.4305 25.1362 68.3314C25.4719 68.2941 25.945 68.283 26.1471 67.9432C26.37 67.5685 26.1147 67.0831 26.0944 66.6944C26.0836 66.4868 26.1479 66.3337 26.164 66.1312C26.1825 65.901 26.119 65.6906 26.1187 65.4613C26.1185 64.9682 26.3339 64.529 26.6919 64.2303C27.3617 63.6712 28.3388 63.3378 29.1319 63.0302C30.2147 62.6101 31.375 62.4037 32.4902 62.104C33.7458 61.7663 35.0089 61.4621 36.2713 61.1554C37.5117 60.8542 38.7502 60.5443 40.004 60.3123C40.7393 60.1762 41.5371 60.2259 42.25 59.9772C43.0076 59.7129 42.882 58.8961 42.8797 58.1725C42.8761 56.9774 43.0141 55.7471 43.1775 54.5656C43.5251 52.0539 44.353 49.5959 45.1056 47.1957C45.8307 44.8839 46.7289 42.6652 48.2117 40.7892C49.6552 38.9629 51.4269 37.3101 53.2647 35.953C55.1796 34.5388 57.3105 33.5172 59.3094 32.2547C58.8725 31.8968 58.3514 31.5913 58.1004 31.04C57.817 30.4177 57.9371 29.6736 57.9491 29.0084C57.9627 28.2577 57.9841 27.5987 58.2343 26.8835C58.3713 26.4919 58.9007 25.749 58.8196 25.3231C58.6836 24.6079 57.2234 24.0856 56.6857 23.7913C55.8425 23.3297 54.9975 22.8609 54.2204 22.2781C53.4746 21.7191 52.7729 21.0463 52.3211 20.1882C52.193 19.9447 52.0875 19.689 52.0056 19.4236C51.9144 19.1275 51.9782 19.0265 51.7019 19.0048C51.2609 18.9701 50.5997 19.4443 50.2281 19.6538C48.3123 20.734 46.2083 22.1876 43.9478 22.0911C43.1277 22.0562 42.2057 21.7802 41.9157 20.8637C41.5339 19.6572 42.3311 18.4108 43.0305 17.5394C41.6662 17.7691 39.1505 18.4871 38.074 17.1829C37.3566 16.3139 37.8977 14.9345 38.4992 14.1809C39.2941 13.1855 40.4272 12.5795 41.474 11.9461C40.1896 11.4215 38.7677 11.086 37.6382 10.2081C36.5579 9.36858 36.6915 8.0788 37.5447 7.08852C38.4569 6.02994 40.0519 5.48778 41.3063 5.09477C42.845 4.6127 44.3736 4.65136 45.9592 4.6837C48.8049 4.74163 51.2493 5.86556 53.5834 7.5648C54.8175 8.46332 56.0338 9.43299 57.1284 10.5212C58.155 11.5418 59.2501 12.4909 60.2617 13.5225C61.2418 14.5221 62.0127 15.7605 63.0471 16.6943C63.9268 17.4883 64.8911 18.6137 66.0085 18.9662C67.1935 19.3399 68.2601 19.9581 69.4551 20.326C70.8107 20.7433 71.9751 21.4411 73.2313 22.1068C78.5034 24.9006 84.163 26.7188 89.7211 28.7245C92.564 29.7504 95.4258 30.4735 98.3283 31.2569C99.7858 31.6503 101.139 31.8602 102.643 31.7891C102.99 31.7728 103.321 31.7631 103.663 31.8147C103.914 31.8524 104.105 31.954 104.329 31.7934C104.651 31.5628 104.772 30.9624 104.964 30.6206C103.894 30.265 102.846 29.8804 102.358 28.7051C102.05 27.9645 101.89 27.1007 101.755 26.3061C101.683 25.8784 101.681 25.4469 101.619 25.019C101.585 24.7827 101.481 24.5357 101.489 24.2943C101.465 24.4286 100.667 23.9868 100.551 23.9048C100.105 23.588 100.024 22.9495 100.027 22.4106C100.032 21.8019 100.203 21.1328 100.589 20.6712C100.772 20.4527 100.989 20.2888 101.254 20.2065C101.443 20.148 101.691 20.2246 101.857 20.1657C102.594 19.9047 102.677 17.951 102.781 17.2397C103.012 15.6725 103.241 14.1763 103.738 12.6741C104.645 9.93526 105.811 7.27351 107.201 4.7799C108.392 2.64315 109.581 0.0304764 112.199 0H112.28ZM89.648 65.7921C88.5883 65.9887 87.5732 66.3902 86.5496 66.7306C85.5936 67.0486 84.6247 67.2511 83.644 67.4578C81.6922 67.8692 79.6976 68.2458 77.7742 68.7822C77.2326 68.9332 76.9476 69.2741 76.475 69.5111C76.1247 69.6868 75.7959 69.5088 75.4314 69.4938C74.6381 69.4614 73.7578 69.7386 72.9948 69.9453C71.1934 70.4329 69.5952 71.2798 67.9651 72.2161C67.8192 72.2998 66.833 72.7833 66.8797 72.9835C66.9177 73.1469 68.1714 72.7081 68.3709 72.6757C69.3804 72.5109 70.3665 72.1699 71.3686 71.9581C72.1911 71.7841 73.023 71.6664 73.842 71.4733C74.7534 71.2586 76.695 70.5116 76.7722 72.1245C76.8556 73.8676 75.059 74.4037 73.979 75.2168C74.0994 75.4393 75.832 74.7058 76.0467 74.6317C76.7835 74.3772 77.4669 73.9184 78.217 73.7231C79.5221 73.3831 79.364 74.9274 78.6436 75.6144C77.8431 76.3775 76.5192 76.6082 76.0759 77.7827C76.658 78.0077 77.419 77.5851 77.9537 77.3751C78.6559 77.0993 79.3607 76.8277 80.0672 76.5647C81.653 75.9743 83.1592 75.1609 84.7535 74.5984C88.0245 73.4446 91.482 73.1137 94.9013 72.9086C94.5966 71.6423 94.2634 70.3833 93.9897 69.1086C93.8725 68.5631 93.7652 68.015 93.6764 67.4633C93.6147 67.0796 93.6672 66.1614 93.4205 65.8588C93.1201 65.4902 92.3377 66.0079 91.9119 65.9981C91.4948 65.9884 91.1905 65.7577 90.8051 65.685C90.4391 65.616 90.006 65.7257 89.648 65.7921ZM28.1874 73.1223C28.1874 73.7276 28.0895 74.4619 28.8326 74.5327C29.4337 74.5899 30.6096 74.6635 31.0891 74.2055C30.6296 73.9656 30.1074 73.9237 29.6193 73.7853C29.1108 73.641 28.6412 73.4042 28.1874 73.1223ZM40.4538 62.0924C40.2277 62.0941 39.8463 62.3634 39.64 62.4386C39.2627 62.5761 38.8791 62.6921 38.4938 62.8013C37.3362 63.1298 35.8457 63.181 35.3141 64.5124C35.0488 65.1769 34.8648 66.8857 33.9428 66.8795C33.1233 66.8739 32.6325 65.6066 32.0479 65.1556C31.4437 64.6897 30.4857 65.0069 29.8341 65.2092C29.1719 65.4147 28.1443 65.6784 28.2186 66.5776C28.272 67.224 28.3809 67.8124 28.3758 68.4727C28.3694 69.3133 28.3031 70.1521 28.3031 70.9927C28.768 70.3103 29.1735 68.9383 29.9972 68.6639C30.8293 68.3866 31.3 69.9442 31.5164 70.5412C31.7846 71.2809 32.1217 72.1198 32.1422 72.9214C32.1486 73.1731 32.006 73.8645 32.1694 74.0715C32.3144 74.2553 32.8721 74.122 33.0523 74.1019C34.1675 73.9776 35.2769 73.8228 36.3957 73.719C36.9702 73.6658 37.1267 73.5307 37.0705 72.8685C37.0263 72.3484 37.0126 71.8527 37.0735 71.3306C37.3451 68.9996 38.6848 66.8674 40.9501 66.4627C42.3151 66.2187 43.9092 66.397 45.272 66.6313C45.7972 66.7216 46.3675 66.9942 46.9012 66.9705C47.2954 66.9529 47.1684 66.929 47.2491 66.5314C47.3056 66.2534 47.4264 66.0163 47.6237 65.8236C47.7797 65.6714 47.9776 65.7573 48.1246 65.5583C48.231 65.4143 48.215 65.2181 48.2652 65.0522C48.3631 64.7292 48.5402 64.2933 48.8927 64.2118C49.4599 64.0805 50.0629 64.8942 50.3492 65.3139C50.645 65.7479 50.7344 67.0435 51.2101 67.2131C51.759 67.4086 52.412 66.6378 52.5265 66.1522C52.6804 65.4991 52.4865 64.7924 52.3938 64.1455C52.3872 64.0992 52.3602 63.6694 52.3304 63.6414C52.2503 63.5658 51.6468 63.5869 51.5399 63.5813C51.0142 63.5545 50.4875 63.5531 49.9613 63.5516C47.8981 63.5461 45.8771 63.3288 43.8276 63.0971C44.1253 63.617 44.6349 64.4706 44.1118 65.0195C43.7241 65.4262 43.0244 65.2222 42.5375 65.306C41.8497 65.4243 40.6902 66.1237 40.0346 65.6124C39.1109 64.8915 40.1559 63.6531 40.4989 62.9719C40.5723 62.8259 40.8447 62.312 40.7293 62.1407C40.6293 61.9924 40.6001 62.0912 40.4538 62.0924ZM25.0688 70.1034C24.5971 70.2575 24.1219 70.4057 23.6401 70.52C23.0748 70.654 22.1983 70.5239 21.9233 71.1901C21.7141 71.6967 21.818 72.514 21.988 73.0186C22.1826 73.5964 22.6395 73.745 23.1787 73.7891C23.8079 73.8405 24.4455 73.7318 25.0673 73.6397C25.3124 73.6033 25.5737 73.5377 25.8227 73.5373C25.9705 73.5369 26.2687 73.6817 26.4001 73.5633C26.5703 73.4098 26.4582 72.5381 26.4449 72.3291C26.4118 71.8116 26.3202 71.301 26.2951 70.7827C26.2773 70.4104 26.4083 69.9045 26.001 69.8251C25.7474 69.7757 25.2893 70.0314 25.0688 70.1034ZM63.1584 59.8588C62.806 59.9241 62.4555 59.9709 62.0975 59.9651C61.8769 59.9615 61.6128 59.8812 61.409 60.0108C61.0325 60.2502 61.0886 60.8809 61.1014 61.2744C61.1171 61.7519 61.1561 62.2365 61.2037 62.7116C61.2491 63.1659 61.4817 63.9141 61.1531 64.3033C60.9214 64.0316 60.807 63.143 60.3598 63.1755C59.868 63.211 60.0953 64.0531 60.1389 64.3546C60.38 66.0214 60.6548 67.6891 60.8702 69.3607C60.9725 70.1554 61.1048 70.9442 61.1734 71.7428C61.2193 72.2787 61.2347 72.7613 61.7938 72.8724C62.3119 72.9753 62.8941 72.7996 63.4179 72.7861C63.9571 72.7723 64.2659 72.7331 64.5761 72.2108C63.8333 72.0366 62.6567 72.1432 62.2382 71.3014C61.7503 70.3193 62.7794 69.4358 63.2858 68.7645C63.6745 68.2491 64.4692 66.5353 65.1908 67.5532C65.4506 67.9196 65.4975 68.4789 65.6287 68.9052C65.842 69.5979 66.1027 70.2805 66.3585 70.9561C68.6986 69.6618 71.0998 68.4951 73.6518 67.7685C73.0012 66.5902 72.1958 65.5292 71.7088 64.2521C71.163 62.8209 70.7109 61.3505 70.153 59.9239C69.2683 60.4771 68.3226 59.136 67.4417 59.0819C66.0502 58.9966 64.5227 59.6055 63.1584 59.8588ZM49.2968 69.5079C48.8117 69.8175 48.0981 70.4196 47.9816 71.042C47.7804 72.1181 48.9266 71.3987 49.2805 71.1632C50.0213 70.6702 50.7471 70.5127 51.5978 70.8165C52.6888 71.206 53.6942 71.8636 54.8651 71.364C55.4477 71.1153 56.7401 70.584 56.3914 69.6305C56.1509 68.9732 55.4474 69.5369 55.0755 69.7726C54.102 70.3895 53.2958 69.9987 52.323 69.5534C51.3501 69.108 50.2545 68.8967 49.2968 69.5079ZM14.7466 63.9855C14.3571 64.577 15.1488 64.4492 15.4964 64.5069C16.2232 64.6272 16.9718 65.2482 16.7715 66.1269C16.5762 66.9837 15.811 67.5192 15.6653 68.4185C15.54 69.1908 15.6608 70.1683 16.3568 70.5923C16.7477 70.8304 17.6022 70.9285 17.9957 70.655C18.5965 70.2373 17.8503 69.6154 17.4528 69.4086C16.9261 69.1344 16.5006 68.9859 16.7613 68.2656C17.0791 67.3876 17.6963 66.7138 17.6414 65.7091C17.5962 64.8767 17.1861 63.9308 16.439 63.5849C15.9041 63.3374 15.1114 63.4313 14.7466 63.9855ZM67.9218 61.4338C68.5951 61.403 68.6218 62.2747 68.5879 62.7034C68.5415 63.2896 68.6408 63.9143 68.6523 64.5024C68.6675 65.2813 68.8196 67.8321 67.5341 67.4532C66.7074 67.2096 66.0272 66.3608 65.3627 65.8154C64.7513 65.3134 63.197 64.7113 63.0963 63.7595C62.9826 62.6845 64.2082 62.4834 64.9103 62.3125C65.9128 62.0687 66.8861 61.4815 67.9218 61.4338ZM64.642 33.1011C63.5744 33.2115 62.5127 33.3814 61.4967 33.7613C60.8092 34.0184 59.7533 34.2027 59.266 34.8335C58.8447 35.379 59.0273 36.1567 58.8904 36.8013C58.7051 37.6732 58.1433 37.554 57.5984 37.0095C56.9463 36.3577 56.7577 35.8858 55.8499 36.4974C53.9706 37.7636 52.4806 39.633 50.9898 41.3649C52.1425 41.7389 54.4039 41.8294 54.7868 43.3725C54.996 44.2162 54.3652 44.8299 53.7983 45.2903C53.0663 45.8848 52.3022 46.4347 51.5862 47.0531C50.9181 47.6302 49.4199 49.9277 48.9962 47.9077C48.7337 46.6573 49.2254 45.3651 49.0168 44.1298C48.1104 45.6957 47.19 47.2578 46.3589 48.8716C45.6516 50.2454 45.2403 51.715 44.901 53.2339C45.4299 53.271 45.9804 52.9833 46.5033 53.1532C47.0068 53.3168 47.2425 53.8271 47.2778 54.3558C47.3379 55.2522 46.9516 56.1646 46.7572 57.0254C46.6238 57.6166 46.4706 58.9584 45.7985 59.1508C45.0324 59.37 44.5517 58.1074 44.2101 57.5944C43.885 58.1299 43.8904 58.9134 43.8428 59.5273C43.8103 59.9495 43.5904 60.7386 44.0336 60.9719C44.4483 61.1905 45.3228 60.9167 45.7663 60.8966C46.5892 60.8592 47.4281 60.7878 48.2512 60.8138C49.029 60.8384 50.1733 61.2838 50.4771 60.2598C50.684 59.5625 50.8662 57.0568 51.9695 58.4162C52.4597 59.02 52.843 59.7082 53.3164 60.3233C53.794 60.9438 54.2282 60.9845 54.9415 60.9531C56.3534 60.8911 57.7321 61.1816 59.1136 61.4162C60.3258 61.6219 60.1667 60.5195 60.1487 59.5381C60.1212 58.0169 60.4028 56.4261 60.5563 54.9132C60.9215 51.3157 61.6709 47.7615 62.8239 44.3591C61.8594 44.0072 60.1304 45.427 59.4173 44.3488C58.831 43.4624 59.5841 42.2413 59.8907 41.4127C60.2731 40.3789 60.4665 39.2989 61.0902 38.3827C61.287 38.0935 61.5671 37.7058 61.9481 37.8032C62.275 37.8869 62.4053 38.3337 62.5893 38.5858C63.1733 39.3858 63.9192 39.9858 64.4383 40.8584C64.7558 41.3922 65.0028 41.9627 65.1059 42.5895C65.1343 42.7618 65.0984 43.1146 65.2115 43.2592C65.5625 43.7072 66.6682 43.7006 67.1596 43.9753C68.8374 44.9134 69.427 47.6442 70.0785 49.366C70.2621 49.8509 70.4441 50.3371 70.5417 50.8511C70.6068 51.1946 70.6037 51.6314 70.7776 51.9395C71.1572 52.6123 72.3368 52.0115 72.9156 51.9073C73.8857 51.7327 74.8511 51.5662 75.8252 51.4196C76.4195 51.3303 77.2845 51.0995 77.7373 51.6636C78.2067 52.2485 77.9367 53.1696 77.7011 53.7971C77.3164 54.8212 76.825 55.7996 76.4191 56.8144C76.0953 57.6239 75.9341 58.6667 75.3119 59.2904C74.7729 59.8309 73.881 59.9858 73.2464 59.5459C72.8843 59.2949 71.9545 56.8668 71.7091 56.9753C72.152 58.8507 72.8014 60.7631 73.4875 62.553C73.6981 63.1029 74.0599 64.224 74.5922 64.5221C75.0334 64.7693 76.0347 64.3022 76.4861 64.2117C76.9142 64.1257 77.7592 63.7533 78.1685 64.0262C78.6646 64.3571 78.7251 65.2396 78.7808 65.7874C78.8221 66.1936 78.7471 66.4967 79.2083 66.4765C79.5333 66.4624 79.8612 66.2926 80.1731 66.2072C80.897 66.0093 81.6484 65.8783 82.3854 65.7509C84.0899 65.4559 85.7938 65.1618 87.4976 64.8595C88.9623 64.5996 90.4079 64.6011 91.7315 63.8567C92.4023 63.4794 93.1714 63.3642 93.8858 63.1119C94.5943 62.8617 95.3005 62.6993 96.042 62.6053C97.6628 62.4 99.2399 62.1988 100.842 61.847C101.718 61.6545 102.593 61.4528 103.465 61.2371C104.241 61.0451 104.992 60.7401 105.764 60.5518C106.407 60.3953 106.934 60.5129 107.21 59.7315C107.407 59.1711 107.361 58.5431 107.412 57.9567C107.644 55.277 106.768 52.5821 106.589 49.9171C106.531 49.054 106.513 48.1882 106.452 47.3258C106.425 46.9306 106.441 45.78 106.011 45.567C105.972 45.8831 106.002 46.4147 105.667 46.5714C105.831 46.4949 105.616 47.4285 105.604 47.5222C105.559 47.8949 105.673 48.2937 105.613 48.6594C105.66 48.788 105.639 48.8849 105.55 48.9501C105.489 49.0029 105.445 49.0698 105.417 49.1505C105.413 49.4112 105.484 49.2576 105.488 49.3476C105.521 50.2444 105.38 51.174 105.44 52.0926C105.504 53.0636 105.707 54.0162 105.86 54.9738C105.998 55.8334 106.147 56.6948 106.262 57.5583C106.343 58.1643 106.403 58.8599 106.098 59.4115C105.52 60.4587 103.848 60.3449 102.873 60.5161C101.254 60.801 99.6323 61.0579 98.007 61.2999C97.383 61.3927 96.7515 61.6048 96.1202 61.6154C95.4458 61.6267 95.0849 61.3349 94.6598 60.8016C93.8032 59.7274 93.2508 58.5073 92.5373 57.3388C92.1365 56.6824 91.8031 56.5094 91.1285 56.309C90.5019 56.123 89.999 55.6331 89.4892 55.2256C88.4183 54.3698 87.0355 53.4392 86.3328 52.1788C85.5932 50.8525 86.6353 50.4122 87.6332 50.0503C87.3903 49.3589 86.9141 48.8035 86.5218 48.2087C86.0757 47.5323 85.6713 46.8299 85.1911 46.179C84.2123 44.8523 83.2346 43.5324 82.2847 42.1809C81.4727 41.0259 80.6521 39.9317 79.6158 38.996C78.5749 38.0561 77.4161 37.2859 76.2732 36.4991C75.6761 36.088 74.628 35.0378 73.8734 35.1451C73.1414 35.2494 72.8519 36.7102 72.6691 37.3241C72.4592 38.0287 72.3852 39.011 71.8962 39.5657C71.1777 40.3808 70.4316 39.0968 70.0887 38.5051C69.4609 37.4212 68.8183 36.3469 68.1913 35.2621C67.9056 34.7675 67.4929 34.2969 67.3233 33.7361C67.3212 33.7294 67.2418 33.2472 67.322 33.3146L67.3275 33.32L67.322 33.3136C67.1427 33.1232 66.4803 33.0837 66.2326 33.0607L66.21 33.0585C65.6889 33.0059 65.1616 33.0474 64.642 33.1011ZM57.6434 63.4945C57.0432 63.4906 56.4448 63.5654 55.8474 63.6178C55.3226 63.6637 54.8416 63.5778 54.3177 63.544C53.6696 63.5022 53.3491 63.575 53.4984 64.2921C53.6069 64.8139 53.7373 65.509 54.2374 65.7296C54.9129 66.0276 55.8228 65.9875 56.5426 66.1004C57.071 66.1832 57.598 66.258 58.1242 66.3524C58.4736 66.4152 58.6531 66.4808 58.8167 66.0566C58.9535 65.701 58.8653 65.226 58.8187 64.8587C58.7827 64.5768 58.8042 64.0811 58.68 63.8304C58.4945 63.4561 58.0086 63.4969 57.6434 63.4945ZM85.6246 56.3432C86.5063 57.2068 87.0997 58.3109 87.7656 59.358C88.1721 59.9973 88.9675 61.0166 88.3899 61.7917C87.8979 62.4524 86.7537 62.3012 86.0653 62.333C84.9836 62.383 84.1001 62.9067 83.0707 63.1769C80.4781 63.8573 82.6314 59.1881 82.9905 58.2138C83.2425 57.5301 83.5024 56.8496 83.8072 56.1906C83.9447 55.8936 84.2189 55.0272 84.5607 54.9138C85.0562 54.7493 85.311 56.036 85.6246 56.3432ZM63.3492 46.5262C62.9371 47.3701 62.8702 48.5382 62.6748 49.4599C62.0776 52.2783 61.7284 55.1486 61.4539 58.0211C62.8194 57.4408 64.2608 57.4006 65.7026 57.2586C66.7472 57.1557 67.7064 57.0378 68.7513 57.0856C68.9293 57.0937 69.4415 57.1906 69.5882 57.0284C69.7853 56.8106 69.5466 56.2031 69.4884 55.9741C69.1718 54.7301 69.0326 53.4446 68.6727 52.2083C68.3057 50.9475 67.8597 49.6885 67.3851 48.4695C67.0381 47.578 66.5613 46.7086 65.7202 46.2714C64.9838 45.8888 63.8063 45.5901 63.3492 46.5262ZM57.7256 52.0113C58.2882 52.9201 59.0008 53.715 59.5503 54.6323C59.9399 55.2829 60.3961 56.4863 59.4603 56.8999C59.1318 57.045 58.744 56.9822 58.3998 56.9887C57.8675 56.9985 57.3404 57.0476 56.8072 57.034C56.303 57.021 55.8035 56.9556 55.3005 56.9274C54.9835 56.9098 54.5852 56.9359 54.3059 56.7408C53.5573 56.2176 54.0987 55.1494 54.3398 54.4659C54.5958 53.7398 54.9415 53.0532 55.2751 52.3651C55.5063 51.8879 55.8521 50.9156 56.3782 50.721C57.0011 50.4906 57.466 51.5922 57.7256 52.0113ZM85.0068 41.7148C86.2432 43.2553 87.3169 44.9357 88.3279 46.6519C88.8214 47.4894 89.3005 48.3367 89.7788 49.1842C90.0918 49.7387 90.3268 50.4481 90.7081 50.9503C91.5779 52.096 91.8199 49.5963 91.948 49.0529C92.4209 47.0493 93.0066 45.0619 93.5275 43.0708L92.9935 43.0709C90.8652 43.0696 88.8247 43.0359 86.7525 42.364C86.1659 42.1739 85.6311 41.7613 85.0068 41.7148ZM80.5113 42.1032C81.1846 42.6359 85.4942 45.7637 83.6814 46.9706C83.3062 47.2204 82.6932 47.1071 82.2693 47.143C81.7261 47.1889 81.1743 47.2452 80.6376 47.3483C79.9428 47.4819 79.2678 47.7149 78.5698 47.8329C78.0148 47.9268 77.2795 48.0364 76.7836 47.6661C75.9658 47.0552 76.4622 45.8556 76.7322 45.079C77.1161 43.9756 77.4796 42.4984 78.4319 41.8411C78.6535 41.6882 78.925 41.1422 79.1634 41.0922C79.5368 41.0138 80.2382 41.8872 80.5113 42.1032ZM104.288 16.1581C103.963 16.4245 103.948 16.9777 103.863 17.3681C103.58 18.6815 103.184 19.96 102.95 21.2873C102.721 22.582 102.649 23.8565 102.761 25.1685C102.836 26.0436 102.845 27.1204 103.341 27.8656C103.935 28.7572 105.112 28.7116 106.002 28.9756C106.858 29.2297 107.707 30.0167 106.773 30.8348C106.441 31.1254 106.005 31.1727 105.677 31.4527C105.273 31.7983 105.04 32.4175 104.868 32.9238C104.727 33.3407 104.731 33.4203 105.154 33.5676C105.347 33.6348 105.542 33.6775 105.745 33.6595C106.208 33.6182 106.621 33.2908 107.008 33.0448C107.996 32.4174 109.138 31.5797 110.317 31.485C110.695 31.4548 111.123 31.6202 111.49 31.4889C111.832 31.3665 111.727 31.2915 111.786 30.9511C112.021 29.6016 112.117 28.2771 112.759 27.0563C113.076 26.4539 113.914 25.2216 114.475 26.1595C114.71 26.5512 114.795 26.7425 115.315 26.6223C115.739 26.5246 116.204 26.1658 116.12 25.6419C116.041 25.1475 115.434 24.811 115.066 24.5943C114.576 24.306 114.233 24.3393 113.7 24.271C112.234 24.0833 113.262 21.7871 113.473 20.9254C113.606 20.384 113.761 19.684 113.413 19.1951C112.882 18.4514 111.726 18.6959 110.998 18.8014C109.991 18.9473 108.892 19.0251 107.95 18.5354C106.953 18.0175 106.528 16.8494 105.593 16.2815C105.248 16.0716 104.642 15.8668 104.288 16.1581ZM108.663 25.6441C109.355 25.6341 109.019 26.6925 108.829 27.0483C108.429 27.7987 107.573 28.089 106.822 27.8122C106.227 27.5933 105.584 26.6262 106.515 26.4658C106.962 26.389 107.404 26.4203 107.827 26.1927C108.068 26.0631 108.38 25.6482 108.663 25.6441ZM106.925 20.0164C107.355 20.2964 106.621 22.0846 106.497 22.4465C106.295 23.0371 106.116 23.4184 106.629 23.8737C106.985 24.1903 107.688 24.4635 107.352 25.0945C107.042 25.6783 105.976 25.4334 105.543 25.1478C104.913 24.7324 105.098 23.9368 105.237 23.2839C105.328 22.8562 106.158 19.5179 106.925 20.0164ZM39.1461 8.27564C40.4735 8.88314 41.8308 9.43191 43.2353 9.79797C44.4628 10.118 45.6697 10.463 46.9348 10.3878C48.1051 10.3184 48.2447 11.5503 47.5762 12.4034C47.213 12.8669 46.7916 12.8553 46.2624 12.8732C45.6428 12.8942 45.0801 13.0784 44.4825 13.2433C43.5725 13.4945 42.6511 13.7077 41.7692 14.0622C41.3141 14.2452 40.8651 14.4604 40.4592 14.7495C40.204 14.9314 39.6346 15.259 39.9358 15.5131C40.3711 15.8803 41.6633 15.3773 42.1814 15.3442C43.3877 15.2671 44.5917 15.1504 45.7912 14.9886C46.3787 14.9093 47.0094 14.8309 47.5659 14.6022C47.9299 14.4527 48.333 14.0814 48.7452 14.1757C49.6148 14.3747 49.1839 15.7716 48.7891 16.226C48.2027 16.9009 47.3125 17.1989 46.5551 17.5824C46.0257 17.8505 45.4996 18.1343 44.9855 18.4344C44.7427 18.5761 43.6109 19.1071 43.6468 19.5102C43.6844 19.934 44.5777 19.7203 44.7986 19.6817C46.2732 19.4248 47.6037 18.8139 48.9661 18.1888C49.5624 17.9151 50.1671 17.6525 50.751 17.3491C51.1588 17.1371 51.5597 16.814 52.0103 16.7176C53.0726 16.4904 53.0261 17.7615 53.4443 18.4483C54.6875 20.4892 57.0894 21.3598 58.9583 22.5393C59.6652 22.9854 60.3396 23.4991 60.9884 24.0365C61.4518 24.4202 61.637 24.9484 62.1544 24.4423C62.5856 24.0205 62.7936 23.4018 63.07 22.8653C63.3918 22.2407 63.8216 21.6892 64.1515 21.0697C64.6389 20.1545 64.7849 19.2816 63.7145 18.9448C62.5908 18.5912 61.7015 18.064 60.7464 17.3118C58.4026 15.4657 56.4578 13.1083 54.1207 11.2481C51.9555 9.5246 49.6596 7.90729 46.9453 7.44448C44.3727 7.00566 41.5503 7.11372 39.1461 8.27564ZM109.366 21.5323C109.311 22.0405 109.194 23.1244 108.535 23.1649C107.735 23.2141 108.273 20.6094 108.726 20.3162C109.452 19.8468 109.413 21.1017 109.366 21.5323ZM101.92 21.3248C100.921 21.4134 100.636 22.5857 101.634 23.0008L101.92 21.3248ZM105.624 20.2959C105.495 20.828 105.541 21.6818 105.143 22.0901C104.581 22.6656 104.336 21.8211 104.34 21.3395C104.344 20.8633 104.565 19.672 105.16 19.6092C105.668 19.5556 105.245 20.1869 105.624 20.2959ZM116.404 8.45861C116.039 9.27279 116.432 10.0763 116.65 10.8766C116.202 11.0314 115.598 10.9144 115.324 11.422C115.152 11.742 115.182 12.2238 115.233 12.5703C115.276 12.8546 115.493 13.2374 115.312 13.5012C115.075 13.8465 114.487 13.6869 114.225 14.071C113.828 14.6552 114.051 15.9896 114.609 16.4293C115.392 17.0471 114.925 15.5311 114.877 15.255C114.756 14.5634 115.425 14.6575 115.882 14.3782C116.127 14.2283 116.171 14.1994 116.227 13.8795C116.279 13.5849 116.251 13.3511 116.186 13.0335C115.963 11.9561 116.352 12.1321 117.151 11.8947C117.84 11.6897 117.785 11.0997 117.61 10.4796C117.473 9.99347 117.063 9.19599 117.507 8.78156C117.683 8.61705 117.95 8.72106 117.988 8.37777C118.013 8.14603 117.723 7.76609 117.571 7.63284C117.046 7.1734 116.618 7.98247 116.404 8.45861Z" fill="#39383B"/>
</svg>
