<svg width="64" height="40" viewBox="0 0 64 40" fill="none" xmlns="http://www.w3.org/2000/svg">
<path fill-rule="evenodd" clip-rule="evenodd" d="M32.591 16.0217C34.9404 15.8214 37.1817 16.7594 39.0594 18.2214C41.4795 20.1057 43.5306 22.8005 44.919 25.64C45.0667 25.7619 45.2122 25.8868 45.3567 26.0129C46.1294 26.6874 46.8843 27.3998 47.5535 28.1927C47.9271 28.6353 48.907 29.7115 48.4816 30.3904C48.3913 30.5345 48.2431 30.6173 48.0946 30.6743C47.6782 30.834 47.2442 30.9149 46.8335 31.1018C46.3267 31.3324 45.801 31.6554 45.4763 32.1477C45.3839 32.2878 45.3598 32.453 45.2356 32.5147C45.104 32.5802 44.8558 32.5547 44.7118 32.5698C44.4226 32.6002 44.1332 32.6306 43.8439 32.6609C43.1641 32.7323 42.4536 32.7402 41.7886 32.9161L38.7296 33.7254C38.1039 33.8909 37.3848 33.9821 36.7915 34.2541C35.906 34.6601 35.0613 35.2546 34.2141 35.7445C33.8045 35.9813 33.3948 36.2182 32.9851 36.4551C32.785 36.5708 32.6481 36.5724 32.4136 36.5917L30.7217 36.7312C30.4487 36.7537 30.3177 36.8714 30.2819 36.5788L29.8886 33.3615L29.6808 31.6603C29.6684 31.5591 29.672 31.0579 29.5946 30.9974C29.5461 30.9595 29.2613 31.0411 29.2086 31.0481L28.4406 31.1488C27.8875 31.2214 27.3345 31.2939 26.7814 31.3665C26.7365 31.3723 26.4878 31.3693 26.4599 31.4087C26.4272 31.4548 26.4894 31.7193 26.495 31.7762C26.5536 32.3736 26.6124 32.971 26.671 33.5684C26.6779 33.6377 26.7564 33.9589 26.715 34.0158C26.6862 34.0553 26.4779 34.06 26.4356 34.0675C25.902 34.1608 25.3685 34.2541 24.8349 34.3474C24.4529 34.4142 23.9535 34.4109 23.5923 34.5648C23.3849 34.6532 23.1796 34.8792 23.0005 35.0205L20.3983 37.072C20.0037 37.3831 19.4717 37.3039 18.9911 37.3431L13.447 37.7957C13.4516 37.6107 13.4563 37.4257 13.4609 37.2406C13.4852 36.2608 13.5096 35.281 13.534 34.3011L13.5659 33.0196C13.5679 32.9385 13.5377 32.7011 13.5872 32.6412C13.6529 32.5616 13.9469 32.5271 14.0381 32.4982C14.3441 32.4011 14.6501 32.3041 14.956 32.2071C15.8537 31.9224 16.7512 31.6377 17.6488 31.3531C18.536 31.0718 19.423 30.7904 20.3101 30.5091C20.6137 30.4128 20.9172 30.3165 21.2207 30.2203C21.2908 30.198 21.5357 30.1685 21.5844 30.1049C21.6458 30.0249 21.6183 29.6834 21.6281 29.582C21.6763 29.0869 21.745 28.5941 21.8286 28.1045C22.4317 24.5733 23.8413 20.9865 26.4549 18.6308C28.1826 17.0736 30.3498 16.2126 32.591 16.0217ZM33.0054 23.1029C32.7728 22.8103 32.3821 22.333 31.9712 22.4122C31.6373 22.4766 31.4553 22.9202 31.339 23.215C30.8711 24.4001 30.726 25.7586 30.5805 27.0251C30.4892 27.8198 30.4158 28.618 30.3688 29.4172C32.0354 29.2798 33.7019 29.1425 35.3685 29.0051C35.2898 28.4361 35.2268 27.8619 35.1321 27.2957C35.0846 27.0119 34.9533 26.7564 34.8411 26.4942C34.3391 25.3215 33.7911 24.0913 33.0054 23.1029Z" fill="#07CF5F"/>
<path fill-rule="evenodd" clip-rule="evenodd" d="M56.1401 0L56.1809 0.000756549C57.2868 0.0322837 58.2621 0.794796 59.0186 1.60177C59.3926 2.00078 59.7337 2.47012 59.8942 3.01625C60.0796 3.64713 60.0186 4.34106 59.8776 4.97423C59.566 6.37349 59.1853 7.77995 58.7571 9.14363C58.5464 9.81446 58.2409 10.4722 58.0819 11.1588C57.9508 11.7245 58.5028 12.1365 58.5239 12.7178C58.5453 13.3042 58.177 13.8551 57.671 14.0647C57.4555 14.154 57.1947 14.0794 56.996 14.1709C56.8143 14.2545 56.7507 14.5012 56.7158 14.6907C56.6683 14.949 56.6768 15.2072 56.6903 15.4678C56.6986 15.6272 56.6615 15.8875 56.7341 16.0297C56.784 16.1274 56.8749 16.1593 56.9531 16.2261C57.06 16.3173 57.1311 16.4309 57.2248 16.5357C57.3792 16.7087 57.5278 16.8024 57.5698 17.0547C57.5921 16.9974 57.6144 16.9401 57.6367 16.8828C57.7518 17.1084 57.8371 17.2166 57.7276 17.4308C58.0672 17.3951 58.2684 18.0551 58.3574 18.3054C58.5205 18.7635 58.6325 19.2395 58.7959 19.6979C59.0198 20.3263 59.3141 20.9465 59.457 21.6041C59.577 22.1567 59.672 22.7244 59.7787 23.2809C59.8388 23.5942 59.8912 23.9125 60.0012 24.2113C60.0439 24.3273 60.1233 24.4053 60.1725 24.5087C60.2397 24.6503 60.2134 24.7251 60.2166 24.8801C60.2223 25.1564 60.385 25.3358 60.4361 25.6042C60.4908 25.891 60.5354 26.181 60.5906 26.4684C60.7017 27.0473 60.9075 27.6254 60.957 28.2117C61.0145 28.8926 61.138 29.5651 61.2 30.2462C61.2543 30.8413 61.162 31.4802 61.278 32.0559C61.3809 32.5668 61.2534 33.0341 61.208 33.5414C61.1965 33.6702 61.3817 34.4371 61.0841 34.2898C61.14 34.4707 61.2183 34.5568 61.2225 34.7551C61.2264 34.9407 61.1818 35.1314 61.1453 35.3112C61.0749 35.6589 61.028 36.0377 60.89 36.3634C60.7341 36.7317 60.4963 36.7758 60.1731 36.9022C59.9543 36.9878 59.5604 37.2931 59.388 36.9665C59.2852 37.3018 59.0845 37.07 58.8595 37.0513C58.861 37.0514 58.7307 37.103 58.7063 37.1065C58.6272 37.1179 58.5337 37.078 58.455 37.071C58.2588 37.0535 58.0663 37.0816 57.8743 37.1242C57.432 37.2224 57.0041 37.3582 56.5552 37.4267C55.6784 37.5603 54.8192 37.4971 53.9411 37.5557C52.2228 37.6701 50.476 37.5741 48.7563 37.5245C48.5717 37.5192 48.3728 37.5468 48.1906 37.5165C47.9943 37.4837 47.9514 37.3841 47.7985 37.2844C47.5441 37.1188 47.262 37.2799 46.9981 37.3404C46.2235 37.518 45.4146 37.5311 44.6338 37.703C43.0475 38.052 41.5859 38.7408 40.0664 39.3219C39.4076 39.5737 38.6345 39.9816 37.9241 39.9997C37.0632 40.0193 37.2666 39.1108 37.4248 38.5268C36.9274 38.6683 36.1463 39.3147 35.6407 38.9396C35.0382 38.4925 35.8048 37.7493 35.8409 37.2239C34.764 37.4634 33.5425 37.9886 32.4495 37.5617C32.2392 37.4795 32.0562 37.3059 31.8304 37.2776C31.5957 37.2483 31.3476 37.3371 31.1103 37.3356C30.5697 37.3319 30.0447 37.2548 29.5043 37.3262C28.2995 37.4851 27.1117 37.5722 25.8971 37.6065C24.6743 37.641 23.4514 37.7186 22.2281 37.7153C21.6071 37.7136 20.9747 37.6348 20.355 37.6701C20.1117 37.684 19.588 37.8734 19.417 37.6084C19.2454 37.8289 19.0996 37.6816 18.8794 37.706C18.9202 37.7015 18.7647 37.7978 18.7413 37.8071C18.6256 37.8532 18.5173 37.8392 18.3965 37.8379C18.0746 37.8344 17.7739 37.9958 17.4536 37.9801C17.3726 37.9762 17.3113 37.951 17.2426 37.9212C17.2263 37.9141 17.2302 37.8391 17.2041 37.8328C17.0475 37.7952 17.088 37.898 16.9885 37.9499C16.8782 38.0073 16.715 37.9144 16.7778 38.091C16.4786 38.0769 16.1951 38.185 15.9228 37.9949C16.0515 38.2997 15.6019 38.0465 15.4844 38.0415C15.2891 38.0331 15.1181 38.1377 14.9233 38.1618C14.6897 38.1907 14.455 38.0746 14.2265 38.1455C14.0474 38.2009 13.9861 38.3343 13.7997 38.2661C13.6414 38.2082 13.5425 38.0823 13.4657 37.9446C13.3597 37.7547 13.3461 37.67 13.0904 37.6666C12.9009 37.6641 12.7103 37.7078 12.5189 37.7074C12.2996 37.707 12.0586 37.682 11.8584 37.7937C11.6428 37.9141 11.5161 38.0972 11.2769 38.1915C10.2014 38.6152 9.02069 38.503 7.89851 38.4958C7.42506 38.4928 7.07761 38.5394 6.9447 37.9608C6.8324 37.4719 6.78738 36.9607 6.68025 36.4678C6.54896 35.8638 6.40467 35.3035 6.11337 34.7636C5.83081 34.2399 5.59308 33.699 5.34705 33.1551C4.83538 32.0239 4.12313 31.0614 3.32902 30.1421C3.02735 29.7928 2.6816 29.4037 2.66714 28.9008C2.65727 28.4665 2.83584 28.0165 3.07004 27.6706C3.27916 27.3618 3.62372 27.0134 4.01348 27.0854C4.24819 27.1288 4.40204 27.3316 4.57721 27.4838C4.76867 27.6501 4.97722 27.7634 5.20797 27.8541C5.74605 28.0655 6.1973 28.2969 6.66327 28.6619C7.13477 29.0313 7.57552 29.4449 7.98326 29.8928C8.76599 30.7527 9.56802 31.6461 10.0178 32.7596C10.195 33.1983 10.3082 33.6213 10.4291 34.0762C10.5478 34.5228 10.871 34.3997 11.2344 34.3355C11.6773 34.2572 12.1224 34.2153 12.5682 34.1657C12.736 34.147 12.9726 34.1415 13.0737 33.9716C13.1851 33.7843 13.0574 33.5415 13.0473 33.3472C13.0419 33.2434 13.074 33.1669 13.0821 33.0656C13.0913 32.9505 13.0596 32.8453 13.0594 32.7307C13.0593 32.4841 13.167 32.2645 13.346 32.1151C13.681 31.8356 14.1695 31.6689 14.5661 31.5151C15.1075 31.3051 15.6876 31.2019 16.2452 31.052C16.873 30.8832 17.5046 30.731 18.1358 30.5777C18.756 30.4271 19.3752 30.2722 20.0021 30.1561C20.3698 30.0881 20.7686 30.113 21.1251 29.9886C21.5039 29.8564 21.4411 29.4481 21.44 29.0862C21.4381 28.4887 21.5072 27.8735 21.5888 27.2828C21.7626 26.027 22.1766 24.7979 22.5529 23.5978C22.9154 22.442 23.3645 21.3326 24.106 20.3946C24.8277 19.4814 25.7135 18.6551 26.6325 17.9765C27.5899 17.2694 28.6553 16.7586 29.6548 16.1274C29.4364 15.9484 29.1758 15.7957 29.0503 15.52C28.9086 15.2088 28.9686 14.8368 28.9747 14.5042C28.9815 14.1288 28.9921 13.7993 29.1173 13.4418C29.1857 13.2459 29.4504 12.8745 29.4099 12.6615C29.3419 12.304 28.6118 12.0428 28.343 11.8957C27.9213 11.6649 27.4989 11.4304 27.1103 11.1391C26.7374 10.8596 26.3866 10.5231 26.1606 10.0941C26.0966 9.97237 26.0438 9.84451 26.0029 9.71179C25.9573 9.56373 25.9892 9.51327 25.851 9.50242C25.6305 9.48504 25.3 9.72217 25.1142 9.82692C24.1563 10.367 23.1042 11.0938 21.974 11.0456C21.5639 11.0281 21.1029 10.8901 20.958 10.4319C20.7671 9.82861 21.1656 9.20541 21.5153 8.76969C20.8332 8.88455 19.5753 9.24354 19.0371 8.59144C18.6784 8.15693 18.9489 7.46724 19.2497 7.09046C19.6471 6.59276 20.2137 6.28975 20.7371 5.97307C20.0949 5.71074 19.3839 5.543 18.8192 5.10405C18.2791 4.68429 18.3458 4.0394 18.7724 3.54426C19.2285 3.01497 20.026 2.74389 20.6533 2.54738C21.4226 2.30635 22.1869 2.32568 22.9797 2.34185C24.4025 2.37082 25.6248 2.93278 26.7918 3.7824C27.4088 4.23166 28.017 4.71649 28.5643 5.26061C29.0776 5.7709 29.6252 6.24543 30.1309 6.76124C30.621 7.26103 31.0065 7.88026 31.5237 8.34717C31.9635 8.74415 32.4457 9.30686 33.0044 9.48309C33.5968 9.66996 34.1301 9.97904 34.7276 10.163C35.4054 10.3716 35.9876 10.7205 36.6158 11.0534C39.2518 12.4503 42.0816 13.3594 44.8606 14.3623C46.2821 14.8752 47.713 15.2367 49.1642 15.6285C49.893 15.8252 50.5697 15.9301 51.3218 15.8946C51.4952 15.8864 51.6608 15.8816 51.8318 15.9074C51.9572 15.9262 52.0525 15.977 52.1646 15.8967C52.3257 15.7814 52.3862 15.4812 52.4823 15.3103C51.9471 15.1325 51.4231 14.9402 51.1789 14.3526C51.0251 13.9822 50.9452 13.5504 50.8778 13.153C50.8415 12.9392 50.8407 12.7234 50.8098 12.5095C50.7928 12.3913 50.7404 12.2679 50.7444 12.1471C50.7324 12.2143 50.3336 11.9934 50.2757 11.9524C50.0526 11.794 50.012 11.4748 50.0138 11.2053C50.0159 10.9009 50.1017 10.5664 50.2946 10.3356C50.3859 10.2263 50.4945 10.1444 50.6273 10.1033C50.7214 10.074 50.8457 10.1123 50.9287 10.0828C51.2972 9.95236 51.3384 8.97549 51.3907 8.61986C51.5059 7.83627 51.6206 7.08817 51.8692 6.33704C52.3225 4.96763 52.9058 3.63675 53.6007 2.38995C54.196 1.32157 54.7908 0.0152382 56.0998 0H56.1401ZM44.8241 32.896C44.2943 32.9943 43.7867 33.1951 43.2749 33.3653C42.7969 33.5243 42.3125 33.6256 41.8221 33.7289C40.8462 33.9346 39.8489 34.1229 38.8872 34.3911C38.6164 34.4666 38.4739 34.637 38.2376 34.7555C38.0624 34.8434 37.898 34.7544 37.7158 34.7469C37.3191 34.7307 36.879 34.8693 36.4975 34.9727C35.5968 35.2165 34.7977 35.6399 33.9826 36.108C33.9097 36.1499 33.4166 36.3917 33.44 36.4918C33.4589 36.5735 34.0858 36.3541 34.1855 36.3378C34.6903 36.2554 35.1833 36.0849 35.6844 35.979C36.0957 35.8921 36.5116 35.8332 36.9211 35.7367C37.3768 35.6293 38.3476 35.2558 38.3862 36.0622C38.4279 36.9338 37.5296 37.2019 36.9896 37.6084C37.0498 37.7196 37.9161 37.3529 38.0235 37.3158C38.3918 37.1886 38.7336 36.9592 39.1086 36.8615C39.7611 36.6916 39.6821 37.4637 39.3219 37.8072C38.9216 38.1888 38.2597 38.3041 38.0381 38.8913C38.3291 39.0038 38.7096 38.7926 38.977 38.6875C39.328 38.5496 39.6805 38.4138 40.0337 38.2823C40.8266 37.9871 41.5797 37.5805 42.3768 37.2992C44.0123 36.7223 45.7411 36.5568 47.4508 36.4543C47.2984 35.8211 47.1318 35.1917 46.9949 34.5543C46.9363 34.2816 46.8827 34.0075 46.8383 33.7317C46.8074 33.5398 46.8337 33.0807 46.7104 32.9294C46.5601 32.7451 46.1689 33.004 45.956 32.9991C45.7475 32.9942 45.5953 32.8789 45.4026 32.8425C45.2197 32.808 45.0031 32.8628 44.8241 32.896ZM14.0938 36.5611C14.0938 36.8638 14.0448 37.231 14.4164 37.2663C14.7169 37.295 15.3049 37.3317 15.5446 37.1028C15.3149 36.9828 15.0538 36.9618 14.8098 36.8927C14.5555 36.8205 14.3207 36.7021 14.0938 36.5611ZM20.227 31.0462C20.1139 31.0471 19.9232 31.1817 19.8201 31.2193C19.6314 31.288 19.4397 31.346 19.247 31.4007C18.6682 31.5649 17.9229 31.5905 17.6572 32.2562C17.5245 32.5885 17.4325 33.4429 16.9715 33.4398C16.5618 33.4369 16.3164 32.8033 16.0241 32.5778C15.7219 32.3449 15.243 32.5034 14.9171 32.6046C14.586 32.7074 14.0722 32.8392 14.1094 33.2888C14.1361 33.612 14.1906 33.9062 14.188 34.2364C14.1848 34.6567 14.1516 35.0761 14.1516 35.4964C14.3841 35.1552 14.5869 34.4692 14.9987 34.332C15.4147 34.1933 15.6501 34.9721 15.7583 35.2706C15.8924 35.6405 16.061 36.0599 16.0712 36.4607C16.0744 36.5865 16.0031 36.9323 16.0848 37.0357C16.1573 37.1276 16.4361 37.061 16.5262 37.051C17.0839 36.9888 17.6385 36.9114 18.1979 36.8595C18.4852 36.8329 18.5634 36.7653 18.5353 36.4342C18.5133 36.1742 18.5064 35.9264 18.5368 35.6653C18.6726 34.4998 19.3425 33.4337 20.4751 33.2313C21.1576 33.1093 21.9547 33.1985 22.6361 33.3157C22.8987 33.3608 23.1838 33.4971 23.4507 33.4852C23.6478 33.4765 23.5843 33.4645 23.6247 33.2657C23.6529 33.1267 23.7133 33.0081 23.812 32.9118C23.8899 32.8357 23.9889 32.8787 24.0624 32.7792C24.1156 32.7072 24.1076 32.6091 24.1327 32.5261C24.1817 32.3646 24.2702 32.1467 24.4464 32.1059C24.7301 32.0402 25.0315 32.4471 25.1747 32.657C25.3226 32.874 25.3673 33.5217 25.6051 33.6066C25.8796 33.7043 26.2061 33.3189 26.2633 33.0761C26.3403 32.7495 26.2433 32.3962 26.197 32.0728C26.1937 32.0496 26.1802 31.8347 26.1653 31.8207C26.1252 31.7829 25.8235 31.7935 25.7701 31.7906C25.5072 31.7772 25.2439 31.7766 24.9807 31.7758C23.9492 31.7731 22.9386 31.6644 21.9139 31.5485C22.0627 31.8085 22.3176 32.2353 22.056 32.5098C21.8622 32.7131 21.5123 32.6111 21.2689 32.653C20.9249 32.7121 20.3452 33.0618 20.0174 32.8062C19.5555 32.4458 20.078 31.8266 20.2495 31.4859C20.2863 31.4129 20.4225 31.156 20.3647 31.0704C20.3147 30.9962 20.3002 31.0456 20.227 31.0462ZM12.5345 35.0517C12.2987 35.1287 12.0611 35.2029 11.8201 35.26C11.5375 35.327 11.0993 35.2619 10.9618 35.5951C10.8571 35.8484 10.9091 36.257 10.9941 36.5093C11.0914 36.7982 11.3198 36.8725 11.5894 36.8945C11.9041 36.9203 12.2228 36.8659 12.5338 36.8198C12.6563 36.8016 12.7869 36.7688 12.9114 36.7686C12.9853 36.7684 13.1345 36.8408 13.2002 36.7816C13.2852 36.7049 13.2292 36.2691 13.2225 36.1646C13.206 35.9058 13.1602 35.6505 13.1477 35.3913C13.1387 35.2052 13.2042 34.9523 13.0006 34.9126C12.8738 34.8878 12.6447 35.0157 12.5345 35.0517ZM31.5793 29.9294C31.4031 29.9621 31.2278 29.9854 31.0488 29.9825C30.9386 29.9807 30.8065 29.9406 30.7046 30.0054C30.5164 30.1251 30.5444 30.4404 30.5508 30.6372C30.5587 30.876 30.5782 31.1183 30.6019 31.3558C30.6246 31.583 30.7409 31.957 30.5766 32.1517C30.4608 32.0158 30.4036 31.5715 30.18 31.5877C29.9341 31.6055 30.0477 32.0266 30.0696 32.1773C30.1901 33.0107 30.3275 33.8446 30.4352 34.6804C30.4864 35.0777 30.5525 35.4721 30.5868 35.8714C30.6097 36.1394 30.6175 36.3807 30.897 36.4362C31.156 36.4877 31.4471 36.3998 31.709 36.3931C31.9786 36.3861 32.133 36.3665 32.2882 36.1054C31.9168 36.0183 31.3284 36.0716 31.1192 35.6507C30.8752 35.1597 31.3898 34.7179 31.643 34.3823C31.8373 34.1245 32.2347 33.2676 32.5955 33.7766C32.7254 33.9598 32.7488 34.2395 32.8144 34.4526C32.9211 34.7989 33.0515 35.1403 33.1793 35.478C34.3494 34.8309 35.55 34.2475 36.826 33.8842C36.5007 33.2951 36.098 32.7646 35.8545 32.1261C35.5816 31.4104 35.3556 30.6753 35.0766 29.9619C34.6343 30.2385 34.1614 29.568 33.7209 29.541C33.0252 29.4983 32.2614 29.8027 31.5793 29.9294ZM24.6485 34.7539C24.4059 34.9087 24.0491 35.2098 23.9909 35.521C23.8903 36.0591 24.4634 35.6993 24.6403 35.5816C25.0107 35.3351 25.3736 35.2563 25.799 35.4083C26.3445 35.603 26.8472 35.9318 27.4327 35.682C27.724 35.5577 28.3701 35.292 28.1958 34.8152C28.0756 34.4866 27.7238 34.7685 27.5379 34.8863C27.0511 35.1948 26.648 34.9993 26.1616 34.7767C25.6751 34.554 25.1274 34.4484 24.6485 34.7539ZM7.37338 31.9927C7.17865 32.2885 7.57451 32.2246 7.7483 32.2534C8.11171 32.3136 8.48601 32.6241 8.38585 33.0635C8.2882 33.4918 7.90561 33.7596 7.83274 34.2093C7.77011 34.5954 7.83047 35.0842 8.17849 35.2962C8.37396 35.4152 8.8012 35.4642 8.99793 35.3275C9.29835 35.1186 8.92525 34.8077 8.7265 34.7043C8.46312 34.5672 8.25041 34.493 8.38075 34.1328C8.53964 33.6938 8.84823 33.3569 8.82081 32.8545C8.79818 32.4384 8.59314 31.9654 8.21961 31.7925C7.95214 31.6687 7.55578 31.7157 7.37338 31.9927ZM33.961 30.7169C34.2976 30.7015 34.311 31.1373 34.294 31.3517C34.2708 31.6448 34.3205 31.9572 34.3262 32.2512C34.3338 32.6407 34.4099 33.916 33.7671 33.7266C33.3538 33.6048 33.0137 33.1804 32.6814 32.9077C32.3757 32.6567 31.5986 32.3556 31.5482 31.8798C31.4914 31.3423 32.1042 31.2417 32.4553 31.1563C32.9565 31.0343 33.4432 30.7407 33.961 30.7169ZM32.3211 16.5506C31.7873 16.6057 31.2564 16.6907 30.7484 16.8807C30.4047 17.0092 29.8767 17.1013 29.6331 17.4167C29.4225 17.6895 29.5138 18.0784 29.4453 18.4006C29.3527 18.8366 29.0717 18.777 28.7993 18.5048C28.4732 18.1789 28.3789 17.9429 27.925 18.2487C26.9854 18.8818 26.2404 19.8165 25.495 20.6824C26.0714 20.8694 27.202 20.9147 27.3935 21.6863C27.4981 22.1081 27.1827 22.415 26.8992 22.6451C26.5332 22.9424 26.1512 23.2173 25.7932 23.5266C25.4592 23.8151 24.7101 24.9639 24.4982 23.9539C24.367 23.3286 24.6128 22.6825 24.5085 22.0649C24.0553 22.8478 23.5951 23.6289 23.1796 24.4358C22.8259 25.1227 22.6202 25.8575 22.4506 26.617C22.715 26.6355 22.9903 26.4917 23.2517 26.5766C23.5035 26.6584 23.6213 26.9136 23.639 27.1779C23.669 27.6261 23.4759 28.0823 23.3787 28.5127C23.312 28.8083 23.2354 29.4792 22.8993 29.5754C22.5163 29.685 22.2759 29.0537 22.1052 28.7972C21.9426 29.065 21.9453 29.4567 21.9215 29.7637C21.9052 29.9747 21.7953 30.3693 22.0169 30.486C22.2242 30.5952 22.6615 30.4584 22.8832 30.4483C23.2947 30.4296 23.7141 30.3939 24.1257 30.4069C24.5146 30.4192 25.0867 30.6419 25.2386 30.1299C25.3421 29.7813 25.4332 28.5284 25.9848 29.2081C26.2299 29.51 26.4216 29.8541 26.6583 30.1617C26.8971 30.4719 27.1142 30.4922 27.4708 30.4765C28.1768 30.4456 28.8661 30.5908 29.5569 30.7081C30.163 30.8109 30.0835 30.2598 30.0745 29.7691C30.0607 29.0084 30.2015 28.2131 30.2782 27.4566C30.4608 25.6579 30.8356 23.8808 31.4121 22.1796C30.9298 22.0036 30.0653 22.7135 29.7087 22.1744C29.4156 21.7312 29.7922 21.1207 29.9454 20.7064C30.1367 20.1895 30.2334 19.6495 30.5452 19.1914C30.6436 19.0467 30.7836 18.8529 30.9741 18.9016C31.1376 18.9435 31.2028 19.1668 31.2947 19.2929C31.5867 19.6929 31.9597 19.9929 32.2192 20.4292C32.378 20.6961 32.5015 20.9813 32.5531 21.2947C32.5673 21.3809 32.5493 21.5573 32.6059 21.6296C32.7813 21.8536 33.3342 21.8503 33.5799 21.9876C34.4188 22.4567 34.7136 23.8221 35.0394 24.683C35.1312 24.9255 35.2221 25.1685 35.2709 25.4255C35.3035 25.5973 35.3019 25.8157 35.3889 25.9698C35.5787 26.3061 36.1685 26.0057 36.4579 25.9537C36.943 25.8664 37.4257 25.7831 37.9127 25.7098C38.2098 25.6651 38.6423 25.5497 38.8688 25.8318C39.1035 26.1242 38.9685 26.5848 38.8506 26.8985C38.6583 27.4106 38.4126 27.8998 38.2096 28.4072C38.0477 28.8119 37.9671 29.3333 37.656 29.6452C37.3865 29.9155 36.9406 29.9929 36.6233 29.773C36.4422 29.6475 35.9773 28.4334 35.8547 28.4876C36.0761 29.4254 36.4008 30.3816 36.7438 31.2765C36.8492 31.5514 37.03 32.112 37.2962 32.2611C37.5168 32.3847 38.0174 32.1511 38.2431 32.1058C38.4572 32.0629 38.8797 31.8767 39.0843 32.0131C39.3324 32.1785 39.3626 32.6198 39.3905 32.8937C39.4112 33.0968 39.3736 33.2484 39.6043 33.2383C39.7667 33.2312 39.9307 33.1463 40.0866 33.1036C40.4486 33.0046 40.8243 32.9392 41.1928 32.8754C42.0451 32.728 42.897 32.5809 43.7489 32.4297C44.4813 32.2998 45.2041 32.3005 45.8658 31.9283C46.2013 31.7397 46.5858 31.6821 46.943 31.5559C47.2972 31.4308 47.6503 31.3497 48.0211 31.3026C48.8315 31.2 49.6201 31.0994 50.421 30.9235C50.8593 30.8272 51.2967 30.7264 51.7327 30.6185C52.1208 30.5226 52.496 30.37 52.8821 30.2759C53.2034 30.1976 53.4673 30.2565 53.6049 29.8657C53.7037 29.5856 53.6807 29.2716 53.706 28.9783C53.8219 27.6385 53.384 26.291 53.2944 24.9585C53.2654 24.527 53.2564 24.0941 53.2262 23.6629C53.2123 23.4653 53.2207 22.89 53.0056 22.7835C52.986 22.9415 53.0012 23.2074 52.8337 23.2857C52.9155 23.2475 52.8081 23.7142 52.8023 23.7611C52.7794 23.9475 52.8365 24.1469 52.8064 24.3297C52.8303 24.394 52.8198 24.4425 52.7752 24.4751C52.7448 24.5015 52.7226 24.5349 52.7087 24.5752C52.7066 24.7056 52.7422 24.6288 52.7439 24.6738C52.7608 25.1222 52.6901 25.587 52.7203 26.0463C52.7523 26.5318 52.8535 27.0081 52.9303 27.4869C52.9993 27.9167 53.0736 28.3474 53.1311 28.7791C53.1715 29.0821 53.2014 29.4299 53.0493 29.7057C52.7603 30.2294 51.9239 30.1724 51.4368 30.2581C50.6271 30.4005 49.8162 30.5289 49.0036 30.6499C48.6916 30.6964 48.3758 30.8024 48.0602 30.8077C47.723 30.8134 47.5426 30.6675 47.33 30.4008C46.9017 29.8637 46.6255 29.2537 46.2687 28.6694C46.0683 28.3412 45.9017 28.2547 45.5643 28.1545C45.251 28.0615 44.9996 27.8165 44.7447 27.6128C44.2093 27.1849 43.5178 26.7196 43.1665 26.0894C42.7967 25.4263 43.3178 25.2061 43.8167 25.0252C43.6953 24.6794 43.4572 24.4018 43.261 24.1043C43.038 23.7662 42.8358 23.4149 42.5956 23.0895C42.1062 22.4261 41.6174 21.7662 41.1424 21.0905C40.7364 20.5129 40.3261 19.9659 39.808 19.498C39.2876 19.0281 38.7082 18.6429 38.1367 18.2495C37.8382 18.044 37.3141 17.5189 36.9368 17.5726C36.5708 17.6247 36.4261 18.3551 36.3346 18.6621C36.2297 19.0143 36.1927 19.5055 35.9482 19.7828C35.589 20.1904 35.2159 19.5484 35.0445 19.2525C34.7305 18.7106 34.4092 18.1735 34.0957 17.631C33.9529 17.3837 33.7465 17.1484 33.6617 16.8681C33.6607 16.8647 33.621 16.6236 33.6611 16.6573L33.6638 16.66L33.6611 16.6568C33.5715 16.5616 33.2402 16.5418 33.1164 16.5304L33.1051 16.5293C32.8445 16.5029 32.5809 16.5237 32.3211 16.5506ZM28.8218 31.7473C28.5217 31.7453 28.2225 31.7827 27.9238 31.8089C27.6614 31.8319 27.4209 31.7889 27.159 31.772C26.8349 31.7511 26.6746 31.7875 26.7493 32.1461C26.8035 32.407 26.8687 32.7545 27.1188 32.8648C27.4566 33.0138 27.9115 32.9937 28.2714 33.0502C28.5356 33.0916 28.7991 33.129 29.0622 33.1762C29.2369 33.2076 29.3266 33.2404 29.4084 33.0283C29.4768 32.8505 29.4328 32.613 29.4094 32.4293C29.3915 32.2884 29.4022 32.0406 29.3401 31.9152C29.2474 31.7281 29.0044 31.7485 28.8218 31.7473ZM42.8124 28.1716C43.2533 28.6034 43.55 29.1555 43.8829 29.679C44.0862 29.9987 44.4838 30.5083 44.1951 30.8958C43.949 31.2262 43.3769 31.1506 43.0328 31.1665C42.4919 31.1915 42.0502 31.4534 41.5355 31.5884C40.2392 31.9286 41.3158 29.5941 41.4953 29.1069C41.6213 28.7651 41.7513 28.4248 41.9037 28.0953C41.9724 27.9468 42.1096 27.5136 42.2805 27.4569C42.5282 27.3746 42.6556 28.018 42.8124 28.1716ZM31.6747 23.2631C31.4687 23.6851 31.4352 24.2691 31.3375 24.73C31.0389 26.1391 30.8643 27.5743 30.727 29.0105C31.4098 28.7204 32.1305 28.7003 32.8514 28.6293C33.3737 28.5778 33.8533 28.5189 34.3757 28.5428C34.4648 28.5468 34.7208 28.5953 34.7942 28.5142C34.8927 28.4053 34.7734 28.1016 34.7443 27.987C34.586 27.3651 34.5164 26.7223 34.3364 26.1042C34.153 25.4738 33.9299 24.8442 33.6927 24.2348C33.5191 23.789 33.2808 23.3543 32.8602 23.1357C32.492 22.9444 31.9032 22.795 31.6747 23.2631ZM28.8629 26.0057C29.1442 26.46 29.5005 26.8575 29.7752 27.3161C29.97 27.6414 30.1981 28.2432 29.7302 28.45C29.566 28.5225 29.3721 28.4911 29.2 28.4944C28.9339 28.4993 28.6703 28.5238 28.4037 28.517C28.1516 28.5105 27.9018 28.4778 27.6503 28.4637C27.4918 28.4549 27.2927 28.4679 27.1531 28.3704C26.7788 28.1088 27.0494 27.5747 27.17 27.2329C27.298 26.8699 27.4708 26.5266 27.6376 26.1826C27.7533 25.944 27.9262 25.4578 28.1892 25.3605C28.5007 25.2453 28.7331 25.7961 28.8629 26.0057ZM42.5035 20.8574C43.1217 21.6276 43.6585 22.4678 44.1641 23.3259C44.4108 23.7447 44.6503 24.1683 44.8895 24.5921C45.046 24.8694 45.1635 25.224 45.3541 25.4752C45.7891 26.048 45.91 24.7981 45.9741 24.5265C46.2106 23.5247 46.5034 22.531 46.7639 21.5354L46.4969 21.5354C45.4327 21.5348 44.4125 21.5179 43.3764 21.182C43.0831 21.087 42.8156 20.8806 42.5035 20.8574ZM40.2558 21.0516C40.5924 21.318 42.7472 22.8819 41.8408 23.4853C41.6532 23.6102 41.3467 23.5536 41.1348 23.5715C40.8631 23.5945 40.5872 23.6226 40.3189 23.6741C39.9715 23.741 39.634 23.8574 39.285 23.9165C39.0075 23.9634 38.6398 24.0182 38.3919 23.8331C37.983 23.5276 38.2312 22.9278 38.3662 22.5395C38.5582 21.9878 38.7399 21.2492 39.2161 20.9206C39.3269 20.8441 39.4626 20.5711 39.5818 20.5461C39.7685 20.5069 40.1192 20.9436 40.2558 21.0516ZM52.1439 8.07905C51.9814 8.21223 51.974 8.48884 51.9318 8.68406C51.7901 9.34075 51.5923 9.97998 51.4749 10.6437C51.3605 11.291 51.3245 11.9283 51.3807 12.5843C51.4182 13.0218 51.4225 13.5602 51.6707 13.9328C51.9678 14.3786 52.5561 14.3558 53.001 14.4878C53.429 14.6149 53.8534 15.0084 53.3865 15.4174C53.2206 15.5627 53.0027 15.5864 52.8387 15.7263C52.6364 15.8991 52.5202 16.2087 52.4342 16.4619C52.3634 16.6703 52.3655 16.7102 52.5769 16.7838C52.6735 16.8174 52.7711 16.8388 52.8727 16.8297C53.1041 16.8091 53.3105 16.6454 53.5042 16.5224C53.9983 16.2087 54.5689 15.7899 55.1588 15.7425C55.3474 15.7274 55.5617 15.8101 55.7451 15.7445C55.9159 15.6832 55.8635 15.6458 55.8931 15.4755C56.0107 14.8008 56.0584 14.1385 56.3795 13.5281C56.538 13.2269 56.957 12.6108 57.2378 13.0797C57.3551 13.2756 57.3975 13.3712 57.6577 13.3111C57.8694 13.2623 58.102 13.0829 58.06 12.8209C58.0204 12.5738 57.7171 12.4055 57.5332 12.2972C57.2883 12.153 57.1166 12.1696 56.85 12.1355C56.1173 12.0416 56.631 10.8935 56.7366 10.4627C56.803 10.192 56.8806 9.84201 56.7064 9.59754C56.4411 9.22569 55.8632 9.34795 55.4992 9.4007C54.9957 9.47366 54.4461 9.51253 53.975 9.26772C53.4765 9.00877 53.264 8.42471 52.7966 8.14076C52.6239 8.0358 52.3213 7.93341 52.1439 8.07905ZM54.3315 12.8221C54.6778 12.8171 54.5095 13.3462 54.4146 13.5241C54.2148 13.8994 53.7868 14.0445 53.411 13.9061C53.1138 13.7966 52.7922 13.3131 53.2578 13.2329C53.4811 13.1945 53.7021 13.2102 53.9137 13.0964C54.0342 13.0316 54.19 12.8241 54.3315 12.8221ZM53.4625 10.0082C53.6777 10.1482 53.3104 11.0423 53.2485 11.2232C53.1478 11.5186 53.0581 11.7092 53.3144 11.9368C53.4926 12.0951 53.8441 12.2318 53.6763 12.5472C53.521 12.8391 52.9881 12.7167 52.7714 12.5739C52.4565 12.3662 52.5493 11.9684 52.6188 11.642C52.6642 11.4281 53.0793 9.75897 53.4625 10.0082ZM19.5731 4.13782C20.2368 4.44157 20.9155 4.71595 21.6178 4.89899C22.2315 5.05898 22.835 5.2315 23.4675 5.19391C24.0526 5.15922 24.1224 5.77515 23.7882 6.2017C23.6066 6.43344 23.3959 6.42765 23.1313 6.43661C22.8215 6.44712 22.5401 6.53921 22.2414 6.62166C21.7863 6.74723 21.3256 6.85387 20.8847 7.03111C20.6572 7.12259 20.4326 7.23018 20.2297 7.37474C20.1021 7.46569 19.8174 7.62952 19.968 7.75657C20.1857 7.94014 20.8318 7.68867 21.0908 7.6721C21.694 7.63356 22.2959 7.57522 22.8957 7.49432C23.1894 7.45464 23.5048 7.41543 23.783 7.30111C23.9651 7.22634 24.1666 7.04068 24.3727 7.08783C24.8075 7.18733 24.592 7.88578 24.3946 8.113C24.1014 8.45044 23.6563 8.59945 23.2777 8.79118C23.0129 8.92523 22.7499 9.06717 22.4928 9.2172C22.3714 9.28807 21.8056 9.55355 21.8235 9.75511C21.8423 9.96698 22.2889 9.86014 22.3994 9.84087C23.1367 9.7124 23.802 9.40697 24.4831 9.09439C24.7813 8.95757 25.0837 8.82627 25.3756 8.67457C25.5795 8.56853 25.7799 8.40699 26.0052 8.35882C26.5364 8.24518 26.5131 8.88077 26.7222 9.22414C27.3438 10.2446 28.5448 10.6799 29.4792 11.2696C29.8327 11.4927 30.1699 11.7495 30.4943 12.0183C30.726 12.2101 30.8186 12.4742 31.0773 12.2212C31.2929 12.0102 31.3969 11.7009 31.5351 11.4327C31.696 11.1203 31.9109 10.8446 32.0758 10.5349C32.3195 10.0773 32.3925 9.64079 31.8573 9.47238C31.2955 9.29561 30.8508 9.03201 30.3733 8.65591C29.2014 7.73286 28.229 6.55416 27.0604 5.62404C25.9779 4.7623 24.8299 3.95364 23.4728 3.72224C22.1865 3.50283 20.7752 3.55686 19.5731 4.13782ZM54.6832 10.7661C54.6557 11.0202 54.5973 11.5622 54.2678 11.5825C53.8677 11.6071 54.1364 10.3047 54.3631 10.1581C54.726 9.92338 54.7064 10.5508 54.6832 10.7661ZM50.9599 10.6624C50.4605 10.7067 50.3181 11.2929 50.8173 11.5004L50.9599 10.6624ZM52.8119 10.148C52.7478 10.414 52.7706 10.8409 52.5714 11.0451C52.2905 11.3328 52.1682 10.9105 52.1703 10.6698C52.1723 10.4316 52.2824 9.83598 52.5799 9.80459C52.834 9.77778 52.6225 10.0935 52.8119 10.148ZM58.2023 4.2293C58.0197 4.63639 58.216 5.03816 58.3253 5.43832C58.1011 5.51572 57.7991 5.45718 57.6622 5.71101C57.5759 5.87101 57.5909 6.11191 57.6168 6.28517C57.638 6.42731 57.7467 6.6187 57.6562 6.7506C57.5377 6.92326 57.2435 6.84343 57.1128 7.03549C56.9141 7.32759 57.0256 7.99478 57.3044 8.21466C57.6962 8.52353 57.4624 7.76553 57.4384 7.6275C57.3783 7.28171 57.7127 7.32873 57.941 7.18908C58.0636 7.11417 58.0855 7.09969 58.1136 6.93976C58.1395 6.79243 58.1258 6.67556 58.093 6.51677C57.9818 5.97805 58.1762 6.06603 58.5756 5.94733C58.9202 5.84487 58.8926 5.54987 58.8051 5.23979C58.7364 4.99673 58.5317 4.598 58.7534 4.39078C58.8414 4.30853 58.975 4.36053 58.994 4.18888C59.0068 4.07302 58.8617 3.88304 58.7855 3.81642C58.5229 3.5867 58.309 3.99123 58.2023 4.2293Z" fill="#39383B"/>
</svg>
