<svg width="264" height="264" viewBox="0 0 264 264" fill="none" xmlns="http://www.w3.org/2000/svg">
<path d="M248.523 101.441C244.398 96.6071 240.499 92.039 238.734 87.7931C236.833 83.2089 236.309 76.9972 235.745 70.4231C234.819 59.4821 233.763 47.083 225.336 38.6638C216.917 30.2366 204.518 29.1812 193.585 28.2547C187.003 27.6907 180.791 27.167 176.207 25.2656C171.961 23.5012 167.393 19.6018 162.559 15.4768C154.059 8.22583 144.431 0 132 0C119.569 0 109.941 8.22583 101.441 15.4768C96.6071 19.6018 92.039 23.5012 87.7931 25.2656C83.2089 27.167 76.9972 27.6907 70.4231 28.2547C59.4821 29.1812 47.083 30.2366 38.6638 38.6638C30.2366 47.083 29.1812 59.4822 28.2547 70.4151C27.6907 76.9974 27.167 83.2091 25.2656 87.7933C23.5012 92.0391 19.6018 96.6073 15.4768 101.441C8.22583 109.941 0 119.569 0 132C0 144.431 8.22583 154.059 15.4768 162.559C19.6018 167.393 23.5012 171.961 25.2656 176.207C27.167 180.791 27.6907 187.003 28.2547 193.577C29.1812 204.518 30.2366 216.917 38.6638 225.336C47.083 233.763 59.4822 234.819 70.4151 235.745C76.9974 236.309 83.2091 236.833 87.7933 238.734C92.0391 240.499 96.6073 244.398 101.441 248.523C109.941 255.774 119.569 264 132 264C144.431 264 154.059 255.774 162.559 248.523C167.393 244.398 171.961 240.499 176.207 238.734C180.791 236.833 187.003 236.309 193.577 235.745C204.518 234.819 216.917 233.763 225.336 225.336C233.763 216.917 234.819 204.518 235.745 193.585C236.309 187.003 236.833 180.791 238.734 176.207C240.499 171.961 244.398 167.393 248.523 162.559C255.774 154.059 264 144.431 264 132C264 119.569 255.774 109.941 248.523 101.441ZM235.971 151.843C231.193 157.443 226.255 163.228 223.491 169.89C220.615 176.843 219.946 184.642 219.31 192.183C218.552 201.094 217.835 209.513 213.67 213.67C209.513 217.835 201.094 218.544 192.183 219.31C184.642 219.946 176.843 220.615 169.89 223.491C163.227 226.255 157.443 231.193 151.843 235.971C144.899 241.901 138.34 247.5 132 247.5C125.659 247.5 119.101 241.901 112.156 235.971C106.557 231.193 100.772 226.255 94.1094 223.491C87.1565 220.615 79.3577 219.946 71.8167 219.31C62.906 218.553 54.4869 217.835 50.3296 213.67C46.1643 209.513 45.4553 201.094 44.6899 192.183C44.0534 184.642 43.3847 176.843 40.5085 169.89C37.7451 163.228 32.8064 157.443 28.0288 151.843C22.0991 144.899 16.4997 138.341 16.4997 132C16.4997 125.659 22.0991 119.101 28.0288 112.156C32.8064 106.557 37.7451 100.772 40.5085 94.1095C43.3847 87.1566 44.0534 79.3577 44.6899 71.8168C45.4472 62.9061 46.1643 54.487 50.3296 50.3296C54.4868 46.1644 62.9059 45.4554 71.8167 44.69C79.3577 44.0535 87.1566 43.3848 94.1094 40.5086C100.772 37.7452 106.557 32.8064 112.156 28.0288C119.101 22.0991 125.659 16.4998 132 16.4998C138.34 16.4998 144.899 22.0991 151.843 28.0288C157.443 32.8064 163.227 37.7451 169.89 40.5086C176.843 43.3848 184.642 44.0535 192.183 44.69C201.094 45.4473 209.513 46.1644 213.67 50.3296C217.835 54.4869 218.544 62.9061 219.31 71.8168C219.946 79.3578 220.615 87.1566 223.491 94.1095C226.255 100.772 231.193 106.557 235.971 112.156C241.901 119.101 247.5 125.659 247.5 132C247.5 138.34 241.901 144.899 235.971 151.843Z" fill="#CEE5FF"/>
<path d="M190.648 73.0926C180.337 62.7779 163.321 63.8721 154.404 75.3416L129.283 107.515C114.859 99.439 100.189 98.6585 90.6726 105.452C89.6782 106.161 88.7408 106.952 87.864 107.829L72.7412 122.952C69.3659 126.327 67.1847 130.615 66.2544 135.548C64.3511 152.478 73.1939 171.927 90.5407 185.143C99.8468 192.232 110.229 196.484 120.298 197.931C127.879 198.398 135.271 196.524 140.792 191.003L155.915 175.88C165.171 166.627 165.15 150.392 156.232 134.461L158.267 132.871L188.399 109.344C199.868 100.416 200.962 83.4038 190.648 73.0926ZM115.985 186.515C107.667 184.594 99.0199 179.476 91.642 172.095C84.2642 164.717 79.1425 156.07 77.2214 147.751C74.1776 134.557 80.8141 130.209 81.0457 129.767C82.1043 140.263 87.782 153.115 99.2052 164.535C108.49 173.82 121.068 181.39 133.974 182.691C133.525 182.926 129.144 189.552 115.985 186.515ZM148.348 168.317C145.703 170.961 141.933 172.212 137.552 172.212C128.353 172.212 116.481 166.695 106.761 156.975C99.3834 149.598 94.2617 140.951 92.3406 132.632C90.6298 125.212 91.7204 119.088 95.42 115.389C100.877 109.932 111.584 110.342 122.604 116.059L112.553 128.672V130.511C112.553 141.796 121.938 151.18 133.222 151.18H135.061L147.674 141.129C153.395 152.153 153.805 162.86 148.348 168.317ZM181.819 100.907L151.666 124.452L131.571 140.142C127.508 139.443 124.293 136.228 123.595 132.165L138.336 113.286L162.836 81.9068C167.823 75.4949 177.328 74.8854 183.088 80.6451C188.837 86.4013 188.253 95.9034 181.819 100.907Z" fill="#39383B"/>
<path d="M151.666 124.452L181.819 100.907C188.252 95.9033 188.837 86.4012 183.088 80.645C177.328 74.8853 167.823 75.4948 162.836 81.9067L138.336 113.286L123.595 132.165C124.293 136.228 127.508 139.443 131.571 140.142L151.666 124.452Z" fill="#3292FF"/>
</svg>
