<svg width="20" height="24" viewBox="0 0 20 24" fill="none" xmlns="http://www.w3.org/2000/svg">
<path d="M11.0153 1.81649C11.8801 0.801394 13.3428 0.0487805 14.5491 0C14.7032 1.40612 14.1364 2.81611 13.3002 3.83043C12.4609 4.84398 11.088 5.63299 9.74 5.52846C9.55881 4.15176 10.2379 2.71467 11.0153 1.81649ZM17.8809 21.0182C16.8798 22.4808 15.8422 23.9381 14.2077 23.9675C12.6002 23.9977 12.083 23.0151 10.2472 23.0151C8.40976 23.0151 7.83523 23.9388 6.31375 23.9985C4.73651 24.0573 3.53481 22.4212 2.5259 20.9632C0.462409 17.9837 -1.11173 12.5428 1.00519 8.86953C2.05358 7.04375 3.93202 5.8916 5.96919 5.85985C7.52087 5.83121 8.98351 6.90515 9.9297 6.90515C10.8782 6.90515 12.656 5.61518 14.5259 5.80565C15.3079 5.8374 17.5038 6.12002 18.9146 8.18351C18.8016 8.25474 16.2921 9.71429 16.3223 12.7534C16.3556 16.3841 19.5069 17.5896 19.5433 17.6082C19.5139 17.6903 19.0377 19.3279 17.8809 21.0182Z" fill="black"/>
</svg>
