<svg width="24" height="24" viewBox="0 0 24 24" fill="none" xmlns="http://www.w3.org/2000/svg">
<path opacity="0.5" fill-rule="evenodd" clip-rule="evenodd" d="M18.7069 4.21542C18.9961 3.93023 19.4605 3.92616 19.7456 4.21542C20.0307 4.50468 20.0307 4.96913 19.7456 5.25432L5.245 19.7541C5.10244 19.8967 4.91508 19.97 4.72771 19.97C4.54034 19.97 4.35297 19.8967 4.21041 19.7541C3.92529 19.4648 3.92529 19.0004 4.21041 18.7152L6.50362 16.4215C5.01283 15.4926 3.55463 14.1603 2.16159 12.4492C1.95386 12.1885 1.94571 11.8218 2.14122 11.5529C2.20232 11.4673 3.68904 9.4588 6.13704 7.86175C9.42411 5.71469 12.87 5.35617 16.1001 6.82285L18.7069 4.21542ZM9.55038 9.54843C10.7112 8.38731 12.5075 8.23249 13.8395 9.08806L14.984 7.94323C12.3527 6.93693 9.65221 7.31989 6.93946 9.08806C5.37127 10.1107 4.2267 11.337 3.68497 11.9725C4.95173 13.4514 6.25516 14.584 7.57895 15.35L9.09011 13.8385C8.73574 13.2885 8.5443 12.6488 8.5443 11.9807C8.5443 11.064 8.89867 10.2003 9.55038 9.54843ZM18.6905 8.41186C19.7496 9.23891 20.7923 10.2819 21.7984 11.5204C22.0061 11.7812 22.0143 12.1478 21.8188 12.4167C21.8174 12.4186 21.8151 12.4215 21.812 12.4256C21.6998 12.5743 20.485 14.1842 18.4869 15.6475C17.269 16.5356 16.0104 17.1875 14.7436 17.5827C13.7783 17.8842 12.8088 18.0349 11.8476 18.0349C11.2081 18.0349 10.5727 17.9697 9.94131 17.8353C9.54621 17.7538 9.28959 17.3627 9.37513 16.9675C9.4566 16.5723 9.84762 16.3156 10.2427 16.4012C12.6663 16.9145 15.1387 16.2708 17.5867 14.4904C18.8575 13.5656 19.7944 12.5552 20.275 11.993C19.4604 11.0397 18.6213 10.2248 17.7822 9.56891C17.4645 9.31632 17.4075 8.85594 17.656 8.53816C17.9085 8.22038 18.3688 8.16334 18.6905 8.41186Z" fill="#A7C8FB"/>
</svg>
