<svg width="24" height="24" viewBox="0 0 24 24" fill="none" xmlns="http://www.w3.org/2000/svg">
<path opacity="0.5" fill-rule="evenodd" clip-rule="evenodd" d="M12.1334 6C15.5538 6 18.815 7.88625 21.8354 11.6016C22.0436 11.8629 22.0517 12.2304 21.8558 12.4998C21.815 12.557 20.8027 13.9288 19.0844 15.3047C18.068 16.1172 17.0109 16.7663 15.9456 17.2359C14.5905 17.8279 13.2191 18.13 11.864 18.13C8.44356 18.13 5.17825 16.2478 2.16192 12.5284C1.95376 12.2671 1.9456 11.8996 2.14152 11.6302C2.18233 11.573 3.19458 10.2012 4.91294 8.8253C5.92927 8.01282 6.98641 7.36366 8.05172 6.89413C9.40682 6.30213 10.7783 6 12.1334 6ZM11.864 16.6602C14.4762 16.6602 16.7129 15.3129 18.1334 14.1819C19.1456 13.3776 19.9007 12.5611 20.3129 12.0752C17.7007 9.02127 14.9497 7.47389 12.1293 7.47389C9.51703 7.47389 7.28029 8.82121 5.85988 9.95215C4.84764 10.7605 4.09254 11.573 3.68029 12.0589C6.29254 15.1128 9.04356 16.6602 11.864 16.6602ZM8.57014 11.858C8.43357 13.9324 10.1469 15.6404 12.2204 15.5099C13.9276 15.4043 15.3181 14.0193 15.4299 12.2989C15.5664 10.2245 13.8531 8.51655 11.7796 8.64697C10.0662 8.75877 8.67567 10.1438 8.57014 11.858Z" fill="#A7C8FB"/>
</svg>
