<svg width="52" height="59" viewBox="0 0 52 59" fill="none" xmlns="http://www.w3.org/2000/svg">
<path d="M37.4807 15.8735H47.3813C49.7541 15.8735 51.7178 17.7555 51.7178 20.2101V35.1018H28.153V17.7555C27.3348 17.51 26.5984 17.1827 26.1074 16.6918C26.0256 16.6918 26.0256 16.6099 25.9438 16.6099C25.9438 16.6099 25.9438 16.6918 25.862 16.6918C25.2892 17.1827 24.6346 17.51 23.8982 17.7555V35.1018H0.333374V20.2101C0.333374 17.7555 2.21529 15.8735 4.58814 15.8735H14.5705C13.425 15.3008 12.3613 14.4826 11.4612 13.7462C7.53375 9.98233 6.79734 4.7457 9.9066 1.80009C11.2158 0.654579 12.934 0 14.8159 0C17.5161 0 20.298 1.06369 22.6709 3.2729C23.9801 4.50023 25.2074 6.2185 25.9438 7.85495C26.762 6.2185 27.9893 4.50023 29.2985 3.2729C31.5895 1.06369 34.5351 0 37.1535 0C39.1172 0 40.8355 0.654579 42.0628 1.80009C45.1721 4.7457 44.4357 9.98233 40.4264 13.7462C39.6081 14.4826 38.5444 15.3008 37.4807 15.8735ZM22.9164 13.5007C23.2436 12.7643 22.4254 9.00047 19.7253 6.46397C18.3343 5.15481 16.4524 4.41841 14.8159 4.41841C14.325 4.41841 13.5068 4.50023 12.934 4.99117C12.7704 5.15481 12.2794 5.4821 12.2794 6.38215C12.2794 7.44584 12.934 9.08229 14.4887 10.4733C16.4524 12.3552 19.5616 13.6643 21.8527 13.6643C22.5891 13.6643 22.9164 13.5007 22.9164 13.5007ZM29.1349 13.5007C29.1349 13.5007 29.544 13.6643 30.1986 13.6643C32.4896 13.6643 35.5988 12.3552 37.5626 10.4733C39.1172 9.08229 39.6081 7.44584 39.6081 6.38215C39.6081 5.4821 39.199 5.15481 39.1172 4.99117C38.5444 4.50023 37.6444 4.41841 37.1535 4.41841C35.5988 4.41841 33.6351 5.15481 32.2441 6.46397C29.6258 9.00047 28.7257 12.6825 29.1349 13.5825V13.5007ZM23.8982 58.6667H4.58814C2.21529 58.6667 0.333374 56.7848 0.333374 54.4119V39.4384H23.8982V58.6667ZM47.3813 58.6667H28.153V39.4384H51.7178V54.4119C51.7178 56.7848 49.7541 58.6667 47.3813 58.6667Z" fill="#CEE5FF"/>
</svg>
