<svg width="10" height="10" viewBox="0 0 10 10" fill="none" xmlns="http://www.w3.org/2000/svg">
<path d="M8.30005 4.39995H7.85005V3.04995C7.85005 1.4787 6.5713 0.199951 5.00005 0.199951C3.4288 0.199951 2.15005 1.4787 2.15005 3.04995V4.39995H1.70005C1.20317 4.39995 0.800049 4.80308 0.800049 5.29995V8.89995C0.800049 9.39683 1.20317 9.79995 1.70005 9.79995H8.30005C8.79692 9.79995 9.20005 9.39683 9.20005 8.89995V5.29995C9.20005 4.80308 8.79692 4.39995 8.30005 4.39995ZM6.35005 4.39995H3.65005V3.04995C3.65005 2.30558 4.25567 1.69995 5.00005 1.69995C5.74442 1.69995 6.35005 2.30558 6.35005 3.04995V4.39995Z" fill="#3292FF"/>
</svg>
