<svg width="8" height="10" viewBox="0 0 8 10" fill="none" xmlns="http://www.w3.org/2000/svg">
<path d="M7.31765 5.18226C7.19609 5.06069 7.04857 5.00001 6.87488 5.00001H2.08326V2.9167C2.08326 2.45655 2.24606 2.06381 2.5716 1.73827C2.89716 1.4128 3.28992 1.25003 3.75003 1.25003C4.21008 1.25003 4.60292 1.41278 4.92834 1.73827C5.2539 2.06381 5.4167 2.45658 5.4167 2.9167C5.4167 3.02951 5.4579 3.12715 5.54029 3.20961C5.62286 3.29209 5.72055 3.33334 5.83325 3.33334H6.25011C6.36288 3.33334 6.46052 3.29209 6.54309 3.20961C6.62532 3.12715 6.66668 3.02951 6.66668 2.9167C6.66668 2.11366 6.3813 1.42694 5.81063 0.85615C5.23986 0.285338 4.55295 0 3.75003 0C2.94703 0 2.2602 0.285338 1.68938 0.856127C1.11866 1.42685 0.833301 2.11364 0.833301 2.91668V4.99999H0.624993C0.451437 4.99999 0.303831 5.06081 0.18229 5.18223C0.060748 5.30366 0 5.45131 0 5.62494V9.37498C0 9.54868 0.0607708 9.69626 0.18229 9.81776C0.303831 9.93918 0.451437 9.99998 0.624993 9.99998H6.87488C7.04857 9.99998 7.19622 9.93918 7.31765 9.81776C7.43908 9.69626 7.49994 9.54868 7.49994 9.37498V5.62496C7.50003 5.45133 7.43924 5.30384 7.31765 5.18226Z" fill="#07CF5F"/>
</svg>
