<svg width="24" height="24" viewBox="0 0 24 24" fill="none" xmlns="http://www.w3.org/2000/svg">
<path d="M0.72 7.68H2.4C2.532 7.68 2.64 7.572 2.64 7.44V2.16H7.92C8.052 2.16 8.16 2.052 8.16 1.92V0.24C8.16 0.108 8.052 0 7.92 0H2.52C1.392 0 0.48 0.912 0.48 2.04V7.44C0.48 7.572 0.588 7.68 0.72 7.68ZM16.08 2.16H21.36V7.44C21.36 7.572 21.468 7.68 21.6 7.68H23.28C23.412 7.68 23.52 7.572 23.52 7.44V2.04C23.52 0.912 22.608 0 21.48 0H16.08C15.948 0 15.84 0.108 15.84 0.24V1.92C15.84 2.052 15.948 2.16 16.08 2.16ZM7.92 20.88H2.64V15.6C2.64 15.468 2.532 15.36 2.4 15.36H0.72C0.588 15.36 0.48 15.468 0.48 15.6V21C0.48 22.128 1.392 23.04 2.52 23.04H7.92C8.052 23.04 8.16 22.932 8.16 22.8V21.12C8.16 20.988 8.052 20.88 7.92 20.88ZM23.28 15.36H21.6C21.468 15.36 21.36 15.468 21.36 15.6V20.88H16.08C15.948 20.88 15.84 20.988 15.84 21.12V22.8C15.84 22.932 15.948 23.04 16.08 23.04H21.48C22.608 23.04 23.52 22.128 23.52 21V15.6C23.52 15.468 23.412 15.36 23.28 15.36ZM23.76 10.44H0.24C0.108 10.44 0 10.548 0 10.68V12.36C0 12.492 0.108 12.6 0.24 12.6H23.76C23.892 12.6 24 12.492 24 12.36V10.68C24 10.548 23.892 10.44 23.76 10.44Z" fill="white"/>
</svg>
