<svg width="16" height="16" viewBox="0 0 16 16" fill="none" xmlns="http://www.w3.org/2000/svg">
<path fill-rule="evenodd" clip-rule="evenodd" d="M2.66667 7.3335C3.03486 7.3335 3.33333 7.63197 3.33333 8.00016V13.3335C3.33333 13.5103 3.40357 13.6799 3.5286 13.8049C3.65362 13.9299 3.82319 14.0002 4 14.0002H12C12.1768 14.0002 12.3464 13.9299 12.4714 13.8049C12.5964 13.6799 12.6667 13.5103 12.6667 13.3335V8.00016C12.6667 7.63197 12.9651 7.3335 13.3333 7.3335C13.7015 7.3335 14 7.63197 14 8.00016V13.3335C14 13.8639 13.7893 14.3726 13.4142 14.7477C13.0391 15.1228 12.5304 15.3335 12 15.3335H4C3.46957 15.3335 2.96086 15.1228 2.58579 14.7477C2.21071 14.3726 2 13.8639 2 13.3335V8.00016C2 7.63197 2.29848 7.3335 2.66667 7.3335Z" fill="#A7C8FB"/>
<path fill-rule="evenodd" clip-rule="evenodd" d="M7.52856 0.86201C7.78891 0.601661 8.21102 0.601661 8.47136 0.86201L11.138 3.52868C11.3984 3.78903 11.3984 4.21114 11.138 4.47149C10.8777 4.73183 10.4556 4.73183 10.1952 4.47149L7.99996 2.27622L5.8047 4.47149C5.54435 4.73183 5.12224 4.73183 4.86189 4.47149C4.60154 4.21114 4.60154 3.78903 4.86189 3.52868L7.52856 0.86201Z" fill="#A7C8FB"/>
<path fill-rule="evenodd" clip-rule="evenodd" d="M8.00004 0.666748C8.36823 0.666748 8.66671 0.965225 8.66671 1.33341V10.0001C8.66671 10.3683 8.36823 10.6667 8.00004 10.6667C7.63185 10.6667 7.33337 10.3683 7.33337 10.0001V1.33341C7.33337 0.965225 7.63185 0.666748 8.00004 0.666748Z" fill="#A7C8FB"/>
</svg>
