<svg width="32" height="32" viewBox="0 0 32 32" fill="none" xmlns="http://www.w3.org/2000/svg">
<g filter="url(#filter0_d)">
<path d="M16 4C9.37321 4 4 9.37321 4 16C4 22.6268 9.37321 28 16 28C22.6268 28 28 22.6268 28 16C28 9.37321 22.6268 4 16 4ZM16.8571 21.7857C16.8571 21.9036 16.7607 22 16.6429 22H15.3571C15.2393 22 15.1429 21.9036 15.1429 21.7857V14.5C15.1429 14.3821 15.2393 14.2857 15.3571 14.2857H16.6429C16.7607 14.2857 16.8571 14.3821 16.8571 14.5V21.7857ZM16 12.5714C15.6636 12.5646 15.3432 12.4261 15.1077 12.1857C14.8722 11.9453 14.7403 11.6222 14.7403 11.2857C14.7403 10.9492 14.8722 10.6261 15.1077 10.3857C15.3432 10.1453 15.6636 10.0069 16 10C16.3364 10.0069 16.6568 10.1453 16.8923 10.3857C17.1278 10.6261 17.2597 10.9492 17.2597 11.2857C17.2597 11.6222 17.1278 11.9453 16.8923 12.1857C16.6568 12.4261 16.3364 12.5646 16 12.5714Z" fill="white"/>
</g>
<defs>
<filter id="filter0_d" x="0" y="0" width="32" height="32" filterUnits="userSpaceOnUse" color-interpolation-filters="sRGB">
<feFlood flood-opacity="0" result="BackgroundImageFix"/>
<feColorMatrix in="SourceAlpha" type="matrix" values="0 0 0 0 0 0 0 0 0 0 0 0 0 0 0 0 0 0 127 0"/>
<feOffset/>
<feGaussianBlur stdDeviation="2"/>
<feColorMatrix type="matrix" values="0 0 0 0 0.196078 0 0 0 0 0.572549 0 0 0 0 1 0 0 0 0.15 0"/>
<feBlend mode="normal" in2="BackgroundImageFix" result="effect1_dropShadow"/>
<feBlend mode="normal" in="SourceGraphic" in2="effect1_dropShadow" result="shape"/>
</filter>
</defs>
</svg>
