<?xml version="1.0" standalone="no"?>
<!DOCTYPE svg PUBLIC "-//W3C//DTD SVG 20010904//EN"
 "http://www.w3.org/TR/2001/REC-SVG-20010904/DTD/svg10.dtd">
<svg version="1.0" xmlns="http://www.w3.org/2000/svg"
 width="1088.000000pt" height="1088.000000pt" viewBox="0 0 1088.000000 1088.000000"
 preserveAspectRatio="xMidYMid meet">
<metadata>
Created by potrace 1.11, written by Peter Selinger 2001-2013
</metadata>
<g transform="translate(0.000000,1088.000000) scale(0.100000,-0.100000)"
fill="#000000" stroke="none">
<path d="M3684 9599 c-76 -81 -251 -189 -384 -237 -381 -138 -847 -47 -1128
222 l-42 41 -1065 -1065 c-586 -586 -1065 -1070 -1065 -1076 0 -5 16 -25 35
-44 41 -40 131 -171 169 -248 86 -171 121 -342 113 -545 -10 -257 -86 -460
-246 -660 -39 -48 -71 -91 -71 -95 0 -4 1044 -1051 2319 -2326 l2319 -2319 56
50 c135 124 308 211 511 259 123 29 348 27 480 -5 179 -42 378 -142 497 -250
l60 -54 1059 1059 c582 582 1059 1061 1059 1064 0 3 568 573 1262 1267 l1261
1261 -50 56 c-138 151 -232 348 -269 560 -24 141 -16 335 20 471 33 129 127
318 201 405 30 36 62 75 71 88 l17 24 -1059 1059 c-582 582 -1064 1059 -1070
1059 -6 0 -19 -9 -30 -21 -64 -71 -257 -189 -379 -233 -236 -84 -514 -88 -744
-10 -141 48 -326 158 -400 238 -14 14 -29 26 -35 25 -6 0 -396 -382 -866 -849
l-855 -849 -855 854 c-470 470 -858 855 -861 855 -3 0 -18 -14 -35 -31z m2907
-2826 c13 -16 12 -17 -3 -4 -10 7 -18 15 -18 17 0 8 8 3 21 -13z m904 -903
c484 -484 878 -880 875 -880 -3 0 -401 396 -885 880 -484 484 -878 880 -875
880 3 0 401 -396 885 -880z"/>
</g>
</svg>
